<?xml version="1.0" encoding="utf-8"?>
<!-- Generator: Adobe Illustrator 24.0.3, SVG Export Plug-In . SVG Version: 6.00 Build 0)  -->
<svg version="1.1" id="Layer_1" xmlns="http://www.w3.org/2000/svg" xmlns:xlink="http://www.w3.org/1999/xlink" x="0px" y="0px"
	 viewBox="0 0 45 28.5" style="enable-background:new 0 0 45 28.5;" xml:space="preserve">
<title>NAM3354</title>
<g id="Layer_2_1_">
	<g id="Layer_1-2">
		<path id="NAM3354" style="fill:#EFEFEF;" d="M44.9,9.1l0.1,5.6l-0.3,0v10.8l0,2.7l-26.2,0.3l0-6L2.9,21.7l-2.8-0.2L0,6V0h6.7
			l0.1,0l0.1,0.2l0.2,0.1L7.3,1l0,0.2l0,0l0.4,0.1l0.5,1l0,0.2l0.2,0.1l0.8,0.7l0,0.1l0.1,0.3l0.1,0.2l0.1,0.1l0.3,0.1l0.1,0.1
			L11,5.1l0.3,0.4l0.2,0.2L12,5.8l1.3,0.7l2,0.4l1.3-0.1l0.5-0.2l0.3-0.1h0.2l0.4,0.1l0.7,0L19,6.7l2.4,0.7l2.6,0l0.9-0.2l0.3,0
			l0.3,0.1l0.1,0.3l0.1,0.1L26,7.8l0.3,0.1l0.2,0l0.1-0.1l0.2-0.3L27,7.5h2.4l0.6,0.3L30.4,8l0.1,0l0.9-0.1h0.4l0.2,0l0.2-0.1
			l0.1,0.1l0.2-0.2L33,7.6l0.4,0l0.3,0.1l0.5-0.4l0.2,0.1l0.2,0l0.5-0.1l0.2,0.1l0.6,0.5l0.4-0.1L36.6,8L37,8.3l0.3,0.3l0.2,0.1
			L37.9,9l0.4,0.3l0.2,0.1l0.4-0.1l0.6,0l0.6,0.1l0.2,0.1l0.1,0.1l0.2,0.1l0.2,0L41,9.7l0.1-0.1l0.3,0.1l0.4,0.2l0.3,0.3l0.4,0
			L43,9.9l0.5-0.1l0.2-0.4L44.9,9.1L44.9,9.1z"/>
	</g>
</g>
</svg>
