<?xml version="1.0" encoding="utf-8"?>
<!-- Generator: Adobe Illustrator 24.0.3, SVG Export Plug-In . SVG Version: 6.00 Build 0)  -->
<svg version="1.1" id="Layer_1" xmlns="http://www.w3.org/2000/svg" xmlns:xlink="http://www.w3.org/1999/xlink" x="0px" y="0px"
	 viewBox="0 0 25.1 28.5" style="enable-background:new 0 0 25.1 28.5;" xml:space="preserve">
<path id="path30" style="fill:#EFEFEF;" d="M23.3,26.6c0.4,0,0.9-0.2,1.1-0.5s0.5-0.7,0.4-1.1c-0.1-0.3-0.2-0.9-0.1-1.2
	c0-0.2,0.1-1.2,0.1-1.4s-0.1-1.4-0.1-1.6s0-1.1,0-1.3c0-0.2,0.4-1.1,0.4-1.1l-3.4-6.9l2.9-2.6c0,0,0.1-0.5,0-0.6s-0.2-0.6-0.3-1l0,0
	l-0.8,0.2H21l-2.3-0.7l-0.2-0.2l-0.7,0.1l-0.4-0.1H17l-0.3,0.1l-0.5,0.2H15l-1.9-0.4l-1.3-0.7l-0.6-0.2L11,5.5l-0.3-0.4L9.9,4.2
	L9.7,4.1L9.5,3.9L9.3,3.8V3.6L9.2,3.4L9.1,3.2L8.4,2.6L8.2,2.5L8.1,2.3l-0.5-1L7.3,1.2H7.2V1L6.9,0.4L6.8,0.3H6.7V0.1V0H6.5H0v6
	l0.1,15.6l2.7,0.2L18,22.7v5.9h3.7c0.2-0.4,0.4-1,0.5-1.1C22.5,27.2,22.9,26.6,23.3,26.6L23.3,26.6z"/>
</svg>
