<?xml version="1.0" encoding="utf-8"?>
<!-- Generator: Adobe Illustrator 24.0.3, SVG Export Plug-In . SVG Version: 6.00 Build 0)  -->
<svg version="1.1" id="Layer_1" xmlns="http://www.w3.org/2000/svg" xmlns:xlink="http://www.w3.org/1999/xlink" x="0px" y="0px"
	 viewBox="0 0 41 37.3" style="enable-background:new 0 0 41 37.3;" xml:space="preserve">
<title>NAM3340</title>
<g id="Layer_2_1_">
	<g id="Layer_1-2">
		<path id="NAM3340" style="fill:#EFEFEF;" d="M40.1,28.8l-0.4-0.7l-0.3,0l-1,0.6L37,29.4l-0.1,0.1l0,0.1l0,0.3l0,0.2l-0.2,0.1
			L36,30.4l-1.1,0.5L34.6,31l-0.2,0l-0.3-0.1L34,30.8l-0.1,0l-0.6,0.3l-0.1,0L33,31l-0.5-0.7l-0.1-0.1l-0.1-0.1L31.4,30L28.6,30
			l-0.2,0.1l-0.1,0.2l0,0.1l-0.1,0l-0.1,0l-2.5,0l-0.1,0.1l-0.1-1.4l0-0.1l0-0.1l-0.1,0l-0.2-0.1l-0.1-0.1l-0.2-1v-0.2l0.1-0.1
			l0.5-0.2l0.1-0.1l0-0.1l-0.1-0.8v-0.2l0-0.1l0.1-0.1l0.5-0.5h0l-0.2,0l-0.8,0.2l-1,0.1l-1.3,0.2l-0.5-0.1l-0.2-0.4l0-0.7l-0.1-0.4
			L21.4,24l-0.2-0.1l-0.7-0.2h-0.6l-1,0.2L18,24.5l-0.7,0.3l-1.2,0.3l-0.7-0.2l-0.5,0L14.5,25l-0.3,0l-0.3-0.1l-0.3-0.2l-0.3-0.2
			l-0.2,0l-0.2,0.3l-1.7,3.4l-0.1,0.2l0.1,0.1l1,0.6l0.1,0.1l0,0.2l0.1,0.5V30l-0.1,0.1l-1.5,1.5l-0.1,0.1l-0.2,0h-1l-0.1,0l0-0.1
			l-0.1-0.8l0-0.1l-0.1-0.1l-0.2-0.1L9,30.5l-0.1,0.1l-0.7,1.4L7.9,33l0,0.2l0,0.1l0.1,0.1l1.3,0.3l0.1,0l0.2-0.1h0.2l1.1,0.3
			l0.1,0.1l0.1,0.1l0.1,0.1l0.1,0.4v0.1l0,0.1l-0.1,0.2L11.2,35l-0.1,0H11l-1.3-0.1l-0.5-0.1l-0.1,0L9,34.9l-0.6,0.6l-0.2,0.4l0.3,1
			l0.2,0.4l-0.8-0.2L7,36.4l-0.1-0.2l0-0.2l0.2-0.1l0.3,0l0.1-0.1l0.1-0.1l-0.1-0.3l0-0.2l0-0.2l0.2-0.3l0-0.1l-0.1,0l-0.9,0.5
			l-0.2,0.1H6.5L6,35.1l-0.1,0L4,35.7l-0.7,0l-0.2,0.1L3,36l-0.1,0.3l-0.1,0.1l-0.1,0l-1.1,0l-0.4,0L0.2,36l-0.2-0.4L0,35.1l0.1-1.3
			l1.2-0.1l0.3-0.3l0.1-0.6v-0.1l-0.2-0.6l0-0.1l0.2-2.3l0-0.2l0-0.1l-0.1-0.1l-1.1-0.5l-0.1-0.1l-0.1-0.1v-0.1l0-0.1l0.4-1l0.1-0.1
			l0.1-0.1L1,27l0.5-0.1l0.2-0.1v-0.2l-0.4-1.9l1.2-0.4l0.1-0.1l0.1-0.1l0-0.1l-0.7-0.8L2,23.1v-0.1l0-0.2L2.3,22l0-0.2v-0.2l0-0.4
			l-0.1-0.3l-0.1-0.2v-0.1l0.2-1.5L2.5,19l0.2-0.2l0.4-0.2l0.2-0.2l0.3,0l0.2,0h0.9l0.2,0l0.1-0.2l0-0.2v-1.8l0-0.1l-0.1,0l-0.1,0
			l-1.1,0l-0.1-0.1l0.3-0.3l1.2-1.2L5,14.1h0.2l0.9,0.3h0.2l0.2-0.1l0.2-0.1l0.4-0.4l0.2-0.3l0.5-0.4L8,12.9l0.2,0h0.2l0.2,0h0.2
			l0.2,0L9,12.7L9,12l0.1-0.3l0.1-0.3l0.7-0.5l0.6-0.3l1.2-0.3l0.2,0.1l0.2,0.1l0.1,0.1l0.1-0.1l0.1-0.1l0.2-0.3l0.1-0.1l0.1-0.1
			L13,10l0.3,0.2l0.2,0.1l0.3-0.1h0.1l0.4,0.1l0.4,0l0.2-0.1L15,10l-0.1-0.2l-0.1-0.1l-0.1,0l-0.5,0.1l-0.1,0L14,9.7l0-0.1l0-0.1
			l0.1-0.1l0.4-0.7l0.1-0.1l0.1-0.1h0.1l0.1,0l0.1,0.1l0.1,0.3L15.3,9l0.2,0.1l0.4,0l0.2,0.1l0.2,0.2l0.1,0l0.7-0.3h0.2l0.2-0.1
			L17.6,9l0.3-0.3l0.2-0.1l0.2-0.1l0.1,0.1l0.1,0.1l0.1,0.2L18.7,9h0.1l0.1-0.1l1-0.8L20,7.9l0.1-0.1L20.3,8l0.1,0.1l0.1,0.2
			l0.1,0.2l0.1,0.1l0.2,0l1.4-0.7l0.2-0.2l0.1-0.2V7l0-0.2l0.1-0.1l0.2-0.3L23,6.2l0.1-0.1l0.1,0.1l0.1,0.1l0.1,0.3l0.1,0.1l0.1,0.1
			l0.1,0l0.7-0.3l0.2-0.1l0.1-0.1l0-0.2l0-0.3l0-0.1l0.1,0l0.6,0.3l0.1,0L25.5,6l0.1-0.1l0.2-0.4V5.4l0-0.1l-0.3-0.9l0-0.1l0.1,0
			h0.3l0.2,0l0.2-0.1L26.2,4l0.1-0.1l0.1-0.1l0.1-0.3l0.1-0.2l0.2-0.1l0.5-0.3l0.1-0.1l0.2-0.4l0.1-0.2l0.2-0.1L28,2l0.7-0.2l0.2,0
			l0.1,0l0.1,0.1l0.2,0.2l0.1,0h0.1L30,2l0.7-0.1l0.4-0.2l0.2-0.1l0.3-0.3L32,0.8l0.7-0.3l0.6-0.1l0.3,0L35.3,0l0.1,0.9l-0.2,0.4
			l-0.4,0.4l-0.2,0.4l-0.1,0.2v0.1l0.1,0.2l0.2,0.2L35,3l0.2,0.3l0.1,0.1l0.1,0.1l0,0.1l0,0.3l-0.1,0.2l-0.2,0.1L35,4.4l-0.1,0.3
			l-0.4,0.6l-0.1,0.1l0.1,0.2l0,0.1l0,0.3l-0.1,0.1l-0.2,0.1l-0.5,0.2l-0.2,0l-0.4,0l-0.1,0l-0.1,0.1L33,8.1l0,0.2l0.1,0.3l0.4,0.8
			l0.5,0.7l0.2,0.2l0.2,0h0.6l0.1,0.1l0.1,0.1l0.4,0.6l0.2,0.2l0.3,0.2l0.1,0.1l-0.1,0.1l-0.5,0.3l-0.1,0.1l0.1,0.1l0.1,0.1l0.4,0.3
			h0l0.5-0.4l0.1-0.1l0.1,0l0.1,0.1l0.4,2.1l0.2,1.7l0.1,0.3l0.4,1.3l0.1,0.5l0,1.7L38,20h0.2l1-0.4h0.1l0,0.1v0.1l0,0.3l0,0.1
			l-0.1,0.1l-0.1,0.1l-0.7,0.3l-0.2,0.1V21l0,0.2l0.1,0.2l0.1,0.1l0.2,0.1L39,22l0.2,0.1l0.1,0l0.3,0l0.1,0l0.1,0l0.1,0.1l0.1,0.4
			l0.1,0.5l-0.1,0.1l-0.1,0.1l-0.8,0.1l-0.1,0l-0.1,0.1l-0.1,0.2L38.7,24v0.2l0.1,0.2l2.1,1.7l0.1,0.2l0,0.1l-0.1,0.2L40.1,28.8z"/>
	</g>
</g>
</svg>
