<?xml version="1.0" encoding="utf-8"?>
<!-- Generator: Adobe Illustrator 24.0.3, SVG Export Plug-In . SVG Version: 6.00 Build 0)  -->
<svg version="1.1" id="Layer_1" xmlns="http://www.w3.org/2000/svg" xmlns:xlink="http://www.w3.org/1999/xlink" x="0px" y="0px"
	 viewBox="0 0 75 67.4" style="enable-background:new 0 0 75 67.4;" xml:space="preserve">
<title>NAM3347</title>
<g id="Layer_2_1_">
	<g id="Layer_1-2">
		<path id="NAM3347" style="fill:#EFEFEF;" d="M37.6,6.9v0.3l-0.1,0.2l0.1,0.1l-0.1,0.3l-0.3,0.5l-0.1,0.3l-0.5,0.7l-0.3,0.4l0,0.4
			l0.6,0.4l0.1,0.4l0,0.4L37,11.6l-0.1,0.2l-0.3,0.3l0.2,0.7l1.5,3l0.4,1.9l0.3,5.9l-0.1,2.2l0.1,1.1l0.6,1.9l0.4,0.9l0.3,0.9
			l-0.3,1.6l-0.1,1.6l0.6,1.9l0.3,0.4l0.4,0.3l0.3,0.6l0.1,0.7l-0.2,0.2l-0.2,0.2L41,39l1.9,0.1l0.3-0.6l0-0.9l-0.8,0l-0.1-0.7
			l0-0.6l0.7-0.1l4.1,0l3.5-0.5l0.9,0.2l0.9,0.1l1.6-0.5l0,0.9l2.8,0l0.6-0.1l0.6,0.1l1.9,0.5l1.3,0.1l0.6,0l0.5,0.1l1.2,0.7
			l1.8,0.3l1.1,0.3l0.8,0.1l2,0.6l2.8,0.4l0.9,0l1,0.2l0.9,0.5l0.2,0.1l0,0.3l0.1,0.7L74.8,47l0.1,0.6l-0.8,0.6l-0.4,0.1h-1.3
			l-0.1,0.1l0,0.9l0,0.1l0.2,0.7l0,0.1l-0.1,0l-0.1,0l-0.4,0l-2.7,1.4L69,51.8l-0.1,0.1l0,1.3l0.1,0.6V54l0,0.2l-0.1,0.2l-0.2,0.1
			l-0.2,0.1l-0.2,0.1l-0.2,0l-0.2,0l-0.3-0.2l-0.2,0l-0.2,0l-0.2,0l-0.1,0l-0.7,0.3l-0.1,0l-0.9,0l-0.1,0l-1.1,0.4l-0.5,0.3
			l-0.2,0.2l-1,1.1l-0.2,0.1L61,57.6l-0.2,0.1h-0.2l-1.2-0.3l-1-0.1l-0.7-0.1L57,56.9l-0.3-0.1l-0.2-0.2l-0.2-0.3l-0.1-0.1l-1.1-0.1
			l-0.1,0.1l-0.1,0.2l-0.3,0.4L53.6,58l-0.1,0.1l-2.1,2l-0.1,0.2l-0.1,0.2l-0.1,0.1L50.4,61L50,61.2l-0.8,0.7L49.1,62L49,62
			l-0.2,0.1l-0.1,0.1l-0.1,0.2l-0.2,0.1l-0.2,0.1l-0.1,0.1L48,62.9L47.9,63l-0.2,0l-0.3,0l-0.1,0.1l-0.4,0.3l-0.3,0.2l-0.1,0.1
			l-0.2,0.2L46.2,64l-0.5,0.1l-0.4,0.2l-0.1,0l-0.3,0l-0.3,0.1h-0.1l-0.5,0h-0.9l-0.1,0l-0.6-0.2l-0.1,0l-0.3,0l-0.2,0l-0.4,0
			l-0.3,0.1L41,64.2l-0.3-0.2l-0.2-0.1l-0.7-0.1l-0.4,0.1l-0.8,0.3l-0.2,0l-0.2,0l-1-0.4l-0.3,0l-0.2,0.1l-0.3,0.1L36.4,64L36.2,64
			l-0.4,0l-0.3,0.1l-0.2,0.1l-0.4,0.2l-0.2,0.1l-0.7,0l-1.1,0.4l-0.3,0.2l-0.2,0.2l-0.1,0l-0.2,0l-0.1,0l-0.1,0.1l-0.1,0.2l-0.1,0
			l-0.1,0l-0.2,0L30.8,66l-0.2,0.1l-0.2,0.2l-0.1,0.1l-0.1,0.1l-0.5,0.2l-1,0.6l-0.4-0.5L27,64.5l-0.6-0.9L26.1,63l-0.2-0.2
			l-0.4-0.3l-0.3-0.6l-0.2-0.5l-0.1-1.3l-0.4-1.4l-1.3-2.5l-0.4-1.4L22.8,54l-0.3-1.3l-0.5-1.3l-0.3-0.6L21,50.6l-0.7-0.5l-0.5-0.9
			l-0.5-2L18.2,45L18,44.6l-0.6-0.9l-1.1-2l-0.1-0.4L16,41.1l-0.4-0.8l-0.1-0.2l-0.7-1.2l-0.2-0.5l-0.1-0.3l-0.1-0.7L14.3,37
			l-0.5-0.6l-0.3-0.6L12.8,34l-0.3-0.5L12,33l-0.6-0.4l-0.1-0.2l-0.2-1.2L11,30.8l-2.4-3.3l-1.7-1.1l-0.7-0.9L6,25.5l-0.3-0.4
			l-0.1-0.1L5.5,25l-0.8-0.5l-0.2-0.8l-0.1-0.3l-0.2-0.5l0-0.2l0-0.3l0-0.2l-0.4-0.5l-0.6-1.5l-0.1-0.1L2,18.8l-0.2-0.7l-0.1-0.9
			l-0.3-0.8l-0.2-0.6L1,14.3l-0.3-1.2l-0.2-1.6l-0.3-1.3L0,9.4l0.1-1.2L0.6,5l0.2-0.2l0.2,0l0.2,0.1l0.2,0l0.2,0l0.1-0.1l0-0.1
			l0.1-0.1L2,4.4l0.6-0.3l0.7-0.5L4,3.3l0.7-0.2L5.4,3L5.6,3h0.1l0.2,0.1l0.5,0.2l0.2,0l0.1-0.1l0.1,0l0.1,0.1L7,3.4l0,0.1l0.1,0.1
			l0.1,0.1l0.2,0.1l0.2,0l0.1,0.1l0.1,0.2l0,0.1l0.1,0.1L9,4.2l1,0l0.2-0.1L10.4,4h0.2l0.4,0.2l0.3,0.1L12,4.4l0.5,0.1l0.2,0
			l0.4-0.2l0.7-0.6l0.4-0.1l0.4,0l0.3-0.2l0.5-0.4L16,2.6l0.5-0.1l0.1-0.1l0.1-0.2l0.1-0.1L17,1.9l0.3-0.1l0.1-0.1l0.1-0.1l0-0.2
			l0.1-0.1l0.3-0.1L18.2,1l0.5-0.1l0.8-0.4l1.6-0.3L21.4,0l0.3,0L22,0.2l0.2-0.1l0.1,0.1l0.1,0.2l0.2,0.1l0.3,0l0.2,0l0.1-0.1v0.1
			l0.4-0.2l0.2-0.1L24,0.4h0.1l0.6-0.2L25,0.3l0.5,0.4l0.3,0.1l0.3,0l0.3,0.1l0.2,0.2l0.2,0.6L27.1,2l0.1,0.3l-0.1,0.4l1.3,0.7
			l1.3,1.1l1.4,0.8l1.4,0.8l0.2,0.2l0.7,0.9l0.2,0.2L34,7.4l0.2,0l0.2-0.2l0.1,0l0.2,0L35,7.3l0.3,0l0.2,0.1h0.2l0.2-0.1l0.2-0.1
			l0.1,0l0.7,0.1l0.3-0.1l0.1-0.3l0-0.1L37.6,6.9z"/>
	</g>
</g>
</svg>
