<?xml version="1.0" encoding="utf-8"?>
<!-- Generator: Adobe Illustrator 24.0.3, SVG Export Plug-In . SVG Version: 6.00 Build 0)  -->
<svg version="1.1" id="Layer_1" xmlns="http://www.w3.org/2000/svg" xmlns:xlink="http://www.w3.org/1999/xlink" x="0px" y="0px"
	 viewBox="0 0 35 28.7" style="enable-background:new 0 0 35 28.7;" xml:space="preserve">
<title>NAM3355</title>
<g id="Layer_2_1_">
	<g id="Layer_1-2">
		<path id="NAM3355" style="fill:#EFEFEF;" d="M32.1,1.1l0.1,15.4l2.7,0.2L34.8,18l-0.1,1.6l-0.2,0.2l-0.4,0.2l-0.3,0.2l-0.4,0.4
			l-0.3,0.2L32.9,21h-0.2l-0.2,0L32.4,21l0,0.2l0.1,1.1v0.2l0,0.2l-0.1,0.1L32.3,23l0,0.2v0.6l-0.1,0.5l-0.1,0.3l-0.1,0.1l-0.1,0.1
			l-0.2,0l-0.2,0.1l-0.1,0.1L31.3,25l0,0.2l-0.1,0.2l-0.5,0.3l-0.1,0.2l-0.1,0.2l-0.1,0.3l0,0.2l0,0.2l0.1,0.2l0.5,0.6l0.1,0.2
			l-0.1,0.1l-0.2,0.1l-0.7,0.4l-0.2,0.1h-0.1l-0.1-0.1l-0.1-0.3l-0.1-0.1l-0.1-0.1h-0.2L29,28.1l-0.5,0.2l-0.2,0.1l-0.9-0.1
			l-0.2-0.1l-0.5-0.5l-0.2-0.1l-0.3-0.1l-0.4,0l-0.2-0.1l-0.2-0.1l-0.3-0.2l-0.1-0.1l0-0.3L25,26.8l-0.1-0.1l-0.5-0.3l-0.2-0.1
			l-0.2,0l-0.3,0.1l-0.2-0.1l-0.2-0.1l-0.1-0.1l0-0.1l0-0.1l0-0.6l0-0.1l0.1,0l0.3-0.1l0.1,0l0-0.1v-0.1l-0.1-0.5l-0.1-0.1l-0.1,0
			l-0.3,0.1l-0.4,0.1l-0.1,0.1l0,0.1v0.1l0,0.1l-0.1,0l-0.1,0l-0.1,0l-0.1,0l0-0.1l0.1-0.5l0-0.1l-0.1-0.1L22,23.6l-0.2-0.1
			l-0.2-0.1l-0.5,0l-0.2-0.1l-0.1-0.1L20.6,23l-0.2-0.1l-0.2-0.1l-1.1,0.3l-0.6,1l-1.4,1.8L13,27.9L12.9,28l-0.1,0.2l-0.2-0.1
			l-0.9-0.5l-0.9-0.2l-0.9,0l-2.8-0.4l-2-0.6l-0.8-0.1l-1-0.3l-1.8-0.3v-0.4l-0.1-0.4l-0.2-1.1l0-0.4l0.2-0.2L1.7,23l0.1-0.5
			l-0.5-0.3L1,21.9l-0.2-0.4L0.6,21L0.1,20l0-0.4L0,19.3l0-1l0.1-0.5l0.2-0.5l0.6-0.8l0.6-0.7L2,15.4l0.3-0.1h0.3L2.9,15l-0.1-0.4
			l-0.7-0.8L1.9,13l-0.2-0.4l-0.1-0.4l0.1-1.2l-0.2-0.7l0-0.7l0.2-0.3L2,9.2l0.7-0.9l0.2-0.4L2.9,7L2.8,5.7L2.8,5.4L2.5,5.1l-0.2,0
			V0l4.6,2.9l1.2,0.5l5.3-2.3L32.1,1.1z"/>
	</g>
</g>
</svg>
