<?xml version="1.0" encoding="utf-8"?>
<!-- Generator: Adobe Illustrator 24.0.3, SVG Export Plug-In . SVG Version: 6.00 Build 0)  -->
<svg version="1.1" id="Layer_1" xmlns="http://www.w3.org/2000/svg" xmlns:xlink="http://www.w3.org/1999/xlink" x="0px" y="0px"
	 viewBox="0 0 43 53.1" style="enable-background:new 0 0 43 53.1;" xml:space="preserve">
<title>NAM3348</title>
<g id="Layer_2_1_">
	<g id="Layer_1-2">
		<path id="NAM3348" style="fill:#EFEFEF;" d="M29.2,1.2l-0.1,1.7l0,0.2l0.1,0.2L30,3.5h0.3l0.5-0.1l0.2,0L31,3.4l0.1,0.1l0.2,0.8
			l0.1,0.2l1.2,1.1l3,1.6L36.4,8l0.7,0.3l0.6,0.4l0.2,0.1l0.1,0l0.1-0.1l0.6-0.7l0.1-0.1l0.1,0l0,0.1L39,8.5l0.1,0.2l0.2,0.2
			l0.4,0.4l0.2,0.1l0.3,0.1l0.1,0.1l0.5,0.5l0.1,0.1l0.1,0.2l0.1,0.1l0.1,0.1l0.1,0l1.4,0.2v0.9l-0.1,0.5l0.4,2l0,0.5l-0.6,0.6
			l-0.6,0.8l-0.2,0.2l-0.1,0.1l0,0.2l-0.2,1.3l-0.4,1.8l0.6,1.8l0,0.4l0.1,0.3l0.2,0.1l0.1,0.1l0.2,0.4l0,0.2l0,0.2L42,23.3L42,23.5
			v0.1l0.1,0.1l0.1,0.1l0,0.1l-0.1,0.2L42,24.6l0,0.5l-0.1,0.2l-0.1,0.1l-0.3,0l-0.1,0l0.1,0.1l0.5,0.7l0.1,0.1l-0.1,0.1l-0.3,0.1
			l-0.2,0.2l-0.5,0.4l-0.1,0.1l0,0.2l0.4,0.9v0.1l0,0.1l-0.1,0.2l0,0.1l0,0.2l0.1,0.2l0.5,0.8l-0.6,0.3l-0.7,0.5L40.2,31l-0.1,0.3
			l0,0.7L40,32.2l-0.2,0h-0.2l-0.2,0h-0.2l-0.2,0L39,32.4l-0.5,0.4l-0.2,0.3l-0.4,0.4l-0.2,0.1l-0.2,0.1h-0.2l-0.9-0.3h-0.2
			l-0.2,0.1l-1.2,1.2l-0.3,0.3l0.1,0.1l1.1,0l0.1,0l0.1,0l0,0.1v1.8l0,0.2l-0.1,0.2l-0.2,0h-0.9l-0.2,0l-0.3,0l-0.2,0.2L33.8,38
			l-0.2,0.2l-0.1,0.2l-0.2,1.5V40l0.1,0.2l0.1,0.3l0,0.4v0.2l0,0.2l-0.3,0.8l0,0.2v0.1l0.1,0.2l0.7,0.8l0,0.1l-0.1,0.1l-0.1,0.1
			L32.5,44l0.4,1.9v0.2l-0.2,0.1l-0.5,0.1l-0.1,0l-0.1,0.1l-0.1,0.1l-0.4,1l0,0.1v0.1l0.1,0.1l0.1,0.1l1.1,0.5l0.1,0.1l0,0.1l0,0.2
			l-0.2,2.3l0,0.1l0.2,0.6v0.1l-0.1,0.6L32.5,53l-1.2,0.1L27,51.2l-1.7-0.5l-0.2,0l-0.3,0l-1.5-0.3l-1.1,0.1l-0.3,0l-0.3-0.1
			l-0.1-0.1l-0.1-0.1L21,49.7l-8.3-0.8l-0.6-1.5l-0.2-0.7l0-0.2l0.1-0.1l0.4-0.7l0.2-0.2l0,0.3l0.1,0.1l0.1-0.1l0.1-0.3l0-0.6
			l-0.3-1.9l-0.2-0.6l-0.3-0.4l-0.2-0.5l-0.2-0.5l-0.1-0.5l-0.1-1.1l0-0.2l0.1-0.1l0.2-0.3l0-0.2v-0.7l0.1,0l0,0.1L12,38.3l0.1,0.3
			l0.1,0.1l-0.1,0.3l0,0.3l0.1,0.2l0.3-0.1l0,0.2l-0.2,0.5l0.2-0.2l0.3-0.6l0.2-0.1l0.2-0.2l0.1-0.4l0.1-0.7l-0.1-2.8L13,32.8
			l-0.3-0.6l-0.2-0.7L12,30.4l-0.3-0.9l-0.5-1l-0.1-0.1l-1-1.1l-0.3-0.5l0-0.4l0-0.1l-2.3-3l-1.1-1l-0.1-0.3l-1.2-1.1l-0.3-0.1v-0.2
			l0.1-0.2L5,19.7l0-0.1l-0.1-0.2l-0.1-0.1l-1.2-1.8l-0.2-1L3,15.3l-1.5-2l-0.9-1.5L0,11.1l0.9-0.6l0.5-0.2l0.1-0.1l0.1-0.1l0.2-0.2
			l0.2-0.1l0.5-0.1l0.2,0l0.1,0l0.1,0l0.1-0.2l0.1-0.1l0.1,0l0.2,0l0.1,0l0.2-0.2l0.3-0.2l1.1-0.4l0.7,0l0.2-0.1L6.5,8l0.2-0.1
			L7,7.8l0.4,0l0.2-0.1l0.2-0.1l0.3-0.1l0.2-0.1l0.3,0l0.9,0.4l0.2,0l0.2,0l0.8-0.3L11,7.6l0.6,0.1l0.2,0.1l0.3,0.2L12.3,8l0.3-0.1
			l0.4,0l0.2,0l0.3,0l0.1,0l0.5,0.2l0.1,0h0.8l0.5,0h0.1L16,8.1l0.3,0l0.1,0l0.4-0.2l0.5-0.1l0.1-0.1l0.2-0.2l0.1-0.1L18,7.2
			l0.4-0.3l0.1-0.1l0.3,0l0.2,0l0.1-0.1l0.1-0.1l0.1-0.1l0.2-0.1l0.2-0.1L19.7,6l0.1-0.1L20,5.8l0.1-0.1l0.1-0.2L21,5l0.3-0.2
			l0.7-0.4l0.1-0.1l0.1-0.2l0.1-0.2l2.1-1.9l0.1-0.1l0.8-1.1l0.3-0.4l0.1-0.2L26,0L27,0.1l0.1,0.1l0.2,0.3l0.2,0.2l0.3,0.1L28.5,1
			L29.2,1.2L29.2,1.2z"/>
	</g>
</g>
</svg>
