<?xml version="1.0" encoding="utf-8"?>
<!-- Generator: Adobe Illustrator 24.0.3, SVG Export Plug-In . SVG Version: 6.00 Build 0)  -->
<svg version="1.1" id="Layer_1" xmlns="http://www.w3.org/2000/svg" xmlns:xlink="http://www.w3.org/1999/xlink" x="0px" y="0px"
	 viewBox="0 0 83 44.2" style="enable-background:new 0 0 83 44.2;" xml:space="preserve">
<title>NAM3339</title>
<g id="Layer_2_1_">
	<g id="Layer_1-2">
		<path id="NAM3339" style="fill:#EFEFEF;" d="M59.9,5.3v0.2l1.4,2.7l0.1,0.1l0.1-0.1L61.7,8l0.1-0.1h0.1L62.1,8h0.2l0.8,0.8L63.3,9
			l0.3,0.1l1.2,0.2H65l2.8-1.1h0.1l0.8,0.1h0.1v0.1l-0.1,0.1v0.1v0.1H69l1.4,0.1l0.1-0.1l0.7-0.9l0.2-0.1h0.2l0.3,0.1L72,7.9
			l0.1,0.2l0.1,2.9l1,0.1h9.6v3.3v21.8v0.9v3l-0.7,0.1L81.9,40h-0.3h-0.2l-1.5,1l-0.3,0.1h-0.2l-0.7-0.3l-1.4-0.3l-0.2-0.1l-0.2-0.1
			L76.5,40l-0.4-0.1l-0.8-0.1h-0.7l-0.4,0.1l-0.2,0l-0.5,0.4l-0.2,0.1h-0.1l-0.1-0.2l-1.3-2l-0.1-0.1L71.6,38l-0.1,0.1l-0.1,0.1
			L71,38.5l-1.4,0.7l-0.2,0.1l-6.6-0.6l-1.1-0.6l-0.3-0.3l-1-0.5L57,37.6l-7.2,1.7l-2,0.2l-2.9-0.3l-0.2-0.1L44.6,39h-0.1h-0.1
			l-0.3,0.1l-0.4,0.2l-0.3,0.2l-0.1,2.9l-2.5-1.1h-0.2l-0.8,0.3h-0.4l-1.1,0.3H38L37.8,42v-0.2v-0.2v-0.2l-0.2-0.2L37.1,41l-0.7-0.2
			l-0.7-0.1l-0.4-0.3L35,40.3l-0.1-0.1l-2.6-0.5H32l0,0l-0.1-0.1l-0.1-0.2l-0.4-0.7l-0.1-0.2h-0.1L31,38.8L30.5,40l-0.2,0.3
			l-0.6,0.5L29.5,40v-0.2l0.1-0.2v-0.1l-0.1-0.1l-0.1-0.1l-0.4,0l-0.2-0.1h-0.2l-0.8,0.2l-0.1,0.1l-0.1,0.1v0.1V40l0.8,4.2l-0.1,0.1
			h-0.2L27.3,44H27h-0.3l-0.2,0.1l-0.2,0.1h-0.2L25.9,44l-3-4.2l-0.2-0.2l-0.2-0.1h-0.2h-0.2l-0.5,0.2h-0.2h-0.1l-0.1-0.1v-0.2
			l-1.2-8L19.6,30L5.7,29.9l0,0l-0.3-0.7l-0.2-0.6l-0.1-1.3l-0.2-0.6L4.1,25l-0.4-0.5L3,23.8l-0.2-0.5l-0.5-0.6l-0.1-0.4l0.1-0.2
			l0.2-0.3l0.1-0.1V21l-0.1-0.3l-0.3-0.6l-0.3-0.8l-0.8-1.6l-0.3-1.1L0.3,16l-0.1-0.8L0.1,15l0.1-0.3v-0.5l-0.1-0.6L0,13.2L0.1,13
			l0.1-0.4l0.1-0.2h0.1h0.1l0.1-0.1L0.7,12l0.2-0.4l-0.1-0.2v-0.9L0.6,9.7V9.4L0.8,7L0.7,6.5L0.5,6l8.4,0.8l0.4,0.6l0.1,0.1l0.1,0.1
			l0.3,0.1h0.3l1.1-0.1l1.5,0.3H13h0.2L15,8.4l4.4,2l-0.1,1.3l0.1,0.4l0.2,0.4l0.9,0.5h0.4H22h0.1l0.1-0.1l0.1-0.3l0.1-0.1l0.2-0.1
			h0.7l1.9-0.6h0.1l0.5,0.1H26l0.2-0.1l0.9-0.5h0.1v0.1L27,11.5v0.2v0.2l0.1,0.3L27,12.3l-0.1,0.1h-0.3l-0.2,0.1v0.2l0.1,0.2
			l0.8,0.7l0.9,0.2L28,13.4l-0.3-1l0.2-0.4l0.6-0.6l0.1-0.1h0.1l0.5,0.1l1.3,0.1h0.1h0.1l0.1-0.1l0.1-0.2v-0.1V11l-0.1-0.4l-0.1-0.1
			l-0.1-0.1l-0.1-0.1L29.3,10h-0.2l-0.2,0.1h-0.1l-1.3-0.3l-0.1-0.1V9.6V9.4l0.3-0.9L28.4,7h0l0.1-0.1L28.7,7l0.1,0.1v0.1L28.9,8
			v0.1H29h1h0.2L30.3,8l1.5-1.5H32V6.3l-0.1-0.5V5.6l-0.1-0.1l-1-0.6l-0.1-0.1l0.1-0.2l1.7-3.5l0.2-0.3h0.2L33.1,1l0.3,0.2l0.3,0.1
			H34l0.3-0.1h0.5l0.7,0.2l1.2-0.3l0.8-0.3l0.9-0.7l1-0.2H40l0.7,0.2l0.2,0.1L41,0.4L41.1,1v0.7l0.2,0.4l0.5,0.1L43.3,2l1-0.1
			l0.9-0.2h0.2l0,0l-0.5,0.5l-0.1,0.1v0.1v0.2l0.1,0.8v0.1l-0.1,0.1l-0.5,0.2L44.1,4v0.2l0.2,1l0.1,0.1l0.2,0.1h0.1v0.1v0.1L45,7
			l0.1-0.1h2.5h0.1h0.1V6.8l0.1-0.2l0.2-0.1L51,6.4l0.8,0.2L52,6.7l0.1,0.1l0.5,0.7l0.1,0.1h0.1l0.6-0.3h0.1l0.1,0.1l0.3,0.1h0.2
			l0.3-0.1l1.2-0.5l0.6-0.2l0.2-0.1V6.4V6.1V6l0.1-0.1l1.3-0.6l1-0.6h0.3L59.9,5.3L59.9,5.3z"/>
	</g>
</g>
</svg>
