<?xml version="1.0" encoding="utf-8"?>
<!-- Generator: Adobe Illustrator 24.0.3, SVG Export Plug-In . SVG Version: 6.00 Build 0)  -->
<svg version="1.1" id="Layer_1" xmlns="http://www.w3.org/2000/svg" xmlns:xlink="http://www.w3.org/1999/xlink" x="0px" y="0px"
	 viewBox="0 0 77 66.1" style="enable-background:new 0 0 77 66.1;" xml:space="preserve">
<title>NAM3338</title>
<g id="Layer_2_1_">
	<g id="Layer_1-2">
		<path id="NAM3338" style="fill:#EFEFEF;" d="M77,10.2v46.3l0,0.5l-0.5,0.1l-0.1,0l-0.5-0.1l-0.2,0l-0.4,0.2l-0.7,0.6L74.2,58
			l-0.7,0.1l-0.3,0.1l-0.3,0.2l-0.3,0.1l-1.5,0.1l-0.1,0l-0.2,0.1l-0.2,0.2l-0.1,0.2l-0.1,0.1l-0.1,0.3l-0.1,0.1l-0.1,0.1L70,60
			l-0.4,1.4l-0.2,0.3l-0.3,0.2l-0.3,0.1l-1.2,0.3l-0.2,0.1l-0.2,0L66.9,62l-0.2,0l-0.2,0.2l-0.2,0.2l-0.3,0.5L66,63.2l0.1,0.4l0.6,1
			l0,0.2l-0.2,0.1l-0.5,0L65.9,65l-0.2,0.3l-0.1,0.1l-0.8,0.4L64.2,66l-0.6,0l-0.3-0.3l-0.1-0.1l-0.2-0.1l-0.5-0.1l-0.1,0l-0.2-0.2
			L62,64.8l-0.3-0.2l-3.1-0.5l-2.8,0.4l-0.5,0.3l-0.3,0.1l-0.1,0l-0.2-0.2l-0.1,0l-0.1,0l-0.1,0.1l-0.1,0L54,64.8l-0.2,0l-0.1,0.1
			l-0.3,0.1L53.1,65l-0.6-0.2l-0.3,0l-1.3,0.2l-0.5,0.2H50l-1.3-0.4l-0.6-0.3l-0.9-0.8l-0.5-0.3l-0.5-0.2l-2.5-0.5l-0.5,0l-0.2,0.1
			l-0.3,0.2l-0.2,0.1h-0.2L42,62.8l-0.3-0.2l-0.1-0.3l0-0.4l-0.1-0.4l-0.2-0.2l-0.2,0.1l-0.3,0.1l-0.3,0.1l-0.6,0.1l-0.6,0.2
			l-0.6-0.1l0-0.5l0.2-0.7l0.1-0.7l-0.2-0.4l-0.5-0.2L38.1,59L38,58.6l-0.4-0.5l-0.1-0.3l0.1-0.2l0.2-0.2l0.3-0.2l0.3-0.1l0.2-0.2
			l0.1-0.4l0-0.5l0-0.4l-0.1-0.2l-0.2-0.3L38.2,55l-0.1-0.2l0-0.2l0-0.2L38,54.3l-0.1-0.2l0-0.2l-0.1-0.2l-0.2-0.1l-0.4,0l-0.9,0.2
			l-0.5-0.1l-0.3-0.4l-0.1-0.8l0-0.4v-0.4l-0.1-0.3L35,51.4l-0.3-0.1L34.5,51l-0.2-0.3l-0.2-0.3L34,50.3h-0.2l-0.3,0.1l-0.2,0.1
			l-0.5,0.4l-0.4-0.1l-0.2,0L32.1,51l-0.2,0.1l-0.1,0l-0.2-0.2l-0.1,0l-0.1,0.1l-0.2,0.3l-0.1,0L31,52.6l-0.1,0.2h-0.1l-0.1-0.1
			h-0.2l-0.1-0.1l-0.1,0.1l0,0.1l0,0.1l0.3,0.3v0.1l-0.2,0.1H30l-0.1,0.1l-0.1,0.2l0,0.1l0.1,0.2l0.1,0.2l0,0.2l-0.1,0.1l-0.2-0.1
			l-0.1-0.1l-0.1-0.1l-0.3,0.1l-0.1,0.3l0.1,0.3l0.1,0.3l0.3,0.5l0.1,0.3l-0.1,0.1l-0.2,0.2l-0.1,0.3l0,0.4l0,0.3l-0.2,0.3L28.8,58
			l-0.3,0.2l-0.2,0L28.2,58l-0.1-0.2l-0.1-0.2L28,57.6l-0.2,0.1l-1.1,1.1l-0.6,0.2l-0.4,0.2l-0.4,0.3L25,59.5l-0.3,0.2L24.6,60
			l-0.2,0.2L24,60.1L23.9,60L23,59.3l-0.5-0.5l-0.2-0.3l-1.6-1.6l-0.3-0.1l-0.1-0.1l-0.9-1.2l-0.9-1.1l-2-1.5l-0.4-0.4l-0.8-1
			l-1.1-0.9l-0.2-0.2l-0.5-0.7L13.1,49L13,48.9v-0.2l0.1-0.3l0-0.2l-0.2-0.5l-0.4-0.6l-1.5-1.5l-0.2-0.3l-0.1-0.4V44l0-0.1l-0.1-0.2
			l-1.4-2.3L9,40.9l-0.2-0.3l-0.2-0.1l-0.1-0.1L8,39.4l-0.6-0.8l-0.1-0.2l-0.2-1.3L7.1,37l-0.2-0.2l0-0.2l0.1-0.7l-0.2-1.1l0.1-0.2
			l-0.3-0.6l-0.1-0.3l0-0.4l0-0.7l-0.1-0.3l-0.2-0.3l-0.1,0l-0.3,0l-0.1,0l-0.1-0.3l-0.1-0.1H5.3l0-0.4l-0.1-0.3l-0.5-1l-0.1-0.3
			L4.7,29l-0.2-0.3l-0.2-0.3L4.2,28l0-0.4l0-0.3l0.1-0.2L4.5,27l0.1,0l0.2-0.1l0.1,0L5,27v0.6h0.1l0.1-0.3l0.3-0.9v-0.2l-0.1-0.2
			l-0.3-1l-0.2-1l-0.3-0.6L4,22.9l-0.5-0.4l-0.9-0.4L2.4,22l-0.1-1.3l0-1.3L2.1,19L2,18.9l0.1-0.2h0.1l0.1,0l0.1-0.1l0.2-0.5v-0.7
			l-0.2-0.7l-0.2-0.5l-0.7-1.1l-0.1-0.5l0.2-0.6H1.6L0.9,13l-0.3-0.4l0-0.2v-0.1l0-0.2v-1.3l0.1-0.3l0.4-0.9l0-0.3V8.9L1.1,8.5
			L0.8,8.2L0.7,7.8L0.6,7L0.2,6L0.2,5.3L0,4.6V4.3l0.4-1.2l0-0.2l0.3-1.2L0.8,1L0.6,0.4L0.4,0h0.1l13.8,0.1l0.4,1.3l1.2,8.1l0,0.2
			l0.1,0.1H16l0.2,0l0.5-0.2l0.2,0h0.2l0.2,0.1l0.2,0.2l3,4.1l0.2,0.2h0.2l0.2-0.1l0.2-0.1l0.3,0l0.4,0l0.7,0.2l0.2,0l0.1-0.1
			l-0.8-4.1V9.8l0-0.1l0.1-0.1l0.1-0.1l0.7-0.2l0.2,0l0.2,0.1l0.2,0.1l0.1,0.1l0.1,0.1l0,0.1l-0.1,0.2v0.2l0.2,0.8l0.6-0.5l0.2-0.3
			l0.5-1.2l0.2-0.3l0.1,0l0.1,0.2l0.4,0.7l0.1,0.2l0.1,0.1h0.2l0.3,0l2.6,0.5l0.1,0.1l0.3,0.1l0.4,0.3l0.6,0.1l0.7,0.2l0.4,0.3
			l0.2,0.2l0,0.2l0,0.2l0,0.2l0.1,0.1l0.3,0l1.1-0.3h0.4l0.8-0.3l0.2,0l2.5,1.1l0.1-2.9L38,9.4l0.4-0.2l0.3-0.1l0.1,0h0.1l0.2,0.1
			l0.2,0.1l2.8,0.3l2-0.2l7.2-1.7l3.3-0.3l1,0.5l0.3,0.3l1.1,0.6l6.5,0.6l0.2-0.1l1.4-0.7l0.3-0.3l0.1-0.1L65.7,8l0.1,0.1l0.1,0.1
			l1.3,2l0.1,0.2l0.1,0l0.2-0.1l0.5-0.4l0.1-0.1l0.4-0.1h0.7l0.8,0.1l0.4,0.1l0.4,0.3l0.2,0.1l0.2,0.1l1.4,0.3l0.6,0.3l0.2,0
			l0.3-0.1l1.7-0.8l0.2,0l0.3,0l0.2,0.2L77,10.2L77,10.2z"/>
	</g>
</g>
</svg>
