<?xml version="1.0" encoding="utf-8"?>
<!-- Generator: Adobe Illustrator 24.0.3, SVG Export Plug-In . SVG Version: 6.00 Build 0)  -->
<svg version="1.1" id="Layer_1" xmlns="http://www.w3.org/2000/svg" xmlns:xlink="http://www.w3.org/1999/xlink" x="0px" y="0px"
	 viewBox="0 0 45.1 21.9" style="enable-background:new 0 0 45.1 21.9;" xml:space="preserve">
<title>NAM3354</title>
<path id="path28_1_" style="fill:#EFEFEF;" d="M44.9,0L28.3,3.3L28,3.4h-0.1L27.6,3l-0.4-0.2l-0.8-0.3l-0.7-0.4L25.5,2h-0.6h-0.2
	l-0.3,0.1l-0.2,0.1L24,2.3l-0.2-0.1l-1.6,0.4l-1.1,0.3l-0.2,0.4l-0.5,0.1L20,3.6h-0.4l-0.3-0.3L18.7,3h-0.3l-0.1,0.1l-0.1,0.1
	L18,3.1L17.7,3l-0.1-0.1l-0.2-0.1h-0.5h-0.6L16,2.9l-0.2-0.1l-0.4-0.3l-0.5-0.3l-0.2-0.1l-0.3-0.3l-0.3-0.3l-0.4-0.2l-0.4,0.1
	l-0.6-0.5l-0.2-0.1L12,0.9h-0.2l-0.2-0.1l-0.5,0.5l-0.3-0.2h-0.4l-0.3,0.1L9.9,1.4L9.8,1.2L9.6,1.3H9.4H9L8.2,1.5H8.1L7.5,1.2L7,0.9
	H4.7L4.6,1L4.4,1.3L4.3,1.4H4.1L3.8,1.2L3.4,1.1L3.3,0.9L3.2,0.7L2.9,0.6H2.6c0.1,0.4,0.3,0.9,0.3,1c0.1,0.1,0,0.6,0,0.6L0,4.9
	l3.5,6.9c0,0-0.3,0.9-0.4,1.1c0,0.2,0,1.1,0,1.3s0.1,1.4,0.1,1.6s0,1.2-0.1,1.4c0,0.2,0,0.8,0.1,1.2c0.1,0.3-0.2,0.7-0.4,1.1
	C2.6,19.8,2.1,20,1.7,20s-0.8,0.6-1,0.8c-0.1,0.1-0.3,0.7-0.5,1.1L22,21.7V19V8.2h0.3l7-0.3l15.8-3.3L44.9,0L44.9,0z"/>
</svg>
