<?xml version="1.0" encoding="utf-8"?>
<!-- Generator: Adobe Illustrator 24.0.3, SVG Export Plug-In . SVG Version: 6.00 Build 0)  -->
<svg version="1.1" id="Layer_1" xmlns="http://www.w3.org/2000/svg" xmlns:xlink="http://www.w3.org/1999/xlink" x="0px" y="0px"
	 viewBox="0 0 45 58.2" style="enable-background:new 0 0 45 58.2;" xml:space="preserve">
<title>NAM3353</title>
<g id="Layer_2_1_">
	<g id="Layer_1-2">
		<path id="NAM3353" style="fill:#EFEFEF;" d="M44.9,1.7l0,10.4V13l0,1.8v0.9l0,11.1l0,0.7l-0.2,0.6H30v13.9l0,2.8v13.5l-9.5,0
			l-1-0.1l-0.1-2.9L19.4,55l-0.1-0.1l-0.3-0.1h-0.2l-0.2,0.1l-0.7,0.9l-0.1,0.1l-1.4-0.1l-0.3,0l0-0.1l0-0.1l0.1-0.1v-0.1l-0.1,0
			l-0.8-0.1l-0.1,0l-2.8,1.1l-0.2,0l-1.2-0.2l-0.3-0.1l-0.2-0.1l-0.7-0.8L9.4,55l-0.2-0.1l-0.1,0L8.9,55l-0.2,0.3l-0.1,0.1l-0.1-0.1
			l-1.4-2.7l0-0.2L8,50.1l0.1-0.2l0-0.1l-0.1-0.2l-2.1-1.7l-0.1-0.2v-0.2l0.1-0.2l0.1-0.2L6,47l0.1,0L7,46.9l0.1-0.1l0.1-0.1
			l-0.1-0.5L7,45.9l-0.1-0.1l-0.1,0l-0.1,0l-0.3,0l-0.1,0l-0.2-0.1l-0.3-0.4L5.5,45l-0.1-0.1l-0.1-0.2l0-0.2v-0.1l0.2-0.1l0.7-0.3
			l0.1-0.1l0.1-0.1l0-0.1l0-0.3v-0.1l0-0.1H6.3l-1.1,0.4H5.1L5,43.4l0-1.7l-0.1-0.5l-0.4-1.3l-0.1-0.3l-0.2-1.7l-0.4-2.1l-0.1-0.1
			l-0.1,0l-0.1,0.1l-0.5,0.4h0l-0.4-0.3l-0.1-0.1l-0.1-0.1l0.1-0.1l0.5-0.3l0.1-0.1L3.1,35l-0.3-0.2l-0.2-0.2l-0.4-0.6l-0.1-0.1
			L2,33.7H1.4l-0.2,0L1,33.5l-0.5-0.7L0.1,32L0,31.8l0-0.2l0.2-1.4l0.1-0.1l0.1,0l0.4,0l0.2,0l0.5-0.2l0.2-0.1l0.1-0.1l0-0.3l0-0.1
			l-0.1-0.2l0.1-0.1L1.9,28L2,27.7l0.1-0.1l0.2-0.1l0.1-0.2l0-0.3l0-0.1l-0.1-0.1l-0.1-0.1L2,26.4l-0.1-0.1L1.7,26l-0.1-0.2v-0.1
			l0.1-0.2l0.2-0.4l0.4-0.4l0.2-0.4l-0.1-0.9l0.2-0.2l0.9-0.4l0.3-0.2L4.1,22l0-0.2l0-0.2l-0.1-0.7l0-0.5l0-0.2L4,20l0-0.2l0.4-0.2
			l0-0.1v-0.2l-0.1-0.7l0-0.2l0-0.1l0.2-0.2l0-0.1v-0.2l-0.1-0.5l0-0.1l-0.1,0l-0.3,0.1l-0.3,0l-0.1,0l-0.1,0l0-0.1l0-0.7l0-0.3
			L3.8,16L4,15.9l0.3-0.1l0.1,0L6,16.2l0.1,0l0-0.1l-0.2-0.4l-0.1-0.2v-0.3l0.1-0.1l0.5-0.3l0.2-0.1l0.1-0.2l0-0.2l0-0.3v-0.1l0-0.1
			H6.6l-0.5,0.1l-0.1,0l-0.1,0v-0.1L6,13.3l0.2-0.6l0.3-0.2l1.1-0.2h0.2l0.2,0.1L8,12.5l0.1,0.2l0.4-0.8l0.1-0.3l0.5-2.2l0.1-0.2
			l2.7-4.4l0.4-0.5l0.5-0.4l0.2-0.1l7.2-2.7l0.4-0.2L21,0.2l0.3-0.1L21.7,0l0.9,0L23,0.1l12.1,1.4l0.3,0.1l0.4,0.2L36,1.8l0.7,0.1
			l0.3,0l0.5-0.1l0.6,0L39.7,2l0.8,0.2l0.6,0l1,0l0.2,0L43.1,2l0.9-0.1l0.2,0l0.3-0.1C44.5,1.8,44.9,1.7,44.9,1.7z"/>
	</g>
</g>
</svg>
