<?xml version="1.0" encoding="utf-8"?>
<!-- Generator: Adobe Illustrator 24.0.3, SVG Export Plug-In . SVG Version: 6.00 Build 0)  -->
<svg version="1.1" id="Layer_1" xmlns="http://www.w3.org/2000/svg" xmlns:xlink="http://www.w3.org/1999/xlink" x="0px" y="0px"
	 viewBox="0 0 23 32.6" style="enable-background:new 0 0 23 32.6;" xml:space="preserve">
<title>NAM3350</title>
<g id="Layer_2_1_">
	<g id="Layer_1-2">
		<path id="NAM3350" style="fill:#EFEFEF;" d="M21.7,0l0,1.1l0.5,1l0.4,0.5l0.2,0.3l0.2,0.5L23,4.6l-5.5,5.5l0,0.2l0.3,0.1l1.8,1
			l0.7,0.2l0.6,0.4l0.2,0.8l0,0.8l0.8,6l-0.3,0.9l-0.5,0.7l0.1,0.9l0.7,1.7L21.6,25L21,25.6l0.3,0.5l0.4,0.5l0.4,0.1l0.3,0.2
			l-0.5,0.2l-0.6,0.1l-0.6,0.3L20,27.9l-0.6,0.2l-0.6,0.1l-0.5,0.2L18,28.5l0,0.2l0,0.2l-1.6,0.5l-0.9-0.1l-0.9-0.2L11,29.7l-4.2,0
			l-0.7,0.1l0,0.6l0.1,0.7l0.8,0l0,0.9l-0.3,0.6l-1.9-0.1l0.1-0.7l0.2-0.2l0.2-0.2l-0.1-0.7l-0.4-0.6l-0.4-0.4l-0.3-0.4l-0.6-1.9
			l0.1-1.7l0.3-1.7l-0.3-0.9l-0.4-0.9l-0.6-1.9l-0.1-1.1L2.6,17l-0.3-6L1.9,9.1l-1.5-3L0.2,5.3L0.5,5l0.1-0.2l0.1-0.3l0-0.4L0.7,3.7
			L0,3.3l0-0.4l0.3-0.4l0.5-0.7l0.1-0.3l0.3-0.5l0.1-0.3L1.2,0.5l0.1-0.2V0H14L21.7,0z"/>
	</g>
</g>
</svg>
