<?xml version="1.0" encoding="utf-8"?>
<!-- Generator: Adobe Illustrator 24.0.3, SVG Export Plug-In . SVG Version: 6.00 Build 0)  -->
<svg version="1.1" id="Layer_1" xmlns="http://www.w3.org/2000/svg" xmlns:xlink="http://www.w3.org/1999/xlink" x="0px" y="0px"
	 viewBox="0 0 11 25.5" style="enable-background:new 0 0 11 25.5;" xml:space="preserve">
<title>NAM3351</title>
<g id="Layer_2_1_">
	<g id="Layer_1-2">
		<path id="NAM3351" style="fill:#EFEFEF;" d="M10.4,0.3v5l0.2,0l0.2,0.2l0.1,0.3L11,7.1L10.9,8l-0.2,0.4L10,9.4L9.8,9.5L9.6,9.8
			l0,0.7l0.2,0.7l-0.1,1.1l0.1,0.4L10,13l0.2,0.8l0.7,0.8L11,15l-0.3,0.2h-0.3L10,15.4l-0.5,0.6L9,16.6l-0.6,0.8l-0.2,0.5l-0.1,0.5
			l0,1l0.1,0.2l0,0.4L8.7,21L9,21.4l0.2,0.4l0.3,0.3l0.5,0.3l-0.1,0.5l-0.3,0.1l-0.2,0.2l0,0.4l0.2,1.1l0.1,0.4v0.4l-1.2-0.7
			l-0.5-0.1l-0.5,0l-1.2-0.1l-1.8-0.5l-0.6-0.1l-0.5,0.1l-2.7,0l0-0.8l0-0.2l0-0.2l0.5-0.1l0.4-0.2l0.5-0.1l0.5-0.2L3,22l0.6-0.3
			l0.6-0.1l0.5-0.2l-0.3-0.2L3.9,21l-0.4-0.4l-0.3-0.5l0.6-0.6L4,18.6L3.4,17l-0.1-0.9l0.5-0.7l0.3-0.9L3.3,8.8l0-0.8L3.1,7.3
			L2.6,6.9L1.9,6.7l-1.7-1L0,5.6l0-0.2L5.3,0v0.1l0.3,0.8l2.2-0.3L10.4,0.3z"/>
	</g>
</g>
</svg>
