<?xml version="1.0" encoding="utf-8"?>
<!-- Generator: Adobe Illustrator 24.0.3, SVG Export Plug-In . SVG Version: 6.00 Build 0)  -->
<svg version="1.1" id="Layer_1" xmlns="http://www.w3.org/2000/svg" xmlns:xlink="http://www.w3.org/1999/xlink" x="0px" y="0px"
	 viewBox="0 0 80 57.4" style="enable-background:new 0 0 80 57.4;" xml:space="preserve">
<title>NAM3349</title>
<g id="Layer_2_1_">
	<g id="Layer_1-2">
		<path id="NAM3349" style="fill:#EFEFEF;" d="M79.9,6.5v3.2l0,3.9v4l0,2v4l0,1.6l-0.4,0l-0.3,0.1l-0.2,0l-0.9,0.1l-0.8,0.2l-0.2,0
			l-1,0l-0.6,0l-0.8-0.2l-1.6-0.2l-0.6,0l-0.5,0.1l-0.3,0l-0.7-0.1l-0.3-0.1l-0.4-0.2l-0.3-0.1l-12.1-1.4l-0.4-0.1l-0.9,0l-0.4,0.1
			l-0.3,0.1l-0.5,0.4l-0.4,0.2L48.1,27l-0.2,0.1l-0.5,0.4L47,28l-2.7,4.4l-0.1,0.2l-0.5,2.2l-0.1,0.3L43.3,36l-0.1-0.2l-0.1-0.1
			l-0.2-0.1h-0.2l-1.1,0.2L41.3,36l-0.2,0.6l-0.1,0.5v0.1l0.1,0l0.1,0l0.5-0.1h0.1l0,0.1v0.1l0,0.3l0,0.2L41.8,38l-0.2,0.1L41,38.5
			l-0.1,0.1v0.3l0.1,0.2l0.2,0.4l0,0.1l-0.1,0l-1.6-0.4l-0.1,0l-0.3,0.1L39,39.3l-0.1,0.1l0,0.3l0,0.7l0,0.1l0.1,0l0.1,0l0.3,0
			l0.3-0.1l0.1,0l0,0.1l0.1,0.5v0.2l0,0.1l-0.2,0.2l0,0.1l0,0.2l0.1,0.7v0.2l0,0.1l-0.4,0.2l0,0.2l0,0.2l0,0.2l0,0.5l0.1,0.7l0,0.2
			l0,0.2l-0.4,0.5l-0.3,0.2l-0.9,0.4l-0.2,0.2l-1.6,0.4l-0.3,0L35,47.2l-0.7,0.3l-0.5,0.4l-0.3,0.3l-0.2,0.1l-0.4,0.2l-0.7,0.1
			l-0.4,0.2h-0.1l-0.1,0l-0.2-0.2l-0.1-0.1l-0.1,0l-0.2,0l-0.7,0.2L30,48.7l-0.2,0.1L29.7,49l-0.2,0.4l-0.1,0.1L29,49.8l-0.2,0.1
			l-0.1,0.2l-0.1,0.3l-0.1,0.1l-0.1,0.1l-0.1,0.1l-0.2,0.1l-0.2,0h-0.3l-0.1,0l0,0.1l0.3,0.9l0,0.1v0.1l-0.2,0.4l-0.1,0.1l-0.1,0.1
			l-0.1,0l-0.6-0.3l-0.1,0l0,0.1l0,0.3l0,0.2l-0.1,0.1l-0.2,0.1l-0.7,0.3l-0.1,0l-0.1-0.1l-0.1-0.1L25.4,53l-0.1-0.1l-0.1-0.1
			l-0.1,0.1L25,53.1l-0.2,0.3l-0.1,0.1l0,0.2v0.5l-0.1,0.2l-0.2,0.2L23,55.2l-0.2,0l-0.1-0.1L22.6,55l-0.1-0.2l-0.1-0.1l-0.1-0.1
			l-0.1,0.1L22,54.7l-1,0.8l-0.1,0.1h-0.1l-0.1-0.1l-0.1-0.2l-0.1-0.1l-0.1-0.1l-0.2,0.1l-0.2,0.1l-0.3,0.3l-0.1,0.1l-0.2,0.1h-0.2
			l-0.7,0.3l-0.1,0L18.2,56l-0.2-0.1l-0.4,0l-0.2-0.1l-0.1-0.2l-0.1-0.3l-0.1-0.1l-0.1,0h-0.1l-0.1,0.1l-0.1,0.1L16.2,56l-0.1,0.1
			l0,0.1l0,0.1l0.1,0.1l0.1,0l0.5-0.1l0.1,0l0.1,0.1l0.1,0.2L17,56.8L16.9,57l-0.4,0L16,56.9h-0.1l-0.3,0.1L15.4,57l-0.3-0.2
			L15,56.7l-0.1,0.1l-0.1,0.1l-0.2,0.3l-0.1,0.1l-0.1,0.1l-0.1-0.1L14,57.2l-0.2-0.1l-1.2,0.3l-0.5-0.8l-0.1-0.2l0-0.2l0-0.1
			l0.1-0.2l0-0.1v-0.1l-0.4-0.9l0-0.2l0.1-0.1l0.5-0.4l0.2-0.2l0.3-0.1l0.1-0.1l-0.1-0.1l-0.5-0.7l-0.1-0.1l0.1,0l0.3,0l0.1-0.1
			l0.1-0.2l0-0.5l0.1-0.4l0.1-0.2l0-0.1L13,51.1L12.9,51v-0.1l0.1-0.2l0.1-0.1l0-0.2l0-0.2l-0.2-0.4l-0.1-0.1l-0.2-0.1l-0.1-0.3
			l0-0.4L11.9,47l0.4-1.8l0.2-1.3l0-0.2l0.1-0.1l0.2-0.2l0.6-0.8l0.6-0.6l0-0.5l-0.4-2l0.1-0.5v-0.9L12.2,38l-0.1,0L12,37.9
			l-0.1-0.1l-0.1-0.2l-0.1-0.1L11.2,37l-0.1-0.1l-0.3-0.1l-0.2-0.1l-0.4-0.4L10.1,36L10,35.8l-0.1-0.5l0-0.1l-0.1,0l-0.1,0.1
			l-0.6,0.7L9,36l-0.1,0L8.7,36l-0.6-0.4l-0.7-0.3l-0.9-0.9l-3-1.6l-1.2-1.1l-0.1-0.2L2,30.8l-0.1-0.1l-0.1-0.1l-0.2,0l-0.5,0.1H0.9
			l-0.8-0.2L0,30.3l0-0.2l0.1-1.7l1,0.1l1.2,0.3h0.2l0.2-0.1l0.9-0.4l0.2-0.1l0.9-1.1L5,26.9l0.5-0.3l1-0.4l0.1,0l0.9,0l0.1,0
			l0.7-0.3l0.1,0l0.2,0l0.2,0l0.2,0l0.3,0.2l0.2,0l0.2,0l0.2-0.1l0.2-0.1l0.2-0.1l0.1-0.2l0-0.2V25l-0.1-0.5l0-1.3l0.1-0.1l0.1-0.1
			l2.7-1.4l0.4,0l0.1,0l0.1,0l0-0.1l-0.2-0.7l0-0.1l0-0.9l0.1-0.1h1.3l0.4-0.1l0.8-0.6l-0.1-0.6l0.2-5.8l-0.1-0.7l0-0.3l0.1-0.2
			l0.1-0.1l4.1-2.1l1.4-1.8l0.6-1l1.1-0.3L24,6.2l0.2,0.1l0.1,0.2l0.1,0.1l0.2,0.1l0.5,0l0.2,0.1l0.2,0.1l0.2,0.3l0.1,0.1l0,0.1
			l-0.1,0.5l0,0.1l0.1,0l0.1,0l0.1,0l0.1,0l0-0.1V7.8l0-0.1l0.1-0.1l0.4-0.1l0.3-0.1l0.1,0l0.1,0.1L27.3,8v0.1l0,0.1l-0.1,0
			l-0.3,0.1l-0.1,0l0,0.1l0,0.6l0,0.1l0,0.1L27,9.5l0.2,0.1l0.2,0.1l0.3-0.1l0.2,0l0.2,0.1l0.5,0.3l0.1,0.1l0.1,0.1l0,0.3l0.1,0.1
			l0.3,0.2l0.2,0.1l0.2,0.1l0.4,0l0.3,0.1l0.2,0.1l0.5,0.5l0.2,0.1l0.9,0.1l0.2-0.1l0.5-0.2l0.4-0.1h0.2l0.1,0.1l0.1,0.1l0.1,0.3
			l0.1,0.1h0.1l0.2-0.1l0.7-0.4l0.2-0.1l0.1-0.1L34.7,11l-0.5-0.6l-0.1-0.2l0-0.2l0-0.2l0.1-0.3l0.1-0.2L34.3,9l0.5-0.3l0.1-0.2
			l0-0.2L35,8.2l0.1-0.1l0.2-0.1l0.2,0L35.7,8l0.1-0.1l0.1-0.3l0.1-0.5V6.5l0-0.2L36,6.1L36.1,6l0-0.2V5.6L36,4.5l0-0.2l0.1-0.1
			l0.2,0h0.2l0.2-0.1L37,4l0.4-0.4l0.3-0.2l0.4-0.2L38.3,3l0.1-1.6L38.6,0l15.5,0.9l0,5.9L79.9,6.5z"/>
	</g>
</g>
</svg>
