<?xml version="1.0" encoding="utf-8"?>
<!-- Generator: Adobe Illustrator 24.0.3, SVG Export Plug-In . SVG Version: 6.00 Build 0)  -->
<svg version="1.1" id="Layer_1" xmlns="http://www.w3.org/2000/svg" xmlns:xlink="http://www.w3.org/1999/xlink" x="0px" y="0px"
	 viewBox="0 0 64 15.9" style="enable-background:new 0 0 64 15.9;" xml:space="preserve">
<title>NAM3356</title>
<g id="Layer_2_1_">
	<g id="Layer_1-2">
		<path id="NAM3356" style="fill:#EFEFEF;" d="M0.1,13.3L0,7.8l1.6-0.4l0.2,0.1l0.3-0.1l0.2-0.1l0.3-0.1l0.2,0l0.6,0l0.2,0.1
			l0.7,0.4L5.2,8l0.4,0.2l0.2,0.3l0.1,0l0.3-0.1l4.8-0.9l3.8-0.7l7.5-1.4l3.1-0.6l3-0.6l3.1-0.6l3-0.6l1.9-0.4L37,2.4h0.3l4.3-0.9
			L44.1,1l4.3-0.9l0.3,0l0.3,0l0.8,0l0.2,0.1l0.1-0.1L50.7,0L51,0l0.3,0l0.6,0.2l0.4,0.1l0.3,0.1L53,0.6l0.1,0.1l0.1,0.1l0.1,0.1
			L53.6,1l0.1,0l0.1,0L54,0.9l0.2-0.2l0.2-0.1l0.2-0.2l0.1,0h0.7l1.3,0.2l0.1,0l0.2,0.1l0.2,0l0.5,0l1,0.2L59,1.1l0.2,0.3l0.3-0.1
			l0.2,0.1l0.2,0.2l0.2,0.2h0.1l0.3-0.1l0.2,0l0,0L60.6,2v0.1l0.1,0.1l0.1,0.1l0.1,0h0.2l0,0.1l0.3,0.2l0.1,0l0.1,0.5l0,0.1l0.1,0
			l0.1,0.1l0.1,0.1l0,0.1l0.1-0.2h0.1l0.2,0.2l0,0.1l0,0.2l0,0.1L62.5,4l0.3,0.2L63,4.5l0.1,0.1h0.2l0.2,0.1l0.2,0.1l0.2,0.2L64,5.1
			l-1-0.2h-0.6l-0.5,0.5l-0.5,0.2H61l-0.1-0.3l-0.4,0.3l-0.2,0l-0.1-0.2l-0.2,0.1l-0.1-0.1l-0.1-0.1l-0.1-0.1L59.6,5l-0.2,0
			l-0.1,0.1l-0.1,0.1l-0.1,0.1l-0.1,0.1L58,5.7l-0.3,0l-0.2,0.1l-0.4,0.3l-0.3,0.1l-0.1,0.1l-0.1,0.2l-0.1,0l-0.1,0l-0.1,0.1L56,6.7
			l-0.4,0.5l-0.5,0.3l-0.2,0.2l-0.8,0.9L53.8,9l0,0.1l-0.1,0l-0.7,0.1l-0.2,0.1l-0.5-0.5l0-0.2l-0.1-0.1L52,8.4l-0.1-0.1l-0.3-0.5
			l-0.2-0.2l-0.3-0.1l-0.5,0l-0.2,0.1l-0.2,0.2l-0.4,0.8l-0.1,0.1l-0.1,0l-0.2-0.1l-0.2,0l-0.3,0l-0.3,0l-0.5,0.3l-0.7,0.9L46.6,10
			l-0.5,0.1L46,10.2l-0.4,0.4l-0.1,0.1L45,10.9L44.8,11l-0.1,0.1l-0.1,0.1l-0.1-0.1h-0.2l-0.5,0.4L43.8,12l-0.2,0.2l-0.4,0.3
			L43,12.7l-0.3,0.4l-0.2,0.2l-0.2,0.1l-1.4,1.5l-0.2,0.1l-0.3,0.1L40,15.5l-0.2,0.1l-0.5,0.2H39l-0.2-0.2L38.7,15l-0.2-0.7
			l-0.1-0.2l0.2-0.3l-0.1-0.3l-0.5-0.5l0.1-0.3L38,12.5l-0.2-0.1l-0.1-0.2l-0.1-0.2L37.5,12l-0.2,0l-0.2-0.1L37,11.7l-0.2-0.3
			l-0.2-0.2l-0.2,0.2l-0.1,0l-0.2-0.1l0-0.1l0-0.3l0-0.1L36,10.7l-0.4-0.5l-0.2-0.4l-0.2-0.2l-0.1-0.2l0-0.4l-0.1,0l-0.2,0l0-0.1
			V8.6l0-0.1l-0.1-0.1l-0.2-0.1l-0.5,0l-4.1,0.3l-1.3,0.3l-5.1,1L21,10.4l-1.3,0.2l-5,1l-1.3,0.2l-2.5,0.5L7.3,13l-0.6,0L0.1,13.3z"
			/>
	</g>
</g>
</svg>
