<svg xmlns="http://www.w3.org/2000/svg" viewBox="0 0 1037.21 213.45"><title>Nust Logo Black</title><g id="Layer_2" data-name="Layer 2"><g id="Layer_1-2" data-name="Layer 1"><path d="M120.89,89.9s-78,51.94-78.24,52.06c-1.95,1-3.95-.3-3.95-3V90.11l73-49.15s9.2-5.2,9.2,10.13Z" style="fill:#1d1d1b"/><path d="M96.28,23.93c-13.41,0-21.65,1.32-33.64,3.8V73.92L38.81,90V14.25a6.49,6.49,0,0,1,5-6.67C53.59,5,75.59,0,96.28,0S139,5,148.7,7.58a6.48,6.48,0,0,1,5,6.67V138.86c0,3.19-2.9,4.37-5.12,2.07l-18.72-12.46,0-100.74C117.94,25.25,109.7,23.93,96.28,23.93Z" style="fill:#1d1d1b"/><path d="M96.28,213.45C59.8,206.9,0,183,0,127.92V40.25a5.62,5.62,0,0,1,2.7-5c6.37-3.48,21.11-9.08,21.11-9.08l0,101.71c0,23.95,18.39,50,72.49,59.76,54.11-9.76,72.5-35.81,72.5-59.76l0-101.71s14.75,5.6,21.11,9.08a5.61,5.61,0,0,1,2.71,5v87.67C192.57,183,132.77,206.9,96.28,213.45Z" style="fill:#1d1d1b"/><path d="M601.53,165.15a2.42,2.42,0,0,1-2.53-2.48V150.59l-16.49.19.2,11.89a2.51,2.51,0,0,1-5,0V139.29c0-9,10.81-11.39,13-11.78,3.18.58,13.33,3.13,13.33,11.78v23.38A2.43,2.43,0,0,1,601.53,165.15ZM590.71,132.8c-7.23,1.4-8,5-8,6.49V149.6l5.46-3.67,11,0-.2-6.61c0-1.48-.78-5.09-8-6.49ZM325.16,88.67a4.05,4.05,0,0,1-8.1,0V59.78c0-10.5,11.23-14.5,16.83-15.5,6.36,1,17.6,5,17.6,15.5V88.67a4.05,4.05,0,0,1-8.1,0V74.92H325.16Zm0-28.89V70.72L330.72,67h12.67V59.78c0-2.23-1.59-5.63-9.12-7.09C326.75,54.15,325.16,57.55,325.16,59.78ZM859.81,162.64V133a.82.82,0,0,0-.6-.73,36.53,36.53,0,0,0-15.85,0,.84.84,0,0,0-.6.73V162.9a2.51,2.51,0,0,1-5-.26V129.43a1.2,1.2,0,0,1,.94-1.26,44.53,44.53,0,0,1,25.2,0,1.2,1.2,0,0,1,.94,1.26V163a2.52,2.52,0,0,1-5-.33Zm-378.88,0,0-29.65a.82.82,0,0,0-.6-.73,36.58,36.58,0,0,0-15.86,0,.85.85,0,0,0-.59.73V162.9a2.51,2.51,0,0,1-5-.26V129.43a1.2,1.2,0,0,1,.94-1.26,44.53,44.53,0,0,1,25.2,0,1.2,1.2,0,0,1,.94,1.26V163a2.51,2.51,0,0,1-5-.33ZM398,53.49V89A4,4,0,0,1,397,91.4a3.15,3.15,0,0,1-.38.35l-.47.34a3.78,3.78,0,0,1-.52.27,3.72,3.72,0,0,1-1,.29,3.36,3.36,0,0,1-.56,0,4.06,4.06,0,0,1-4.06-4.06l0-35.14a28.24,28.24,0,0,0-15.33,0V89a4.06,4.06,0,0,1-8.11-.32V49a2.41,2.41,0,0,1,1.87-2.46,48.82,48.82,0,0,1,13.92-2.3A43.47,43.47,0,0,1,394,46a43.64,43.64,0,0,1,11.74-1.7,48.81,48.81,0,0,1,13.91,2.3A2.43,2.43,0,0,1,421.48,49V89a4.06,4.06,0,0,1-8.1-.41l0-35.14a28.24,28.24,0,0,0-15.33,0ZM398,89V89A4.1,4.1,0,0,1,397,91.4,4,4,0,0,0,398,89ZM704.24,49V89a4.07,4.07,0,0,1-8.11-.41l0-35.14a44.91,44.91,0,0,0-19.4,0V89a4.06,4.06,0,0,1-8.11-.32V49a2.43,2.43,0,0,1,1.87-2.46,56.49,56.49,0,0,1,31.91,0A2.43,2.43,0,0,1,704.24,49ZM300.32,49V89a4.06,4.06,0,0,1-8.1-.41l0-35.14a44.91,44.91,0,0,0-19.4,0V89a4.07,4.07,0,0,1-8.13-.32V49a2.42,2.42,0,0,1,1.88-2.46,67.35,67.35,0,0,1,16-2.3,67.33,67.33,0,0,1,15.95,2.3A2.43,2.43,0,0,1,300.32,49Zm319.9-4.61a2.26,2.26,0,0,1,3.15,2.06V78.38c0,2.23,1.68,5.63,9.65,7.09,8-1.46,9.65-4.86,9.65-7.09V46.49a2.27,2.27,0,0,1,3.15-2.06s2.63,1,3.77,1.55a3,3,0,0,1,1.66,2.69V78.38c0,10.49-11.89,14.49-17.82,15.5-6.73-1-18.64-5-18.64-15.5V48.67A3,3,0,0,1,616.45,46C617.58,45.39,620.22,44.43,620.22,44.43ZM723,126.88a2.27,2.27,0,1,1,0,4.53h-8.34V162.8a2.35,2.35,0,0,1-4.7,0V131.41h-8.28a2.27,2.27,0,1,1,0-4.53Zm30.16,0a2.27,2.27,0,0,1,0,4.53H739.37V142.8h13.11a2.21,2.21,0,0,1,2.3,2.24,2.26,2.26,0,0,1-2.3,2.3H739.37v12.75h14.15a2.19,2.19,0,0,1,2.25,2.24,2.22,2.22,0,0,1-2.25,2.3h-16a2.76,2.76,0,0,1-2.81-2.77V129.64a2.76,2.76,0,0,1,2.81-2.76Zm33.5,1.58a2.48,2.48,0,0,1,1.58,2.18c0,1.31-1.21,2.2-3.49,1.81a11.05,11.05,0,0,0-5.78-1.67c-5.17,0-8.34,3.13-8.34,8.18v13.57c0,5.1,3.21,8.19,8.34,8.19a10.6,10.6,0,0,0,5.36-1.52,3.82,3.82,0,0,1,1.66-.53,2.23,2.23,0,0,1,2.25,2.19,2.27,2.27,0,0,1-1.18,2,14.23,14.23,0,0,1-8.09,2.29c-7.65,0-13-4.81-13-12.83V139.18c0-8.12,5.38-12.83,13-12.83A15.73,15.73,0,0,1,786.66,128.46Zm36.65.19v34.2a2.27,2.27,0,0,1-2.28,2.3,2.31,2.31,0,0,1-2.36-2.3V147.29H803.88v15.56a2.35,2.35,0,0,1-4.7,0v-34.2a2.35,2.35,0,0,1,4.7,0v14.1h14.79v-14.1a2.3,2.3,0,0,1,2.36-2.3A2.28,2.28,0,0,1,823.31,128.65Zm80.4,10.1v13.94c0,7.69-5,12.46-12.62,12.46s-12.62-4.77-12.62-12.46V138.75c0-7.68,5-12.4,12.62-12.4S903.71,131.07,903.71,138.75Zm-20.54-.26V153c0,4.74,3,7.72,7.92,7.72s8-3,8-7.72V138.49c0-4.77-3-7.71-8-7.71S883.17,133.71,883.17,138.49Zm37.39-9.79v31.39h14.15a2.18,2.18,0,0,1,2.24,2.24,2.21,2.21,0,0,1-2.24,2.3h-16a2.8,2.8,0,0,1-2.83-2.77V128.7a2.35,2.35,0,1,1,4.7,0Zm47.27,10.05v13.94c0,7.69-5,12.46-12.61,12.46s-12.61-4.77-12.61-12.46V138.75c0-7.68,5-12.4,12.61-12.4S967.83,131.07,967.83,138.75Zm-20.53-.26V153c0,4.74,3,7.72,7.92,7.72s8-3,8-7.72V138.49c0-4.77-3.05-7.71-8-7.71S947.3,133.71,947.3,138.49Zm53.2-10a2.49,2.49,0,0,1,1.38,2.14c0,1.46-1.38,2.12-3.55,1.8a16.46,16.46,0,0,0-6.14-1.66c-5.48,0-8.6,3.08-8.6,8.55v12.83c0,5.43,3.12,8.56,8.6,8.56a20.54,20.54,0,0,0,6.4-1.06V148.49h-5.4a2.2,2.2,0,0,1-2.24-2.3,2.16,2.16,0,0,1,2.24-2.24h7.33a2.71,2.71,0,0,1,2.77,2.71v14.1a2.82,2.82,0,0,1-1.68,2.57,27,27,0,0,1-9.42,1.82c-8.13,0-13.3-4.82-13.3-13.15V139.49c0-8.36,5.12-13.14,13.3-13.14A18.52,18.52,0,0,1,1000.5,128.5Zm26.62,34.3a2.36,2.36,0,0,1-4.71,0V147.9l-10.3-19.06a2.21,2.21,0,0,1,2.23-2.49,2,2,0,0,1,2,1.11l8.46,15.61,8.44-15.61a2.05,2.05,0,0,1,2-1.11c1.46,0,2.32,1.18,1.92,3.44l-10,18.11ZM289.69,138.75v13.94c0,7.69-5,12.46-12.61,12.46s-12.62-4.77-12.62-12.46V138.75c0-7.68,5-12.4,12.62-12.4S289.69,131.07,289.69,138.75Zm-20.53-.26V153c0,4.74,3,7.72,7.92,7.72s8-3,8-7.72V138.49c0-4.77-3.06-7.71-8-7.71S269.16,133.71,269.16,138.49Zm49.76-11.61a2.27,2.27,0,1,1,0,4.53H305.23V142.8h13a2.21,2.21,0,0,1,2.29,2.24,2.25,2.25,0,0,1-2.29,2.3h-13V162.8a2.35,2.35,0,1,1-4.69,0V129.64a2.79,2.79,0,0,1,2.82-2.76Zm45.25,1.31a2.21,2.21,0,0,1,1.33,2.13,2.11,2.11,0,0,1-2.08,2.19,3.1,3.1,0,0,1-.95-.15l-.8-.3a17.65,17.65,0,0,0-6.74-1.28c-3.7,0-6.35,2.32-6.35,5.09s1.45,4.24,4.48,5.72l6.08,3c3.43,1.75,7.36,4.18,7.36,10.31,0,6.56-5.42,10.26-11.62,10.26a22.38,22.38,0,0,1-9.54-2,2.23,2.23,0,0,1-1.46-2.14,2.15,2.15,0,0,1,2.2-2.24,3.84,3.84,0,0,1,1.78.51,15.54,15.54,0,0,0,7,1.48c3.93,0,6.92-2.08,6.92-5.72,0-3.36-1.85-4.85-5.16-6.51l-6.13-3c-3.82-1.88-6.63-4.6-6.63-9.47,0-5.65,4.77-9.63,11.26-9.63A19.84,19.84,0,0,1,364.17,128.19Zm33,.27a2.47,2.47,0,0,1,1.57,2.18c0,1.31-1.2,2.2-3.48,1.81a11.08,11.08,0,0,0-5.78-1.67c-5.17,0-8.34,3.13-8.34,8.18v13.57c0,5.1,3.21,8.19,8.34,8.19a10.63,10.63,0,0,0,5.36-1.52,3.82,3.82,0,0,1,1.66-.53,2.22,2.22,0,0,1,2.24,2.19,2.28,2.28,0,0,1-1.17,2,14.25,14.25,0,0,1-8.09,2.29c-7.65,0-13-4.81-13-12.83V139.18c0-8.12,5.38-12.83,13-12.83A15.73,15.73,0,0,1,397.13,128.46Zm17.22.19v34.2a2.35,2.35,0,0,1-4.7,0v-34.2a2.35,2.35,0,0,1,4.7,0ZM446,126.88a2.27,2.27,0,0,1,0,4.53H432.25V142.8h13.11a2.21,2.21,0,0,1,2.29,2.24,2.25,2.25,0,0,1-2.29,2.3H432.25v12.75h14.16a2.27,2.27,0,0,1,0,4.54h-16a2.76,2.76,0,0,1-2.82-2.77V129.64a2.76,2.76,0,0,1,2.82-2.76Zm71.25,1.58a2.46,2.46,0,0,1,1.58,2.18c0,1.31-1.2,2.2-3.48,1.81a11.08,11.08,0,0,0-5.78-1.67c-5.18,0-8.35,3.13-8.35,8.18v13.57c0,5.1,3.22,8.19,8.35,8.19A10.63,10.63,0,0,0,515,159.2a3.82,3.82,0,0,1,1.66-.53,2.22,2.22,0,0,1,2.24,2.19,2.28,2.28,0,0,1-1.17,2,14.23,14.23,0,0,1-8.09,2.29c-7.66,0-13-4.81-13-12.83V139.18c0-8.12,5.39-12.83,13-12.83A15.66,15.66,0,0,1,517.29,128.46Zm31-1.58a2.27,2.27,0,0,1,0,4.53H534.52V142.8h13.11a2.21,2.21,0,0,1,2.3,2.24,2.26,2.26,0,0,1-2.3,2.3H534.52v12.75h14.15a2.27,2.27,0,0,1,0,4.54h-16a2.77,2.77,0,0,1-2.82-2.77V129.64a2.77,2.77,0,0,1,2.82-2.76Zm-99-78.73V88.76a4,4,0,0,1-7.94,0V48.15a4,4,0,0,1,7.94,0Zm35.27-3.22c8.85,0,14.25,4.92,14.25,13.14a11.19,11.19,0,0,1-4.68,9.21,12.48,12.48,0,0,1,6,10.89c0,8.6-5.46,13.86-15.17,13.86H474.34a4.52,4.52,0,0,1-4.66-4.52V49.46a4.53,4.53,0,0,1,4.66-4.53Zm-7,26.47V84.56H485c4.43,0,7.24-2.45,7.24-6.58S489,71.4,484.65,71.4Zm0-19V67.83l5.83-3.91h.76c3.94,0,6.64-2.15,6.64-5.72s-2.42-5.79-6.25-5.79Zm48.45-4.26V88.76a4,4,0,0,1-7.93,0V48.15a4,4,0,0,1,7.93,0Zm204.88.4V89.16a4,4,0,0,1-7.94,0V48.55a4,4,0,0,1,7.94,0Zm51.16-.13a3.85,3.85,0,0,1-.14,1.07l-.27,1L769.47,89c-.85,2.83-2.68,4.11-5,4.11s-4.25-1.27-5.1-4.11L747.12,50.47l-.27-1a3.75,3.75,0,0,1,3.79-4.79,3.85,3.85,0,0,1,3.84,2.8l9.95,32.05,9.83-32.05a4,4,0,0,1,7.84.94ZM822,45.34A3.84,3.84,0,0,1,822,53H805.8V67.49l4.92-3.29h10.4a3.84,3.84,0,1,1,0,7.67H805.8v12.9h16.64a3.84,3.84,0,0,1,0,7.67H802.53a4.54,4.54,0,0,1-4.66-4.53v-38a4.54,4.54,0,0,1,4.66-4.53Zm38.42,0c9.41,0,14.85,5.6,14.85,14,0,6.49-3.45,11-9.25,12.68l9,14.86a4.68,4.68,0,0,1,.59,2.17,4,4,0,0,1-7.26,2.3l-11-18.22h-5.43V89.1a4,4,0,1,1-7.94,0V49.87a4.62,4.62,0,0,1,4.67-4.53Zm-8.48,7.47V69.23l5.16-3.46h3.32c4.54,0,6.91-2.41,6.91-6.37,0-4.18-2.52-6.59-6.91-6.59Zm65.93-5.64a3.77,3.77,0,0,1,2.26,3.62,3.56,3.56,0,0,1-3.54,3.67,5.12,5.12,0,0,1-1.57-.25,16.31,16.31,0,0,1-1.53-.58,18,18,0,0,0-7.68-1.47c-3.65,0-6.78,1.89-6.78,5,0,2.83,1.46,4.22,5.16,5.9l7.69,3.55c4.45,2.06,9.49,5.15,9.49,13.08,0,8.33-6.76,13.4-15.49,13.4a29,29,0,0,1-12.44-2.61,3.8,3.8,0,0,1-2.4-3.62,3.58,3.58,0,0,1,3.66-3.8,7.45,7.45,0,0,1,3.16.83,19.38,19.38,0,0,0,8,1.73c4.59,0,7.49-2.07,7.49-5.72,0-3.23-1.76-4.67-5.68-6.57l-8-3.75c-4.7-2.21-8.58-5.77-8.58-12.16,0-7.8,6.24-12.74,15.1-12.74A25.73,25.73,0,0,1,917.85,47.17Zm28.92,1.38V89.16a4,4,0,0,1-7.93,0V48.55a4,4,0,0,1,7.93,0Zm44.65-3.21a3.84,3.84,0,0,1,0,7.67H982V89.1a4,4,0,0,1-8,0V53h-9.35a3.84,3.84,0,1,1,0-7.67ZM1037,48.49a3.41,3.41,0,0,1-.25,1.26,10.14,10.14,0,0,1-.55,1.09l-12,21V89.1a4,4,0,1,1-7.93,0V71.82l-12-21a7.33,7.33,0,0,1-.54-1.09,3.22,3.22,0,0,1-.25-1.26,3.78,3.78,0,0,1,3.86-3.81,3.34,3.34,0,0,1,3.28,1.85l9.6,17.44,9.54-17.37a3.39,3.39,0,0,1,3.28-1.92A3.79,3.79,0,0,1,1037,48.49ZM552.09,59.78V70.72L557.65,67h12.67V59.78c0-2.23-1.59-5.63-9.11-7.09C553.69,54.15,552.09,57.55,552.09,59.78Zm0,28.89a4.06,4.06,0,0,1-8.11,0V59.78c0-10.5,11.23-14.5,16.83-15.5,6.36,1,17.6,5,17.6,15.5V88.67a4.05,4.05,0,0,1-8.1,0V74.93H552.1Zm102.55,76.48a2.84,2.84,0,0,1-2.9-2.84V129.85a2.85,2.85,0,0,1,2.9-2.86h7.29c9,0,14.36,5.26,14.36,14v10.09c0,8.78-5.37,14-14.36,14Zm2-4.45,5.5-.19c5.84,0,9.34-3.49,9.34-9.34V141c0-5.85-3.5-9.35-9.34-9.35h-5.5Zm-20.69,1.94V133a.84.84,0,0,0-.6-.73,36.53,36.53,0,0,0-15.85,0,.84.84,0,0,0-.6.73V162.9a2.52,2.52,0,0,1-5-.26V129.43a1.21,1.21,0,0,1,.95-1.26,44.53,44.53,0,0,1,25.2,0,1.21,1.21,0,0,1,.93,1.26V163a2.52,2.52,0,0,1-5-.33Z" style="fill:#1d1d1b"/></g></g></svg>