<svg xmlns="http://www.w3.org/2000/svg" viewBox="0 0 972.64 200.17"><title>Nust Logo White </title><g id="Layer_2" data-name="Layer 2"><g id="Layer_1-2" data-name="Layer 1"><path d="M113.36,84.31S40.21,133,40,133.12c-1.84.9-3.71-.28-3.71-2.77V84.5l68.44-46.09s8.63-4.88,8.63,9.5Z" style="fill:#fff"/><path d="M90.29,22.44C77.71,22.44,70,23.67,58.74,26V69.31l-22.34,15v-71A6.09,6.09,0,0,1,41.13,7.1C50.25,4.66,70.89,0,90.29,0s40,4.66,49.16,7.1a6.1,6.1,0,0,1,4.72,6.26V130.21c0,3-2.72,4.1-4.8,1.95l-17.56-11.69,0-94.47C110.6,23.67,102.87,22.44,90.29,22.44Z" style="fill:#fff"/><path d="M90.29,200.17C56.07,194,0,171.63,0,120V37.75A5.26,5.26,0,0,1,2.54,33.1c6-3.26,19.79-8.51,19.79-8.51l0,95.37c0,22.46,17.25,46.89,68,56.05,50.74-9.16,68-33.59,68-56l0-95.37S172.07,29.84,178,33.1a5.28,5.28,0,0,1,2.54,4.65V120C180.58,171.63,124.5,194,90.29,200.17Z" style="fill:#fff"/><path d="M564.08,154.87a2.28,2.28,0,0,1-2.37-2.33V141.22l-15.46.18.18,11.14a2.35,2.35,0,0,1-4.7,0V130.62c0-8.45,10.14-10.68,12.18-11.05,3,.54,12.5,2.94,12.5,11.05v21.92A2.28,2.28,0,0,1,564.08,154.87Zm-10.15-30.34c-6.77,1.32-7.5,4.7-7.5,6.09v9.66l5.12-3.44,10.34,0-.18-6.2c0-1.39-.73-4.77-7.5-6.09Zm-249-41.38a3.8,3.8,0,0,1-7.59,0V56.06c0-9.85,10.52-13.6,15.77-14.54,6,.94,16.51,4.68,16.51,14.54V83.15a3.8,3.8,0,0,1-7.6,0V70.26H304.92Zm0-27.09V66.32l5.21-3.5H322V56.06c0-2.09-1.49-5.28-8.54-6.65C306.41,50.78,304.92,54,304.92,56.06Zm501.37,96.45,0-27.8a.8.8,0,0,0-.55-.69,34.53,34.53,0,0,0-14.87,0,.81.81,0,0,0-.56.69v28.05a2.35,2.35,0,0,1-4.69-.25V121.37a1.12,1.12,0,0,1,.88-1.18,41.94,41.94,0,0,1,23.64,0,1.12,1.12,0,0,1,.87,1.18v31.45a2.35,2.35,0,0,1-4.69-.31Zm-355.3,0,0-27.8a.79.79,0,0,0-.56-.69,34.53,34.53,0,0,0-14.87,0,.81.81,0,0,0-.55.69v28.05a2.36,2.36,0,0,1-4.7-.25V121.37a1.13,1.13,0,0,1,.88-1.18,41.87,41.87,0,0,1,23.62,0,1.13,1.13,0,0,1,.89,1.18v31.45a2.35,2.35,0,0,1-4.69-.31ZM373.25,50.16V83.5a3.79,3.79,0,0,1-1,2.21,2.2,2.2,0,0,1-.35.33l-.44.32a3.81,3.81,0,0,1-.49.25,3.46,3.46,0,0,1-1,.27,3,3,0,0,1-.52,0,3.81,3.81,0,0,1-3.82-3.81V50.16a26.6,26.6,0,0,0-14.38,0V83.42a3.82,3.82,0,0,1-7.62-.31V46a2.27,2.27,0,0,1,1.76-2.31,45.84,45.84,0,0,1,13.05-2.16,40.94,40.94,0,0,1,11,1.59,40.94,40.94,0,0,1,11-1.59,45.84,45.84,0,0,1,13.05,2.16A2.28,2.28,0,0,1,395.24,46V83.5a3.81,3.81,0,0,1-7.6-.39l0-32.95a26.57,26.57,0,0,0-14.37,0Zm0,33.34v-.08a3.77,3.77,0,0,1-1,2.29A3.79,3.79,0,0,0,373.25,83.5ZM660.4,46V83.5a3.81,3.81,0,0,1-7.6-.39l0-32.95a42.32,42.32,0,0,0-18.2,0V83.42a3.81,3.81,0,0,1-7.61-.31V46a2.28,2.28,0,0,1,1.75-2.31,52.89,52.89,0,0,1,29.92,0A2.27,2.27,0,0,1,660.4,46ZM281.62,46V83.5a3.81,3.81,0,0,1-7.6-.39l0-32.95a42.32,42.32,0,0,0-18.2,0V83.42a3.81,3.81,0,0,1-7.61-.31V46A2.27,2.27,0,0,1,250,43.68a63.11,63.11,0,0,1,15-2.16,63.11,63.11,0,0,1,15,2.16A2.27,2.27,0,0,1,281.62,46Zm300-4.32a2.13,2.13,0,0,1,3,1.93V73.5c0,2.09,1.57,5.28,9,6.65,7.47-1.37,9.06-4.56,9.06-6.65V43.6a2.13,2.13,0,0,1,3-1.93s2.47.89,3.53,1.44a2.85,2.85,0,0,1,1.56,2.53V73.5c0,9.84-11.15,13.59-16.71,14.54-6.31-1-17.48-4.69-17.48-14.54V45.64a2.86,2.86,0,0,1,1.55-2.53C579.14,42.56,581.61,41.67,581.61,41.67ZM678,119a2.13,2.13,0,1,1,0,4.25h-7.82v29.43a2.2,2.2,0,1,1-4.4,0V123.23H658a2.13,2.13,0,1,1,0-4.25Zm28.29,0a2.13,2.13,0,0,1,0,4.25H693.35v10.68h12.28a2.07,2.07,0,0,1,2.16,2.1,2.12,2.12,0,0,1-2.16,2.16H693.35v12h13.27a2.13,2.13,0,0,1,0,4.26h-15a2.58,2.58,0,0,1-2.63-2.6V121.57a2.58,2.58,0,0,1,2.63-2.59Zm31.41,1.48a2.32,2.32,0,0,1,1.48,2.05c0,1.23-1.13,2.06-3.27,1.7a10.26,10.26,0,0,0-5.42-1.57c-4.85,0-7.82,2.94-7.82,7.67V143c0,4.78,3,7.68,7.82,7.68a10,10,0,0,0,5-1.42,3.44,3.44,0,0,1,1.55-.49,2.08,2.08,0,0,1,2.11,2,2.14,2.14,0,0,1-1.11,1.87,13.29,13.29,0,0,1-7.58,2.15c-7.18,0-12.22-4.51-12.22-12V130.51c0-7.61,5-12,12.22-12A14.77,14.77,0,0,1,737.69,120.46Zm34.37.18v32.07a2.13,2.13,0,0,1-2.14,2.16,2.16,2.16,0,0,1-2.21-2.16V138.12H753.84v14.59a2.21,2.21,0,0,1-4.41,0V120.64a2.21,2.21,0,0,1,4.41,0v13.22h13.87V120.64a2.15,2.15,0,0,1,2.21-2.15A2.13,2.13,0,0,1,772.06,120.64Zm75.39,9.47v13.07c0,7.21-4.69,11.69-11.83,11.69s-11.84-4.48-11.84-11.69V130.11c0-7.2,4.71-11.62,11.84-11.62S847.45,122.91,847.45,130.11Zm-19.26-.24v13.61c0,4.44,2.82,7.23,7.43,7.23s7.47-2.8,7.47-7.23V129.87c0-4.48-2.86-7.23-7.47-7.23S828.19,125.38,828.19,129.87Zm35.07-9.18v29.43h13.27a2.13,2.13,0,0,1,0,4.26h-15a2.62,2.62,0,0,1-2.65-2.6V120.69a2.21,2.21,0,0,1,4.41,0Zm44.32,9.42v13.07c0,7.21-4.69,11.69-11.82,11.69s-11.83-4.48-11.83-11.69V130.11c0-7.2,4.69-11.62,11.83-11.62S907.58,122.91,907.58,130.11Zm-19.25-.24v13.61c0,4.44,2.82,7.23,7.43,7.23s7.47-2.8,7.47-7.23V129.87c0-4.48-2.86-7.23-7.47-7.23S888.33,125.38,888.33,129.87Zm49.89-9.37a2.34,2.34,0,0,1,1.29,2c0,1.36-1.29,2-3.33,1.68a15.59,15.59,0,0,0-5.76-1.55c-5.14,0-8.07,2.89-8.07,8v12c0,5.09,2.94,8,8.07,8a19.2,19.2,0,0,0,6-1V139.24h-5.06a2.06,2.06,0,0,1-2.1-2.15,2,2,0,0,1,2.1-2.1h6.88a2.53,2.53,0,0,1,2.59,2.55v13.21a2.65,2.65,0,0,1-1.57,2.41,25.28,25.28,0,0,1-8.84,1.71c-7.62,0-12.47-4.52-12.47-12.33V130.8c0-7.84,4.8-12.31,12.47-12.31A17.32,17.32,0,0,1,938.22,120.5Zm24.95,32.16a2.16,2.16,0,0,1-2.2,2.21,2.14,2.14,0,0,1-2.2-2.21v-14l-9.67-17.87a2.07,2.07,0,0,1,2.09-2.33,1.92,1.92,0,0,1,1.85,1L961,134.17l7.92-14.65a1.92,1.92,0,0,1,1.86-1c1.36,0,2.17,1.1,1.8,3.22l-9.38,17ZM271.66,130.11v13.07c0,7.21-4.7,11.69-11.83,11.69S248,150.39,248,143.18V130.11c0-7.2,4.69-11.62,11.83-11.62S271.66,122.91,271.66,130.11Zm-19.26-.24v13.61c0,4.44,2.82,7.23,7.43,7.23s7.48-2.8,7.48-7.23V129.87c0-4.48-2.87-7.23-7.48-7.23S252.4,125.38,252.4,129.87ZM299.07,119a2.13,2.13,0,1,1,0,4.25H286.23v10.68h12.2a2.07,2.07,0,0,1,2.15,2.1,2.11,2.11,0,0,1-2.15,2.16h-12.2v14.49a2.2,2.2,0,1,1-4.4,0V121.57a2.61,2.61,0,0,1,2.64-2.59Zm42.43,1.23a2.07,2.07,0,0,1,1.25,2,2,2,0,0,1-2,2.06,2.94,2.94,0,0,1-.88-.15l-.76-.28a16.44,16.44,0,0,0-6.31-1.2c-3.47,0-6,2.17-6,4.77s1.36,4,4.2,5.37l5.7,2.8c3.22,1.64,6.9,3.92,6.9,9.67,0,6.15-5.07,9.62-10.89,9.62a21.08,21.08,0,0,1-9-1.91,2.1,2.1,0,0,1-1.36-2,2,2,0,0,1,2-2.1,3.61,3.61,0,0,1,1.68.48,14.63,14.63,0,0,0,6.58,1.38c3.68,0,6.49-2,6.49-5.36,0-3.15-1.74-4.55-4.84-6.11l-5.75-2.84c-3.58-1.76-6.21-4.31-6.21-8.89,0-5.3,4.47-9,10.55-9A18.59,18.59,0,0,1,341.5,120.21Zm30.9.25a2.32,2.32,0,0,1,1.48,2.05c0,1.23-1.13,2.06-3.26,1.7a10.29,10.29,0,0,0-5.43-1.57c-4.84,0-7.81,2.94-7.81,7.67V143c0,4.78,3,7.68,7.81,7.68a9.94,9.94,0,0,0,5-1.42,3.48,3.48,0,0,1,1.56-.49,2.07,2.07,0,0,1,2.1,2,2.14,2.14,0,0,1-1.09,1.87,13.38,13.38,0,0,1-7.6,2.15c-7.17,0-12.22-4.51-12.22-12V130.51c0-7.61,5-12,12.22-12A14.74,14.74,0,0,1,372.4,120.46Zm16.15.18v32.07a2.2,2.2,0,0,1-4.4,0V120.64a2.2,2.2,0,0,1,4.4,0ZM418.27,119a2.13,2.13,0,0,1,0,4.25H405.34v10.68h12.29a2.08,2.08,0,0,1,2.16,2.1,2.12,2.12,0,0,1-2.16,2.16H405.34v12h13.28a2.13,2.13,0,0,1,0,4.26h-15a2.58,2.58,0,0,1-2.64-2.6V121.57a2.59,2.59,0,0,1,2.64-2.59Zm66.82,1.48a2.32,2.32,0,0,1,1.48,2.05c0,1.23-1.12,2.06-3.27,1.7a10.24,10.24,0,0,0-5.42-1.57c-4.85,0-7.82,2.94-7.82,7.67V143c0,4.78,3,7.68,7.82,7.68a10,10,0,0,0,5-1.42,3.37,3.37,0,0,1,1.55-.49,2.07,2.07,0,0,1,2.1,2,2.14,2.14,0,0,1-1.09,1.87,13.38,13.38,0,0,1-7.6,2.15c-7.17,0-12.22-4.51-12.22-12V130.51c0-7.61,5-12,12.22-12A14.74,14.74,0,0,1,485.09,120.46ZM514.17,119a2.13,2.13,0,0,1,0,4.25H501.25v10.68h12.29a2.07,2.07,0,0,1,2.15,2.1,2.12,2.12,0,0,1-2.15,2.16H501.25v12h13.27a2.13,2.13,0,0,1,0,4.26h-15a2.58,2.58,0,0,1-2.64-2.6V121.57a2.59,2.59,0,0,1,2.64-2.59ZM421.35,45.15V83.23a3.73,3.73,0,0,1-7.45,0V45.15a3.73,3.73,0,0,1,7.45,0Zm33.07-3c8.3,0,13.37,4.61,13.37,12.31a10.47,10.47,0,0,1-4.39,8.64A11.7,11.7,0,0,1,469,73.31c0,8.06-5.12,13-14.23,13h-10a4.24,4.24,0,0,1-4.37-4.24V46.38a4.25,4.25,0,0,1,4.37-4.24ZM447.88,67V79.3h6.91c4.16,0,6.79-2.3,6.79-6.18s-3-6.17-7.1-6.17Zm0-17.81V63.61l5.46-3.67h.71c3.7,0,6.24-2,6.24-5.36s-2.28-5.44-5.87-5.44Zm45.43-4V83.23a3.72,3.72,0,0,1-7.43,0V45.15a3.72,3.72,0,0,1,7.43,0Zm192.12.38V83.61a3.72,3.72,0,0,1-7.44,0V45.53a3.72,3.72,0,0,1,7.44,0Zm48-.13a4.3,4.3,0,0,1-.12,1l-.26.92L721.57,83.44c-.8,2.65-2.51,3.86-4.72,3.86s-4-1.2-4.78-3.86L700.61,47.33l-.25-.94a3.81,3.81,0,0,1-.14-1,3.67,3.67,0,0,1,3.69-3.5,3.6,3.6,0,0,1,3.6,2.62l9.34,30.06,9.21-30.06a3.77,3.77,0,0,1,7.35.88Zm37.4-2.88a3.6,3.6,0,0,1,0,7.19H755.64V63.29l4.61-3.09H770a3.6,3.6,0,1,1,0,7.2H755.64V79.49h15.6a3.6,3.6,0,0,1,0,7.2H752.57a4.26,4.26,0,0,1-4.37-4.25V46.76a4.25,4.25,0,0,1,4.37-4.24Zm36,0c8.82,0,13.92,5.25,13.92,13.17,0,6.09-3.23,10.33-8.67,11.89l8.48,13.93a4.59,4.59,0,0,1,.55,2,3.75,3.75,0,0,1-6.81,2.16L804,68.63h-5.09V83.55a3.73,3.73,0,1,1-7.45,0V46.76a4.33,4.33,0,0,1,4.38-4.24Zm-8,7v15.4l4.84-3.24h3.11c4.25,0,6.48-2.27,6.48-6-.05-3.92-2.36-6.18-6.48-6.18Zm61.82-5.29a3.54,3.54,0,0,1,2.12,3.39,3.35,3.35,0,0,1-3.32,3.45,4.77,4.77,0,0,1-1.47-.23c-.44-.14-.89-.33-1.43-.55a16.93,16.93,0,0,0-7.21-1.38c-3.42,0-6.35,1.78-6.35,4.69,0,2.65,1.37,4,4.83,5.53l7.21,3.33c4.18,1.93,8.91,4.83,8.91,12.27,0,7.81-6.34,12.57-14.54,12.57a27.35,27.35,0,0,1-11.66-2.45,3.56,3.56,0,0,1-2.25-3.39A3.36,3.36,0,0,1,839,77.89a7.08,7.08,0,0,1,3,.77,18.1,18.1,0,0,0,7.52,1.63c4.32,0,7-1.94,7-5.36,0-3-1.66-4.38-5.33-6.17l-7.52-3.51c-4.41-2.07-8-5.41-8-11.4,0-7.32,5.86-12,14.17-12A24.12,24.12,0,0,1,860.71,44.23Zm27.12,1.3V83.61a3.72,3.72,0,0,1-7.44,0V45.53a3.72,3.72,0,0,1,7.44,0Zm41.87-3a3.6,3.6,0,0,1,0,7.19h-8.82V83.55a3.75,3.75,0,1,1-7.5,0V49.71h-8.76a3.6,3.6,0,1,1,0-7.19Zm42.75,2.95a3,3,0,0,1-.24,1.18,10.68,10.68,0,0,1-.5,1L960.49,67.35v16.2a3.72,3.72,0,1,1-7.44,0V67.35L941.84,47.68a7.42,7.42,0,0,1-.5-1,3,3,0,0,1-.24-1.18,3.55,3.55,0,0,1,3.63-3.57,3.12,3.12,0,0,1,3.07,1.73l9,16.36,9-16.3a3.18,3.18,0,0,1,3.07-1.79A3.55,3.55,0,0,1,972.45,45.47ZM517.72,56.06V66.32l5.21-3.5h11.88V56.06c0-2.09-1.49-5.28-8.55-6.65C519.22,50.78,517.72,54,517.72,56.06Zm0,27.09a3.8,3.8,0,0,1-7.6,0V56.06c0-9.85,10.53-13.6,15.78-14.54,6,.94,16.51,4.68,16.51,14.54V83.15a3.8,3.8,0,0,1-7.6,0V70.26H517.73Zm96.17,71.72a2.66,2.66,0,0,1-2.72-2.67V121.77a2.66,2.66,0,0,1,2.72-2.68h6.84c8.42,0,13.46,4.93,13.46,13.16v9.46c0,8.24-5,13.16-13.46,13.16Zm1.83-4.17,5.16-.18c5.47,0,8.75-3.28,8.75-8.76V132.2c0-5.48-3.28-8.76-8.75-8.76h-5.16Zm-19.4,1.81,0-27.8a.81.81,0,0,0-.56-.69,34.53,34.53,0,0,0-14.87,0,.82.82,0,0,0-.56.69v28.05a2.36,2.36,0,0,1-4.7-.25V121.37a1.13,1.13,0,0,1,.89-1.18,41.91,41.91,0,0,1,23.63,0,1.12,1.12,0,0,1,.87,1.18v31.45a2.35,2.35,0,0,1-4.69-.31Z" style="fill:#fff"/></g></g></svg>