<?xml version="1.0" encoding="utf-8"?>
<!-- Generator: Adobe Illustrator 24.0.3, SVG Export Plug-In . SVG Version: 6.00 Build 0)  -->
<svg version="1.1" id="_x31_-outline-expand" xmlns="http://www.w3.org/2000/svg" xmlns:xlink="http://www.w3.org/1999/xlink"
	 x="0px" y="0px" viewBox="0 0 64 64" style="enable-background:new 0 0 64 64;" xml:space="preserve">
<path style="fill:#3A4249;" d="M3,33h8l2-2c0.2,2.5,1,4.8,2.5,6.9l0.2,0.2l1.6-1.2l-0.2-0.2c-1.4-2-2.1-4.3-2.1-6.7h3v-4h-8
	C6.1,26,3,29.1,3,33z"/>
<rect x="21" y="27" style="fill:#3A4249;" width="2" height="2"/>
<rect x="25" y="31" style="fill:#3A4249;" width="2" height="2"/>
<rect x="25" y="27" style="fill:#3A4249;" width="2" height="2"/>
<rect x="25" y="23" style="fill:#3A4249;" width="2" height="2"/>
<path style="fill:#3A4249;" d="M61,26H43.6c-0.8-1.8-2.5-3-4.6-3c-2.8,0-5,2.2-5,5s2.2,5,5,5c2,0,3.8-1.2,4.6-3H61c0.6,0,1-0.4,1-1
	v-2C62,26.4,61.6,26,61,26z"/>
<path style="fill:#3A4249;" d="M39,35L39,35L39,35c-3.9,0-7-3.1-7-7s3.1-7,7-7c2.4,0,4.5,1.2,5.7,3H56V6c0-2.2-1.8-4-4-4H33
	c-2.2,0-4,1.8-4,4v52c0,2.2,1.8,4,4,4h19c2.2,0,4-1.8,4-4V32H44.7C43.5,33.8,41.4,35,39,35z M41,43.2V47c0,1.1-0.9,2-2,2s-2-0.9-2-2
	v-3.8c-0.6-0.5-1-1.3-1-2.2c0-1.7,1.3-3,3-3s3,1.3,3,3C42,41.9,41.6,42.7,41,43.2z"/>
<polygon style="fill:#3A4249;" points="2,55 16,53 16,51 2,53 "/>
<polygon style="fill:#3A4249;" points="2,62 16,62 16,55 2,57 "/>
<path style="fill:#3A4249;" d="M13.5,44.5c-1.6-1.6-2.5-3.8-2.5-6V35H7v3.5c0,2.3-0.9,4.4-2.5,6c-1.6,1.6-2.5,3.8-2.5,6V51l13.9-2
	C15.5,47.3,14.7,45.7,13.5,44.5z"/>
</svg>
