<?xml version="1.0" encoding="utf-8"?>
<!-- Generator: Adobe Illustrator 24.0.3, SVG Export Plug-In . SVG Version: 6.00 Build 0)  -->
<svg version="1.1" id="_x31_-outline-expand" xmlns="http://www.w3.org/2000/svg" xmlns:xlink="http://www.w3.org/1999/xlink"
	 x="0px" y="0px" viewBox="0 0 64 64" style="enable-background:new 0 0 64 64;" xml:space="preserve">
<path style="fill:#3A4249;" d="M29,26.8c-1.9,0-3.6-0.7-4.9-2.1l1.4-1.4c0.9,0.9,2.2,1.5,3.5,1.5s2.6-0.5,3.5-1.5l1.4,1.4
	C32.6,26,30.9,26.8,29,26.8z"/>
<polygon style="fill:#3A4249;" points="50.4,26 47.3,26 48,31 51.5,31 "/>
<polygon style="fill:#3A4249;" points="44,16 44,24 52,24 55,38 62,38 62,23 57,16 "/>
<rect x="42.2" y="7" transform="matrix(0.7071 -0.7071 0.7071 0.7071 7.5234 34.1629)" style="fill:#3A4249;" width="5.7" height="2"/>
<rect x="44.8" y="11" transform="matrix(0.9286 -0.3711 0.3711 0.9286 -1.0606 18.4837)" style="fill:#3A4249;" width="5.4" height="2"/>
<path style="fill:#3A4249;" d="M54,48c-3.9,0-7,3.1-7,7s3.1,7,7,7s7-3.1,7-7S57.9,48,54,48z M53,58.4l-2.7-2.7l1.4-1.4l1.3,1.3
	l4.3-4.3l1.4,1.4L53,58.4z"/>
<rect x="57" y="41" style="fill:#3A4249;" width="2" height="2"/>
<rect x="57" y="45" style="fill:#3A4249;" width="2" height="2"/>
<rect x="42" y="54" style="fill:#3A4249;" width="2" height="2"/>
<rect x="38" y="54" style="fill:#3A4249;" width="2" height="2"/>
<rect x="34" y="54" style="fill:#3A4249;" width="2" height="2"/>
<rect x="30" y="54" style="fill:#3A4249;" width="2" height="2"/>
<rect x="26" y="54" style="fill:#3A4249;" width="2" height="2"/>
<path style="fill:#3A4249;" d="M38,20c0-3.2-0.8-6.1-2.3-8.7C39.4,9.8,42,6.2,42,2H20C10.1,2,2,10.1,2,20v13l2,14v15h19V49h14V33h6
	L38,20z M35,31v9h-3c-1.1,0-2-0.9-2-2h-2c0,2.2,1.8,4,4,4h3v5H21v13H6V46.9L4,33c4.4,0,8-3.6,8-8c-2.2,0-4-1.8-4-4s1.8-4,4-4v-5h20
	c0.6,0,1.2-0.1,1.7-0.2C35.2,14.2,36,17,36,20v0.4L40.1,31H35z"/>
</svg>
