<?xml version="1.0" encoding="utf-8"?>
<!-- Generator: Adobe Illustrator 24.0.3, SVG Export Plug-In . SVG Version: 6.00 Build 0)  -->
<svg version="1.1" id="_x31_-outline-expand" xmlns="http://www.w3.org/2000/svg" xmlns:xlink="http://www.w3.org/1999/xlink"
	 x="0px" y="0px" viewBox="0 0 64 64" style="enable-background:new 0 0 64 64;" xml:space="preserve">
<path style="fill:#3A4249;" d="M32,1C14.9,1,1,14.9,1,32s13.9,31,31,31s31-13.9,31-31S49.1,1,32,1z M32,59C17.1,59,5,46.9,5,32
	c0-6.7,2.5-12.9,6.6-17.6l38.1,38.1C44.9,56.5,38.7,59,32,59z M52.4,49.6L47.8,45H52v-3c0-2.2-1.8-4-4-4h-1h-1
	c-1.4,0-2.6,0.7-3.3,1.8l-3.2-3.2c0.3-0.5,0.5-1,0.5-1.7c0-1.7-1.3-3-3-3c-0.6,0-1.2,0.2-1.7,0.5L34.8,32H37h5h5h5v-3
	c0-2.2-1.8-4-4-4h-1h-1c-2.2,0-4,1.8-4,4c0-2.2-1.8-4-4-4h-1h-1c-2.2,0-4,1.8-4,4c0-2.2-1.8-4-4-4h-0.2l-0.1-0.1
	C29,24.6,30,23.4,30,22c0-1.7-1.3-3-3-3c-1.4,0-2.6,1-2.9,2.3l-9.7-9.7C19.1,7.5,25.3,5,32,5c14.9,0,27,12.1,27,27
	C59,38.7,56.5,44.9,52.4,49.6z"/>
<path style="fill:#3A4249;" d="M26.3,32l-4.2-4.2C22.1,28.2,22,28.6,22,29c0-0.6-0.2-1.2-0.4-1.8l-1.8-1.8C19.2,25.2,18.6,25,18,25
	h-1h-1c-2.2,0-4,1.8-4,4v3h5h5H26.3z"/>
<path style="fill:#3A4249;" d="M14.6,20.2C14.2,20.7,14,21.3,14,22c0,1.7,1.3,3,3,3c0.7,0,1.3-0.2,1.8-0.6L14.6,20.2z"/>
<circle style="fill:#3A4249;" cx="17" cy="35" r="3"/>
<path style="fill:#3A4249;" d="M32,45h7.3l-6-6c-0.8,0.7-1.4,1.8-1.4,3c0-2.2-1.8-4-4-4h-1h-1c-2.2,0-4,1.8-4,4c0-2.2-1.8-4-4-4h-1
	h-1c-2.2,0-4,1.8-4,4v3h10H32z"/>
<path style="fill:#3A4249;" d="M29.9,35.6l-3.5-3.5C25,32.3,24,33.5,24,35c0,1.7,1.3,3,3,3C28.5,38,29.7,37,29.9,35.6z"/>
<circle style="fill:#3A4249;" cx="37" cy="22" r="3"/>
<circle style="fill:#3A4249;" cx="47" cy="22" r="3"/>
<circle style="fill:#3A4249;" cx="47" cy="35" r="3"/>
</svg>
