<?xml version="1.0" encoding="utf-8"?>
<!-- Generator: Adobe Illustrator 24.0.3, SVG Export Plug-In . SVG Version: 6.00 Build 0)  -->
<svg version="1.1" id="_x31_-outline-expand" xmlns="http://www.w3.org/2000/svg" xmlns:xlink="http://www.w3.org/1999/xlink"
	 x="0px" y="0px" viewBox="0 0 64 64" style="enable-background:new 0 0 64 64;" xml:space="preserve">
<path style="fill:#3A4249;" d="M57,21h-2v8h2c2.2,0,4-1.8,4-4l0,0C61,22.8,59.2,21,57,21z"/>
<path style="fill:#3A4249;" d="M45,44.1c-2.4,1.2-5.1,1.9-8,1.9s-5.6-0.7-8-1.9c-5.4-2.7-9.2-7.9-9.9-14.1h35.8
	C54.2,36.2,50.4,41.5,45,44.1z"/>
<path style="fill:#3A4249;" d="M55,20v1c-3.3,0-6-2.7-6-6v-1H21.2c-0.3,0-0.7,0-1-0.1c0,0-0.1,0-0.1,0c-2.5-0.5-4.6-2.4-5-5
	c-0.5-3.4,1.9-6.4,5.1-6.8C20.6,3.2,21.7,4,23,4h16C47.8,4,55,11.2,55,20z"/>
<circle style="fill:#3A4249;" cx="30" cy="25" r="2"/>
<circle style="fill:#3A4249;" cx="44" cy="25" r="2"/>
<path style="fill:#3A4249;" d="M37,54.9l9.4-5.1c-0.8-0.7-1.4-1.8-1.4-3v-0.4c-2.5,1.1-5.2,1.7-8,1.7s-5.5-0.6-8-1.7v0.4
	c0,1.2-0.5,2.3-1.4,3L37,54.9z"/>
<polygon style="fill:#3A4249;" points="25.3,50.8 23.7,51.1 19,55.8 19,61 36,61 36,56.6 "/>
<path style="fill:#3A4249;" d="M3,35c1.1,0,2,0.9,2,2c0-1.1,0.9-2,2-2s2,0.9,2,2c0-1.1,0.9-2,2-2s2,0.9,2,2V27c0-1.1,0.9-2,2-2
	s2,0.9,2,2v19h1v-2c0-2.2,1.8-4,4-4v10l-5,5v6H1V37C1,35.9,1.9,35,3,35z"/>
<path style="fill:#3A4249;" d="M63,55.4c0,0-0.1-0.1-0.1-0.1c-1.4-1.3-3.2-2.2-5.1-2.6l-9.1-1.9L38,56.6V61h25V55.4z M56,59H43v-3
	h13V59z"/>
</svg>
