<?xml version="1.0" encoding="utf-8"?>
<!-- Generator: Adobe Illustrator 24.0.3, SVG Export Plug-In . SVG Version: 6.00 Build 0)  -->
<svg version="1.1" id="_x31_-outline-expand" xmlns="http://www.w3.org/2000/svg" xmlns:xlink="http://www.w3.org/1999/xlink"
	 x="0px" y="0px" viewBox="0 0 64 64" style="enable-background:new 0 0 64 64;" xml:space="preserve">
<circle style="fill:#3A4249;" cx="8" cy="17" r="3"/>
<circle style="fill:#3A4249;" cx="5" cy="8" r="2"/>
<path style="fill:#3A4249;" d="M17,12c1.7,0,3-0.8,3-3s-3-6-3-6s-3,3.8-3,6S15.3,12,17,12z"/>
<path style="fill:#3A4249;" d="M26,16c1.7,0,3-0.8,3-3s-3-6-3-6s-3,3.8-3,6S24.3,16,26,16z"/>
<path style="fill:#3A4249;" d="M45,19v-1l-5.4-5.4c-0.4-0.4-0.9-0.6-1.5-0.6c-0.6,0-1.1,0.2-1.5,0.6S36,13.5,36,14.1
	c0,0.6,0.2,1.1,0.6,1.5L39,18v1H25c-1.1,0-2,0.9-2,2c0,0.5,0.2,1,0.6,1.4C24,22.8,24.5,23,25,23h-2c-1.1,0-2,0.9-2,2
	c0,0.5,0.2,1,0.6,1.4C22,26.8,22.5,27,23,27h2c-0.7,0-1.4,0.4-1.7,1h2.9c-0.8-0.8-1.2-1.8-1.2-2.9c0-1.1,0.4-2.1,1.2-2.9
	c0.5-0.5,1-0.8,1.7-1l0,0c0.2-0.1,0.4-0.1,0.6-0.1c0.2,0,0.4-0.1,0.7-0.1c1.1,0,2.1,0.4,2.9,1.2l5.8,5.8H62v-9H45z"/>
<path style="fill:#3A4249;" d="M36,29l-5.4-5.4c-0.4-0.4-0.9-0.6-1.5-0.6c-0.6,0-1.1,0.2-1.5,0.6S27,24.5,27,25.1
	c0,0.6,0.2,1.1,0.6,1.5L30,29v1H16c-1.1,0-2,0.9-2,2c0,0.5,0.2,1,0.6,1.4c0.4,0.4,0.9,0.6,1.4,0.6c0-0.6,0.4-1,1-1h11
	c0.6,0,1,0.4,1,1s-0.4,1-1,1H17c-0.6,0-1-0.4-1-1h-2c-1.1,0-2,0.9-2,2c0,0.5,0.2,1,0.6,1.4c0.4,0.4,0.9,0.6,1.4,0.6h2
	c0-0.6,0.4-1,1-1h11c0.6,0,1,0.4,1,1s-0.4,1-1,1H17c-0.6,0-1-0.4-1-1c-1.1,0-2,0.9-2,2c0,0.5,0.2,1,0.6,1.4c0.4,0.4,0.9,0.6,1.4,0.6
	h2c0-0.6,0.4-1,1-1h9c0.6,0,1,0.4,1,1s-0.4,1-1,1h-9c-0.6,0-1-0.4-1-1c-1.1,0-2,0.9-2,2c0,0.5,0.2,1,0.6,1.4C17,45.8,17.5,46,18,46
	h44V30H36V29z"/>
<path style="fill:#3A4249;" d="M15.2,46.8C14.4,46.1,14,45.1,14,44c0-0.2,0-0.3,0-0.5c-0.3-0.2-0.6-0.4-0.9-0.7
	C12.4,42.1,12,41.1,12,40c0-0.2,0-0.3,0-0.5c-0.3-0.2-0.6-0.4-0.9-0.7C10.4,38.1,10,37.1,10,36c0-1.5,0.8-2.8,2-3.5
	c0-0.2,0-0.3,0-0.5c0-2.2,1.8-4,4-4h4.4c-0.1-0.1-0.2-0.1-0.2-0.2C19.4,27.1,19,26.1,19,25c0-1.5,0.8-2.8,2-3.5c0-0.2,0-0.3,0-0.5
	c0-0.6,0.2-1.2,0.4-1.8c-2.3,0.6-4.1,2.6-4.4,5.1c-0.6-0.2-1.3-0.3-2-0.3c-3.9,0-7,3.1-7,7c0,1.5,0.5,2.9,1.3,4c-0.1,0-0.2,0-0.3,0
	c-3.3,0-6,2.7-6,6s2.7,6,6,6c0.7,0,1.4-0.1,2-0.4c0.3,3,2.9,5.4,6,5.4c1.5,0,2.9-0.6,4-1.5V55c0,1.1,0.9,2,2,2s2-0.9,2-2v-3
	c0-1.1,0.9-2,2-2s2,0.9,2,2v7c0,1.1,0.9,2,2,2s2-0.9,2-2v-9c0.8,0.6,1.9,1,3,1c2,0,3.8-1.2,4.6-3H18C16.9,48,15.9,47.6,15.2,46.8z"
	/>
</svg>
