<?xml version="1.0" encoding="utf-8"?>
<!-- Generator: Adobe Illustrator 24.0.3, SVG Export Plug-In . SVG Version: 6.00 Build 0)  -->
<svg version="1.1" id="_x31_-outline-expand" xmlns="http://www.w3.org/2000/svg" xmlns:xlink="http://www.w3.org/1999/xlink"
	 x="0px" y="0px" viewBox="0 0 64 64" style="enable-background:new 0 0 64 64;" xml:space="preserve">
<path style="fill:#3A4249;" d="M24,29v-5h3v-7H9v7h3v5c-5,0-9,4-9,9v24h30V38C33,33,29,29,24,29z M24,46c0,0.7-0.1,1.4-0.4,2.1
	l1.8,1l0.5-0.9l1.7,1l-2,3.5l-1.7-1l0.5-0.9l-1.8-1c-0.9,1.1-2.2,1.8-3.6,2.1V54h1v2h-4v-2h1v-2.1c-1.4-0.2-2.7-1-3.6-2.1l-1.8,1
	l0.5,0.9l-1.7,1l-2-3.5l1.7-1l0.5,0.9l1.8-1C12.1,47.4,12,46.7,12,46s0.1-1.4,0.4-2.1l-1.8-1l-0.5,0.9l-1.7-1l2-3.5l1.7,1l-0.5,0.9
	l1.8,1c0.9-1.1,2.2-1.8,3.6-2.1V38h-1v-2h4v2h-1v2.1c1.4,0.2,2.7,1,3.6,2.1l1.8-1l-0.5-0.9l1.7-1l2,3.5l-1.7,1l-0.5-0.9l-1.8,1
	C23.9,44.6,24,45.3,24,46z"/>
<circle style="fill:#3A4249;" cx="18" cy="46" r="4"/>
<polygon style="fill:#3A4249;" points="58,60 58,54 60,54 60,50 55,50 55,48 60,48 60,46 57,46 57,44 60,44 60,42 57,42 57,40 
	60,40 60,38 55,38 55,36 60,36 60,34 57,34 57,32 60,32 60,30 57,30 57,28 60,28 60,23 57,23 57,15 56,15 56,2 54,2 54,15 53,15 
	53,23 50,23 50,54 52,54 52,60 48,60 48,62 62,62 62,60 "/>
<path style="fill:#3A4249;" d="M20.8,11.4l-0.9-1.8c-0.6,0.3-1.3,0.7-1.9,1l1,1.7C19.6,12,20.2,11.7,20.8,11.4z"/>
<path style="fill:#3A4249;" d="M41,9.1c-0.7-0.3-1.3-0.6-2-0.8l-0.6,1.9c0.6,0.2,1.3,0.5,1.9,0.7L41,9.1z"/>
<path style="fill:#3A4249;" d="M51.1,17.2c-0.4-0.6-0.9-1.1-1.4-1.7l-1.5,1.3c0.4,0.5,0.9,1,1.3,1.6L51.1,17.2z"/>
<path style="fill:#3A4249;" d="M24.6,9.9L24,8c-0.7,0.2-1.4,0.4-2.1,0.7l0.7,1.9C23.3,10.3,23.9,10.1,24.6,9.9z"/>
<path style="fill:#3A4249;" d="M36.9,7.7c-0.7-0.2-1.4-0.3-2.1-0.4l-0.3,2c0.7,0.1,1.3,0.2,2,0.4L36.9,7.7z"/>
<path style="fill:#3A4249;" d="M31,9c0.5,0,1,0,1.5,0l0.1-2c-0.7,0-1.4-0.1-2.2,0l0,2L31,9z"/>
<path style="fill:#3A4249;" d="M28.5,9.1l-0.2-2c-0.7,0.1-1.4,0.2-2.2,0.3l0.4,2C27.1,9.3,27.8,9.2,28.5,9.1z"/>
<path style="fill:#3A4249;" d="M48.2,13.9c-0.5-0.5-1.1-1-1.6-1.4L45.4,14c0.5,0.4,1,0.9,1.5,1.3L48.2,13.9z"/>
<path style="fill:#3A4249;" d="M17.4,13.4l-1.2-1.6c-0.6,0.4-1.2,0.9-1.7,1.4l1.3,1.5C16.3,14.3,16.9,13.8,17.4,13.4z"/>
<path style="fill:#3A4249;" d="M44.8,11.2c-0.6-0.4-1.2-0.8-1.9-1.1l-1,1.8c0.6,0.3,1.2,0.7,1.7,1L44.8,11.2z"/>
<path style="fill:#3A4249;" d="M42.3,52.1l1,1.7c0.6-0.3,1.2-0.7,1.8-1.1L43.9,51C43.4,51.4,42.8,51.7,42.3,52.1z"/>
<path style="fill:#3A4249;" d="M38.7,53.7l0.7,1.9c0.7-0.2,1.3-0.5,2-0.8l-0.8-1.8C39.9,53.2,39.3,53.5,38.7,53.7z"/>
<path style="fill:#3A4249;" d="M47,48.5c-0.5,0.5-1,0.9-1.5,1.3l1.3,1.6c0.5-0.4,1.1-0.9,1.6-1.4L47,48.5z"/>
<path style="fill:#3A4249;" d="M34.9,54.7l0.3,2c0.7-0.1,1.4-0.3,2.1-0.4l-0.5-1.9C36.2,54.4,35.5,54.6,34.9,54.7z"/>
<path style="fill:#3A4249;" d="M40.5,18.8c-2.1-0.5-3.8-2.2-4.3-4.3c0-0.2-0.3-0.2-0.4,0c-0.5,2.1-2.2,3.8-4.3,4.3
	c-0.2,0.1-0.2,0.3,0,0.4c2.1,0.5,3.8,2.2,4.3,4.3c0.1,0.2,0.3,0.2,0.4,0c0.5-2.1,2.2-3.8,4.3-4.3C40.7,19.1,40.7,18.9,40.5,18.8z"/>
</svg>
