<svg xmlns="http://www.w3.org/2000/svg" viewBox="0 0 1064.89 360"><title>NUST-Co-Branded</title><g id="Layer_2" data-name="Layer 2"><g id="Layer_1-2" data-name="Layer 1"><path d="M203.88,151.63S72.31,239.22,71.94,239.41c-3.3,1.63-6.67-.5-6.67-5V152l123.1-82.9s15.51-8.75,15.51,17.09Z" style="fill:#da2128"/><path d="M162.38,40.36c-22.62,0-36.52,2.22-56.74,6.41l0,77.89-40.2,27.06V24c0-6.24,3.65-10,8.51-11.26C90.37,8.39,127.49,0,162.38,0s72,8.39,88.41,12.78c4.85,1.3,8.5,5,8.5,11.26V234.18c0,5.4-4.88,7.37-8.63,3.51l-31.56-21V46.77c-20.21-4.19-34.11-6.41-56.73-6.41" style="fill:#fcaf17"/><path d="M162.38,360C100.85,348.94,0,308.67,0,215.74V67.89a9.5,9.5,0,0,1,4.56-8.36c10.74-5.86,35.6-15.31,35.6-15.31l0,171.53c0,40.39,31,84.33,122.27,100.8,91.25-16.47,122.26-60.41,122.26-100.8l0-171.53s24.86,9.45,35.6,15.31a9.5,9.5,0,0,1,4.56,8.36V215.74c0,92.93-100.86,133.2-162.39,144.26" style="fill:#fcaf17"/><path d="M532.42,117.65v48.59a4.94,4.94,0,0,1-9.85-.51l0-42.67a54.11,54.11,0,0,0-23.58,0v43.07a4.93,4.93,0,0,1-9.85-.4V117.65a2.93,2.93,0,0,1,2.26-3,68.5,68.5,0,0,1,38.77,0,2.94,2.94,0,0,1,2.27,3" style="fill:#1b2c5d"/><path d="M430.35,112.05a2.75,2.75,0,0,1,3.83,2.49v38.74c0,2.71,2.05,6.84,11.73,8.61,9.67-1.77,11.72-5.9,11.72-8.61V114.54a2.74,2.74,0,0,1,3.82-2.49s3.2,1.16,4.59,1.88a3.69,3.69,0,0,1,2,3.27v36.08c0,12.75-14.45,17.61-21.65,18.83-8.18-1.22-22.64-6.06-22.64-18.83V117.2a3.68,3.68,0,0,1,2-3.27c1.38-.72,4.57-1.88,4.57-1.88" style="fill:#1b2c5d"/><path d="M564.85,117.05v49.33a4.82,4.82,0,0,1-9.64,0V117.05a4.82,4.82,0,0,1,9.64,0" style="fill:#1b2c5d"/><path d="M627,116.89a5.22,5.22,0,0,1-.16,1.31l-.34,1.18-14.85,46.78c-1,3.44-3.25,5-6.1,5s-5.17-1.56-6.19-5l-14.85-46.79-.34-1.21a5.21,5.21,0,0,1-.17-1.28,4.76,4.76,0,0,1,4.78-4.54,4.67,4.67,0,0,1,4.67,3.4l12.09,38.92,11.94-38.92a4.71,4.71,0,0,1,4.75-3.4,4.76,4.76,0,0,1,4.77,4.54" style="fill:#1b2c5d"/><path d="M675.44,113.15a4.66,4.66,0,0,1,0,9.32H655.8v17.59l6-4h12.65a4.66,4.66,0,1,1,0,9.31H655.8V161H676a4.66,4.66,0,0,1,0,9.32H651.81a5.5,5.5,0,0,1-5.65-5.5V118.65a5.5,5.5,0,0,1,5.65-5.5Z" style="fill:#1b2c5d"/><path d="M722.12,138h-4l-6.28,4.21v-20h10.32c5.34,0,8.32,2.92,8.39,8,0,4.81-2.89,7.74-8.39,7.74m17.77,25.7-11-18c7.05-2,11.22-7.51,11.22-15.4,0-10.26-6.6-17.07-18-17.07H707.83a5.6,5.6,0,0,0-5.66,5.5V166.3a4.82,4.82,0,1,0,9.63,0V147h6.6l13.39,22.13a4.86,4.86,0,0,0,8.84-2.8,5.64,5.64,0,0,0-.74-2.63" style="fill:#1b2c5d"/><path d="M791.9,115.37a4.6,4.6,0,0,1,2.74,4.39,4.33,4.33,0,0,1-4.3,4.46,6.18,6.18,0,0,1-1.92-.3c-.56-.17-1.13-.41-1.83-.7a21.87,21.87,0,0,0-9.34-1.79c-4.44,0-8.24,2.31-8.24,6.08,0,3.44,1.77,5.12,6.27,7.17l9.33,4.31c5.41,2.5,11.55,6.25,11.55,15.89,0,10.11-8.22,16.28-18.84,16.28A35.34,35.34,0,0,1,762.21,168a4.63,4.63,0,0,1-2.91-4.41,4.35,4.35,0,0,1,4.46-4.62,9.35,9.35,0,0,1,3.83,1,23.33,23.33,0,0,0,9.73,2.12c5.6,0,9.12-2.52,9.12-7,0-3.91-2.14-5.68-6.91-8l-9.73-4.55c-5.71-2.69-10.43-7-10.43-14.77,0-9.47,7.59-15.48,18.36-15.48a31.19,31.19,0,0,1,14.17,3" style="fill:#1b2c5d"/><path d="M827,117.05v49.33a4.82,4.82,0,0,1-9.64,0V117.05a4.82,4.82,0,0,1,9.64,0" style="fill:#1b2c5d"/><path d="M881.26,113.15a4.66,4.66,0,0,1,0,9.32H869.84V166.3a4.86,4.86,0,0,1-9.72,0V122.47H848.77a4.66,4.66,0,1,1,0-9.32Z" style="fill:#1b2c5d"/><path d="M936.63,117a4,4,0,0,1-.3,1.54,12.33,12.33,0,0,1-.65,1.32l-14.53,25.48v21a4.82,4.82,0,1,1-9.63,0v-21L897,119.83a10.69,10.69,0,0,1-.65-1.32A4.23,4.23,0,0,1,896,117a4.6,4.6,0,0,1,4.71-4.62,4.08,4.08,0,0,1,4,2.25l11.66,21.18L928,114.68a4.12,4.12,0,0,1,4-2.33,4.59,4.59,0,0,1,4.7,4.62" style="fill:#1b2c5d"/><path d="M519.39,52.18H504l-6.75,4.53V43.42c0-2.71,1.94-6.83,11.07-8.61,9.15,1.78,11.08,5.9,11.08,8.61Zm9.84-8.76c0-12.77-13.67-17.62-21.39-18.83-6.8,1.22-20.44,6.08-20.44,18.83V78.51a4.93,4.93,0,0,0,9.85,0V61.82h22.14V78.51a4.92,4.92,0,0,0,9.84,0Z" style="fill:#1b2c5d"/><path d="M585.75,35.78V79a4.85,4.85,0,0,1-1.32,2.87,3.51,3.51,0,0,1-.44.42l-.58.42a6.7,6.7,0,0,1-.63.33,5.1,5.1,0,0,1-1.26.35,5,5,0,0,1-.67,0,4.94,4.94,0,0,1-5-4.93l0-42.68a34.28,34.28,0,0,0-18.63,0V78.85a4.93,4.93,0,0,1-9.85-.39V30.38a2.93,2.93,0,0,1,2.26-3c3.6-1,9.25-2.8,16.91-2.8a52.84,52.84,0,0,1,14.25,2.07,52.69,52.69,0,0,1,14.24-2.07A59.35,59.35,0,0,1,612,27.39a2.94,2.94,0,0,1,2.26,3V79a4.94,4.94,0,0,1-9.85-.5V35.78a34.28,34.28,0,0,0-18.63,0" style="fill:#1b2c5d"/><path d="M585.75,79v-.11a4.85,4.85,0,0,1-1.31,3A4.85,4.85,0,0,0,585.75,79" style="fill:#1b2c5d"/><path d="M467.07,30.38V79a4.94,4.94,0,0,1-9.85-.5l0-42.68a54.48,54.48,0,0,0-23.57,0V78.85a4.93,4.93,0,0,1-9.85-.39V30.38a2.93,2.93,0,0,1,2.27-3,68.5,68.5,0,0,1,38.77,0,3,3,0,0,1,2.27,3" style="fill:#1b2c5d"/><path d="M646.94,29.29V78.61a4.82,4.82,0,0,1-9.64,0V29.29a4.82,4.82,0,0,1,9.64,0" style="fill:#1b2c5d"/><path d="M691.39,73.51h-9v-16H691c5.25,0,9.19,3.09,9.19,8s-3.41,8-8.79,8m-9-25.05v-14h8.47c4.66,0,7.6,2.64,7.6,7s-3.28,7-8.07,7h-.92l-7.08,4.74Zm20.09,4.07a13.56,13.56,0,0,0,5.7-11.19c0-10-6.56-16-17.32-16H678.46a5.5,5.5,0,0,0-5.66,5.49V77.09a5.5,5.5,0,0,0,5.66,5.5h12.93c11.79,0,18.42-6.38,18.42-16.82a15.13,15.13,0,0,0-7.29-13.24" style="fill:#1b2c5d"/><path d="M741.29,29.29V78.61a4.82,4.82,0,0,1-9.64,0V29.29a4.82,4.82,0,0,1,9.64,0" style="fill:#1b2c5d"/><path d="M795,52.18H779.65l-6.75,4.53V43.42c0-2.71,1.93-6.83,11.08-8.61,9.13,1.78,11.07,5.9,11.07,8.61Zm9.85-8.76c0-12.77-13.67-17.62-21.39-18.83-6.8,1.22-20.44,6.08-20.44,18.83V78.51a4.92,4.92,0,0,0,9.84,0V61.82H795V78.51a4.93,4.93,0,0,0,9.85,0Z" style="fill:#1b2c5d"/><path d="M669.14,343.81l0-45.35a1.27,1.27,0,0,0-.91-1.12A53.28,53.28,0,0,0,656.08,296,54.14,54.14,0,0,0,644,297.34a1.3,1.3,0,0,0-.91,1.12V344.2a3.84,3.84,0,0,1-7.66-.39V293a1.84,1.84,0,0,1,1.43-1.92,68.18,68.18,0,0,1,38.54,0A1.84,1.84,0,0,1,676.8,293v51.3a3.85,3.85,0,0,1-7.66-.5" style="fill:#1b2c5d"/><path d="M459.88,289.1a3.48,3.48,0,1,1,0,6.95H447.13v48a3.6,3.6,0,0,1-7.19,0v-48H427.27a3.48,3.48,0,1,1,0-6.95Z" style="fill:#1b2c5d"/><path d="M506,289.1a3.48,3.48,0,0,1,0,6.95H484.93v17.42h20a3.38,3.38,0,0,1,3.52,3.42,3.44,3.44,0,0,1-3.52,3.52h-20v19.5h21.64a3.47,3.47,0,0,1,0,6.94H482.05a4.23,4.23,0,0,1-4.31-4.23V293.34a4.24,4.24,0,0,1,4.31-4.24Z" style="fill:#1b2c5d"/><path d="M557.25,291.53c1.35.76,2.41,1.68,2.41,3.33,0,2-1.83,3.37-5.32,2.78a16.84,16.84,0,0,0-8.84-2.55c-7.93,0-12.76,4.78-12.76,12.51v20.75c0,7.8,4.91,12.52,12.76,12.52a16.39,16.39,0,0,0,8.2-2.31,5.5,5.5,0,0,1,2.53-.81,3.38,3.38,0,0,1,3.43,3.35,3.52,3.52,0,0,1-1.78,3.06,21.91,21.91,0,0,1-12.38,3.49c-11.71,0-20-7.37-20-19.61V307.93c0-12.42,8.25-19.62,20-19.62a24,24,0,0,1,11.75,3.22" style="fill:#1b2c5d"/><path d="M613.32,291.82v52.32a3.55,3.55,0,0,1-7.1,0V320.33H583.59v23.81a3.59,3.59,0,0,1-7.18,0V291.82a3.59,3.59,0,0,1,7.18,0v21.57h22.63V291.82a3.55,3.55,0,0,1,7.1,0" style="fill:#1b2c5d"/><path d="M729.17,329.08c0,7.23-4.67,11.79-12.2,11.79s-12.11-4.55-12.11-11.79v-22.2c0-7.31,4.6-11.8,12.11-11.8s12.2,4.49,12.2,11.8ZM717,288.31c-11.62,0-19.29,7.22-19.29,19V328.6c0,11.74,7.66,19,19.29,19s19.3-7.31,19.3-19V307.28c0-11.75-7.66-19-19.3-19" style="fill:#1b2c5d"/><path d="M762.05,291.89v48H783.7a3.47,3.47,0,0,1,0,6.94H759.17a4.27,4.27,0,0,1-4.31-4.23V291.89a3.6,3.6,0,0,1,7.19,0" style="fill:#1b2c5d"/><path d="M827.26,329.08c0,7.23-4.68,11.79-12.21,11.79S803,336.32,803,329.08v-22.2c0-7.31,4.59-11.8,12.1-11.8s12.21,4.49,12.21,11.8Zm-12.21-40.77c-11.63,0-19.28,7.22-19.28,19V328.6c0,11.74,7.65,19,19.28,19s19.3-7.31,19.3-19V307.28c0-11.75-7.66-19-19.3-19" style="fill:#1b2c5d"/><path d="M884.31,291.61a3.73,3.73,0,0,1,2.11,3.25c0,2.23-2.11,3.25-5.42,2.75-2.32-1-6.13-2.52-9.39-2.52-8.39,0-13.16,4.7-13.16,13.07v19.63c0,8.3,4.77,13.08,13.16,13.08a31.88,31.88,0,0,0,9.79-1.61V322.17h-8.27a3.37,3.37,0,0,1-3.43-3.51,3.3,3.3,0,0,1,3.43-3.43h11.22a4.14,4.14,0,0,1,4.23,4.15v21.56a4.33,4.33,0,0,1-2.56,3.93,41.61,41.61,0,0,1-14.41,2.78c-12.43,0-20.34-7.38-20.34-20.09V308.41c0-12.8,7.82-20.1,20.34-20.1a28.06,28.06,0,0,1,12.7,3.3" style="fill:#1b2c5d"/><path d="M922.85,344.06a3.52,3.52,0,0,1-3.58,3.59,3.47,3.47,0,0,1-3.6-3.59V321.27L899.9,292.11a3.39,3.39,0,0,1,3.41-3.8,3.13,3.13,0,0,1,3,1.69l12.93,23.88L932.2,290a3.07,3.07,0,0,1,3-1.69c2.23,0,3.54,1.8,2.94,5.25l-15.3,27.71Z" style="fill:#1b2c5d"/><path d="M455.25,241.08c0,7.24-4.67,11.79-12.2,11.79S431,248.32,431,241.08V218.89c0-7.32,4.58-11.8,12.1-11.8s12.2,4.48,12.2,11.8Zm-12.2-40.77c-11.63,0-19.29,7.22-19.29,19V240.6c0,11.75,7.66,19.06,19.29,19.06s19.3-7.31,19.3-19.06V219.28c0-11.75-7.66-19-19.3-19" style="fill:#1b2c5d"/><path d="M511.41,201.11a3.47,3.47,0,1,1,0,6.94H490.49v17.42h19.88a3.37,3.37,0,0,1,3.51,3.43,3.44,3.44,0,0,1-3.51,3.51H490.49v23.66a3.6,3.6,0,0,1-7.19,0V205.35a4.28,4.28,0,0,1,4.32-4.24Z" style="fill:#1b2c5d"/><path d="M1003.37,255.53l0-45.18a1.31,1.31,0,0,0-.92-1.12,56.73,56.73,0,0,0-24.15,0,1.33,1.33,0,0,0-.9,1.12v45.56a3.83,3.83,0,0,1-7.64-.38V204.92a1.82,1.82,0,0,1,1.43-1.9,67.86,67.86,0,0,1,38.38,0,1.83,1.83,0,0,1,1.46,1.9V256a3.84,3.84,0,0,1-7.64-.5m31.52-3,8.37-.29c8.92,0,14.24-5.32,14.24-14.22V222.52c0-8.91-5.32-14.22-14.24-14.22h-8.37Zm-3,6.79a4.32,4.32,0,0,1-4.41-4.34V205.57a4.32,4.32,0,0,1,4.41-4.35H1043c13.71,0,21.88,8,21.88,21.39V238c0,13.4-8.17,21.39-21.88,21.39ZM870.49,201a3.46,3.46,0,0,1,0,6.92h-21V225.3h20a3.36,3.36,0,0,1,3.48,3.43,3.4,3.4,0,0,1-3.48,3.48h-20v19.44h21.59a3.33,3.33,0,0,1,3.4,3.4,3.37,3.37,0,0,1-3.4,3.51H846.62a4.21,4.21,0,0,1-4.3-4.22V205.26a4.21,4.21,0,0,1,4.3-4.22Zm-47.25,2.41c1.34.76,2.39,1.69,2.39,3.33,0,2-1.82,3.36-5.31,2.76a16.7,16.7,0,0,0-8.8-2.55c-7.88,0-12.71,4.78-12.71,12.47v20.67c0,7.77,4.91,12.48,12.71,12.48a16.33,16.33,0,0,0,8.18-2.32,5.89,5.89,0,0,1,2.53-.8,3.35,3.35,0,0,1,3.4,3.33,3.49,3.49,0,0,1-1.77,3.05,21.86,21.86,0,0,1-12.34,3.49c-11.65,0-19.86-7.35-19.86-19.55v-20c0-12.35,8.22-19.53,19.86-19.53a24,24,0,0,1,11.72,3.2M714.67,201a3.46,3.46,0,0,1,0,6.92h-21V225.3h20a3.36,3.36,0,0,1,3.5,3.43,3.41,3.41,0,0,1-3.5,3.48h-20v19.44h21.55a3.46,3.46,0,0,1,0,6.91H690.8a4.2,4.2,0,0,1-4.28-4.22V205.26A4.2,4.2,0,0,1,690.8,201Zm-48.27,2.7v52.12a3.58,3.58,0,0,1-7.15,0V203.74a3.58,3.58,0,0,1,7.15,0m-26.25-.29c1.34.76,2.41,1.69,2.41,3.33,0,2-1.85,3.36-5.31,2.76a16.78,16.78,0,0,0-8.81-2.55c-7.89,0-12.7,4.78-12.7,12.47v20.67c0,7.77,4.88,12.48,12.7,12.48a16.36,16.36,0,0,0,8.18-2.32,5.81,5.81,0,0,1,2.52-.8,3.37,3.37,0,0,1,3.42,3.33,3.49,3.49,0,0,1-1.8,3.05,21.78,21.78,0,0,1-12.32,3.49c-11.66,0-19.86-7.35-19.86-19.55v-20c0-12.35,8.2-19.53,19.86-19.53a24,24,0,0,1,11.71,3.2M589.94,203a3.37,3.37,0,0,1,2,3.25,3.21,3.21,0,0,1-3.16,3.34,4.77,4.77,0,0,1-1.44-.23l-1.24-.45a26.49,26.49,0,0,0-10.25-2c-5.65,0-9.69,3.55-9.69,7.77s2.23,6.44,6.82,8.71l9.28,4.55c5.22,2.66,11.21,6.36,11.21,15.71,0,10-8.24,15.63-17.71,15.63a34.26,34.26,0,0,1-14.55-3.11A3.42,3.42,0,0,1,559,253a3.27,3.27,0,0,1,3.33-3.42,5.84,5.84,0,0,1,2.73.8,23.85,23.85,0,0,0,10.69,2.24c6,0,10.54-3.17,10.54-8.72,0-5.12-2.8-7.38-7.85-9.91l-9.35-4.64c-5.81-2.86-10.09-7-10.09-14.43,0-8.62,7.26-14.66,17.14-14.66A30,30,0,0,1,589.94,203m177.88,52.49V210.35a1.32,1.32,0,0,0-.91-1.12,56.82,56.82,0,0,0-24.17,0,1.33,1.33,0,0,0-.89,1.12l0,45.56a3.82,3.82,0,0,1-7.63-.38V204.92a1.83,1.83,0,0,1,1.44-1.9A67.86,67.86,0,0,1,774,203a1.83,1.83,0,0,1,1.45,1.9V256a3.84,3.84,0,0,1-7.64-.5M934.5,210.06c-11,2.14-12.2,7.64-12.2,9.9v15.7l8.33-5.58,16.8-.06L947.14,220c0-2.26-1.2-7.76-12.18-9.9ZM951,259.36a3.68,3.68,0,0,1-3.85-3.78V237.17l-25.12.29.28,18.12a3.82,3.82,0,0,1-7.63,0V220c0-13.73,16.48-17.37,19.78-18,4.85.88,20.3,4.77,20.3,18l0,35.62a3.7,3.7,0,0,1-3.78,3.78" style="fill:#1b2c5d"/></g></g></svg>