<svg xmlns="http://www.w3.org/2000/svg" viewBox="0 0 949.53 631.08"><title>Asset 1</title><g id="Layer_2" data-name="Layer 2"><g id="Layer_1-2" data-name="Layer 1"><path d="M520,165.75s-143.83,95.75-144.24,96c-3.6,1.78-7.28-.55-7.28-5.45V166.12L503.08,75.51s17-9.58,17,18.68Z" style="fill:#d51317"/><path d="M474.67,44.11c-24.72,0-39.92,2.43-62,7v85.15l-43.93,29.58V26.27c0-6.82,4-10.88,9.29-12.3C396,9.17,436.53,0,474.67,0s78.71,9.17,96.65,14c5.3,1.42,9.29,5.48,9.29,12.3V256c0,5.89-5.33,8.06-9.44,3.83l-34.51-23,0-185.72C514.59,46.54,499.4,44.11,474.67,44.11Z" style="fill:#f9b000"/><path d="M474.67,393.53c-67.26-12.09-177.5-56.11-177.5-157.7V74.21a10.37,10.37,0,0,1,5-9.14c11.73-6.4,38.91-16.73,38.91-16.73l0,187.51C341,280,374.92,328,474.67,346c99.75-18,133.65-66,133.65-110.18l0-187.51s27.17,10.33,38.92,16.73a10.37,10.37,0,0,1,5,9.14V235.83C652.18,337.42,541.94,381.44,474.67,393.53Z" style="fill:#f9b000"/><path d="M414.18,631.08a3,3,0,0,1-3.11-3V613.18l-20.26.25.24,14.61a3.08,3.08,0,0,1-6.16,0V599.29c0-11.07,13.29-14,15.95-14.47,3.91.71,16.39,3.85,16.39,14.47V628A3,3,0,0,1,414.18,631.08Zm-13.3-39.76c-8.87,1.73-9.84,6.16-9.84,8V612l6.71-4.49,13.56,0-.24-8.13c0-1.81-1-6.24-9.83-8ZM74.6,537.1a5,5,0,0,1-10,0V501.6c0-12.9,13.79-17.81,20.67-19.05,7.82,1.23,21.63,6.13,21.63,19.05v35.5a5,5,0,0,1-10,0V520.22H74.59Zm0-35.5v13.45l6.83-4.58H97V501.6c0-2.73-2-6.91-11.2-8.71C76.55,494.69,74.59,498.87,74.59,501.6ZM731.54,628V591.56a1,1,0,0,0-.73-.89,44.51,44.51,0,0,0-19.49,0,1,1,0,0,0-.74.89v36.75a3.09,3.09,0,0,1-6.16-.32V587.18a1.46,1.46,0,0,1,1.16-1.53,54.38,54.38,0,0,1,31,0,1.46,1.46,0,0,1,1.17,1.53v41.21a3.1,3.1,0,0,1-6.17-.4ZM266,628l0-36.43a1,1,0,0,0-.74-.89,44.46,44.46,0,0,0-19.48,0,1,1,0,0,0-.73.89v36.75a3.09,3.09,0,0,1-6.16-.32V587.18a1.45,1.45,0,0,1,1.16-1.53,65.37,65.37,0,0,1,15.48-2.25A65.45,65.45,0,0,1,271,585.65a1.44,1.44,0,0,1,1.15,1.53v41.21A3.08,3.08,0,0,1,266,628ZM164.12,493.87v43.69a5,5,0,0,1-1.33,2.9,3.56,3.56,0,0,1-.45.42l-.58.43a5.72,5.72,0,0,1-.65.33,5.06,5.06,0,0,1-1.27.35,3.87,3.87,0,0,1-.69,0,5,5,0,0,1-5-5l0-43.17a40.16,40.16,0,0,0-9.41-1.3,40.1,40.1,0,0,0-9.43,1.3v43.58a5,5,0,0,1-10-.41V488.41a3,3,0,0,1,2.3-3,59.89,59.89,0,0,1,17.11-2.84,54.19,54.19,0,0,1,14.4,2.09,54.28,54.28,0,0,1,14.41-2.09,60.39,60.39,0,0,1,17.11,2.84,3,3,0,0,1,2.3,3v49.15a5,5,0,0,1-10-.52l0-43.17a34.78,34.78,0,0,0-18.84,0Zm0,43.69v-.11a5,5,0,0,1-1.32,3A5,5,0,0,0,164.12,537.56ZM540.4,488.41v49.15a5,5,0,0,1-10-.52l0-43.17a55.25,55.25,0,0,0-23.83,0v43.58a5,5,0,0,1-10-.41V488.41a3,3,0,0,1,2.28-3,69.12,69.12,0,0,1,39.22,0A3,3,0,0,1,540.4,488.41Zm-496.33,0v49.15a5,5,0,0,1-10-.52l0-43.17a53.43,53.43,0,0,0-11.92-1.3,53.52,53.52,0,0,0-11.93,1.3v43.58a5,5,0,0,1-10-.41V488.41a3,3,0,0,1,2.29-3,82.75,82.75,0,0,1,19.61-2.84,82.66,82.66,0,0,1,19.61,2.84A3,3,0,0,1,44.07,488.41Zm393.08-5.66a2.78,2.78,0,0,1,3.87,2.52v39.19c0,2.73,2.07,6.91,11.86,8.71,9.78-1.8,11.85-6,11.85-8.71V485.27a2.78,2.78,0,0,1,3.87-2.52s3.24,1.17,4.64,1.89a3.75,3.75,0,0,1,2,3.32v36.48c0,12.91-14.61,17.83-21.9,19.06-8.27-1.23-22.9-6.14-22.9-19.06V488a3.74,3.74,0,0,1,2-3.32C433.91,483.92,437.15,482.75,437.15,482.75Zm126.28,101.3a2.79,2.79,0,1,1,0,5.58H553.2v38.56a2.89,2.89,0,1,1-5.78,0V589.63H537.24a2.78,2.78,0,0,1-2.83-2.83,2.75,2.75,0,0,1,2.83-2.75Zm37.06,0a2.79,2.79,0,0,1,0,5.58H583.56v14h16.1a2.71,2.71,0,0,1,2.82,2.76,2.76,2.76,0,0,1-2.82,2.83h-16.1v15.66h17.38a2.79,2.79,0,0,1,0,5.58h-19.7a3.38,3.38,0,0,1-3.45-3.39v-39.6a3.38,3.38,0,0,1,3.45-3.39ZM641.66,586a3.06,3.06,0,0,1,1.94,2.69c0,1.62-1.48,2.71-4.28,2.23a13.58,13.58,0,0,0-7.11-2c-6.36,0-10.25,3.85-10.25,10.06v16.67c0,6.25,3.95,10.06,10.25,10.06a13.16,13.16,0,0,0,6.59-1.87,4.53,4.53,0,0,1,2-.65,2.73,2.73,0,0,1,2.76,2.69,2.8,2.8,0,0,1-1.44,2.45,17.5,17.5,0,0,1-9.95,2.82c-9.39,0-16-5.92-16-15.76V599.15c0-10,6.63-15.75,16-15.75A19.44,19.44,0,0,1,641.66,586Zm45,.24v42a2.8,2.8,0,0,1-2.81,2.83,2.84,2.84,0,0,1-2.9-2.83V609.13H662.82v19.12a2.89,2.89,0,0,1-5.78,0v-42a2.89,2.89,0,0,1,5.78,0v17.33H681V586.22a2.83,2.83,0,0,1,2.9-2.82A2.79,2.79,0,0,1,686.7,586.22Zm98.79,12.43v17.12c0,9.44-6.16,15.31-15.51,15.31s-15.5-5.87-15.5-15.31V598.65c0-9.45,6.16-15.25,15.5-15.25S785.49,589.2,785.49,598.65Zm-25.24-.32v17.83c0,5.82,3.7,9.48,9.73,9.48s9.79-3.68,9.79-9.48V598.33c0-5.89-3.74-9.48-9.79-9.48S760.25,592.44,760.25,598.33Zm46-12v38.56h17.39a2.79,2.79,0,0,1,0,5.58h-19.7a3.44,3.44,0,0,1-3.47-3.39V586.29a2.89,2.89,0,0,1,5.78,0Zm58.08,12.36v17.12c0,9.44-6.14,15.31-15.49,15.31s-15.51-5.87-15.51-15.31V598.65c0-9.45,6.15-15.25,15.51-15.25S864.28,589.2,864.28,598.65Zm-25.23-.32v17.83c0,5.82,3.69,9.48,9.74,9.48s9.79-3.68,9.79-9.48V598.33c0-5.89-3.74-9.48-9.79-9.48S839.05,592.44,839.05,598.33Zm65.38-12.28a3,3,0,0,1,1.68,2.62c0,1.79-1.68,2.61-4.35,2.2a20.59,20.59,0,0,0-7.55-2c-6.73,0-10.57,3.78-10.57,10.5v15.77c0,6.67,3.84,10.52,10.57,10.52a25.9,25.9,0,0,0,7.87-1.3V610.6h-6.65a2.7,2.7,0,0,1-2.75-2.81,2.65,2.65,0,0,1,2.75-2.76h9a3.33,3.33,0,0,1,3.4,3.34v17.31a3.48,3.48,0,0,1-2.06,3.16,33.33,33.33,0,0,1-11.58,2.24c-10,0-16.34-5.93-16.34-16.16V599.55c0-10.29,6.29-16.15,16.34-16.15A22.72,22.72,0,0,1,904.43,586.05Zm32.69,42.14a2.83,2.83,0,0,1-2.88,2.89,2.79,2.79,0,0,1-2.89-2.89V609.87l-12.67-23.41a2.73,2.73,0,0,1,2.74-3.06,2.51,2.51,0,0,1,2.43,1.37L934.24,604l10.38-19.18a2.51,2.51,0,0,1,2.43-1.37c1.79,0,2.85,1.46,2.36,4.22l-12.29,22.26ZM31,598.65v17.12c0,9.44-6.15,15.31-15.5,15.31S0,625.21,0,615.77V598.65c0-9.45,6.15-15.25,15.51-15.25S31,589.2,31,598.65Zm-25.23-.32v17.83c0,5.82,3.69,9.48,9.73,9.48s9.79-3.68,9.79-9.48V598.33c0-5.89-3.75-9.48-9.79-9.48S5.78,592.44,5.78,598.33Zm61.13-14.28a2.74,2.74,0,0,1,2.83,2.75,2.78,2.78,0,0,1-2.83,2.83H50.1v14h16a2.71,2.71,0,0,1,2.82,2.76,2.76,2.76,0,0,1-2.82,2.83h-16v19a2.88,2.88,0,1,1-5.76,0V587.44a3.43,3.43,0,0,1,3.46-3.39Zm55.62,1.6a2.74,2.74,0,0,1,1.63,2.64,2.6,2.6,0,0,1-2.57,2.69,3.74,3.74,0,0,1-1.15-.19l-1-.37a21.44,21.44,0,0,0-8.28-1.57c-4.54,0-7.8,2.85-7.8,6.25s1.78,5.21,5.5,7l7.48,3.68c4.21,2.14,9,5.13,9,12.66,0,8-6.65,12.61-14.27,12.61a27.8,27.8,0,0,1-11.73-2.5,2.75,2.75,0,0,1-1.78-2.65,2.62,2.62,0,0,1,2.68-2.74,4.77,4.77,0,0,1,2.2.63,19.3,19.3,0,0,0,8.63,1.82c4.82,0,8.5-2.56,8.5-7,0-4.14-2.27-6-6.34-8l-7.53-3.73c-4.7-2.31-8.14-5.64-8.14-11.64,0-6.94,5.85-11.83,13.82-11.83A24.42,24.42,0,0,1,122.53,585.65ZM163,586a3.07,3.07,0,0,1,1.93,2.69c0,1.62-1.47,2.71-4.28,2.23a13.57,13.57,0,0,0-7.1-2c-6.35,0-10.25,3.85-10.25,10.06v16.67c0,6.25,4,10.06,10.25,10.06a13.19,13.19,0,0,0,6.59-1.87,4.53,4.53,0,0,1,2-.65,2.72,2.72,0,0,1,2.76,2.69,2.79,2.79,0,0,1-1.43,2.45,17.52,17.52,0,0,1-10,2.82c-9.41,0-16-5.92-16-15.76V599.15c0-10,6.61-15.75,16-15.75A19.44,19.44,0,0,1,163,586Zm21.16.24v42a2.89,2.89,0,0,1-5.78,0v-42a2.89,2.89,0,0,1,5.78,0Zm38.94-2.17a2.69,2.69,0,0,1,2.75,2.75,2.72,2.72,0,0,1-2.75,2.83h-17v14h16.11a2.71,2.71,0,0,1,2.82,2.76,2.77,2.77,0,0,1-2.82,2.83H206.17v15.65h17.4a2.79,2.79,0,0,1,0,5.58h-19.7a3.38,3.38,0,0,1-3.46-3.39v-39.6a3.38,3.38,0,0,1,3.46-3.39ZM310.68,586a3.07,3.07,0,0,1,1.93,2.69c0,1.62-1.47,2.71-4.28,2.23a13.55,13.55,0,0,0-7.11-2c-6.35,0-10.24,3.85-10.24,10.06v16.67c0,6.25,3.95,10.06,10.24,10.06a13.2,13.2,0,0,0,6.6-1.87,4.49,4.49,0,0,1,2-.65,2.73,2.73,0,0,1,2.76,2.69,2.79,2.79,0,0,1-1.43,2.45,17.53,17.53,0,0,1-10,2.82c-9.4,0-16-5.92-16-15.76V599.15c0-10,6.63-15.75,16-15.75A19.45,19.45,0,0,1,310.68,586Zm38.1-1.93a2.69,2.69,0,0,1,2.76,2.75,2.73,2.73,0,0,1-2.76,2.83H331.84v14H348a2.71,2.71,0,0,1,2.82,2.76A2.78,2.78,0,0,1,348,609.2H331.84v15.65h17.39a2.79,2.79,0,0,1,0,5.58h-19.7a3.39,3.39,0,0,1-3.47-3.39v-39.6a3.39,3.39,0,0,1,3.47-3.39ZM227.15,487.3v49.91a4.88,4.88,0,0,1-9.75,0V487.3a4.88,4.88,0,0,1,9.75,0Zm43.34-3.93c10.88,0,17.51,6,17.51,16.13a13.75,13.75,0,0,1-5.75,11.32,15.31,15.31,0,0,1,7.36,13.38c0,10.57-6.7,17-18.64,17H257.9a5.57,5.57,0,0,1-5.73-5.56V488.93a5.56,5.56,0,0,1,5.73-5.56Zm-8.57,32.51V532H271c5.45,0,8.89-3,8.89-8.08s-4-8.08-9.29-8.08Zm0-23.34v18.95l7.15-4.79H270c4.85,0,8.17-2.65,8.17-7s-3-7.13-7.68-7.13Zm59.53-5.24v49.91a4.88,4.88,0,0,1-9.75,0V487.3a4.88,4.88,0,0,1,9.75,0Zm251.74.51V537.7a4.88,4.88,0,0,1-9.76,0V487.81a4.88,4.88,0,0,1,9.76,0Zm62.87-.16a4.83,4.83,0,0,1-.17,1.31l-.34,1.2-15,47.33c-1,3.47-3.29,5-6.18,5s-5.22-1.58-6.26-5l-15-47.33-.35-1.23a5.75,5.75,0,0,1-.16-1.28,4.82,4.82,0,0,1,4.82-4.61,4.76,4.76,0,0,1,4.74,3.44l12.22,39.38,12.08-39.38a4.76,4.76,0,0,1,4.8-3.44A4.82,4.82,0,0,1,636.06,487.65Zm49-3.79a4.72,4.72,0,0,1,0,9.43H665.2v17.79l6-4.05H684a4.72,4.72,0,1,1,0,9.43H665.2v15.85h20.42a4.71,4.71,0,0,1,0,9.42H661.16a5.57,5.57,0,0,1-5.72-5.56V489.42a5.57,5.57,0,0,1,5.72-5.56Zm47.21,0c11.55,0,18.23,6.88,18.23,17.27,0,8-4.22,13.52-11.35,15.58L750.27,535a5.89,5.89,0,0,1,.73,2.67,4.92,4.92,0,0,1-8.94,2.82l-13.53-22.38h-6.68v19.56a4.88,4.88,0,1,1-9.75,0V489.42a5.66,5.66,0,0,1,5.73-5.56ZM721.85,493v20.18L728.2,509h4.08c5.57,0,8.48-3,8.48-7.84-.07-5.14-3.09-8.09-8.48-8.09Zm81-6.94a4.65,4.65,0,0,1,2.76,4.45,4.36,4.36,0,0,1-4.34,4.51,6.51,6.51,0,0,1-1.93-.29c-.57-.19-1.15-.44-1.87-.72a22,22,0,0,0-9.45-1.81c-4.48,0-8.32,2.33-8.32,6.13,0,3.49,1.79,5.2,6.33,7.26L795.5,510c5.47,2.53,11.67,6.32,11.67,16.08,0,10.22-8.3,16.46-19,16.46a35.7,35.7,0,0,1-15.28-3.21,4.68,4.68,0,0,1-3-4.46,4.42,4.42,0,0,1,4.52-4.67,9.31,9.31,0,0,1,3.87,1,23.81,23.81,0,0,0,9.85,2.12c5.65,0,9.22-2.53,9.22-7,0-4-2.17-5.73-7-8.07l-9.85-4.6c-5.78-2.71-10.54-7.09-10.54-14.95,0-9.57,7.67-15.66,18.56-15.66A31.61,31.61,0,0,1,802.87,486.1Zm35.53,1.71V537.7a4.88,4.88,0,0,1-9.75,0V487.81a4.88,4.88,0,0,1,9.75,0Zm54.86-3.95a4.72,4.72,0,0,1,0,9.43H881.71v44.34a4.92,4.92,0,0,1-9.83,0V493.29H860.39a4.72,4.72,0,1,1,0-9.43Zm56,3.87a4.23,4.23,0,0,1-.31,1.54,13.85,13.85,0,0,1-.66,1.35l-14.7,25.78v21.23a4.88,4.88,0,1,1-9.75,0V516.4l-14.69-25.78a14,14,0,0,1-.67-1.35,4,4,0,0,1-.29-1.54A4.65,4.65,0,0,1,913,483a4.11,4.11,0,0,1,4,2.28l11.79,21.43,11.72-21.35a4.21,4.21,0,0,1,4-2.36A4.67,4.67,0,0,1,949.28,487.73ZM353.43,501.6v13.45l6.82-4.58h15.56V501.6c0-2.73-1.94-6.91-11.19-8.71C355.39,494.69,353.43,498.87,353.43,501.6Zm0,35.5a5,5,0,0,1-9.95,0V501.6c0-12.9,13.79-17.81,20.66-19.05,7.81,1.24,21.64,6.13,21.64,19.05v35.5a5,5,0,0,1-10,0V520.22H353.44Zm126,94a3.49,3.49,0,0,1-3.56-3.5V587.7a3.49,3.49,0,0,1,3.56-3.51h9c11,0,17.65,6.46,17.65,17.26v12.39c0,10.79-6.6,17.24-17.65,17.24Zm2.41-5.48,6.75-.22c7.18,0,11.48-4.29,11.48-11.48V601.38c0-7.2-4.3-11.48-11.48-11.48h-6.75ZM456.43,628l0-36.43a1,1,0,0,0-.74-.89,44.42,44.42,0,0,0-19.47,0,1,1,0,0,0-.74.89v36.75a3.08,3.08,0,0,1-6.15-.32V587.18a1.45,1.45,0,0,1,1.16-1.53,54.38,54.38,0,0,1,31,0,1.44,1.44,0,0,1,1.15,1.53v41.21a3.08,3.08,0,0,1-6.14-.4Z" style="fill:#212b59"/></g></g></svg>