<?xml version="1.0" encoding="utf-8"?>
<!-- Generator: Adobe Illustrator 24.0.3, SVG Export Plug-In . SVG Version: 6.00 Build 0)  -->
<svg version="1.1" id="_x31_-outline-expand" xmlns="http://www.w3.org/2000/svg" xmlns:xlink="http://www.w3.org/1999/xlink"
	 x="0px" y="0px" viewBox="0 0 64 64" style="enable-background:new 0 0 64 64;" xml:space="preserve">
<path style="fill:#3A4249;" d="M55,51H41v-5.2c5.7-3.1,9.6-9,10-15.8h1c2.2,0,4-1.8,4-4s-1.8-4-4-4h-2v-1c0-8.8-7.2-16-16-16H18
	c-1.3,0-2.4-0.8-2.8-1.9C12,3.5,9.6,6.4,10.1,9.9c0.3,2.1,1.8,3.8,3.7,4.6c-0.5,2-0.8,4.6-0.8,6.6V22h-1c-2.2,0-4,1.8-4,4s1.8,4,4,4
	h1c0.3,6.8,4.3,12.8,10,15.8V51H9c-3.3,0-6,2.7-6,6v5h58v-5C61,53.7,58.3,51,55,51z M15,29.1v-8c0-1.8,0.2-4.3,0.7-6.1
	c0.2,0,0.3,0,0.5,0H44v2c0,3,2.2,5.4,5,5.9v6.2c0,9.4-7.6,17-17,17S15,38.5,15,29.1z M25,51v-4.3c2.2,0.9,4.5,1.4,7,1.4
	s4.8-0.5,7-1.4V51l-7,5L25,51z"/>
<path style="fill:#3A4249;" d="M32,35c-2.8,0-5,2.2-5,5h10C37,37.2,34.8,35,32,35z"/>
<polygon style="fill:#3A4249;" points="51,9 51,19 59,8 56,8 58,2 47,2 48,9 "/>
<polygon style="fill:#3A4249;" points="22.4,22.1 21.6,23.9 25.8,26 21.6,28.1 22.4,29.9 30.2,26 "/>
<polygon style="fill:#3A4249;" points="42.4,28.1 38.2,26 42.4,23.9 41.6,22.1 33.8,26 41.6,29.9 "/>
</svg>
