<?xml version="1.0" encoding="utf-8"?>
<!-- Generator: Adobe Illustrator 24.0.3, SVG Export Plug-In . SVG Version: 6.00 Build 0)  -->
<svg version="1.1" id="_x31_-outline-expand" xmlns="http://www.w3.org/2000/svg" xmlns:xlink="http://www.w3.org/1999/xlink"
	 x="0px" y="0px" viewBox="0 0 64 64" style="enable-background:new 0 0 64 64;" xml:space="preserve">
<circle style="fill:#3A4249;" cx="25" cy="25" r="2"/>
<circle style="fill:#3A4249;" cx="39" cy="25" r="2"/>
<path style="fill:#3A4249;" d="M61,46V22c0-6.1-4.9-11-11-11h-2.4c-0.8-1.4-1.7-2.6-2.8-3.7C41.5,4,37,2,32,2c-9.9,0-18,8.1-18,18
	h-2c-2.2,0-4,1.8-4,4s1.8,4,4,4h2v-3.5l4.6,5.4c0.4,0.4,1,0.5,1.4,0.1c0.4-0.4,0.5-1,0.1-1.4l-4.7-5.5c-0.4-0.4-1-0.5-1.4-0.1v-2
	c7.2,0,13-4.9,13-11c0,6.1,10.3,11,23,11v-1h2c2.2,0,4,1.8,4,4s-1.8,4-4,4h-2v1l0,0c-0.5-0.2-1.1,0-1.3,0.5L44,39.6V38
	c0.1,0.5-0.2,1.1-0.8,1.2l-3,0.6c-0.5,0.1-1.1-0.2-1.2-0.8s0.2-1.1,0.8-1.2l3-0.6c0.5-0.1,1.1,0.2,1.2,0.8v-4
	c-0.1,0.5-0.6,0.9-1.2,0.8l-3-0.6c-0.5-0.1-0.9-0.6-0.8-1.2c0.1-0.5,0.6-0.9,1.2-0.8l3,0.6c0.5,0.1,0.8,0.6,0.8,1.1V30l-12-2l-12,2
	v4c-0.1-0.5,0.2-1.1,0.8-1.2l3-0.6c0.5-0.1,1.1,0.2,1.2,0.8s-0.2,1.1-0.8,1.2l-3,0.6c-0.5,0.1-1.1-0.2-1.2-0.8v5.6l-4.7-10.1
	C15.1,29,14.5,28.8,14,29h0c-0.5,0.2-0.7,0.8-0.5,1.3l5.2,11.2c0.2,0.5,0.8,0.7,1.3,0.5l0,0c1.3,0.9,2.6,1.7,4,2.3v2.4
	c0,1.9-1.3,3.5-3.2,3.9l-7.4,1.6l-2.2,0.5c-1.9,0.4-3.7,1.3-5.1,2.6C4.7,56.5,3.6,58.1,3,60v2h58v-2c-0.6-1.9-1.7-3.5-3.1-4.7
	c-1.4-1.3-3.2-2.2-5.1-2.6l-2.2-0.5l-7.4-1.6c-1.8-0.4-3.2-2-3.2-3.9v-2.4c1.4-0.6,2.7-1.4,4-2.3l0,0l0,0c0.5,0.2,1.1,0,1.3-0.5
	L50,31.4V35C50,41.1,54.9,46,61,46z M20.8,39.2c-0.5-0.1-0.9-0.6-0.8-1.2c0.1-0.5,0.6-0.9,1.2-0.8l3,0.6c0.5,0.1,0.9,0.6,0.8,1.2
	c-0.1,0.5-0.6,0.9-1.2,0.8L20.8,39.2z M42.8,52.5l3.3,0.7c-3.7,2.3-8.8,3.7-14.1,3.7s-10.3-1.4-14.1-3.7l3.3-0.7
	c2.8-0.6,4.8-3.1,4.8-5.9v-1.6c3.9,1.2,8.1,1.2,12,0v1.6C38,49.5,40,51.9,42.8,52.5z"/>
<path style="fill:#3A4249;" d="M45.4,29.8l4.8-6.4c0.3-0.4,0.2-1.1-0.2-1.4c-0.4-0.3-1.1-0.2-1.4,0.2l-4.8,6.4
	C43.5,29,43.6,29.7,44,30C44.4,30.3,45.1,30.2,45.4,29.8z"/>
</svg>
