<?xml version="1.0" encoding="utf-8"?>
<!-- Generator: Adobe Illustrator 24.0.3, SVG Export Plug-In . SVG Version: 6.00 Build 0)  -->
<svg version="1.1" id="_x31_-outline-expand" xmlns="http://www.w3.org/2000/svg" xmlns:xlink="http://www.w3.org/1999/xlink"
	 x="0px" y="0px" viewBox="0 0 64 64" style="enable-background:new 0 0 64 64;" xml:space="preserve">
<path style="fill:#3A4249;" d="M9.5,20.6l-1.6-1.2c3-3.9,6.6-7.2,10.7-10.1l1.1,1.6C15.8,13.7,12.4,16.9,9.5,20.6z"/>
<polygon style="fill:#3A4249;" points="49,2 62,2 57,11 60,11 49,22 51,12 48,12 "/>
<path style="fill:#3A4249;" d="M40.6,13.4c-0.4-0.3-0.8-0.4-1.3-0.4C38,13,37,14,37,15.3V28c-2.2,0-4-1.8-4-4V2h-4v22
	c0,2.2-1.8,4-4,4V15.3c0-1.3-1-2.3-2.3-2.3c-0.5,0-0.9,0.1-1.3,0.4C15.9,17.3,11.3,22.3,8.1,28c2.5,4.2,6.9,7,11.9,7
	c1.8,0,3.4-0.4,5-1v-2c2.4,0,4.5-1,6-2.7c1.5,1.7,3.6,2.7,6,2.7v16.6c0,0.9,0.3,1.8,0.9,2.5c8.8-2.3,15.9-9,18.8-17.6
	C53.4,25.5,47.9,18.5,40.6,13.4z"/>
<path style="fill:#3A4249;" d="M39.9,52.6l16.6,9.1c0.3,0.2,0.7,0.3,1.1,0.3h0.1c1.3,0,2.3-1,2.3-2.3v-9c0-4.9-0.8-9.8-2.3-14.3
	C54.4,44,47.9,50,39.9,52.6z"/>
<path style="fill:#3A4249;" d="M3.5,39c0,0.1-0.1,0.3-0.1,0.4C2.5,43.1,2,46.9,2,50.7v9C2,61,3,62,4.3,62h0.1c0.4,0,0.8-0.1,1.1-0.3
	l8-4.4l0.4-0.2C9.2,53.6,5.5,47.1,3.5,39z"/>
<path style="fill:#3A4249;" d="M20,37c-5.4,0-10.1-2.8-13-7c-0.1,0.1-0.2,0.3-0.2,0.4c-0.8,1.5-1.4,3.1-2,4.7
	c1.6,9.7,5.8,17.5,11.1,20.9l7.1-3.9c1.3-0.7,2.1-2,2.1-3.5V36.2C23.4,36.7,21.7,37,20,37z"/>
</svg>
