<svg xmlns="http://www.w3.org/2000/svg" viewBox="0 0 1000 265.39"><title>Icon - Long White</title><g id="Layer_2" data-name="Layer 2"><g id="e6d15d18-a685-4480-ac2b-bd578043a679"><rect width="1000" height="265.39" style="fill:none"/><path d="M250.73,160.65c1.89,0,2.79,1.08,2.16,2.88l-11.7,38.88a2.74,2.74,0,0,1-2.88,2.16h-8.1a2.68,2.68,0,0,1-2.88-2.16l-11.7-38.88c-.54-1.8.27-2.88,2.16-2.88h5.76a2.48,2.48,0,0,1,2.79,2.25l7.92,33.84,7.92-33.84a2.58,2.58,0,0,1,2.79-2.25Z" style="fill:#fff"/><path d="M296.72,145.62a2.28,2.28,0,0,1,2.52,2.52v53.91a2.28,2.28,0,0,1-2.52,2.52h-5.67a2.28,2.28,0,0,1-2.52-2.52v-23H269.9v23a2.28,2.28,0,0,1-2.52,2.52h-5.67a2.28,2.28,0,0,1-2.52-2.52V148.14a2.28,2.28,0,0,1,2.52-2.52h5.67a2.28,2.28,0,0,1,2.52,2.52v21.24h18.63V148.14a2.28,2.28,0,0,1,2.52-2.52Z" style="fill:#fff"/><path d="M338.84,175.23v26.82a2.28,2.28,0,0,1-2.52,2.52h-4.68a2.34,2.34,0,0,1-2.61-2.52v-3.42c-3.06,4.59-6.84,7-10.8,7-6.66,0-11.16-5-11.16-13.86v-2.34c0-7.83,5.22-13,13.77-13a46.74,46.74,0,0,1,7.47.9V174c0-3.78-1.62-5.22-5.94-5.22a67.11,67.11,0,0,0-9.18,1.26c-1.8.27-2.79-.54-2.79-2.34v-4c0-1.71.9-2.7,3.06-3a81.26,81.26,0,0,1,10-1.08C334.52,159.57,338.84,163.53,338.84,175.23ZM317.6,190.08v.72c0,3.6,1.62,5.4,3.78,5.4s4.86-1.89,6.93-5.76v-5.76a37.15,37.15,0,0,0-5.13-.45C319.49,184.23,317.6,186.3,317.6,190.08Z" style="fill:#fff"/><path d="M371.5,160.47a2.55,2.55,0,0,1,2.35,2.79v4.23c0,1.8-1,2.61-3.15,2.16a27.4,27.4,0,0,0-5.85-.72c-5.13,0-7.29,2.43-7.29,7.83v11.7c0,5.58,2.52,7.74,7.38,7.74a26.08,26.08,0,0,0,5.93-.72c1.8-.36,2.79.45,2.88,2.25l.19,4.32c.09,1.71-.46,2.43-2.53,2.88a46.31,46.31,0,0,1-7.82.72c-11.07,0-16.56-5.76-16.56-16.83V176.4c0-10.89,5.4-16.83,16.65-16.83A37.16,37.16,0,0,1,371.5,160.47Z" style="fill:#fff"/><path d="M389.69,143.1a2.34,2.34,0,0,1,2.6,2.52V177.3l10.8-15a3.18,3.18,0,0,1,3.06-1.62h6c2.25,0,2.88,1.44,1.62,3.15L401.56,180l13.5,21.51c1.17,1.71.36,3.06-1.62,3.06h-6.75a3.17,3.17,0,0,1-3.06-1.8l-11.34-18.72v18a2.34,2.34,0,0,1-2.6,2.52h-5.41a2.27,2.27,0,0,1-2.51-2.52V145.62a2.27,2.27,0,0,1,2.51-2.52Z" style="fill:#fff"/><path d="M451.06,175.23v26.82a2.28,2.28,0,0,1-2.52,2.52h-4.68a2.34,2.34,0,0,1-2.61-2.52v-3.42c-3.06,4.59-6.84,7-10.8,7-6.66,0-11.16-5-11.16-13.86v-2.34c0-7.83,5.23-13,13.77-13a46.74,46.74,0,0,1,7.47.9V174c0-3.78-1.62-5.22-5.94-5.22a67.11,67.11,0,0,0-9.18,1.26c-1.8.27-2.79-.54-2.79-2.34v-4c0-1.71.91-2.7,3.07-3a80.92,80.92,0,0,1,10-1.08C446.74,159.57,451.06,163.53,451.06,175.23Zm-21.24,14.85v.72c0,3.6,1.63,5.4,3.78,5.4s4.86-1.89,6.93-5.76v-5.76a37.15,37.15,0,0,0-5.13-.45C431.71,184.23,429.82,186.3,429.82,190.08Z" style="fill:#fff"/><path d="M470.05,149a2.25,2.25,0,0,1,2.43,2.52v9.18h8.28a2.34,2.34,0,0,1,2.61,2.52v4a2.41,2.41,0,0,1-2.61,2.61h-8.28v21.15c0,4,1.44,5.49,4.95,5.49a23.18,23.18,0,0,0,4.77-.63c1.71-.36,2.7.54,2.7,2.34l.09,4c.09,1.62-.63,2.34-2.16,2.79a32.11,32.11,0,0,1-6.66.81c-9.9,0-14.22-4.14-14.22-15.21v-20.7h-3.06a2.35,2.35,0,0,1-2.52-2.61v-4a2.28,2.28,0,0,1,2.52-2.52h3.24l1.26-9.36a2.31,2.31,0,0,1,2.52-2.34Z" style="fill:#fff"/><path d="M498.94,143.1a2.34,2.34,0,0,1,2.61,2.52v20c3-4,6.48-6,10.53-6,7.11,0,11.25,5,11.25,15.3v27.18a2.28,2.28,0,0,1-2.52,2.52h-5.4a2.31,2.31,0,0,1-2.61-2.52V176c0-4.95-1.62-6.57-4-6.57s-5.22,2-7.2,5.4v27.27a2.34,2.34,0,0,1-2.61,2.52h-5.4a2.28,2.28,0,0,1-2.52-2.52V145.62a2.28,2.28,0,0,1,2.52-2.52Z" style="fill:#fff"/><path d="M564.37,176.22V189c0,10.62-5.22,16.65-16.47,16.65-11.07,0-16.38-5.94-16.38-16.65V176.22c0-10.62,5.31-16.65,16.38-16.65S564.37,165.6,564.37,176.22Zm-22.32-.54v13.86c0,4.59,2.16,7,5.85,7s6-2.43,6-7V175.59c0-4.59-2.25-6.84-6-6.84S542.05,171.09,542.05,175.68Z" style="fill:#fff"/><path d="M605.32,174.87v27.18a2.28,2.28,0,0,1-2.52,2.52h-5.4a2.31,2.31,0,0,1-2.61-2.52V176c0-4.95-1.53-6.57-4-6.57s-5.22,2-7.2,5.4v27.27a2.34,2.34,0,0,1-2.61,2.52h-5.4a2.28,2.28,0,0,1-2.52-2.52V163.17a2.28,2.28,0,0,1,2.52-2.52h4.59a2.34,2.34,0,0,1,2.61,2.52v3.51c3.15-4.86,7-7.11,11.34-7.11C601.18,159.57,605.32,164.52,605.32,174.87Z" style="fill:#fff"/><path d="M658.33,145.89a2.53,2.53,0,0,1,2.25,2.79v4.5c0,1.8-1.08,2.7-2.79,2.34a47.82,47.82,0,0,0-9.72-1.26c-7.83,0-10.35,2.43-10.35,9.72v22.14c0,7.2,2.7,9.63,10.35,9.63a48.67,48.67,0,0,0,9.72-1.26c1.71-.36,2.7.45,2.79,2.25l.09,4.77a2.66,2.66,0,0,1-2.34,2.79,63.74,63.74,0,0,1-11.43,1.35c-14.76,0-19.89-6.3-19.89-18.81V163.35c0-12.69,5.31-18.81,19.89-18.81A53.89,53.89,0,0,1,658.33,145.89Z" style="fill:#fff"/><path d="M708.64,164.43v21.33c0,12.42-6.12,19.89-20.34,19.89s-20.25-7.47-20.25-19.89V164.43c0-12.6,6.12-19.89,20.25-19.89S708.64,151.83,708.64,164.43Zm-29.88-.81v22.86c0,6.21,3.24,9.45,9.54,9.45s9.54-3.24,9.54-9.45V163.71c0-6.12-3.15-9.45-9.54-9.45S678.76,157.5,678.76,163.62Z" style="fill:#fff"/><path d="M756.25,145.62c1.89,0,2.7,1.08,2.16,2.88l-15.75,53.91a2.58,2.58,0,0,1-2.79,2.16h-8.46a2.62,2.62,0,0,1-2.88-2.16L713.05,148.5c-.45-1.8.36-2.88,2.16-2.88h6.12a2.67,2.67,0,0,1,2.88,2.25L735.64,195l11.7-47.16a2.58,2.58,0,0,1,2.79-2.25Z" style="fill:#fff"/><path d="M773.17,145.62a2.28,2.28,0,0,1,2.52,2.52v53.91a2.28,2.28,0,0,1-2.52,2.52H767.5a2.28,2.28,0,0,1-2.52-2.52V148.14a2.28,2.28,0,0,1,2.52-2.52Z" style="fill:#fff"/><path d="M825.91,168.48v14c0,14.58-7.56,23.13-23.67,23.13-4.77,0-9.45-.18-14-.45a2.32,2.32,0,0,1-2.43-2.61V147.51c0-1.62.63-2.43,2.07-2.52,4.14-.18,9.54-.36,15.21-.36C817.9,144.63,825.91,153.27,825.91,168.48Zm-29.43-14.22v41.49a58.63,58.63,0,0,0,6.21.36c7.74,0,12.51-4.41,12.51-13.05V167.94c0-9.45-4.68-13.86-12.51-13.86C800.62,154.08,798.55,154.08,796.48,154.26Z" style="fill:#fff"/><path d="M852.55,173.7a2.34,2.34,0,0,1,2.61,2.52v3.51a2.37,2.37,0,0,1-2.61,2.61H836.71a2.31,2.31,0,0,1-2.52-2.61v-3.51a2.28,2.28,0,0,1,2.52-2.52Z" style="fill:#fff"/><path d="M879.82,150.48a2.3,2.3,0,0,1,2.6,2.52v49.05a2.3,2.3,0,0,1-2.6,2.52h-5.31a2.34,2.34,0,0,1-2.61-2.52V161.28h-.18l-8,3.51c-1.62.72-2.88.18-3.24-1.62l-1-4.14a2.44,2.44,0,0,1,1.71-3.24l11.42-4.68a6.63,6.63,0,0,1,3.16-.63Z" style="fill:#fff"/><path d="M924.72,167v18.72c0,13.86-6.21,20-18.81,20a48.1,48.1,0,0,1-10-1,2.53,2.53,0,0,1-2.25-2.79v-4c0-1.71,1-2.52,2.69-2.25a53,53,0,0,0,8.83.9c6,0,9-3,9-9.9V181c-3.51,3.42-7.11,5.22-10.88,5.22-7.92,0-12.87-5.22-12.87-16.38v-3.24c0-11.16,5.93-17.19,17.18-17.19C918.51,149.4,924.72,155.43,924.72,167Zm-23.85-1v4.14c0,4.59,1.9,6.75,5.22,6.75,2.52,0,5.4-1.89,8.1-4.59v-5.85c0-5.31-2.25-7.74-6.57-7.74C903.12,158.67,900.87,161,900.87,166Z" style="fill:#fff"/><circle cx="144.59" cy="143.88" r="7.99" style="fill:#fff"/><circle cx="152.58" cy="168" r="6.18" style="fill:#fff"/><circle cx="114.26" cy="93.66" r="5.83" style="fill:#fff"/><circle cx="90.46" cy="175.85" r="6.12" style="fill:#fff"/><path d="M103.73,199.77a10.86,10.86,0,0,0-2.8,3.45,9.7,9.7,0,0,0-.78,6.4c.79,3.86,3.39,10,12,8.49,6-1.07,7.74-5.68,7.94-9.93a10.12,10.12,0,0,0-6.48-9.88h0A10,10,0,0,0,103.73,199.77Z" style="fill:#fff"/><path d="M174.11,151.16a4,4,0,0,1-4.85,2.82l-.42-.14c-1.85-.85-2.84-3.55-2.21-6s2.64-3.81,4.49-3A6.06,6.06,0,0,1,174.11,151.16Z" style="fill:#fff"/><path d="M147.69,117.69a21.24,21.24,0,0,0,3.11-1.42,21.64,21.64,0,0,1,10.83-2.87,28,28,0,0,1-2.87-9.72c-1-9.57,0-25.06,0-25.06s0-7.13,4.45-12.1h0a12.75,12.75,0,0,1-13.8,3.6c1.16,1.71,2.61,5.12,2.61,11.47v26.12A13.18,13.18,0,0,1,147.69,117.69Z" style="fill:#fff"/><path d="M132.67,178.7a18.78,18.78,0,0,1-9.63-2.18,27.8,27.8,0,0,1-2.32,8.14A65.33,65.33,0,0,1,112.65,198c.32.09.63.19.95.31a10.19,10.19,0,0,1,4.46,3.37c2.15-5.57,7.61-16.17,18.34-17.36A17.93,17.93,0,0,1,132.67,178.7Z" style="fill:#fff"/><path d="M120.11,137.4a16.41,16.41,0,0,1,4.19-11.74c-3,.32-7.15-.07-12.75-2.21-7.32-2.8-11.52-6.08-13.9-8.63a9.9,9.9,0,0,1-3.09,7.06c2.65.5,7.44,2.06,13.8,6.84a35.42,35.42,0,0,1,11.13,14.91,19.06,19.06,0,0,0,.63-6Z" style="fill:#fff"/><path d="M189.23,83.05a6.45,6.45,0,0,0-1.66,2,5.63,5.63,0,0,0-.46,3.72c.47,2.25,2,5.82,7.1,4.94,3.58-.62,4.58-3.3,4.7-5.77a5.88,5.88,0,0,0-3.84-5.75h0A6,6,0,0,0,189.23,83.05Z" style="fill:#fff"/><path d="M183.38,199.4c-2.91-3.33-7.19-9.07-7.85-14.74a21.9,21.9,0,0,1,.8-9.21,31.55,31.55,0,0,1-6.88,1.24,18.37,18.37,0,0,1-5.17,9.4,15.49,15.49,0,0,1,9.87,7.17,93,93,0,0,1,4.7,8.67A10.56,10.56,0,0,1,183.38,199.4Z" style="fill:#fff"/><path d="M131.07,181.17c1.89,3.59,7.67,11.86,21,11.86,12.15,0,17.69-8.29,19.39-14,8.67-.94,22.64-6.49,23.9-22.51a21.82,21.82,0,0,0-6.8-17.53,22,22,0,0,1-7-12.34c-.12-.68-.21-1.33-.28-2a13.6,13.6,0,0,0-7.67-10.92c-5.79-2.75-14.65-4.94-24,.32a17.06,17.06,0,0,1-8,2.25,31.54,31.54,0,0,0-13.75,3.51,18.9,18.9,0,0,0-10.19,17.66v.23a16.77,16.77,0,0,1-2.19,9.27c-2.36,4.13-4.81,10.6-3.11,18C113.16,170.58,118.1,180.58,131.07,181.17Zm-11.31-31.68a21.68,21.68,0,0,0,2.84-12v-.2a13.9,13.9,0,0,1,7.51-13,26.33,26.33,0,0,1,11.56-3A22,22,0,0,0,152,118.43c7.5-4.21,14.71-2.41,19.43-.16a8.67,8.67,0,0,1,4.87,7c.07.73.18,1.5.32,2.28a26.94,26.94,0,0,0,8.56,15.14A16.74,16.74,0,0,1,190.42,156s0,.07,0,.11c-1.32,17.16-20.23,18.09-21,18.12a2.5,2.5,0,0,0-2.37,2.07,14.53,14.53,0,0,1-14.93,11.78c-13.09,0-16.91-9.8-17.06-10.2a2.5,2.5,0,0,0-2.34-1.64h-.4c-13.08,0-15-11.49-15-12,0-.07,0-.15,0-.22-1.39-5.91.62-11.17,2.55-14.54Z" style="fill:#fff"/><path d="M106.31,45.79A12.22,12.22,0,1,0,118.53,58h0A12.23,12.23,0,0,0,106.31,45.79Zm0,19.47A7.25,7.25,0,1,1,113.56,58h0A7.26,7.26,0,0,1,106.31,65.26Z" style="fill:#fff"/><path d="M100.14,114.68a12.43,12.43,0,1,0-12.43,12.43h0A12.44,12.44,0,0,0,100.14,114.68Zm-19.89,0a7.47,7.47,0,1,1,7.46,7.46h0A7.46,7.46,0,0,1,80.25,114.68Z" style="fill:#fff"/><path d="M186.12,222.71A13.08,13.08,0,1,0,173,209.63h0A13.1,13.1,0,0,0,186.12,222.71Zm0-21.19a8.11,8.11,0,1,1-8.11,8.11h0A8.12,8.12,0,0,1,186.12,201.52Z" style="fill:#fff"/><path d="M755.36,127.11a13.57,13.57,0,1,0,13.57-13.57h0A13.59,13.59,0,0,0,755.36,127.11Zm22.16,0a8.6,8.6,0,1,1-8.59-8.59h0A8.6,8.6,0,0,1,777.52,127.11Z" style="fill:#fff"/><path d="M153.6,73.33A15.33,15.33,0,1,0,138.27,58h0A15.34,15.34,0,0,0,153.6,73.33Zm0-25.68A10.36,10.36,0,1,1,143.24,58h0A10.37,10.37,0,0,1,153.6,47.65Z" style="fill:#fff"/><path d="M211.56,133.86l.71.37a1.51,1.51,0,0,0,.26.12c4.62,2.1,9.48,1.13,14.08-2.81a13.45,13.45,0,0,0,3-16.5h0a14.45,14.45,0,0,0-13.22-6.93,14.86,14.86,0,0,0-2.39.47,13,13,0,0,0-6.91,5c-.05.07-5.07,6.86-11.53,10.5a6.33,6.33,0,0,0-3.16,4.72,5.93,5.93,0,0,0,1.83,5.11l.13.13a6.13,6.13,0,0,0,7.25.73C203.66,133.64,207.62,132,211.56,133.86Zm-13.83-3.47-.06,0a1,1,0,0,1-.31-.9,1.33,1.33,0,0,1,.67-1c7.41-4.18,12.88-11.58,13.14-11.93a7.65,7.65,0,0,1,4.25-3.17,8.65,8.65,0,0,1,9.85,4h0a8.46,8.46,0,0,1-1.89,10.37c-4.66,4-8.19,2.36-9.57,1.66-6-3.06-11.78-.59-14.66,1.09A1.19,1.19,0,0,1,197.73,130.39Z" style="fill:#fff"/><path d="M236.72,114.05a4,4,0,0,1-1.79-7.58c.27-.13,6.7-3.34,18.52-8.25a4,4,0,0,1,3.07,7.39c-11.53,4.79-17.95,8-18,8A3.92,3.92,0,0,1,236.72,114.05Z" style="fill:#fff"/><path d="M697.72,96.37a4,4,0,0,1-1.52-.3c-11.51-4.76-23.35-9.13-35.2-13a4,4,0,1,1,2.49-7.61c12,3.94,24.07,8.38,35.76,13.21a4,4,0,0,1-1.53,7.7ZM290.4,92.63a4,4,0,0,1-1.28-7.79c11.85-4,24.09-7.79,36.38-11.19a4,4,0,1,1,2.13,7.71c-12.14,3.36-24.23,7.08-35.94,11.06A4.15,4.15,0,0,1,290.4,92.63ZM625.88,72.88a3.93,3.93,0,0,1-1-.11c-12-3-24.41-5.51-36.75-7.6a4,4,0,0,1,1.33-7.89C602,59.4,614.6,62,626.83,65a4,4,0,0,1-1,7.88Zm-262.59-.44a4,4,0,0,1-.84-7.91c12.4-2.7,25-5.07,37.4-7a4,4,0,1,1,1.26,7.9c-12.27,1.94-24.7,4.28-37,6.94A3.61,3.61,0,0,1,363.29,72.44ZM438,60.63a4,4,0,0,1-.39-8c12.68-1.24,25.46-2.11,38-2.56a4,4,0,1,1,.29,8c-12.36.45-25,1.3-37.49,2.54Zm113.34-.36-.39,0c-12.32-1.19-24.93-2-37.49-2.34a4,4,0,0,1,.23-8c12.74.36,25.53,1.16,38,2.36a4,4,0,0,1-.38,8Z" style="fill:#fff"/><path d="M749.77,121.52a4,4,0,0,1-1.94-.51c-5.77-3.21-11.66-6.34-17.53-9.3a4,4,0,0,1,3.61-7.14c6,3,12,6.19,17.81,9.45a4,4,0,0,1-2,7.5Z" style="fill:#fff"/></g></g></svg>