<svg xmlns="http://www.w3.org/2000/svg" xmlns:xlink="http://www.w3.org/1999/xlink" viewBox="0 0 1001.82 1001.82"><defs><linearGradient id="linear-gradient" x1="154.07" y1="4316.17" x2="155.01" y2="4205.4" gradientTransform="matrix(1, 0, 0, -1, 0, 4789.93)" gradientUnits="userSpaceOnUse"><stop offset="0" stop-color="#eb6185"/><stop offset="1" stop-color="#e23e7a"/></linearGradient><linearGradient id="linear-gradient-2" x1="107.32" y1="4357.9" x2="109.66" y2="4215.21" xlink:href="#linear-gradient"/><linearGradient id="linear-gradient-3" x1="88.55" y1="4315.61" x2="89.49" y2="4204.84" xlink:href="#linear-gradient"/><linearGradient id="linear-gradient-4" x1="186.14" y1="4316.44" x2="187.09" y2="4205.67" xlink:href="#linear-gradient"/><linearGradient id="linear-gradient-5" x1="154.51" y1="4374.59" x2="154.51" y2="4322.58" xlink:href="#linear-gradient"/><linearGradient id="linear-gradient-6" x1="212.56" y1="4316.64" x2="213.51" y2="4205.87" xlink:href="#linear-gradient"/><linearGradient id="linear-gradient-7" x1="193.85" y1="4393.3" x2="193.85" y2="4308.58" xlink:href="#linear-gradient"/></defs><title>Icon - Square</title><g id="Layer_2" data-name="Layer 2"><g id="e6d15d18-a685-4480-ac2b-bd578043a679"><rect width="1001.82" height="1001.82" style="fill:none"/><path d="M251.64,528.86c1.89,0,2.79,1.08,2.16,2.88l-11.7,38.88a2.74,2.74,0,0,1-2.88,2.16h-8.1a2.68,2.68,0,0,1-2.88-2.16l-11.7-38.88c-.54-1.8.27-2.88,2.16-2.88h5.76a2.48,2.48,0,0,1,2.79,2.25L235.17,565l7.92-33.84a2.58,2.58,0,0,1,2.79-2.25Z" style="fill:#051e5b"/><path d="M297.63,513.83a2.28,2.28,0,0,1,2.52,2.52v53.91a2.28,2.28,0,0,1-2.52,2.52H292a2.28,2.28,0,0,1-2.52-2.52v-23H270.81v23a2.28,2.28,0,0,1-2.52,2.52h-5.67a2.28,2.28,0,0,1-2.52-2.52V516.35a2.28,2.28,0,0,1,2.52-2.52h5.67a2.28,2.28,0,0,1,2.52,2.52v21.24h18.63V516.35a2.28,2.28,0,0,1,2.52-2.52Z" style="fill:#051e5b"/><path d="M339.75,543.44v26.82a2.28,2.28,0,0,1-2.52,2.52h-4.68a2.34,2.34,0,0,1-2.61-2.52v-3.42c-3.06,4.59-6.84,7-10.8,7-6.66,0-11.16-5-11.16-13.86v-2.34c0-7.83,5.22-13,13.77-13a46.74,46.74,0,0,1,7.47.9v-3.42c0-3.78-1.62-5.22-5.94-5.22a67.11,67.11,0,0,0-9.18,1.26c-1.8.27-2.79-.54-2.79-2.34v-4c0-1.71.9-2.7,3.06-3a81.26,81.26,0,0,1,10-1.08C335.42,527.78,339.75,531.74,339.75,543.44Zm-21.24,14.85V559c0,3.6,1.62,5.4,3.78,5.4s4.86-1.89,6.93-5.76v-5.76a37.15,37.15,0,0,0-5.13-.45C320.4,552.44,318.51,554.51,318.51,558.29Z" style="fill:#051e5b"/><path d="M372.41,528.68a2.54,2.54,0,0,1,2.34,2.79v4.23c0,1.8-1,2.61-3.15,2.16a27.33,27.33,0,0,0-5.85-.72c-5.12,0-7.29,2.43-7.29,7.83v11.7c0,5.58,2.53,7.74,7.38,7.74a26.17,26.17,0,0,0,5.94-.72c1.8-.36,2.79.45,2.88,2.25l.18,4.32c.09,1.71-.45,2.43-2.52,2.88a46.31,46.31,0,0,1-7.82.72c-11.08,0-16.57-5.76-16.57-16.83V544.61c0-10.89,5.41-16.83,16.66-16.83A37.3,37.3,0,0,1,372.41,528.68Z" style="fill:#051e5b"/><path d="M390.59,511.31a2.34,2.34,0,0,1,2.61,2.52v31.68l10.8-15a3.18,3.18,0,0,1,3.06-1.62h6c2.25,0,2.88,1.44,1.62,3.15l-12.24,16.2L416,569.72c1.17,1.71.36,3.06-1.62,3.06H407.6a3.17,3.17,0,0,1-3.06-1.8L393.2,552.26v18a2.34,2.34,0,0,1-2.61,2.52h-5.4a2.28,2.28,0,0,1-2.52-2.52V513.83a2.28,2.28,0,0,1,2.52-2.52Z" style="fill:#051e5b"/><path d="M452,543.44v26.82a2.28,2.28,0,0,1-2.52,2.52h-4.68a2.34,2.34,0,0,1-2.61-2.52v-3.42c-3.06,4.59-6.84,7-10.8,7-6.66,0-11.16-5-11.16-13.86v-2.34c0-7.83,5.22-13,13.77-13a46.74,46.74,0,0,1,7.47.9v-3.42c0-3.78-1.62-5.22-5.94-5.22a67.11,67.11,0,0,0-9.18,1.26c-1.8.27-2.79-.54-2.79-2.34v-4c0-1.71.9-2.7,3.06-3a81.26,81.26,0,0,1,10-1.08C447.65,527.78,452,531.74,452,543.44Zm-21.24,14.85V559c0,3.6,1.62,5.4,3.78,5.4s4.86-1.89,6.93-5.76v-5.76a37.15,37.15,0,0,0-5.13-.45C432.62,552.44,430.73,554.51,430.73,558.29Z" style="fill:#051e5b"/><path d="M471,517.16a2.25,2.25,0,0,1,2.43,2.52v9.18h8.28a2.34,2.34,0,0,1,2.61,2.52v4a2.41,2.41,0,0,1-2.61,2.61h-8.28V559.1c0,4,1.44,5.49,4.95,5.49a23.18,23.18,0,0,0,4.77-.63c1.71-.36,2.7.54,2.7,2.34l.09,4c.09,1.62-.63,2.34-2.16,2.79a32.11,32.11,0,0,1-6.66.81c-9.9,0-14.22-4.14-14.22-15.21V538H459.8a2.34,2.34,0,0,1-2.52-2.61v-4a2.28,2.28,0,0,1,2.52-2.52H463l1.26-9.36a2.31,2.31,0,0,1,2.52-2.34Z" style="fill:#051e5b"/><path d="M499.85,511.31a2.34,2.34,0,0,1,2.61,2.52v20c3-4,6.48-6,10.53-6,7.11,0,11.25,5,11.25,15.3v27.18a2.28,2.28,0,0,1-2.52,2.52h-5.4a2.31,2.31,0,0,1-2.61-2.52v-26.1c0-4.95-1.62-6.57-4.05-6.57s-5.22,2-7.2,5.4v27.27a2.34,2.34,0,0,1-2.61,2.52h-5.4a2.28,2.28,0,0,1-2.52-2.52V513.83a2.28,2.28,0,0,1,2.52-2.52Z" style="fill:#051e5b"/><path d="M565.28,544.43v12.78c0,10.62-5.22,16.65-16.47,16.65-11.07,0-16.38-5.94-16.38-16.65V544.43c0-10.62,5.31-16.65,16.38-16.65S565.28,533.81,565.28,544.43ZM543,543.89v13.86c0,4.59,2.16,7,5.85,7s6-2.43,6-7v-14c0-4.59-2.25-6.84-6-6.84S543,539.3,543,543.89Z" style="fill:#051e5b"/><path d="M606.23,543.08v27.18a2.28,2.28,0,0,1-2.52,2.52h-5.4a2.31,2.31,0,0,1-2.61-2.52v-26.1c0-4.95-1.53-6.57-4.05-6.57s-5.22,2-7.2,5.4v27.27a2.34,2.34,0,0,1-2.61,2.52h-5.4a2.28,2.28,0,0,1-2.52-2.52V531.38a2.28,2.28,0,0,1,2.52-2.52H581a2.34,2.34,0,0,1,2.61,2.52v3.51c3.15-4.86,7-7.11,11.34-7.11C602.09,527.78,606.23,532.73,606.23,543.08Z" style="fill:#051e5b"/><path d="M659.24,514.1a2.53,2.53,0,0,1,2.25,2.79v4.5c0,1.8-1.08,2.7-2.79,2.34a47.82,47.82,0,0,0-9.72-1.26c-7.83,0-10.35,2.43-10.35,9.72v22.14c0,7.2,2.7,9.63,10.35,9.63a48.67,48.67,0,0,0,9.72-1.26c1.71-.36,2.7.45,2.79,2.25l.09,4.77a2.66,2.66,0,0,1-2.34,2.79,63.74,63.74,0,0,1-11.43,1.35c-14.76,0-19.89-6.3-19.89-18.81V531.56c0-12.69,5.31-18.81,19.89-18.81A53.89,53.89,0,0,1,659.24,514.1Z" style="fill:#051e5b"/><path d="M709.55,532.64V554c0,12.42-6.12,19.89-20.34,19.89S669,566.39,669,554V532.64c0-12.6,6.12-19.89,20.25-19.89S709.55,520,709.55,532.64Zm-29.88-.81v22.86c0,6.21,3.24,9.45,9.54,9.45s9.54-3.24,9.54-9.45V531.92c0-6.12-3.15-9.45-9.54-9.45S679.67,525.71,679.67,531.83Z" style="fill:#051e5b"/><path d="M757.16,513.83c1.89,0,2.7,1.08,2.16,2.88l-15.75,53.91a2.58,2.58,0,0,1-2.79,2.16h-8.46a2.62,2.62,0,0,1-2.88-2.16L714,516.71c-.45-1.8.36-2.88,2.16-2.88h6.12a2.67,2.67,0,0,1,2.88,2.25l11.43,47.16,11.7-47.16a2.58,2.58,0,0,1,2.79-2.25Z" style="fill:#051e5b"/><path d="M774.08,513.83a2.28,2.28,0,0,1,2.52,2.52v53.91a2.28,2.28,0,0,1-2.52,2.52h-5.67a2.28,2.28,0,0,1-2.52-2.52V516.35a2.28,2.28,0,0,1,2.52-2.52Z" style="fill:#051e5b"/><path d="M826.82,536.69v14c0,14.58-7.56,23.13-23.67,23.13-4.77,0-9.45-.18-14-.45a2.32,2.32,0,0,1-2.43-2.61V515.72c0-1.62.63-2.43,2.07-2.52,4.14-.18,9.54-.36,15.21-.36C818.81,512.84,826.82,521.48,826.82,536.69Zm-29.43-14.22V564a58.63,58.63,0,0,0,6.21.36c7.74,0,12.51-4.41,12.51-13.05V536.15c0-9.45-4.68-13.86-12.51-13.86C801.53,522.29,799.46,522.29,797.39,522.47Z" style="fill:#051e5b"/><path d="M853.46,541.91a2.34,2.34,0,0,1,2.61,2.52v3.51a2.37,2.37,0,0,1-2.61,2.61H837.62a2.31,2.31,0,0,1-2.52-2.61v-3.51a2.28,2.28,0,0,1,2.52-2.52Z" style="fill:#051e5b"/><path d="M880.72,518.69a2.31,2.31,0,0,1,2.61,2.52v49a2.31,2.31,0,0,1-2.61,2.52h-5.3a2.35,2.35,0,0,1-2.62-2.52V529.49h-.17l-8,3.51c-1.62.72-2.88.18-3.24-1.62l-1-4.14a2.45,2.45,0,0,1,1.71-3.24l11.43-4.68a6.59,6.59,0,0,1,3.15-.63Z" style="fill:#051e5b"/><path d="M925.63,535.16v18.72c0,13.86-6.21,20-18.81,20a48,48,0,0,1-10-1,2.53,2.53,0,0,1-2.25-2.79v-4c0-1.71,1-2.52,2.69-2.25a52.84,52.84,0,0,0,8.82.9c6,0,9-3,9-9.9V549.2c-3.51,3.42-7.11,5.22-10.89,5.22-7.92,0-12.87-5.22-12.87-16.38V534.8c0-11.16,5.94-17.19,17.19-17.19C919.42,517.61,925.63,523.64,925.63,535.16Zm-23.85-1v4.14c0,4.59,1.89,6.75,5.22,6.75,2.52,0,5.4-1.89,8.1-4.59v-5.85c0-5.31-2.25-7.74-6.57-7.74C904,526.88,901.78,529.22,901.78,534.17Z" style="fill:#051e5b"/><path d="M142.53,487.05a28.81,28.81,0,0,0-12.66,3.23A16.4,16.4,0,0,0,121,505.61c0,.07,0,.15,0,.22a19.32,19.32,0,0,1-2.52,10.64c-2.2,3.85-4.37,9.7-2.81,16.34,0,0,2,14.36,17.88,14.11,0,0,4.28,11.84,19.4,11.84s17.38-13.86,17.38-13.86,21.92-.76,23.43-20.41a19.33,19.33,0,0,0-6-15.46,24.63,24.63,0,0,1-7.8-13.74c-.12-.7-.22-1.41-.3-2.12a11.18,11.18,0,0,0-6.27-8.93c-5.27-2.51-13.3-4.49-21.71.24A19.51,19.51,0,0,1,142.53,487.05Z" style="fill:url(#linear-gradient)"/><circle cx="107.22" cy="426.22" r="9.73" style="fill:url(#linear-gradient-2)"/><circle cx="88.62" cy="482.89" r="9.95" style="fill:url(#linear-gradient-3)"/><circle cx="187.03" cy="577.84" r="10.6" style="fill:url(#linear-gradient-4)"/><circle cx="769.84" cy="495.32" r="11.08" style="fill:#d9232e"/><circle cx="145.5" cy="512.09" r="7.99" style="fill:#fff"/><circle cx="153.49" cy="536.22" r="6.18" style="fill:#fff"/><circle cx="154.51" cy="426.22" r="12.84" style="fill:url(#linear-gradient-5)"/><circle cx="115.17" cy="461.87" r="5.83" style="fill:#051e5b"/><circle cx="91.37" cy="544.06" r="6.12" style="fill:#051e5b"/><path d="M104.64,568a10.79,10.79,0,0,0-2.8,3.46,9.7,9.7,0,0,0-.78,6.4c.78,3.85,3.39,10,12,8.49,6-1.08,7.74-5.69,7.94-9.93a10.1,10.1,0,0,0-6.48-9.88h0A9.94,9.94,0,0,0,104.64,568Z" style="fill:#051e5b"/><path d="M175,519.37a4,4,0,0,1-4.85,2.82l-.42-.14c-1.85-.84-2.84-3.54-2.21-6s2.64-3.81,4.49-3A6.07,6.07,0,0,1,175,519.37Z" style="fill:#fff"/><path d="M148.6,485.9a21.24,21.24,0,0,0,3.11-1.42,21.64,21.64,0,0,1,10.83-2.87,27.84,27.84,0,0,1-2.87-9.72c-1-9.56,0-25.06,0-25.06s0-7.12,4.45-12.09h0a12.77,12.77,0,0,1-13.8,3.6c1.16,1.71,2.61,5.11,2.61,11.46v26.12A13.18,13.18,0,0,1,148.6,485.9Z" style="fill:#051e5b"/><path d="M228.36,484.43a12,12,0,0,0-10.77-5.64,13.07,13.07,0,0,0-2,.39A10.47,10.47,0,0,0,210,483.3s-5.29,7.24-12.32,11.2a3.66,3.66,0,0,0-.85,5.85l.1.1a3.7,3.7,0,0,0,4.33.43c2.49-1.45,7.34-3.46,12.32-1l.69.37,0,0h0c4.49,2.11,8.54.21,11.55-2.38A10.88,10.88,0,0,0,228.36,484.43Z" style="fill:url(#linear-gradient-6)"/><path d="M133.58,546.92a18.88,18.88,0,0,1-9.63-2.18,27.84,27.84,0,0,1-2.33,8.13,65.18,65.18,0,0,1-8.06,13.34,8.68,8.68,0,0,1,1,.3,10.27,10.27,0,0,1,4.46,3.37c2.15-5.57,7.61-16.17,18.34-17.36A18,18,0,0,1,133.58,546.92Z" style="fill:#051e5b"/><path d="M121,505.61a16.37,16.37,0,0,1,4.19-11.73c-3,.31-7.15-.07-12.75-2.22-7.32-2.8-11.52-6.08-13.9-8.63a9.9,9.9,0,0,1-3.09,7.06c2.64.51,7.43,2.07,13.8,6.84a35.48,35.48,0,0,1,11.13,14.91,19.06,19.06,0,0,0,.63-6Z" style="fill:#051e5b"/><path d="M190.14,451.27a6.42,6.42,0,0,0-1.66,2A5.57,5.57,0,0,0,188,457c.47,2.25,2,5.83,7.1,4.94,3.58-.62,4.58-3.3,4.7-5.77a5.88,5.88,0,0,0-3.84-5.75h0A6,6,0,0,0,190.14,451.27Z" style="fill:url(#linear-gradient-7)"/><path d="M184.29,567.61c-2.91-3.33-7.19-9.07-7.86-14.74a21.92,21.92,0,0,1,.81-9.21,31,31,0,0,1-6.88,1.24,18.44,18.44,0,0,1-5.17,9.41,15.48,15.48,0,0,1,9.87,7.16,93,93,0,0,1,4.7,8.67A10.66,10.66,0,0,1,184.29,567.61Z" style="fill:#051e5b"/><path d="M132,549.38c1.89,3.59,7.67,11.86,21,11.86,12.15,0,17.69-8.29,19.38-14,8.68-.94,22.65-6.49,23.91-22.51a21.83,21.83,0,0,0-6.8-17.53,22,22,0,0,1-7-12.34c-.12-.68-.21-1.33-.28-1.95A13.57,13.57,0,0,0,174.49,482c-5.79-2.76-14.65-4.94-24,.31a17.07,17.07,0,0,1-8,2.26,31.39,31.39,0,0,0-13.75,3.5,18.91,18.91,0,0,0-10.19,17.66V506a16.76,16.76,0,0,1-2.19,9.26c-2.36,4.13-4.81,10.6-3.11,18C114.07,538.79,119,548.8,132,549.38ZM120.67,517.7a21.66,21.66,0,0,0,2.84-12v-.2a13.9,13.9,0,0,1,7.51-13,26.33,26.33,0,0,1,11.56-3,21.89,21.89,0,0,0,10.35-2.89c7.5-4.21,14.71-2.41,19.43-.16a8.67,8.67,0,0,1,4.87,7c.07.73.18,1.5.32,2.28a26.94,26.94,0,0,0,8.56,15.14,16.72,16.72,0,0,1,5.22,13.33.53.53,0,0,1,0,.12c-1.32,17.15-20.23,18.08-21,18.11a2.5,2.5,0,0,0-2.37,2.07A14.53,14.53,0,0,1,153,556.27c-13.09,0-16.91-9.8-17.06-10.2a2.5,2.5,0,0,0-2.34-1.64h-.4c-13.08,0-15-11.49-15-12,0-.07,0-.15,0-.22-1.39-5.9.62-11.17,2.55-14.54Z" style="fill:#051e5b"/><path d="M107.22,414a12.22,12.22,0,1,0,12.22,12.22h0A12.24,12.24,0,0,0,107.22,414Zm0,19.47a7.25,7.25,0,1,1,7.25-7.25h0A7.27,7.27,0,0,1,107.22,433.47Z" style="fill:#051e5b"/><path d="M101.05,482.89a12.43,12.43,0,1,0-12.43,12.43h0A12.44,12.44,0,0,0,101.05,482.89Zm-19.89,0a7.46,7.46,0,1,1,7.46,7.46h0A7.46,7.46,0,0,1,81.16,482.89Z" style="fill:#051e5b"/><path d="M187,590.92A13.08,13.08,0,1,0,174,577.84h0A13.09,13.09,0,0,0,187,590.92Zm0-21.19a8.11,8.11,0,1,1-8.11,8.11h0A8.11,8.11,0,0,1,187,569.73Z" style="fill:#051e5b"/><path d="M756.27,495.32a13.57,13.57,0,1,0,13.57-13.56h0A13.58,13.58,0,0,0,756.27,495.32Zm22.16,0a8.6,8.6,0,1,1-8.59-8.59h0A8.6,8.6,0,0,1,778.43,495.32Z" style="fill:#051e5b"/><path d="M154.51,441.55a15.33,15.33,0,1,0-15.33-15.33h0A15.35,15.35,0,0,0,154.51,441.55Zm0-25.68a10.36,10.36,0,1,1-10.36,10.35h0A10.36,10.36,0,0,1,154.51,415.87Z" style="fill:#051e5b"/><path d="M212.47,502.07l.71.37a1.51,1.51,0,0,0,.26.12c4.61,2.11,9.48,1.13,14.08-2.81a13.45,13.45,0,0,0,3-16.49h0a14.44,14.44,0,0,0-13.22-6.94,14.86,14.86,0,0,0-2.39.47,13.07,13.07,0,0,0-6.91,5c-.05.07-5.07,6.86-11.53,10.51a6.31,6.31,0,0,0-3.16,4.71,6,6,0,0,0,1.83,5.12l.13.12a6.13,6.13,0,0,0,4.11,1.59,6.27,6.27,0,0,0,3.14-.85C204.57,501.85,208.53,500.17,212.47,502.07Zm-13.83-3.46-.06-.06a1,1,0,0,1-.31-.89,1.33,1.33,0,0,1,.67-1c7.41-4.18,12.88-11.58,13.13-11.93a7.64,7.64,0,0,1,4.26-3.16,8.63,8.63,0,0,1,9.85,4h0A8.48,8.48,0,0,1,224.29,496c-4.67,4-8.19,2.35-9.57,1.65-6-3.05-11.78-.58-14.66,1.1A1.22,1.22,0,0,1,198.64,498.61Z" style="fill:#051e5b"/><path d="M237.63,482.26a4,4,0,0,1-1.79-7.57c.27-.14,6.7-3.35,18.52-8.25a4,4,0,0,1,3.07,7.39c-11.53,4.78-18,8-18,8A4,4,0,0,1,237.63,482.26Z" style="fill:#051e5b"/><path d="M698.63,464.58a3.93,3.93,0,0,1-1.53-.3c-11.5-4.76-23.34-9.13-35.19-13a4,4,0,1,1,2.48-7.6c12,3.93,24.08,8.37,35.77,13.21a4,4,0,0,1-1.53,7.69Zm-407.32-3.73a4,4,0,0,1-1.29-7.79c11.86-4,24.1-7.8,36.39-11.2a4,4,0,1,1,2.13,7.71c-12.14,3.36-24.23,7.08-35.94,11.06A3.89,3.89,0,0,1,291.31,460.85ZM626.79,441.1a4,4,0,0,1-1-.12c-12-3-24.41-5.51-36.76-7.6a4,4,0,1,1,1.34-7.88c12.54,2.11,25.1,4.71,37.33,7.71a4,4,0,0,1-1,7.89Zm-262.59-.45a4,4,0,0,1-.84-7.91c12.4-2.7,25-5.06,37.4-7a4,4,0,1,1,1.26,7.9c-12.27,1.94-24.71,4.28-37,6.95A4.26,4.26,0,0,1,364.2,440.65Zm74.71-11.81a4,4,0,0,1-.39-8c12.68-1.25,25.46-2.11,38-2.57a4,4,0,1,1,.29,8c-12.37.45-25,1.31-37.49,2.54Zm113.34-.36-.39,0c-12.32-1.19-24.93-2-37.49-2.33a4,4,0,0,1,.23-8c12.74.36,25.53,1.16,38,2.37a4,4,0,0,1-.38,8Z" style="fill:#051e5b"/><path d="M750.68,489.73a3.91,3.91,0,0,1-1.94-.51c-5.77-3.21-11.66-6.34-17.53-9.3a4,4,0,0,1,3.61-7.14c6,3,11.95,6.19,17.81,9.45a4,4,0,0,1-2,7.5Z" style="fill:#051e5b"/></g></g></svg>