<svg xmlns="http://www.w3.org/2000/svg" viewBox="0 0 1000 1000"><title>icon - Square White</title><g id="Layer_2" data-name="Layer 2"><g id="e6d15d18-a685-4480-ac2b-bd578043a679"><rect width="1000" height="1000" style="fill:none"/><path d="M250.73,528c1.89,0,2.79,1.08,2.16,2.88l-11.7,38.88a2.74,2.74,0,0,1-2.88,2.16h-8.1a2.68,2.68,0,0,1-2.88-2.16l-11.7-38.88c-.54-1.8.27-2.88,2.16-2.88h5.76a2.48,2.48,0,0,1,2.79,2.25L234.26,564l7.92-33.84A2.58,2.58,0,0,1,245,528Z" style="fill:#fff"/><path d="M296.72,512.92a2.28,2.28,0,0,1,2.52,2.52v53.91a2.28,2.28,0,0,1-2.52,2.52h-5.67a2.28,2.28,0,0,1-2.52-2.52v-23H269.9v23a2.28,2.28,0,0,1-2.52,2.52h-5.67a2.28,2.28,0,0,1-2.52-2.52V515.44a2.28,2.28,0,0,1,2.52-2.52h5.67a2.28,2.28,0,0,1,2.52,2.52v21.24h18.63V515.44a2.28,2.28,0,0,1,2.52-2.52Z" style="fill:#fff"/><path d="M338.84,542.53v26.82a2.28,2.28,0,0,1-2.52,2.52h-4.68a2.34,2.34,0,0,1-2.61-2.52v-3.42c-3.06,4.59-6.84,7-10.8,7-6.66,0-11.16-5-11.16-13.86v-2.34c0-7.83,5.22-13,13.77-13a46.74,46.74,0,0,1,7.47.9v-3.42c0-3.78-1.62-5.22-5.94-5.22a67.11,67.11,0,0,0-9.18,1.26c-1.8.27-2.79-.54-2.79-2.34v-4.05c0-1.71.9-2.7,3.06-3a81.26,81.26,0,0,1,10-1.08C334.52,526.87,338.84,530.83,338.84,542.53ZM317.6,557.38v.72c0,3.6,1.62,5.4,3.78,5.4s4.86-1.89,6.93-5.76V552a37.15,37.15,0,0,0-5.13-.45C319.49,551.53,317.6,553.6,317.6,557.38Z" style="fill:#fff"/><path d="M371.5,527.77a2.55,2.55,0,0,1,2.35,2.79v4.23c0,1.8-1,2.61-3.15,2.16a27.4,27.4,0,0,0-5.85-.72c-5.13,0-7.29,2.43-7.29,7.83v11.7c0,5.58,2.52,7.74,7.38,7.74a26.08,26.08,0,0,0,5.93-.72c1.8-.36,2.79.45,2.88,2.25l.19,4.32c.09,1.71-.46,2.43-2.53,2.88a46.31,46.31,0,0,1-7.82.72c-11.07,0-16.56-5.76-16.56-16.83V543.7c0-10.89,5.4-16.83,16.65-16.83A37.16,37.16,0,0,1,371.5,527.77Z" style="fill:#fff"/><path d="M389.69,510.4a2.34,2.34,0,0,1,2.6,2.52V544.6l10.8-15a3.18,3.18,0,0,1,3.06-1.62h6c2.25,0,2.88,1.44,1.62,3.15l-12.24,16.2,13.5,21.51c1.17,1.71.36,3.06-1.62,3.06h-6.75a3.17,3.17,0,0,1-3.06-1.8l-11.34-18.72v18a2.34,2.34,0,0,1-2.6,2.52h-5.41a2.27,2.27,0,0,1-2.51-2.52V512.92a2.27,2.27,0,0,1,2.51-2.52Z" style="fill:#fff"/><path d="M451.06,542.53v26.82a2.28,2.28,0,0,1-2.52,2.52h-4.68a2.34,2.34,0,0,1-2.61-2.52v-3.42c-3.06,4.59-6.84,7-10.8,7-6.66,0-11.16-5-11.16-13.86v-2.34c0-7.83,5.23-13,13.77-13a46.74,46.74,0,0,1,7.47.9v-3.42c0-3.78-1.62-5.22-5.94-5.22a67.11,67.11,0,0,0-9.18,1.26c-1.8.27-2.79-.54-2.79-2.34v-4.05c0-1.71.91-2.7,3.07-3a80.92,80.92,0,0,1,10-1.08C446.74,526.87,451.06,530.83,451.06,542.53Zm-21.24,14.85v.72c0,3.6,1.63,5.4,3.78,5.4s4.86-1.89,6.93-5.76V552a37.15,37.15,0,0,0-5.13-.45C431.71,551.53,429.82,553.6,429.82,557.38Z" style="fill:#fff"/><path d="M470.05,516.25a2.25,2.25,0,0,1,2.43,2.52V528h8.28a2.34,2.34,0,0,1,2.61,2.52v4a2.41,2.41,0,0,1-2.61,2.61h-8.28v21.15c0,4,1.44,5.49,4.95,5.49a23.18,23.18,0,0,0,4.77-.63c1.71-.36,2.7.54,2.7,2.34l.09,4c.09,1.62-.63,2.34-2.16,2.79a32.11,32.11,0,0,1-6.66.81c-9.9,0-14.22-4.14-14.22-15.21V537h-3.06a2.35,2.35,0,0,1-2.52-2.61v-4a2.28,2.28,0,0,1,2.52-2.52h3.24l1.26-9.36a2.31,2.31,0,0,1,2.52-2.34Z" style="fill:#fff"/><path d="M498.94,510.4a2.34,2.34,0,0,1,2.61,2.52v20c3-4,6.48-6,10.53-6,7.11,0,11.25,5,11.25,15.3v27.18a2.28,2.28,0,0,1-2.52,2.52h-5.4a2.31,2.31,0,0,1-2.61-2.52v-26.1c0-5-1.62-6.57-4-6.57s-5.22,2-7.2,5.4v27.27a2.34,2.34,0,0,1-2.61,2.52h-5.4a2.28,2.28,0,0,1-2.52-2.52V512.92a2.28,2.28,0,0,1,2.52-2.52Z" style="fill:#fff"/><path d="M564.37,543.52V556.3c0,10.62-5.22,16.65-16.47,16.65-11.07,0-16.38-5.94-16.38-16.65V543.52c0-10.62,5.31-16.65,16.38-16.65S564.37,532.9,564.37,543.52ZM542.05,543v13.86c0,4.59,2.16,7,5.85,7s6-2.43,6-7v-14c0-4.59-2.25-6.84-6-6.84S542.05,538.39,542.05,543Z" style="fill:#fff"/><path d="M605.32,542.17v27.18a2.28,2.28,0,0,1-2.52,2.52h-5.4a2.31,2.31,0,0,1-2.61-2.52v-26.1c0-5-1.53-6.57-4-6.57s-5.22,2-7.2,5.4v27.27a2.34,2.34,0,0,1-2.61,2.52h-5.4a2.28,2.28,0,0,1-2.52-2.52V530.47a2.28,2.28,0,0,1,2.52-2.52h4.59a2.34,2.34,0,0,1,2.61,2.52V534c3.15-4.86,7-7.11,11.34-7.11C601.18,526.87,605.32,531.82,605.32,542.17Z" style="fill:#fff"/><path d="M658.33,513.19a2.53,2.53,0,0,1,2.25,2.79v4.5c0,1.8-1.08,2.7-2.79,2.34a47.82,47.82,0,0,0-9.72-1.26c-7.83,0-10.35,2.43-10.35,9.72v22.14c0,7.2,2.7,9.63,10.35,9.63a48.67,48.67,0,0,0,9.72-1.26c1.71-.36,2.7.45,2.79,2.25l.09,4.77a2.66,2.66,0,0,1-2.34,2.79A63.74,63.74,0,0,1,646.9,573c-14.76,0-19.89-6.3-19.89-18.81V530.65c0-12.69,5.31-18.81,19.89-18.81A53.89,53.89,0,0,1,658.33,513.19Z" style="fill:#fff"/><path d="M708.64,531.73v21.33c0,12.42-6.12,19.89-20.34,19.89s-20.25-7.47-20.25-19.89V531.73c0-12.6,6.12-19.89,20.25-19.89S708.64,519.13,708.64,531.73Zm-29.88-.81v22.86c0,6.21,3.24,9.45,9.54,9.45s9.54-3.24,9.54-9.45V531c0-6.12-3.15-9.45-9.54-9.45S678.76,524.8,678.76,530.92Z" style="fill:#fff"/><path d="M756.25,512.92c1.89,0,2.7,1.08,2.16,2.88l-15.75,53.91a2.58,2.58,0,0,1-2.79,2.16h-8.46a2.62,2.62,0,0,1-2.88-2.16L713.05,515.8c-.45-1.8.36-2.88,2.16-2.88h6.12a2.67,2.67,0,0,1,2.88,2.25l11.43,47.16,11.7-47.16a2.58,2.58,0,0,1,2.79-2.25Z" style="fill:#fff"/><path d="M773.17,512.92a2.28,2.28,0,0,1,2.52,2.52v53.91a2.28,2.28,0,0,1-2.52,2.52H767.5a2.28,2.28,0,0,1-2.52-2.52V515.44a2.28,2.28,0,0,1,2.52-2.52Z" style="fill:#fff"/><path d="M825.91,535.78v14c0,14.58-7.56,23.13-23.67,23.13-4.77,0-9.45-.18-14-.45a2.32,2.32,0,0,1-2.43-2.61V514.81c0-1.62.63-2.43,2.07-2.52,4.14-.18,9.54-.36,15.21-.36C817.9,511.93,825.91,520.57,825.91,535.78Zm-29.43-14.22v41.49a58.63,58.63,0,0,0,6.21.36c7.74,0,12.51-4.41,12.51-13V535.24c0-9.45-4.68-13.86-12.51-13.86C800.62,521.38,798.55,521.38,796.48,521.56Z" style="fill:#fff"/><path d="M852.55,541a2.34,2.34,0,0,1,2.61,2.52V547a2.37,2.37,0,0,1-2.61,2.61H836.71a2.31,2.31,0,0,1-2.52-2.61v-3.51a2.28,2.28,0,0,1,2.52-2.52Z" style="fill:#fff"/><path d="M879.82,517.78a2.3,2.3,0,0,1,2.6,2.52v49.05a2.3,2.3,0,0,1-2.6,2.52h-5.31a2.34,2.34,0,0,1-2.61-2.52V528.58h-.18l-8,3.51c-1.62.72-2.88.18-3.24-1.62l-1-4.14a2.44,2.44,0,0,1,1.71-3.24l11.42-4.68a6.63,6.63,0,0,1,3.16-.63Z" style="fill:#fff"/><path d="M924.72,534.25V553c0,13.86-6.21,20-18.81,20a48.1,48.1,0,0,1-10-1,2.53,2.53,0,0,1-2.25-2.79v-4c0-1.71,1-2.52,2.69-2.25a53,53,0,0,0,8.83.9c6,0,9-3,9-9.9v-5.67c-3.51,3.42-7.11,5.22-10.88,5.22-7.92,0-12.87-5.22-12.87-16.38v-3.24c0-11.16,5.93-17.19,17.18-17.19C918.51,516.7,924.72,522.73,924.72,534.25Zm-23.85-1v4.14c0,4.59,1.9,6.75,5.22,6.75,2.52,0,5.4-1.89,8.1-4.59v-5.85c0-5.31-2.25-7.74-6.57-7.74C903.12,526,900.87,528.31,900.87,533.26Z" style="fill:#fff"/><circle cx="144.59" cy="511.18" r="7.99" style="fill:#fff"/><circle cx="152.58" cy="535.31" r="6.18" style="fill:#fff"/><circle cx="114.26" cy="460.96" r="5.83" style="fill:#fff"/><circle cx="90.46" cy="543.15" r="6.12" style="fill:#fff"/><path d="M103.73,567.07a10.79,10.79,0,0,0-2.8,3.46,9.7,9.7,0,0,0-.78,6.4c.79,3.86,3.39,10,12,8.49,6-1.07,7.74-5.69,7.94-9.93a10.1,10.1,0,0,0-6.48-9.88h0A9.94,9.94,0,0,0,103.73,567.07Z" style="fill:#fff"/><path d="M174.11,518.46a4,4,0,0,1-4.85,2.82l-.42-.14c-1.85-.84-2.84-3.54-2.21-6s2.64-3.81,4.49-3A6.07,6.07,0,0,1,174.11,518.46Z" style="fill:#fff"/><path d="M147.69,485a21.24,21.24,0,0,0,3.11-1.42,21.64,21.64,0,0,1,10.83-2.87,28,28,0,0,1-2.87-9.72c-1-9.56,0-25.06,0-25.06s0-7.12,4.45-12.09h0a12.77,12.77,0,0,1-13.8,3.6c1.16,1.71,2.61,5.11,2.61,11.46V475A13.16,13.16,0,0,1,147.69,485Z" style="fill:#fff"/><path d="M132.67,546a18.88,18.88,0,0,1-9.63-2.18,27.83,27.83,0,0,1-2.32,8.13,65.67,65.67,0,0,1-8.07,13.34,8.76,8.76,0,0,1,.95.31,10.17,10.17,0,0,1,4.46,3.36c2.15-5.56,7.61-16.17,18.34-17.36A18,18,0,0,1,132.67,546Z" style="fill:#fff"/><path d="M120.11,504.7A16.37,16.37,0,0,1,124.3,493c-3,.31-7.15-.07-12.75-2.22-7.32-2.8-11.52-6.08-13.9-8.63a9.9,9.9,0,0,1-3.09,7.06c2.65.51,7.44,2.07,13.8,6.84a35.48,35.48,0,0,1,11.13,14.91,19.06,19.06,0,0,0,.63-6Z" style="fill:#fff"/><path d="M189.23,450.36a6.42,6.42,0,0,0-1.66,2,5.65,5.65,0,0,0-.46,3.73c.47,2.24,2,5.82,7.1,4.93,3.58-.62,4.58-3.3,4.7-5.77a5.88,5.88,0,0,0-3.84-5.75h0A6,6,0,0,0,189.23,450.36Z" style="fill:#fff"/><path d="M183.38,566.7c-2.91-3.32-7.19-9.07-7.85-14.74a21.92,21.92,0,0,1,.8-9.21,31,31,0,0,1-6.88,1.24,18.44,18.44,0,0,1-5.17,9.41,15.51,15.51,0,0,1,9.87,7.16,93,93,0,0,1,4.7,8.67A10.77,10.77,0,0,1,183.38,566.7Z" style="fill:#fff"/><path d="M131.07,548.47c1.89,3.59,7.67,11.86,21,11.86,12.15,0,17.69-8.29,19.39-14,8.67-1,22.64-6.5,23.9-22.52a21.81,21.81,0,0,0-6.8-17.52,22.09,22.09,0,0,1-7-12.35c-.12-.67-.21-1.33-.28-1.95a13.57,13.57,0,0,0-7.67-10.91c-5.79-2.76-14.65-4.94-24,.31a17.07,17.07,0,0,1-8,2.26,31.39,31.39,0,0,0-13.75,3.5,18.91,18.91,0,0,0-10.19,17.66v.24a16.76,16.76,0,0,1-2.19,9.26c-2.36,4.13-4.81,10.6-3.11,18C113.16,537.88,118.1,547.89,131.07,548.47Zm-11.31-31.68a21.66,21.66,0,0,0,2.84-12v-.2a13.9,13.9,0,0,1,7.51-13,26.47,26.47,0,0,1,11.56-3A21.89,21.89,0,0,0,152,485.73c7.5-4.21,14.71-2.41,19.43-.16a8.67,8.67,0,0,1,4.87,7c.07.73.18,1.5.32,2.28A26.94,26.94,0,0,0,185.19,510a16.76,16.76,0,0,1,5.23,13.33s0,.08,0,.12c-1.32,17.16-20.23,18.08-21,18.11a2.5,2.5,0,0,0-2.37,2.07,14.53,14.53,0,0,1-14.93,11.78c-13.09,0-16.91-9.8-17.06-10.2a2.5,2.5,0,0,0-2.34-1.64h-.4c-13.08,0-15-11.49-15-12,0-.07,0-.15,0-.22-1.39-5.9.62-11.16,2.55-14.54Z" style="fill:#fff"/><path d="M106.31,413.09a12.22,12.22,0,1,0,12.22,12.22h0A12.24,12.24,0,0,0,106.31,413.09Zm0,19.47a7.25,7.25,0,1,1,7.25-7.25h0A7.26,7.26,0,0,1,106.31,432.56Z" style="fill:#fff"/><path d="M100.14,482a12.43,12.43,0,1,0-12.43,12.43h0A12.44,12.44,0,0,0,100.14,482Zm-19.89,0a7.47,7.47,0,1,1,7.46,7.46h0A7.46,7.46,0,0,1,80.25,482Z" style="fill:#fff"/><path d="M186.12,590A13.09,13.09,0,1,0,173,576.93h0A13.11,13.11,0,0,0,186.12,590Zm0-21.2a8.11,8.11,0,1,1-8.11,8.11h0A8.12,8.12,0,0,1,186.12,568.82Z" style="fill:#fff"/><path d="M755.36,494.41a13.57,13.57,0,1,0,13.57-13.56h0A13.58,13.58,0,0,0,755.36,494.41Zm22.16,0a8.6,8.6,0,1,1-8.59-8.59h0A8.6,8.6,0,0,1,777.52,494.41Z" style="fill:#fff"/><path d="M153.6,440.64a15.33,15.33,0,1,0-15.33-15.33h0A15.35,15.35,0,0,0,153.6,440.64Zm0-25.68a10.36,10.36,0,1,1-10.36,10.35h0A10.36,10.36,0,0,1,153.6,415Z" style="fill:#fff"/><path d="M211.56,501.16l.71.37a1.51,1.51,0,0,0,.26.12c4.62,2.11,9.48,1.13,14.08-2.81a13.44,13.44,0,0,0,3-16.49h0a14.44,14.44,0,0,0-13.22-6.94,14.86,14.86,0,0,0-2.39.47,13.07,13.07,0,0,0-6.91,5c-.05.07-5.07,6.86-11.53,10.51a6.31,6.31,0,0,0-3.16,4.71,6,6,0,0,0,1.83,5.12l.13.12A6.13,6.13,0,0,0,198.5,503a6.27,6.27,0,0,0,3.14-.85C203.66,500.94,207.62,499.26,211.56,501.16Zm-13.83-3.46-.06-.06a1,1,0,0,1-.31-.89,1.33,1.33,0,0,1,.67-1c7.41-4.18,12.88-11.58,13.14-11.93a7.59,7.59,0,0,1,4.25-3.16,8.63,8.63,0,0,1,9.85,4h0a8.47,8.47,0,0,1-1.89,10.37c-4.66,4-8.19,2.35-9.57,1.65-6-3.05-11.78-.58-14.66,1.1A1.22,1.22,0,0,1,197.73,497.7Z" style="fill:#fff"/><path d="M236.72,481.35a4,4,0,0,1-1.79-7.57c.27-.14,6.7-3.35,18.52-8.25a4,4,0,0,1,3.07,7.39c-11.53,4.78-17.95,8-18,8A3.92,3.92,0,0,1,236.72,481.35Z" style="fill:#fff"/><path d="M697.72,463.67a3.85,3.85,0,0,1-1.52-.3c-11.51-4.75-23.35-9.13-35.2-13a4,4,0,1,1,2.49-7.6c12,3.93,24.07,8.37,35.76,13.21a4,4,0,0,1-1.53,7.69ZM290.4,459.94a4,4,0,0,1-1.28-7.79c11.85-4,24.09-7.8,36.38-11.2a4,4,0,1,1,2.13,7.71c-12.14,3.36-24.23,7.08-35.94,11.06A3.89,3.89,0,0,1,290.4,459.94Zm335.48-19.75a4,4,0,0,1-1-.12c-12-3-24.41-5.51-36.75-7.59a4,4,0,1,1,1.33-7.89c12.54,2.11,25.1,4.71,37.33,7.71a4,4,0,0,1-1,7.89Zm-262.59-.45a4,4,0,0,1-.84-7.91c12.4-2.7,25-5.06,37.4-7a4,4,0,1,1,1.26,7.9c-12.27,1.94-24.7,4.28-37,6.95A4.19,4.19,0,0,1,363.29,439.74ZM438,427.93a4,4,0,0,1-.39-8c12.68-1.25,25.46-2.11,38-2.57a4,4,0,1,1,.29,8c-12.36.44-25,1.3-37.49,2.53Zm113.34-.36-.39,0c-12.32-1.19-24.93-2-37.49-2.33a4,4,0,0,1,.23-8c12.74.36,25.53,1.16,38,2.37a4,4,0,0,1-.38,8Z" style="fill:#fff"/><path d="M749.77,488.82a3.91,3.91,0,0,1-1.94-.51c-5.77-3.21-11.66-6.33-17.53-9.3a4,4,0,0,1,3.61-7.14c6,3,12,6.19,17.81,9.45a4,4,0,0,1-2,7.5Z" style="fill:#fff"/></g></g></svg>