<?xml version="1.0" encoding="utf-8"?>
<!-- Generator: Adobe Illustrator 24.0.3, SVG Export Plug-In . SVG Version: 6.00 Build 0)  -->
<svg version="1.1" id="e6d15d18-a685-4480-ac2b-bd578043a679"
	 xmlns="http://www.w3.org/2000/svg" xmlns:xlink="http://www.w3.org/1999/xlink" x="0px" y="0px" viewBox="0 0 500 500"
	 style="enable-background:new 0 0 500 500;" xml:space="preserve">
<style type="text/css">
	.st0{opacity:0.1;}
	.st1{fill:#3F3D56;}
	.st2{fill:none;}
	.st3{fill:#051E5B;}
	.st4{fill:url(#SVGID_1_);}
	.st5{fill:url(#SVGID_2_);}
	.st6{fill:url(#SVGID_3_);}
	.st7{fill:url(#SVGID_4_);}
	.st8{fill:#D9232E;}
	.st9{fill:#FFFFFF;}
	.st10{fill:url(#SVGID_5_);}
	.st11{fill:url(#SVGID_6_);}
	.st12{fill:url(#SVGID_7_);}
</style>
<title>logo</title>
<g class="st0">
	<polygon class="st1" points="449,85 448.7,84.7 448.3,84.4 447.9,84.3 447.4,84.3 447.1,84.2 446.8,83.6 446.6,83.5 446.5,83.5 
		442.9,85.8 443.2,86.5 444.1,86.4 445.1,86 446,85 447.2,85 449.2,85.4 	"/>
	<polygon class="st1" points="446.3,83.3 446.2,83.2 446.1,83 446.1,82.6 446,82.4 445.6,82 445.4,82 445.1,82.3 445,82.1 
		444.9,81.9 444.7,81.7 444.4,81.7 444.4,81.5 444.1,80.6 444,80.5 443.5,80 443.4,79.9 443.1,79.9 442.9,79.8 442.7,79.8 
		442.5,79.5 442.5,79.3 442.7,78.7 442.6,78.6 442.3,78.7 441.8,78.8 441.5,78.8 441,78.5 440.6,78 440.3,77.7 439.7,78 439.3,77.4 
		438.5,77 436.5,76.6 435.6,76.7 435.2,76.6 435,76.4 434.9,76.3 434.7,76.2 432.2,75.8 430.9,75.8 430.6,75.9 430.4,76.1 
		430.2,76.3 429.9,76.5 429.5,76.9 429.2,77.1 428.9,77.1 428.6,77.1 428.2,76.9 427.9,76.7 427.7,76.5 427.5,76.3 426.7,76.2 
		426.2,75.9 425.3,75.7 424,75.2 423.5,75.1 423,75.2 421.8,75.6 421.5,75.7 421.2,75.5 419.6,75.4 419.1,75.4 418.5,75.4 
		396.6,80.1 396,80.1 393.8,80.5 367.3,86 335.6,92.3 335,92.4 334.8,92.4 334.4,91.7 333.5,91.3 331.8,90.7 330.5,89.9 330,89.8 
		328.8,89.8 328.3,89.8 327.8,89.9 327.3,90.1 326.8,90.2 326.3,90 323.2,90.9 320.9,91.5 320.5,92.4 319.5,92.6 318.6,92.9 
		317.9,93 317.2,92.4 316.4,91.9 315.9,91.8 315.6,92 315.4,92.2 314.9,92.1 314.4,91.9 314.2,91.6 313.7,91.3 312.7,91.2 
		311.5,91.3 310.8,91.5 310.4,91.3 309.5,90.7 308.5,90.1 308.2,89.9 307.7,89.2 307,88.6 306.3,88.3 305.5,88.5 304.3,87.5 
		304,87.3 303,87.5 302.6,87.5 302.3,87.3 301.3,88.2 300.6,87.9 299.8,87.9 299.1,88.1 298.7,88.5 298.4,88.2 298,88.4 297.6,88.5 
		296.8,88.5 295.1,88.6 294.8,88.6 293.8,88.2 292.7,87.6 288,87.6 287.8,87.7 287.5,88.3 287.4,88.5 286.9,88.4 286.2,88.2 
		285.6,87.9 285.3,87.7 285,87.1 284.4,87 283.8,87 282.1,87.4 277.1,87.5 272.3,86 271.9,85.7 270.6,85.8 269.7,85.6 269.4,85.6 
		268.7,85.8 267.7,86.2 265.2,86.3 261.4,85.6 258.8,84.2 257.6,83.9 257.2,83.6 256.6,82.8 254.9,80.9 254.6,80.7 254.1,80.4 
		253.8,80.2 253.7,79.8 253.5,79.3 253.4,79.1 251.9,77.7 251.5,77.5 251.4,77.2 250.4,75.1 249.7,74.9 249.6,74.9 249.5,74.5 
		249,73.3 248.9,73.1 248.7,73 248.6,72.7 248.5,72.5 248.3,72.5 235.2,72.5 163.2,72.5 133.7,72.5 123.7,72.5 123.7,72.5 
		123.3,72.5 123.3,72.6 123,73.3 122.4,73.4 121.1,73.1 120.9,73.2 120.4,73.5 120.1,73.6 119.7,73.6 119.2,73.4 118.6,73.4 
		118.1,73.2 117.7,73.1 117.4,73.2 117,73.5 116.6,73.6 115.9,73.5 115.5,73.1 114.2,71.2 113.8,70.9 108.2,67.7 105.6,65.5 
		103.1,64 103.4,63.1 103.1,62.6 102.7,62.1 102.3,60.9 101.9,60.4 101.2,60.2 100.5,60.1 100,59.9 99,59.2 98.4,59 97.2,59.3 
		97,59.3 96.8,59.2 96.4,59.3 95.6,59.6 95.6,59.4 95.3,59.5 95,59.5 94.3,59.4 94,59.2 93.8,58.9 93.5,58.8 93.2,59 92.6,58.6 
		92.6,58.6 92.6,58.6 92,58.6 91.3,58.8 88.1,59.4 86.6,60.3 85.7,60.6 85.1,60.8 84.4,61 84.3,61.4 84.2,61.7 84.1,62 83.8,62.2 
		83.3,62.4 83.1,62.5 82.8,62.7 82.5,63.2 82.4,63.5 81.4,63.8 80.1,64.4 79,65.3 78.4,65.7 77.7,65.7 77,66 75.6,67.2 74.9,67.6 
		74.6,67.6 73.5,67.4 71.8,67.2 71.3,67 70.6,66.6 70.2,66.6 69.8,67 69.4,67.1 67.5,67.1 65.4,67.3 65.3,67.1 65.2,66.9 65,66.6 
		64.8,66.4 64.5,66.3 64.1,66.2 63.8,65.9 63.7,65.7 63.6,65.5 63.5,65.2 63.4,65 63.3,64.9 63,64.8 62.8,64.9 62.7,65 62.4,65.1 
		61.4,64.8 61,64.6 60.8,64.5 60.7,64.6 60.5,64.7 59.1,64.8 57.7,65.3 56.5,65.9 55.1,67 53.9,67.6 53.4,67.9 53.2,68.2 53.1,68.4 
		53,68.5 52.6,68.6 52.2,68.5 51.7,68.2 51.4,68.2 51,68.6 50,75 49.9,77.5 50.2,79.2 50.2,80.1 49.9,80.8 50.4,82 50.6,86.3 
		51.1,88 51.2,90.9 51.4,91.5 52.3,93.5 52.4,94.2 52.5,94.7 52.9,95.2 53.6,95.9 56.2,99.1 56.4,99.4 57.5,102.5 58.2,103.5 
		58.2,103.8 58.2,104.1 58.2,104.4 58.2,104.8 58.6,105.8 58.7,106.4 59,106.9 60.7,109 61,109.2 61.3,109.4 61.8,110.1 62,110.3 
		62.3,110.4 66.7,114.2 71.5,120.8 71.8,121.4 72.1,123.7 72.4,124.1 73.5,125 74.4,126.1 75,127.1 76.4,130.7 77,131.8 77.9,133.1 
		78.3,133.8 78.5,135.3 78.6,135.9 79,136.9 80.3,139.3 80.6,139.6 81.3,141.2 81.7,141.7 81.9,142.4 84.1,146.5 85.3,148.2 
		85.6,149.1 87.9,153.6 89.1,157.1 89.6,158.1 91.5,159.7 92.3,160.5 93,161.7 94,164.3 94.6,166.9 94.8,168.3 95.5,171.1 98,176.2 
		98.9,179 99.1,181.6 99.5,182.7 100.1,183.8 100.8,184.4 101.3,184.9 101.6,186 102.9,187.7 105.5,192.5 106.3,193.5 107.4,194.9 
		109.2,198 112.2,202 113.2,204.3 113.6,206.4 116,210 116.1,210.2 116.2,210.6 116.2,210.8 116,211.6 115.9,211.8 115.8,212.1 
		115.8,212.5 116.4,212.7 118.8,215 119.1,215.6 121.3,217.6 125.8,223.6 125.9,223.9 125.9,224.6 126.5,225.7 128.4,227.9 
		128.6,228.1 129.6,230.2 130.1,232 131.2,234.2 131.5,235.6 132.2,236.8 132.8,241 133,246.5 132.8,248 132.6,248.7 132.3,249.1 
		131.9,249.3 131.2,250.6 130.8,251 131.1,250.1 131.2,249.7 130.5,250 130.3,249.7 130.4,249 130.5,248.4 130.4,248.2 130.3,247.9 
		130.1,247.7 130.3,247.5 130.2,247.3 130,247.3 130,247.4 130,248.7 129.9,249 129.5,249.6 129.4,249.9 129.3,250.2 129.4,252.3 
		129.6,253.4 129.9,254.5 130.4,255.4 130.9,256.2 131.2,257.3 131.7,261 131.8,262.2 131.7,262.9 131.5,263.1 131.3,262.8 
		131.4,262.1 131,262.5 130.3,263.8 130,264.1 130,264.4 130.4,265.8 131.5,268.7 131.8,269.6 132,270.7 131.6,275.3 131.6,275.9 
		132.2,277.4 132.1,279.2 132.4,279.6 132,280.4 131.8,280.7 131.6,280.8 131.3,280.8 131.2,280.9 130.9,281.3 130.8,282.2 
		130.5,282.7 130.8,283.4 130.9,284.4 130.9,285.5 130.8,286.1 131,286.6 131.2,288.1 131.8,289.1 132.4,291.3 133,292.5 133,292.4 
		134,294.2 134.6,295.8 135.3,297 135.4,297.6 135.4,298.9 135.3,299.1 134.9,299.6 134.8,299.9 135,300.7 136,301.9 136.4,302.8 
		137.9,304.2 138.6,305.2 140.1,308.2 140.1,308.2 140.2,308.4 140.6,309.6 140.7,312.2 141.1,313.4 141.7,314.6 142.1,315.5 
		142.4,316.7 142.3,318 141.7,320.3 141.7,320.6 140.8,323 140.9,323.7 141.2,324.8 141.3,326.4 142.1,328.3 142.2,329.7 
		142.4,330.5 143,331.2 143.2,331.8 143.2,332.5 143.1,333.1 142.2,334.7 142.1,335.3 142.1,337.9 142,338.3 142,338.6 142.1,339 
		142.6,339.8 144.1,341.6 144.3,341.6 143.8,342.8 144,343.8 145.3,346 145.8,347 146.1,348.4 146.1,349.7 145.7,350.8 145.4,350.9 
		145.2,350.8 145,350.8 145,350.8 145,350.8 144.9,351.2 145,351.4 145.6,352.3 145.5,354.7 145.7,357.2 146,357.5 147.7,358.2 
		148.8,358.9 149.8,359.9 150.5,361.1 150.9,363 151.5,364.9 151.7,365.4 151.6,365.7 151.1,367.4 150.9,368 150.7,368 150.7,366.8 
		150.7,366.5 150.4,366.5 150.1,366.6 149.8,366.6 149.4,366.8 149.4,366.8 149.4,366.8 149.2,367.3 149.1,367.9 149.1,368.6 
		149.4,369.2 149.8,369.8 150.1,370.5 150,371.3 150.1,371.8 151.1,373.8 151.3,374.3 151.4,375.1 151.5,375.1 151.7,375.4 
		151.9,375.7 152,375.8 152.2,375.9 152.8,376 153,376 153.4,376.6 153.6,377.2 153.6,378.5 153.6,379.3 153.8,379.9 154.4,381.1 
		154.2,381.5 154.6,383.6 154.4,384.9 154.5,385.3 154.6,385.5 154.8,385.8 155,386.1 155.4,388.6 155.6,389 156.8,390.5 
		157.7,392.1 157.9,392.4 158.4,392.6 158.8,393.1 159.2,394.2 162.1,398.5 162.2,398.9 162.3,399.2 162.3,400.8 162.4,401.6 
		162.8,402.1 165.7,405 166.6,406 166.9,407 166.9,407.3 166.7,408 166.7,408.4 166.9,408.6 167.8,409.6 168.7,411 169.1,411.4 
		170,412 170,412 171.3,413 172.8,414.9 173.6,415.6 177.5,418.4 179.3,420.5 181.1,422.8 181.4,423 181.9,423.2 182.8,424.1 
		182.9,424 185,426.1 185.5,426.7 186.4,427.7 188.2,429.1 188.5,429.3 189.3,429.4 189.7,429.1 190,428.6 190.6,428.2 191.1,428 
		191.8,427.5 192.7,427.1 193.8,426.8 196,424.6 196.3,424.5 196.6,424.7 196.7,425 196.8,425.4 196.9,425.7 197.4,425.8 198,425.3 
		198.5,424.6 198.8,424.1 198.9,423.5 199,422.8 199.1,422.2 199.6,421.9 199.9,421.6 199.6,421 199,420.1 198.8,419.6 198.7,419 
		198.8,418.4 199.3,418.2 199.6,418.3 199.9,418.5 200.2,418.6 200.5,418.4 200.6,418 200.4,417.6 200.2,417.3 200.1,417.1 
		200.2,416.8 200.4,416.7 201,416.7 201.4,416.5 201.4,416.3 200.9,415.7 200.8,415.5 200.9,415.3 201,415.2 201.2,415.2 
		201.3,415.3 201.8,415.3 201.9,415.4 202.1,415.5 202.3,415.1 202.5,412.6 202.6,412.5 203.1,412 203.3,411.9 203.5,411.9 
		203.8,412.2 204.1,412.3 204.5,412.1 204.9,411.7 205.2,411.7 206,411.8 207,411.1 207.3,411 207.9,410.8 208.2,410.8 208.5,411 
		209,411.5 209.3,412.1 209.7,412.7 210.3,412.9 211,413.2 211.3,413.7 211.3,414.4 211.2,415.1 211.3,416.6 211.9,417.4 
		212.9,417.5 214.8,417.1 215.5,417.1 215.9,417.2 216,417.6 216,418 216.1,418.3 216.4,418.7 216.5,419 216.5,419.3 216.6,419.7 
		216.8,420 217.3,420.6 217.4,421 217.5,421.7 217.4,422.6 217.2,423.3 216.7,423.6 216.2,423.8 215.7,424.1 215.3,424.5 215.2,425 
		215.5,425.6 216.2,426.5 216.4,427.3 216.6,427.8 217.7,428.2 218,428.9 217.9,430.1 217.5,431.5 217.5,432.4 218.6,432.6 
		220,432.3 221.2,432.1 221.8,432 222.3,431.8 222.8,431.7 223.3,432 223.4,432.6 223.4,433.4 223.6,434 224.2,434.3 225.1,434.6 
		225.5,434.5 225.8,434.4 226.4,434 226.7,433.9 227.6,433.8 232.6,434.8 233.7,435.3 234.7,435.9 236.4,437.3 237.6,437.9 
		240.1,438.7 240.6,438.7 241.6,438.4 244.2,438 244.9,438 246.1,438.5 246.8,438.6 247.4,438.4 247.6,438.2 248,438.1 248.6,438 
		248.7,438 249,437.8 249.1,437.8 249.3,437.9 249.6,438.2 249.8,438.3 250.4,438.1 251.5,437.5 257.1,436.7 263.3,437.6 263.8,438 
		264.5,439.1 264.8,439.5 265,439.5 266.1,439.7 266.4,439.8 266.5,439.9 267,440.5 268.2,440.5 269.4,440.1 271.1,439.2 271.3,439 
		271.6,438.5 271.8,438.4 272.8,438.3 273.1,438.1 273.1,437.7 272,435.9 271.9,435.2 272,434.5 272.5,433.6 272.8,433.2 
		273.2,432.9 273.6,432.9 274.3,433.4 274.6,433.5 275,433.3 277.4,432.7 278,432.4 278.6,432 278.9,431.6 279.7,429 279.9,428.7 
		280.2,428.6 280.3,428.5 280.6,427.9 280.8,427.7 281,427.4 281.2,427.1 281.4,426.9 281.7,426.7 282,426.6 284.9,426.4 
		285.4,426.2 286,425.7 286.7,425.5 288.1,425.4 289,425.2 290.3,424 291.1,423.6 291.4,423.6 292.3,423.7 292.7,423.7 293.6,423.4 
		293.6,422.5 293.6,350.3 293.6,350.3 293.6,334.4 293.6,307.2 293.6,306.8 293.5,278.5 293.5,219.2 322.8,219.2 322.8,219.2 
		322.8,219.2 323.1,218 323,187.3 323,186.2 323,186.2 323,186.2 323,166.6 323,165.6 323,165.6 322.9,129.3 322.8,123.8 
		322.8,102.1 323.4,102.1 337.6,101.5 382,92.6 390.1,91.9 391.2,91.9 391.6,92.1 391.8,92.3 391.8,92.5 391.8,92.9 391.9,93.2 
		392.1,93.2 392.3,93.2 392.4,93.4 392.3,94.1 392.4,94.3 392.5,94.5 392.8,95 393.2,95.8 394,96.8 394.2,97.2 394.2,97.4 
		394.2,97.9 394.2,98 394.4,98.1 394.6,98.2 394.9,98.3 395.2,98 395.6,98.4 396.1,98.9 396.2,99.1 396.6,99.3 397,99.4 397.4,99.5 
		397.5,99.9 397.6,100.3 397.9,100.5 398.1,100.8 397.9,101.3 398.8,102.4 399.1,103.1 398.7,103.7 398.9,104.2 399.4,105.5 
		399.6,106.9 400,107.2 400.5,107.2 401.6,106.8 401.7,106.7 401.9,106.6 402.6,105.7 403.2,105.6 403.7,105.3 406.4,102.2 
		406.9,102.1 407.2,101.7 407.8,100.9 408.1,100.5 409,99.9 409.5,99.5 409.6,98.4 410.6,97.6 410.7,97.6 410.9,97.6 411,97.7 
		411.2,97.8 411.3,97.6 411.4,97.4 411.8,97.2 412.6,96.8 412.9,96.6 413.7,95.8 414,95.6 415,95.4 416,94.7 417.4,92.9 418.5,92.4 
		419.1,92.3 419.7,92.4 420,92.5 420.5,92.7 420.8,92.8 421,92.6 421.9,91.1 422.4,90.6 422.8,90.4 423.8,90.5 424.5,90.6 
		424.8,90.9 425.3,91.9 425.5,92.1 425.7,92.2 425.9,92.4 426,92.9 427,93.9 427.3,93.8 428.7,93.7 429,93.6 429.1,93.4 429.5,92.9 
		429.6,92.7 429.7,92.6 431.2,90.8 431.6,90.4 432.6,89.7 433.4,88.6 433.6,88.5 433.8,88.4 434,88.3 434.3,88.2 434.6,88.1 
		434.7,87.7 434.9,87.6 435.5,87.4 436.2,86.8 436.8,86.7 437.3,86.7 439.5,85.9 439.7,85.8 439.9,85.6 440,85.4 440.1,85.2 
		440.4,85.2 440.3,85.6 440.6,85.8 440.8,86.1 441,86.2 441.5,86 441.7,86.4 442.1,86.4 442.9,85.8 442.9,85.8 446.5,83.5 	"/>
</g>
<rect y="192.8" class="st2" width="499.1" height="132.5"/>
<path class="st3" d="M125.1,263.5c0.9,0,1.4,0.5,1.1,1.4l-5.8,19.4c-0.1,0.7-0.8,1.1-1.4,1.1h-4c-0.7,0.1-1.3-0.4-1.4-1.1l-5.8-19.4
	c-0.3-0.9,0.1-1.4,1.1-1.4h2.9c0.7-0.1,1.3,0.4,1.4,1.1c0,0,0,0,0,0.1l4,16.8l4-16.9c0.1-0.7,0.7-1.2,1.4-1.1H125.1z"/>
<path class="st3" d="M148.1,256c0.6-0.1,1.2,0.4,1.3,1c0,0.1,0,0.2,0,0.3v26.9c0.1,0.6-0.4,1.2-1,1.3c-0.1,0-0.2,0-0.3,0h-2.8
	c-0.6,0.1-1.2-0.4-1.3-1c0-0.1,0-0.2,0-0.3v-11.5h-9.3v11.5c0.1,0.6-0.4,1.2-1,1.3c-0.1,0-0.2,0-0.3,0h-2.8c-0.6,0.1-1.2-0.4-1.3-1
	c0-0.1,0-0.2,0-0.3v-26.9c-0.1-0.6,0.4-1.2,1-1.3c0.1,0,0.2,0,0.3,0h2.8c0.6-0.1,1.2,0.4,1.3,1c0,0.1,0,0.2,0,0.3v10.6h9.3v-10.6
	c-0.1-0.6,0.4-1.2,1-1.3c0.1,0,0.2,0,0.3,0H148.1z"/>
<path class="st3" d="M169.1,270.8v13.4c0.1,0.6-0.4,1.2-1,1.3c-0.1,0-0.2,0-0.3,0h-2.3c-0.6,0.1-1.2-0.4-1.3-1c0-0.1,0-0.2,0-0.2
	v-1.7c-1.5,2.3-3.4,3.5-5.4,3.5c-3.3,0-5.6-2.5-5.6-6.9v-1.2c0-3.9,2.6-6.5,6.9-6.5c1.3,0,2.5,0.2,3.7,0.4v-1.7c0-1.9-0.8-2.6-3-2.6
	c-1.5,0.1-3.1,0.3-4.6,0.6c-0.9,0.1-1.4-0.3-1.4-1.2v-2c0-0.9,0.4-1.3,1.5-1.5c1.7-0.3,3.3-0.5,5-0.5
	C167,263,169.1,264.9,169.1,270.8z M158.5,278.2v0.4c0,1.8,0.8,2.7,1.9,2.7c1.1,0,2.4-0.9,3.5-2.9v-2.9c-0.8-0.1-1.7-0.2-2.6-0.2
	C159.5,275.3,158.5,276.3,158.5,278.2z"/>
<path class="st3" d="M185.4,263.4c0.7,0.1,1.2,0.7,1.2,1.4c0,0,0,0,0,0v2.1c0,0.9-0.5,1.3-1.6,1.1c-1-0.2-1.9-0.3-2.9-0.4
	c-2.6,0-3.6,1.2-3.6,3.9v5.8c0,2.8,1.3,3.9,3.7,3.9c1,0,2-0.1,3-0.4c0.9-0.2,1.4,0.2,1.4,1.1l0.1,2.2c0,0.9-0.2,1.2-1.3,1.4
	c-1.3,0.2-2.6,0.4-3.9,0.4c-5.5,0-8.3-2.9-8.3-8.4v-6.2c0-5.4,2.7-8.4,8.3-8.4C182.8,263,184.1,263.1,185.4,263.4z"/>
<path class="st3" d="M194.5,254.7c0.6-0.1,1.2,0.4,1.3,1c0,0.1,0,0.2,0,0.2v15.8l5.4-7.5c0.3-0.5,0.9-0.9,1.5-0.8h3
	c1.1,0,1.4,0.7,0.8,1.6l-6.1,8.1l6.7,10.7c0.6,0.9,0.2,1.5-0.8,1.5H203c-0.6,0-1.2-0.3-1.5-0.9l-5.7-9.3v9c0.1,0.6-0.4,1.2-1.1,1.3
	c-0.1,0-0.2,0-0.2,0h-2.7c-0.6,0.1-1.2-0.4-1.3-1c0-0.1,0-0.2,0-0.3V256c-0.1-0.6,0.4-1.2,1-1.3c0.1,0,0.2,0,0.3,0H194.5z"/>
<path class="st3" d="M225.1,270.8v13.4c0.1,0.6-0.4,1.2-1,1.3c-0.1,0-0.2,0-0.3,0h-2.3c-0.6,0.1-1.2-0.4-1.3-1c0-0.1,0-0.2,0-0.2
	v-1.7c-1.5,2.3-3.4,3.5-5.4,3.5c-3.3,0-5.6-2.5-5.6-6.9v-1.2c0-3.9,2.6-6.5,6.9-6.5c1.3,0,2.5,0.2,3.7,0.4v-1.7c0-1.9-0.8-2.6-3-2.6
	c-1.5,0.1-3.1,0.3-4.6,0.6c-0.9,0.1-1.4-0.3-1.4-1.2v-2c0-0.9,0.5-1.3,1.5-1.5c1.7-0.3,3.3-0.5,5-0.5
	C223,263,225.1,264.9,225.1,270.8z M214.5,278.2v0.4c0,1.8,0.8,2.7,1.9,2.7s2.4-0.9,3.5-2.9v-2.9c-0.8-0.1-1.7-0.2-2.6-0.2
	C215.5,275.3,214.5,276.3,214.5,278.2z"/>
<path class="st3" d="M234.6,257.7c0.6-0.1,1.2,0.4,1.2,1c0,0.1,0,0.2,0,0.2v4.6h4.1c0.6-0.1,1.2,0.4,1.3,1c0,0.1,0,0.2,0,0.2v2
	c0.1,0.7-0.4,1.2-1.1,1.3c-0.1,0-0.1,0-0.2,0h-4.1v10.6c0,2,0.7,2.7,2.5,2.7c0.8,0,1.6-0.1,2.4-0.3c0.9-0.2,1.3,0.3,1.3,1.2l0,2
	c0,0.8-0.3,1.2-1.1,1.4c-1.1,0.3-2.2,0.4-3.3,0.4c-4.9,0-7.1-2.1-7.1-7.6V268H229c-0.6,0.1-1.2-0.4-1.3-1.1c0-0.1,0-0.2,0-0.2v-2
	c-0.1-0.6,0.4-1.2,1-1.3c0.1,0,0.2,0,0.3,0h1.6l0.6-4.7c0-0.6,0.5-1.2,1.1-1.2c0,0,0.1,0,0.1,0L234.6,257.7z"/>
<path class="st3" d="M249,254.7c0.6-0.1,1.2,0.4,1.3,1c0,0.1,0,0.2,0,0.2v10c1.5-2,3.2-3,5.3-3c3.5,0,5.6,2.5,5.6,7.6v13.6
	c0.1,0.6-0.4,1.2-1,1.3c-0.1,0-0.2,0-0.3,0h-2.7c-0.6,0.1-1.2-0.4-1.3-1c0-0.1,0-0.2,0-0.3v-13c0-2.5-0.8-3.3-2-3.3
	c-1.2,0-2.6,1-3.6,2.7v13.6c0.1,0.6-0.4,1.2-1.1,1.3c-0.1,0-0.2,0-0.2,0h-2.7c-0.6,0.1-1.2-0.4-1.3-1c0-0.1,0-0.2,0-0.3V256
	c-0.1-0.6,0.4-1.2,1-1.3c0.1,0,0.2,0,0.3,0H249z"/>
<path class="st3" d="M281.7,271.3v6.4c0,5.3-2.6,8.3-8.2,8.3c-5.5,0-8.2-3-8.2-8.3v-6.4c0-5.3,2.7-8.3,8.2-8.3
	C279,263,281.7,266,281.7,271.3z M270.5,271v6.9c0,2.3,1.1,3.5,2.9,3.5s3-1.2,3-3.5v-7c0-2.3-1.1-3.4-3-3.4
	C271.6,267.5,270.5,268.7,270.5,271z"/>
<path class="st3" d="M302.1,270.6v13.6c0.1,0.6-0.4,1.2-1,1.3c-0.1,0-0.2,0-0.3,0h-2.7c-0.6,0.1-1.2-0.4-1.3-1c0-0.1,0-0.2,0-0.3
	v-13c0-2.5-0.8-3.3-2-3.3c-1.2,0-2.6,1-3.6,2.7v13.6c0.1,0.6-0.4,1.2-1.1,1.3c-0.1,0-0.2,0-0.2,0h-2.7c-0.6,0.1-1.2-0.4-1.3-1
	c0-0.1,0-0.2,0-0.3v-19.4c-0.1-0.6,0.4-1.2,1-1.3c0.1,0,0.2,0,0.3,0h2.3c0.6-0.1,1.2,0.4,1.3,1c0,0.1,0,0.2,0,0.2v1.8
	c1.6-2.4,3.5-3.5,5.7-3.5C300,263,302.1,265.4,302.1,270.6z"/>
<path class="st3" d="M328.6,256.1c0.7,0.1,1.2,0.7,1.1,1.4c0,0,0,0,0,0v2.2c0,0.9-0.5,1.3-1.4,1.2c-1.6-0.4-3.2-0.6-4.9-0.6
	c-3.9,0-5.2,1.2-5.2,4.9v11c0,3.6,1.3,4.8,5.2,4.8c1.6,0,3.3-0.3,4.9-0.6c0.9-0.2,1.3,0.2,1.4,1.1l0,2.4c0,0.7-0.5,1.3-1.2,1.4
	c-1.9,0.4-3.8,0.6-5.7,0.7c-7.4,0-9.9-3.1-9.9-9.4v-11.7c0-6.3,2.7-9.4,9.9-9.4C324.8,255.5,326.7,255.7,328.6,256.1z"/>
<path class="st3" d="M353.7,265.4V276c0,6.2-3.1,9.9-10.2,9.9s-10.1-3.7-10.1-9.9v-10.6c0-6.3,3.1-9.9,10.1-9.9
	C350.6,255.5,353.7,259.1,353.7,265.4z M338.8,265v11.4c0,3.1,1.6,4.7,4.8,4.7c3.1,0,4.8-1.6,4.8-4.7V265c0-3.1-1.6-4.7-4.8-4.7
	S338.8,261.9,338.8,265z"/>
<path class="st3" d="M377.4,256c0.9,0,1.3,0.5,1.1,1.4l-7.9,26.9c-0.1,0.7-0.7,1.1-1.4,1.1H365c-0.7,0.1-1.3-0.4-1.4-1.1l-7.7-26.9
	c-0.2-0.9,0.2-1.4,1.1-1.4h3.1c0.7-0.1,1.3,0.4,1.4,1.1l5.7,23.5l5.8-23.5c0.1-0.7,0.7-1.2,1.4-1.1H377.4z"/>
<path class="st3" d="M385.9,256c0.6-0.1,1.2,0.4,1.3,1c0,0.1,0,0.2,0,0.3v26.9c0.1,0.6-0.4,1.2-1,1.3c-0.1,0-0.2,0-0.3,0h-2.8
	c-0.6,0.1-1.2-0.4-1.3-1c0-0.1,0-0.2,0-0.3v-26.9c-0.1-0.6,0.4-1.2,1-1.3c0.1,0,0.2,0,0.3,0H385.9z"/>
<path class="st3" d="M412.2,267.4v7c0,7.3-3.8,11.5-11.8,11.5c-2.4,0-4.7-0.1-7-0.2c-0.6,0-1.2-0.5-1.2-1.1c0-0.1,0-0.1,0-0.2v-27.5
	c0-0.8,0.3-1.2,1-1.3c2.1-0.1,4.8-0.2,7.6-0.2C408.2,255.5,412.2,259.8,412.2,267.4z M397.5,260.3V281c1,0.1,2.1,0.2,3.1,0.2
	c3.9,0,6.2-2.2,6.2-6.5v-7.6c0-4.7-2.3-6.9-6.2-6.9C399.6,260.2,398.5,260.2,397.5,260.3L397.5,260.3z"/>
<path class="st3" d="M425.5,270c0.6-0.1,1.2,0.4,1.3,1c0,0.1,0,0.2,0,0.2v1.7c0.1,0.6-0.4,1.2-1,1.3c-0.1,0-0.2,0-0.3,0h-7.9
	c-0.6,0.1-1.2-0.4-1.3-1c0-0.1,0-0.2,0-0.3v-1.8c-0.1-0.6,0.4-1.2,1-1.3c0.1,0,0.2,0,0.3,0L425.5,270z"/>
<path class="st3" d="M439.1,258.4c0.6-0.1,1.2,0.4,1.3,1c0,0.1,0,0.2,0,0.3v24.5c0.1,0.6-0.4,1.2-1,1.3c-0.1,0-0.2,0-0.3,0h-2.7
	c-0.6,0.1-1.2-0.4-1.3-1c0-0.1,0-0.2,0-0.2v-20.3h-0.1l-4,1.8c-0.8,0.4-1.4,0.1-1.6-0.8l-0.5-2.1c-0.2-0.6,0.1-1.3,0.7-1.6
	c0,0,0.1,0,0.1,0l5.7-2.3c0.5-0.2,1-0.3,1.6-0.3H439.1z"/>
<path class="st3" d="M461.5,266.6v9.4c0,6.9-3.1,10-9.4,10c-1.7,0-3.3-0.2-5-0.5c-0.7-0.1-1.2-0.7-1.1-1.4c0,0,0,0,0,0v-2
	c0-0.9,0.5-1.3,1.3-1.1c1.5,0.3,2.9,0.4,4.4,0.4c3,0,4.5-1.5,4.5-4.9v-2.8c-1.8,1.7-3.5,2.6-5.4,2.6c-4,0-6.4-2.6-6.4-8.2v-1.6
	c0-5.6,3-8.6,8.6-8.6C458.4,257.9,461.5,260.9,461.5,266.6z M449.6,266.1v2.1c0,2.3,0.9,3.4,2.6,3.4c1.3,0,2.7-0.9,4-2.3v-2.9
	c0-2.7-1.1-3.9-3.3-3.9C450.7,262.5,449.6,263.7,449.6,266.1L449.6,266.1z"/>
<linearGradient id="SVGID_1_" gradientUnits="userSpaceOnUse" x1="76.4462" y1="-409.9648" x2="76.9154" y2="-354.6804" gradientTransform="matrix(1 0 0 1 0 645.9602)">
	<stop  offset="0" style="stop-color:#EB6185"/>
	<stop  offset="1" style="stop-color:#E23E7A"/>
</linearGradient>
<path class="st4" d="M70.7,242.6c-2.2,0-4.3,0.6-6.3,1.6c-2.8,1.5-4.6,4.5-4.4,7.7c0,0,0,0.1,0,0.1c0.1,1.9-0.3,3.7-1.3,5.3
	c-1.1,1.9-2.2,4.8-1.4,8.2c0,0,1,7.2,8.9,7c0,0,2.1,5.9,9.7,5.9s8.7-6.9,8.7-6.9s10.9-0.4,11.7-10.2c0.2-2.9-0.9-5.7-3-7.7
	c-2-1.8-3.4-4.2-3.9-6.9c-0.1-0.3-0.1-0.7-0.1-1.1c-0.2-1.9-1.4-3.6-3.1-4.5c-2.6-1.3-6.6-2.2-10.8,0.1
	C73.9,242.1,72.3,242.6,70.7,242.6z"/>
<linearGradient id="SVGID_2_" gradientUnits="userSpaceOnUse" x1="53.106" y1="-430.7918" x2="54.2739" y2="-359.5764" gradientTransform="matrix(1 0 0 1 0 645.9602)">
	<stop  offset="0" style="stop-color:#EB6185"/>
	<stop  offset="1" style="stop-color:#E23E7A"/>
</linearGradient>
<circle class="st5" cx="53.1" cy="212.3" r="4.9"/>
<linearGradient id="SVGID_3_" gradientUnits="userSpaceOnUse" x1="43.739" y1="-409.6852" x2="44.2082" y2="-354.4008" gradientTransform="matrix(1 0 0 1 0 645.9602)">
	<stop  offset="0" style="stop-color:#EB6185"/>
	<stop  offset="1" style="stop-color:#E23E7A"/>
</linearGradient>
<circle class="st6" cx="43.8" cy="240.6" r="5"/>
<linearGradient id="SVGID_4_" gradientUnits="userSpaceOnUse" x1="92.4443" y1="-410.0995" x2="92.9184" y2="-354.8151" gradientTransform="matrix(1 0 0 1 0 645.9602)">
	<stop  offset="0" style="stop-color:#EB6185"/>
	<stop  offset="1" style="stop-color:#E23E7A"/>
</linearGradient>
<circle class="st7" cx="92.9" cy="287.9" r="5.3"/>
<circle class="st8" cx="383.8" cy="246.8" r="5.5"/>
<circle class="st9" cx="72.2" cy="255.1" r="4"/>
<circle class="st9" cx="76.2" cy="267.2" r="3.1"/>
<linearGradient id="SVGID_5_" gradientUnits="userSpaceOnUse" x1="76.6605" y1="-439.1167" x2="76.6605" y2="-413.1639" gradientTransform="matrix(1 0 0 1 0 645.9602)">
	<stop  offset="0" style="stop-color:#EB6185"/>
	<stop  offset="1" style="stop-color:#E23E7A"/>
</linearGradient>
<circle class="st10" cx="76.7" cy="212.3" r="6.4"/>
<circle class="st3" cx="57" cy="230.1" r="2.9"/>
<circle class="st3" cx="45.1" cy="271.1" r="3.1"/>
<path class="st3" d="M51.8,283c-0.6,0.5-1.1,1.1-1.4,1.7c-0.5,1-0.6,2.1-0.4,3.2c0.4,1.9,1.7,5,6,4.2c3-0.5,3.9-2.8,4-5
	c0.1-2.2-1.2-4.2-3.2-4.9l0,0C55,281.6,53.2,281.9,51.8,283z"/>
<path class="st9" d="M86.9,258.8c-0.3,1.1-1.4,1.7-2.4,1.4l-0.2-0.1c-0.9-0.4-1.4-1.8-1.1-3s1.3-1.9,2.2-1.5
	C86.5,256.2,87.1,257.5,86.9,258.8z"/>
<path class="st3" d="M73.7,242.1c0.5-0.2,1.1-0.4,1.6-0.7c1.6-0.9,3.5-1.4,5.4-1.4c-0.8-1.5-1.3-3.2-1.4-4.9c-0.5-4.8,0-12.5,0-12.5
	s0-3.6,2.2-6l0,0c-1.7,1.9-4.4,2.7-6.9,1.8c0.6,0.9,1.3,2.6,1.3,5.7v13C75.9,239,75.1,240.8,73.7,242.1z"/>
<linearGradient id="SVGID_6_" gradientUnits="userSpaceOnUse" x1="105.6213" y1="-410.1992" x2="106.0954" y2="-354.9148" gradientTransform="matrix(1 0 0 1 0 645.9602)">
	<stop  offset="0" style="stop-color:#EB6185"/>
	<stop  offset="1" style="stop-color:#E23E7A"/>
</linearGradient>
<path class="st11" d="M113.5,241.3c-1.1-1.8-3.2-2.9-5.4-2.8c-0.3,0-0.7,0.1-1,0.2c-1.1,0.3-2.1,1.1-2.8,2.1c0,0-2.6,3.6-6.1,5.6
	c-0.9,0.5-1.2,1.6-0.7,2.5c0.1,0.2,0.2,0.3,0.3,0.4l0,0c0.6,0.5,1.5,0.6,2.2,0.2c1.2-0.7,3.7-1.7,6.1-0.5l0.3,0.2l0,0l0,0
	c2.2,1,4.3,0.1,5.8-1.2C114.2,246.4,114.7,243.6,113.5,241.3z"/>
<path class="st3" d="M66.2,272.5c-1.7,0.1-3.3-0.3-4.8-1.1c-0.2,1.4-0.6,2.8-1.2,4.1c-1.1,2.4-2.4,4.6-4,6.7c0.2,0,0.3,0.1,0.5,0.2
	c0.9,0.3,1.7,0.9,2.2,1.7c1.1-2.8,3.8-8.1,9.2-8.7C67.3,274.5,66.7,273.5,66.2,272.5z"/>
<path class="st3" d="M59.9,251.9c-0.1-2.1,0.7-4.2,2.1-5.8c-1.5,0.2-3.6,0-6.4-1.1c-3.7-1.4-5.7-3-6.9-4.3c0,1.3-0.6,2.6-1.5,3.5
	c1.3,0.3,3.7,1,6.9,3.4c2.5,1.9,4.4,4.5,5.6,7.4c0.3-1,0.4-2,0.3-3L59.9,251.9z"/>
<linearGradient id="SVGID_7_" gradientUnits="userSpaceOnUse" x1="96.298" y1="-448.4597" x2="96.298" y2="-406.1766" gradientTransform="matrix(1 0 0 1 0 645.9602)">
	<stop  offset="0" style="stop-color:#EB6185"/>
	<stop  offset="1" style="stop-color:#E23E7A"/>
</linearGradient>
<path class="st12" d="M94.4,224.8c-0.3,0.3-0.6,0.6-0.8,1c-0.3,0.6-0.4,1.2-0.2,1.9c0.2,1.1,1,2.9,3.5,2.5c1.8-0.3,2.3-1.6,2.3-2.9
	c0.1-1.3-0.7-2.4-1.9-2.9l0,0C96.4,224,95.3,224.1,94.4,224.8z"/>
<path class="st3" d="M91.5,282.8c-1.5-1.7-3.6-4.5-3.9-7.4c-0.2-1.5-0.1-3.1,0.4-4.6c-1.1,0.3-2.3,0.5-3.4,0.6
	c-0.4,1.8-1.3,3.4-2.6,4.7c2.1,0.5,3.8,1.8,4.9,3.6c0.9,1.4,1.6,2.8,2.3,4.3C89.9,283.5,90.7,283.1,91.5,282.8z"/>
<path class="st3" d="M65.4,273.7c0.9,1.8,3.8,5.9,10.5,5.9c6.1,0,8.8-4.1,9.7-7c4.3-0.5,11.3-3.2,11.9-11.2c0.2-3.3-1-6.5-3.4-8.7
	c-1.8-1.6-3-3.8-3.5-6.2c-0.1-0.3-0.1-0.7-0.1-1c-0.2-2.4-1.7-4.4-3.8-5.4c-2.9-1.4-7.3-2.5-12,0.2c-1.2,0.7-2.6,1.1-4,1.1
	c-2.4,0.1-4.7,0.6-6.9,1.7c-3.3,1.7-5.3,5.1-5.1,8.8v0.1c0.1,1.6-0.3,3.2-1.1,4.6c-1.2,2.1-2.4,5.3-1.6,9
	C56.5,268.5,58.9,273.4,65.4,273.7z M59.8,257.9c1-1.8,1.5-3.9,1.4-6v-0.1c-0.1-2.7,1.3-5.2,3.7-6.5c1.8-0.9,3.8-1.4,5.8-1.5
	c1.8,0,3.6-0.5,5.2-1.4c3.7-2.1,7.3-1.2,9.7-0.1c1.4,0.7,2.3,2,2.4,3.5c0,0.4,0.1,0.7,0.2,1.1c0.5,2.9,2.1,5.6,4.3,7.6
	c1.8,1.7,2.8,4.2,2.6,6.7c0,0,0,0,0,0.1c-0.7,8.6-10.1,9-10.5,9c-0.6,0-1.1,0.5-1.2,1c-0.7,3.5-3.9,6-7.5,5.9
	c-6.5,0-8.4-4.9-8.5-5.1c-0.2-0.5-0.6-0.8-1.2-0.8H66c-6.5,0-7.5-5.7-7.5-6c0,0,0-0.1,0-0.1C57.9,262.2,58.9,259.6,59.8,257.9
	L59.8,257.9z"/>
<path class="st3" d="M53.1,206.2c-3.4,0-6.1,2.7-6.1,6.1c0,3.4,2.7,6.1,6.1,6.1s6.1-2.7,6.1-6.1l0,0
	C59.2,208.9,56.4,206.2,53.1,206.2z M53.1,215.9c-2,0-3.6-1.6-3.6-3.6c0-2,1.6-3.6,3.6-3.6c2,0,3.6,1.6,3.6,3.6l0,0l0,0
	C56.7,214.3,55.1,215.9,53.1,215.9z"/>
<path class="st3" d="M50,240.6c0-3.4-2.8-6.2-6.2-6.2c-3.4,0-6.2,2.8-6.2,6.2s2.8,6.2,6.2,6.2h0l0,0C47.2,246.8,50,244,50,240.6z
	 M40.1,240.6c0-2.1,1.7-3.7,3.7-3.7c2.1,0,3.7,1.7,3.7,3.7c0,2.1-1.7,3.7-3.7,3.7c0,0,0,0,0,0l0,0C41.7,244.3,40.1,242.6,40.1,240.6
	z"/>
<path class="st3" d="M92.9,294.5c3.6,0,6.5-2.9,6.5-6.5c0-3.6-2.9-6.5-6.5-6.5c-3.6,0-6.5,2.9-6.5,6.5l0,0
	C86.4,291.5,89.3,294.5,92.9,294.5z M92.9,283.9c2.2,0,4,1.8,4,4c0,2.2-1.8,4-4,4c-2.2,0-4-1.8-4-4l0,0l0,0
	C88.9,285.7,90.7,283.9,92.9,283.9L92.9,283.9z"/>
<path class="st3" d="M377,246.8c0,3.7,3,6.8,6.8,6.8c3.7,0,6.8-3,6.8-6.8c0-3.7-3-6.8-6.8-6.8c0,0,0,0,0,0l0,0
	C380,240,377,243,377,246.8z M388.1,246.8c0,2.4-1.9,4.3-4.3,4.3c-2.4,0-4.3-1.9-4.3-4.3c0-2.4,1.9-4.3,4.3-4.3c0,0,0,0,0,0l0,0
	C386.1,242.5,388.1,244.4,388.1,246.8L388.1,246.8z"/>
<path class="st3" d="M76.7,219.9c4.2,0,7.7-3.4,7.7-7.7c0-4.2-3.4-7.7-7.7-7.7c-4.2,0-7.7,3.4-7.7,7.7l0,0l0,0
	C69,216.5,72.4,219.9,76.7,219.9z M76.7,207.1c2.9,0,5.2,2.3,5.2,5.2c0,2.9-2.3,5.2-5.2,5.2c-2.9,0-5.2-2.3-5.2-5.2c0,0,0,0,0,0l0,0
	C71.5,209.4,73.8,207.1,76.7,207.1L76.7,207.1z"/>
<path class="st3" d="M105.6,250.1l0.4,0.2c0,0,0.1,0,0.1,0.1c2.3,1.1,4.7,0.6,7-1.4c2.4-2.1,3-5.5,1.5-8.2l0,0
	c-1.4-2.3-3.9-3.6-6.6-3.5c-0.4,0-0.8,0.1-1.2,0.2c-1.4,0.4-2.6,1.3-3.4,2.5c0,0-2.5,3.4-5.8,5.2c-0.9,0.5-1.5,1.4-1.6,2.4
	c-0.1,0.9,0.2,1.9,0.9,2.6l0.1,0.1c0.6,0.5,1.3,0.8,2.1,0.8c0.6,0,1.1-0.1,1.6-0.4C101.6,250,103.6,249.2,105.6,250.1z M98.7,248.4
	L98.7,248.4c-0.2-0.1-0.2-0.3-0.2-0.5c0-0.2,0.1-0.4,0.3-0.5c3.7-2.1,6.4-5.8,6.6-6c0.5-0.8,1.2-1.3,2.1-1.6c1.9-0.5,3.9,0.3,4.9,2
	l0,0c0.9,1.7,0.5,3.9-0.9,5.2c-2.3,2-4.1,1.2-4.8,0.8c-3-1.5-5.9-0.3-7.3,0.5C99.2,248.6,98.9,248.6,98.7,248.4z"/>
<path class="st3" d="M118.1,240.2c-1.1,0-2-0.9-2-2c0-0.8,0.4-1.4,1.1-1.8c0.1-0.1,3.3-1.7,9.2-4.1c1-0.4,2.2,0.1,2.6,1.1
	c0.4,1-0.1,2.2-1.1,2.6c-5.8,2.4-9,4-9,4C118.8,240.2,118.5,240.2,118.1,240.2z"/>
<path class="st3" d="M348.2,231.4c-0.3,0-0.5,0-0.8-0.1c-5.7-2.4-11.7-4.6-17.6-6.5c-1.1-0.3-1.7-1.4-1.3-2.5
	c0.3-1.1,1.4-1.7,2.5-1.3c0,0,0.1,0,0.1,0c6,2,12,4.2,17.8,6.6c1,0.4,1.5,1.6,1.1,2.6C349.8,230.9,349,231.4,348.2,231.4
	L348.2,231.4z M144.9,229.6c-1.1,0-2-0.9-2-2c0-0.9,0.5-1.6,1.4-1.9c5.9-2,12-3.9,18.2-5.6c1.1-0.3,2.2,0.3,2.5,1.4
	c0.3,1.1-0.3,2.2-1.4,2.5c0,0,0,0-0.1,0c-6.1,1.7-12.1,3.5-17.9,5.5C145.4,229.5,145.2,229.6,144.9,229.6z M312.4,219.7
	c-0.2,0-0.3,0-0.5-0.1c-6-1.5-12.2-2.8-18.3-3.8c-1.1-0.2-1.8-1.2-1.6-2.3c0.2-1.1,1.2-1.8,2.3-1.6c6.3,1.1,12.5,2.4,18.6,3.8
	c1.1,0.3,1.7,1.3,1.5,2.4C314.1,219.1,313.3,219.7,312.4,219.7L312.4,219.7z M181.3,219.5c-1.1,0-2-0.9-2-2c0-0.9,0.7-1.8,1.6-1.9
	c6.2-1.3,12.5-2.5,18.7-3.5c1.1-0.2,2.1,0.6,2.3,1.6s-0.6,2.1-1.6,2.3c0,0,0,0,0,0c-6.1,1-12.3,2.1-18.5,3.5
	C181.6,219.5,181.5,219.5,181.3,219.5z M218.6,213.6c-1.1,0.1-2-0.8-2.1-1.9c-0.1-1.1,0.8-2,1.9-2.1c6.3-0.6,12.7-1.1,19-1.3
	c1.1,0,2,0.8,2.1,1.9c0,1.1-0.8,2-1.9,2.1c-6.2,0.2-12.5,0.6-18.7,1.3L218.6,213.6z M275.2,213.4H275c-6.1-0.6-12.4-1-18.7-1.2
	c-1.1,0-2-1-1.9-2.1c0-1.1,1-2,2.1-1.9c6.4,0.2,12.7,0.6,19,1.2c1.1,0.1,2,1,1.9,2.1C277.2,212.6,276.3,213.5,275.2,213.4
	L275.2,213.4z"/>
<path class="st3" d="M374.2,244c-0.3,0-0.7-0.1-1-0.3c-2.9-1.6-5.8-3.2-8.7-4.6c-1-0.5-1.4-1.7-0.9-2.7c0.5-1,1.7-1.4,2.7-0.9l0,0
	c3,1.5,6,3.1,8.9,4.7c1,0.5,1.3,1.7,0.8,2.7C375.6,243.6,374.9,244,374.2,244L374.2,244z"/>
<rect class="st2" width="500" height="500"/>
</svg>
