<?xml version="1.0" encoding="utf-8"?>
<!-- Generator: Adobe Illustrator 24.0.3, SVG Export Plug-In . SVG Version: 6.00 Build 0)  -->
<svg version="1.1" id="e6d15d18-a685-4480-ac2b-bd578043a679"
	 xmlns="http://www.w3.org/2000/svg" xmlns:xlink="http://www.w3.org/1999/xlink" x="0px" y="0px" viewBox="0 0 1000 1000"
	 style="enable-background:new 0 0 1000 1000;" xml:space="preserve">
<g>
	<text transform="matrix(1 0 0 1 227.8957 585.6686)" style="fill:#212B59; font-family:'RopaSoftPro-Bold'; font-size:90px;">Hackathon COVID-19</text>
	<g>
		
			<linearGradient id="SVGID_1_" gradientUnits="userSpaceOnUse" x1="174.1001" y1="1001.1989" x2="175.0466" y2="890.4291" gradientTransform="matrix(1 0 0 -1 0 1487.848)">
			<stop  offset="0" style="stop-color:#EB6185"/>
			<stop  offset="1" style="stop-color:#E23E7A"/>
		</linearGradient>
		<path style="fill:url(#SVGID_1_);" d="M162.6,499.9c-4.4,0.1-8.7,1.2-12.7,3.2c-5.7,2.9-9.2,8.9-8.9,15.3c0,0.1,0,0.1,0,0.2
			c0.2,3.7-0.7,7.4-2.5,10.6c-2.2,3.9-4.4,9.7-2.8,16.3c0,0,2,14.4,17.9,14.1c0,0,4.3,11.8,19.4,11.8c15.1,0,17.4-13.9,17.4-13.9
			s21.9-0.8,23.4-20.4c0,0,1.1-8.9-6-15.5c-4-3.6-6.8-8.4-7.8-13.7c-0.1-0.7-0.2-1.4-0.3-2.1c-0.4-3.9-2.8-7.2-6.3-8.9
			c-5.3-2.5-13.3-4.5-21.7,0.2C168.9,499,165.8,499.9,162.6,499.9z"/>
		
			<linearGradient id="SVGID_2_" gradientUnits="userSpaceOnUse" x1="127.3489" y1="1042.9285" x2="129.6878" y2="900.2372" gradientTransform="matrix(1 0 0 -1 0 1487.848)">
			<stop  offset="0" style="stop-color:#EB6185"/>
			<stop  offset="1" style="stop-color:#E23E7A"/>
		</linearGradient>
		<circle style="fill:url(#SVGID_2_);" cx="127.3" cy="439.1" r="9.7"/>
		
			<linearGradient id="SVGID_3_" gradientUnits="userSpaceOnUse" x1="108.5789" y1="1000.6393" x2="109.5254" y2="889.8696" gradientTransform="matrix(1 0 0 -1 0 1487.848)">
			<stop  offset="0" style="stop-color:#EB6185"/>
			<stop  offset="1" style="stop-color:#E23E7A"/>
		</linearGradient>
		<circle style="fill:url(#SVGID_3_);" cx="108.7" cy="495.8" r="9.9"/>
		
			<linearGradient id="SVGID_4_" gradientUnits="userSpaceOnUse" x1="206.1737" y1="1001.4729" x2="207.1202" y2="890.7032" gradientTransform="matrix(1 0 0 -1 0 1487.848)">
			<stop  offset="0" style="stop-color:#EB6185"/>
			<stop  offset="1" style="stop-color:#E23E7A"/>
		</linearGradient>
		<circle style="fill:url(#SVGID_4_);" cx="207.1" cy="590.7" r="10.6"/>
		<circle style="fill:#D9232E;" cx="745.9" cy="508.2" r="11.1"/>
		<circle style="fill:#FFFFFF;" cx="165.5" cy="525" r="8"/>
		<circle style="fill:#FFFFFF;" cx="173.5" cy="549.1" r="6.2"/>
		
			<linearGradient id="SVGID_5_" gradientUnits="userSpaceOnUse" x1="174.5424" y1="1059.6163" x2="174.5424" y2="1007.6121" gradientTransform="matrix(1 0 0 -1 0 1487.848)">
			<stop  offset="0" style="stop-color:#EB6185"/>
			<stop  offset="1" style="stop-color:#E23E7A"/>
		</linearGradient>
		<circle style="fill:url(#SVGID_5_);" cx="174.5" cy="439.1" r="12.8"/>
		<circle style="fill:#051E5B;" cx="135.2" cy="474.8" r="5.8"/>
		<circle style="fill:#051E5B;" cx="111.4" cy="557" r="6.1"/>
		<path style="fill:#051E5B;" d="M124.7,580.9c-1.2,0.9-2.1,2.1-2.8,3.5c-1,2-1.3,4.2-0.8,6.4c0.8,3.9,3.4,10,12,8.5
			c6.1-1.1,7.7-5.7,7.9-9.9c0.2-4.3-2.4-8.3-6.5-9.9l0,0C131.2,578.1,127.5,578.7,124.7,580.9z"/>
		<path style="fill:#FFFFFF;" d="M195.1,532.3c-0.6,2.1-2.7,3.4-4.9,2.8c-0.1,0-0.3-0.1-0.4-0.1c-1.8-0.8-2.8-3.5-2.2-6
			s2.6-3.8,4.5-3C193.9,526.8,195.7,529.8,195.1,532.3z"/>
		<path style="fill:#051E5B;" d="M168.6,498.8c1.1-0.4,2.1-0.9,3.1-1.4c3.3-1.9,7-2.9,10.8-2.9c-1.5-3-2.5-6.3-2.9-9.7
			c-1-9.6,0-25.1,0-25.1s0-7.1,4.5-12.1h0c-3.4,3.9-8.9,5.3-13.8,3.6c1.2,1.7,2.6,5.1,2.6,11.5v26.1
			C172.9,488.8,173.3,494.7,168.6,498.8z"/>
		
			<linearGradient id="SVGID_6_" gradientUnits="userSpaceOnUse" x1="232.5909" y1="1001.6725" x2="233.5381" y2="890.9028" gradientTransform="matrix(1 0 0 -1 0 1487.848)">
			<stop  offset="0" style="stop-color:#EB6185"/>
			<stop  offset="1" style="stop-color:#E23E7A"/>
		</linearGradient>
		<path style="fill:url(#SVGID_6_);" d="M248.4,497.3c-1.9-3.5-6.8-6.1-10.8-5.6c-0.7,0.1-1.3,0.2-2,0.4c-2.3,0.7-4.3,2.2-5.6,4.1
			c0,0-5.3,7.2-12.3,11.2c-1.8,1-2.5,3.2-1.5,5c0.2,0.3,0.4,0.6,0.6,0.8c0,0,0.1,0.1,0.1,0.1c1.2,1.1,2.9,1.2,4.3,0.4
			c2.5-1.5,7.3-3.5,12.3-1c0.2,0.1,0.5,0.3,0.7,0.4l0,0v0c4.5,2.1,8.5,0.2,11.6-2.4C249.8,507.4,250.8,501.8,248.4,497.3z"/>
		<path style="fill:#051E5B;" d="M153.6,559.8c-3.3,0.1-6.7-0.6-9.6-2.2c-0.4,2.8-1.1,5.6-2.3,8.1c-2.1,4.8-4.9,9.2-8.1,13.3
			c0.3,0.1,0.6,0.2,1,0.3c1.8,0.7,3.3,1.9,4.5,3.4c2.2-5.6,7.6-16.2,18.3-17.4C155.8,563.8,154.5,561.9,153.6,559.8z"/>
		<path style="fill:#051E5B;" d="M141.1,518.5c-0.2-4.3,1.3-8.5,4.2-11.7c-3,0.3-7.2-0.1-12.8-2.2c-7.3-2.8-11.5-6.1-13.9-8.6
			c0,2.7-1.1,5.2-3.1,7.1c2.6,0.5,7.4,2.1,13.8,6.8c6.1,4.6,9.4,10.8,11.1,14.9c0.5-2,0.7-4,0.6-6
			C141.1,518.6,141.1,518.6,141.1,518.5z"/>
		
			<linearGradient id="SVGID_7_" gradientUnits="userSpaceOnUse" x1="213.887" y1="1078.3268" x2="213.887" y2="993.6149" gradientTransform="matrix(1 0 0 -1 0 1487.848)">
			<stop  offset="0" style="stop-color:#EB6185"/>
			<stop  offset="1" style="stop-color:#E23E7A"/>
		</linearGradient>
		<path style="fill:url(#SVGID_7_);" d="M210.2,464.2c-0.7,0.5-1.3,1.2-1.7,2c-0.6,1.1-0.7,2.5-0.5,3.7c0.5,2.2,2,5.8,7.1,4.9
			c3.6-0.6,4.6-3.3,4.7-5.8c0.1-2.5-1.4-4.9-3.8-5.7l0,0C214.1,462.5,211.8,462.9,210.2,464.2z"/>
		<path style="fill:#051E5B;" d="M204.3,580.5c-2.9-3.3-7.2-9.1-7.9-14.7c-0.4-3.1-0.1-6.2,0.8-9.2c-2.2,0.7-4.5,1.1-6.9,1.2
			c-0.8,3.6-2.6,6.9-5.2,9.4c4.1,0.9,7.7,3.5,9.9,7.2c1.7,2.8,3.3,5.7,4.7,8.7C201.1,581.8,202.6,581,204.3,580.5z"/>
		<path style="fill:#051E5B;" d="M152,562.3c1.9,3.6,7.7,11.9,21,11.9c12.2,0,17.7-8.3,19.4-14c8.7-0.9,22.6-6.5,23.9-22.5
			c0.1-1,0.9-10.4-6.8-17.5c-3.6-3.2-6.1-7.6-7-12.3c-0.1-0.7-0.2-1.3-0.3-2c-0.5-4.7-3.4-8.9-7.7-10.9c-5.8-2.8-14.6-4.9-24,0.3
			c-2.4,1.4-5.2,2.2-8,2.3c-4.8,0.1-9.5,1.3-13.7,3.5c-6.6,3.4-10.5,10.3-10.2,17.7l0,0.2c0.2,3.2-0.6,6.5-2.2,9.3
			c-2.4,4.1-4.8,10.6-3.1,18C134.1,551.7,139,561.7,152,562.3z M140.7,530.6c2.1-3.6,3.1-7.8,2.8-12l0-0.2c-0.3-5.4,2.7-10.5,7.5-13
			c3.6-1.9,7.5-2.9,11.6-3c3.6-0.1,7.2-1.1,10.4-2.9c7.5-4.2,14.7-2.4,19.4-0.2c2.7,1.3,4.6,3.9,4.9,7c0.1,0.7,0.2,1.5,0.3,2.3
			c1.1,5.9,4.1,11.2,8.6,15.1c3.7,3.4,5.6,8.3,5.2,13.3c0,0,0,0.1,0,0.1c-1.3,17.2-20.2,18.1-21,18.1c-1.2,0-2.2,0.9-2.4,2.1
			c-0.1,0.5-2.2,11.8-14.9,11.8c-13.1,0-16.9-9.8-17.1-10.2c-0.4-1-1.3-1.6-2.3-1.6h0c-0.1,0-0.2,0-0.4,0c-13.1,0-15-11.5-15-12
			c0-0.1,0-0.1,0-0.2C136.8,539.2,138.8,534,140.7,530.6L140.7,530.6z"/>
		<path style="fill:#051E5B;" d="M127.3,426.9c-6.7,0-12.2,5.5-12.2,12.2s5.5,12.2,12.2,12.2s12.2-5.5,12.2-12.2c0,0,0,0,0,0
			C139.5,432.4,134,426.9,127.3,426.9z M127.3,446.4c-4,0-7.2-3.2-7.2-7.2s3.2-7.2,7.2-7.2c4,0,7.2,3.2,7.2,7.2l0,0
			C134.5,443.1,131.3,446.4,127.3,446.4z"/>
		<path style="fill:#051E5B;" d="M121.1,495.8c0-6.9-5.6-12.4-12.4-12.4s-12.4,5.6-12.4,12.4c0,6.9,5.6,12.4,12.4,12.4c0,0,0,0,0,0
			C115.5,508.2,121.1,502.6,121.1,495.8z M101.2,495.8c0-4.1,3.3-7.5,7.5-7.5s7.5,3.3,7.5,7.5s-3.3,7.5-7.5,7.5c0,0,0,0,0,0
			C104.5,503.2,101.2,499.9,101.2,495.8z"/>
		<path style="fill:#051E5B;" d="M207.1,603.8c7.2,0,13.1-5.9,13.1-13.1c0-7.2-5.9-13.1-13.1-13.1s-13.1,5.9-13.1,13.1l0,0
			C194,598,199.8,603.8,207.1,603.8z M207.1,582.6c4.5,0,8.1,3.6,8.1,8.1c0,4.5-3.6,8.1-8.1,8.1s-8.1-3.6-8.1-8.1l0,0
			C199,586.3,202.6,582.6,207.1,582.6z"/>
		<path style="fill:#051E5B;" d="M732.3,508.2c0,7.5,6.1,13.6,13.6,13.6c7.5,0,13.6-6.1,13.6-13.6c0-7.5-6.1-13.6-13.6-13.6
			c0,0,0,0,0,0C738.4,494.7,732.3,500.7,732.3,508.2z M754.5,508.2c0,4.7-3.8,8.6-8.6,8.6c-4.7,0-8.6-3.8-8.6-8.6
			c0-4.7,3.8-8.6,8.6-8.6c0,0,0,0,0,0C750.6,499.6,754.5,503.5,754.5,508.2z"/>
		<path style="fill:#051E5B;" d="M174.5,454.4c8.5,0,15.3-6.9,15.3-15.3s-6.9-15.3-15.3-15.3c-8.5,0-15.3,6.9-15.3,15.3l0,0
			C159.2,447.6,166.1,454.4,174.5,454.4z M174.5,428.8c5.7,0,10.4,4.6,10.4,10.4s-4.6,10.4-10.4,10.4c-5.7,0-10.4-4.6-10.4-10.4
			c0,0,0,0,0,0C164.2,433.4,168.8,428.8,174.5,428.8z"/>
		<path style="fill:#051E5B;" d="M232.5,515c0.2,0.1,0.5,0.3,0.7,0.4c0.1,0,0.2,0.1,0.3,0.1c4.6,2.1,9.5,1.1,14.1-2.8
			c4.7-4.1,6-11,3-16.5l0,0c-2.3-4.4-8.3-7.5-13.2-6.9c-0.8,0.1-1.6,0.2-2.4,0.5c-2.8,0.9-5.2,2.6-6.9,5c-0.1,0.1-5.1,6.9-11.5,10.5
			c-1.7,1-2.9,2.7-3.2,4.7c-0.2,1.9,0.4,3.8,1.8,5.1l0.1,0.1c1.1,1,2.6,1.6,4.1,1.6c1.1,0,2.2-0.3,3.1-0.9
			C224.6,514.7,228.6,513.1,232.5,515z M218.7,511.5L218.7,511.5c-0.3-0.3-0.4-0.6-0.4-0.9c0.1-0.4,0.3-0.8,0.7-1
			c7.4-4.2,12.9-11.6,13.1-11.9c1-1.5,2.5-2.6,4.3-3.2c3.8-1.1,7.9,0.6,9.8,4l0,0c1.9,3.5,1.1,7.8-1.9,10.4c-4.7,4-8.2,2.4-9.6,1.7
			c-6-3.1-11.8-0.6-14.7,1.1C219.6,511.9,219.1,511.8,218.7,511.5z"/>
	</g>
	<g>
		<g>
			<path style="fill:none;stroke:#212B59;stroke-width:8;stroke-linecap:round;stroke-miterlimit:10;" d="M257.7,491.2
				c0,0,6.2-3.7,17.7-9.2"/>
			
				<path style="fill:none;stroke:#212B59;stroke-width:8;stroke-linecap:round;stroke-miterlimit:10;stroke-dasharray:40.8341,40.8341;" d="
				M313.1,466.2c75-27.5,217.9-58.7,377.6,15.1"/>
			<path style="fill:none;stroke:#212B59;stroke-width:8;stroke-linecap:round;stroke-miterlimit:10;" d="M709.1,490.2
				c5.9,3,11.8,6.1,17.7,9.4"/>
		</g>
	</g>
</g>
<g style="opacity:0.1;">
	<polygon style="fill:#3F3D56;" points="899.6,170.3 899,169.6 898.2,169.1 897.4,168.9 896.4,168.9 895.9,168.7 895.2,167.6 
		894.8,167.3 894.6,167.2 887.5,172 888,173.3 889.8,173.2 891.8,172.4 893.7,170.3 896.1,170.3 900,171.1 	"/>
	<polygon style="fill:#3F3D56;" points="894.2,167 893.9,166.7 893.8,166.4 893.9,165.6 893.7,165.2 892.9,164.2 892.4,164.2 
		891.9,165 891.7,164.6 891.5,164.1 891,163.8 890.5,163.6 890.4,163.3 889.9,161.5 889.7,161.3 888.6,160.3 888.4,160.1 
		887.8,160.1 887.3,160 887,159.8 886.7,159.3 886.7,158.9 887,157.8 886.8,157.5 886.2,157.6 885.1,158 884.6,158 883.6,157.2 
		882.9,156.2 882.2,155.7 881,156.2 880.2,155.1 878.6,154.4 874.6,153.5 872.7,153.6 872.1,153.5 871.7,153.1 871.3,152.9 
		871.1,152.7 866,151.9 863.3,151.9 862.8,152.1 862.4,152.5 862.1,152.9 861.4,153.3 860.5,154.1 859.9,154.5 859.3,154.5 
		858.8,154.4 857.9,154.1 857.4,153.7 857,153.2 856.5,152.9 855,152.6 853.9,152 852.1,151.7 849.6,150.7 848.5,150.5 847.5,150.7 
		845.1,151.4 844.6,151.7 843.9,151.2 840.8,151.1 839.7,151 838.6,151.1 794.6,160.4 793.5,160.5 789,161.3 735.9,172.2 
		672.3,184.9 671.2,185.2 670.9,185.1 669.9,183.7 668.2,182.9 664.8,181.7 662.1,180.1 661.2,179.8 658.8,180 657.9,179.8 
		656.8,180 655.8,180.5 654.8,180.8 653.8,180.3 647.6,182.1 643,183.4 642.1,185.1 640.2,185.5 638.4,186.2 636.9,186.3 
		635.6,185.1 633.9,184.1 632.9,183.9 632.4,184.4 632,184.7 631,184.5 630,184.1 629.6,183.5 628.6,183 626.5,182.8 624.2,182.9 
		622.7,183.3 622,182.9 620.2,181.7 618.2,180.6 617.6,180.1 616.5,178.8 615.1,177.6 613.6,176.9 612.1,177.3 609.8,175.3 
		609.1,175 607.2,175.4 606.4,175.4 605.7,175 603.7,176.8 602.3,176.2 600.7,176.1 599.3,176.5 598.4,177.3 598,176.8 597.1,177.1 
		596.3,177.3 594.7,177.3 591.3,177.6 590.8,177.6 588.7,176.8 586.5,175.5 577.1,175.5 576.7,175.7 576,176.9 575.8,177.3 
		574.8,177.2 573.5,176.7 572.2,176.1 571.7,175.7 571.1,174.5 569.9,174.3 568.6,174.4 565.2,175.1 555.1,175.3 545.7,172.4 
		544.8,171.8 542.1,172 540.4,171.6 539.7,171.6 538.4,171.8 536.4,172.6 531.4,172.9 523.7,171.4 518.5,168.7 516.2,168.1 
		515.3,167.5 514.2,165.9 510.7,162.2 510.2,161.8 509.1,161.1 508.5,160.6 508.2,160 507.9,158.9 507.7,158.4 504.7,155.8 
		503.9,155.4 503.7,154.6 501.6,150.5 500.2,150.1 500,150 500,149.3 499,146.9 498.6,146.5 498.2,146.3 498,145.7 497.9,145.3 
		497.5,145.3 471.2,145.3 327,145.3 267.9,145.2 247.8,145.2 247.8,145.2 247.1,145.2 247,145.5 246.5,146.8 245.2,147 242.6,146.5 
		242.2,146.7 241.2,147.3 240.6,147.5 239.9,147.5 238.9,147.1 237.6,147 236.5,146.7 235.9,146.5 235.3,146.7 234.5,147.4 
		233.7,147.5 232.3,147.2 231.4,146.5 228.7,142.7 228,142 216.8,135.6 211.6,131.1 206.5,128.2 207.2,126.4 206.6,125.3 
		205.7,124.5 205,122 204.1,121.1 202.8,120.6 201.4,120.4 200.4,120.1 198.3,118.6 197.3,118.2 194.8,118.8 194.4,118.8 194,118.6 
		193.1,118.8 191.5,119.5 191.5,119 190.9,119.3 190.3,119.2 188.9,119 188.3,118.7 187.9,118.1 187.4,117.8 186.7,118.2 
		185.5,117.4 185.5,117.4 185.5,117.4 184.3,117.4 182.9,117.9 176.6,119 173.5,120.9 171.6,121.4 170.5,121.9 169.1,122.3 
		168.8,123 168.7,123.7 168.5,124.3 167.9,124.6 166.9,124.9 166.5,125.2 165.9,125.7 165.4,126.6 165,127.2 163,127.8 160.4,129.1 
		158.3,130.9 157.2,131.5 155.7,131.7 154.3,132.3 151.6,134.6 150.2,135.4 149.4,135.5 147.4,135 143.8,134.7 142.8,134.3 
		141.4,133.4 140.8,133.5 140,134.2 139.1,134.5 135.2,134.4 131,134.8 130.8,134.5 130.7,134 130.3,133.4 129.8,133.1 129.2,132.9 
		128.5,132.6 127.9,132.1 127.6,131.7 127.4,131.3 127.3,130.7 127.1,130.3 126.8,130 126.2,129.8 125.9,130 125.6,130.3 125,130.4 
		122.9,129.8 122.3,129.4 121.9,129.3 121.5,129.5 121.1,129.6 118.4,129.9 115.7,130.8 113.2,131.9 110.5,134.2 108.1,135.4 
		106.9,136.1 106.6,136.6 106.5,137 106.2,137.3 105.3,137.4 104.7,137.3 103.6,136.7 102.9,136.6 102.2,137.4 100.3,150.3 
		100,155.4 100.6,158.7 100.6,160.5 100,161.9 100.9,164.3 101.3,172.8 102.4,176.3 102.6,182 102.9,183.3 104.7,187.4 104.9,188.8 
		105.3,189.8 106,190.7 107.3,192.1 112.7,198.6 113,199.1 115.3,205.3 116.7,207.3 116.5,208 116.6,208.6 116.6,209.3 116.7,210 
		117.4,212 117.6,213.2 118.2,214.1 121.5,218.4 122.1,218.8 122.7,219.1 123.8,220.6 124.2,220.9 124.8,221.2 133.6,228.8 
		143.3,242 143.8,243.3 144.5,247.9 145.1,248.8 147.2,250.4 149,252.6 150.2,254.6 153.1,262 154.3,264.2 156.2,266.7 156.8,268.1 
		157.2,271 157.5,272.2 158.3,274.2 160.9,279.1 161.5,279.8 163,282.9 163.6,283.9 164.1,285.3 168.5,293.5 171,296.9 171.5,298.7 
		176.1,307.7 178.5,314.7 179.5,316.7 183.3,319.9 185,321.7 186.3,323.9 188.4,329.3 189.6,334.5 189.9,337.2 191.3,342.8 
		196.5,353 198.1,358.6 198.7,363.9 199.3,366 200.5,368.3 202,369.6 202.9,370.4 203.6,372.8 206.1,376.1 211.4,385.8 212.9,387.6 
		215.2,390.5 218.8,396.7 224.9,404.8 226.8,409.4 227.7,413.5 232.4,420.7 232.6,421.2 232.8,422 232.8,422.4 232.4,424 
		232.3,424.4 232,425 232,425.7 233.2,426.2 238.1,430.8 238.6,431.9 243,436.1 252.1,448 252.2,448.6 252.3,450.1 253.5,452.2 
		257.3,456.6 257.7,457.1 259.6,461.1 260.7,464.9 262.9,469.3 263.5,472.1 264.9,474.4 266,482.8 266.4,494 266.1,496.9 
		265.7,498.3 265.1,499 264.2,499.5 262.9,502.1 262,503 262.7,501 262.8,500.3 261.5,500.9 261.1,500.2 261.2,498.9 261.5,497.7 
		261.4,497.4 261,496.8 260.7,496.4 261.1,495.8 261,495.6 260.5,495.6 260.4,495.7 260.4,498.3 260.2,498.9 259.5,500.2 
		259.2,500.8 259.1,501.4 259.3,505.6 259.7,507.8 260.3,509.8 261.2,511.6 262.2,513.3 262.8,515.6 263.9,523 264,525.4 
		263.8,526.8 263.5,527.2 263.2,526.6 263.2,525.2 262.5,526 261,528.5 260.5,529.1 260.5,529.7 261.3,532.6 263.4,538.4 
		264.1,540.2 264.4,542.5 263.6,551.7 263.8,552.7 264.8,555.8 264.8,559.4 265.2,560.2 264.4,561.8 264.2,562.4 263.7,562.6 
		263.2,562.6 262.8,562.8 262.4,563.7 262,565.5 261.5,566.3 262,567.7 262.3,569.9 262.3,572.1 262,573.3 262.4,574.3 262.8,577.2 
		264,579.3 265.2,583.8 266.4,586 266.6,585.9 268.4,589.5 269.7,592.7 271,595.1 271.3,596.3 271.3,599 271.1,599.3 270.3,600.2 
		270.1,600.9 270.4,602.5 272.4,604.9 273.2,606.7 276.2,609.6 277.6,611.5 280.7,617.4 280.7,617.4 281,617.9 281.7,620.3 
		281.9,625.5 282.7,628 283.9,630.4 284.7,632.1 285.3,634.5 285,637.2 283.9,641.7 284,642.5 282.2,647.3 282.3,648.5 282.9,650.9 
		283.2,653.9 284.6,657.7 284.9,660.6 285.3,662.3 286.6,663.5 286.8,664.8 286.8,666.3 286.6,667.3 284.9,670.6 284.6,671.9 
		284.6,677 284.5,677.9 284.5,678.4 284.6,679.2 285.6,680.9 288.7,684.4 289.1,684.4 288.2,686.8 288.4,688.9 291.1,693.2 
		292.1,695.3 292.7,698 292.8,700.7 292,702.8 291.4,703.1 290.9,702.9 290.6,702.9 290.6,702.9 290.6,702.9 290.3,703.7 
		290.5,704.1 291.7,705.8 291.5,710.7 292,715.6 292.5,716.2 296,717.7 298.2,719.1 300.2,721.1 301.6,723.4 302.3,727.3 
		303.5,731.2 303.9,732.1 303.8,732.7 302.7,736.1 302.4,737.3 302,737.3 302,734.9 301.9,734.3 301.4,734.3 300.8,734.5 
		300.2,734.6 299.4,734.9 299.4,734.9 299.4,734.9 298.9,735.9 298.7,737.2 298.8,738.6 299.4,739.7 300.1,741 300.8,742.3 
		300.5,743.9 300.8,745 302.7,748.9 303.1,750.1 303.3,751.5 303.5,751.5 304,752.1 304.4,752.8 304.5,753 305,753.2 306.1,753.3 
		306.5,753.4 307.4,754.6 307.8,755.9 307.7,758.5 307.8,760 308.2,761.2 309.4,763.5 309,764.5 309.8,768.6 309.4,771.2 309.5,772 
		309.8,772.5 310.2,772.9 310.6,773.6 311.4,778.6 311.7,779.3 314.1,782.3 315.9,785.7 316.4,786.3 317.4,786.7 318.1,787.7 
		319,789.7 324.7,798.5 325,799.3 325.2,799.8 325.2,803.1 325.4,804.6 326.2,805.8 332.1,811.4 333.7,813.6 334.4,815.6 
		334.4,816.2 334,817.5 334,818.2 334.4,818.7 336.3,820.6 338.1,823.5 338.9,824.3 340.5,825.6 340.5,825.6 343.1,827.6 
		346.2,831.3 347.8,832.8 355.6,838.3 359.3,842.5 362.9,847.1 363.4,847.5 364.4,847.9 366.3,849.7 366.5,849.6 370.8,853.7 
		371.6,854.9 373.5,856.9 377.1,859.8 377.8,860.2 379.4,860.4 380.1,859.8 380.7,858.8 381.8,858 382.8,857.5 384.4,856.5 
		386,855.7 388.3,855.1 392.8,850.8 393.4,850.5 393.9,850.9 394.1,851.6 394.3,852.4 394.6,853 395.5,853.1 396.7,852.2 
		397.8,850.8 398.4,849.7 398.6,848.6 398.7,847.2 398.9,845.9 399.8,845.3 400.5,844.8 400,843.6 398.8,841.8 398.3,840.8 
		398.2,839.5 398.4,838.4 399.4,837.9 400,838.1 400.6,838.5 401.2,838.7 401.7,838.3 401.9,837.5 401.4,836.8 401,836.1 
		400.8,835.7 401.1,835.1 401.4,834.8 402.6,834.8 403.6,834.6 403.5,834.2 402.5,832.9 402.3,832.6 402.4,832.2 402.8,831.9 
		403,832 403.3,832.2 404.3,832.2 404.6,832.4 404.9,832.5 405.3,831.8 405.7,826.8 405.9,826.5 407,825.5 407.3,825.2 407.8,825.3 
		408.4,826 409,826.1 409.6,825.8 410.5,825 411.2,824.8 412.7,825.2 414.8,823.8 415.4,823.5 416.6,823.2 417.2,823.2 417.8,823.5 
		418.7,824.4 419.3,825.7 420.1,826.9 421.3,827.3 422.8,827.8 423.3,828.9 423.3,830.4 423.1,831.8 423.4,834.7 424.6,836.2 
		426.5,836.6 430.3,835.7 431.8,835.7 432.5,836 432.7,836.7 432.8,837.5 433,838.1 433.6,838.9 433.7,839.5 433.8,840.2 434.1,841 
		434.5,841.6 435.4,842.8 435.7,843.6 435.8,844.9 435.7,846.7 435.2,848.2 434.3,848.8 433.3,849.1 432.2,849.7 431.4,850.5 
		431.2,851.5 431.7,852.6 433.3,854.6 433.7,856.1 434.1,857.1 436.3,857.9 436.9,859.3 436.6,861.9 435.8,864.5 435.9,866.3 
		438.1,866.7 440.7,866.1 443.1,865.8 444.4,865.6 445.5,865.1 446.5,864.9 447.4,865.5 447.7,866.8 447.7,868.4 447.9,869.6 
		449.2,870.2 451.1,870.7 451.9,870.7 452.4,870.4 453.6,869.7 454.2,869.4 456.1,869.2 466,871.3 468.2,872.2 470.2,873.3 
		473.7,876.2 476,877.3 481,879 482.1,879 484.2,878.3 489.3,877.6 490.7,877.7 493.2,878.6 494.6,878.8 495.7,878.3 496.2,878.1 
		496.9,877.9 498,877.7 498.4,877.6 498.9,877.3 499.2,877.2 499.4,877.4 500.2,878 500.4,878.1 501.7,877.7 503.9,876.7 515.2,875 
		527.5,876.7 528.5,877.7 530,879.9 530.6,880.6 531,880.7 533.1,881 533.7,881.2 534,881.4 535,882.6 537.3,882.6 539.7,881.8 
		543.1,880.1 543.6,879.6 544.2,878.6 544.6,878.3 546.6,878.2 547.3,877.8 547.3,877.1 545,873.4 544.7,872 544.9,870.7 
		545.9,868.9 546.6,868 547.3,867.4 548.2,867.3 549.6,868.4 550.2,868.5 551.1,868.2 555.9,867 557.1,866.4 558.1,865.6 
		558.7,864.8 560.4,859.6 560.8,859.1 561.4,858.8 561.7,858.6 562.3,857.4 562.6,856.9 563.1,856.3 563.5,855.8 563.8,855.4 
		564.4,854.9 564.9,854.8 570.9,854.4 571.9,853.9 573.1,853 574.4,852.5 577.2,852.4 579,851.9 581.6,849.6 583.2,848.8 
		583.8,848.7 585.7,848.9 586.4,848.9 588.2,848.4 588.3,846.5 588.2,701.8 588.2,701.8 588.2,670 588.2,615.4 588.2,614.7 
		588.2,558 588,439.1 646.7,439.1 646.7,439.1 646.7,439.1 647.5,436.8 647.2,375.3 647.2,373.1 647.2,373.1 647.2,373.1 
		647.1,333.9 647.1,331.8 647.1,331.8 646.9,259.1 646.8,248.1 646.8,204.6 648,204.6 676.4,203.4 765.4,185.5 781.6,184.1 
		783.8,184.2 784.6,184.6 784.9,184.9 785,185.3 785,186.2 785.2,186.6 785.6,186.8 786,186.8 786.2,187 786.1,188.5 786.2,189 
		786.4,189.3 787.1,190.3 787.7,191.9 789.5,194 789.9,194.7 789.9,195.1 789.8,196.1 789.9,196.5 790.2,196.6 790.7,196.9 
		791.2,196.9 791.8,196.3 792.7,197.1 793.6,198.1 793.9,198.7 794.7,199 795.5,199.1 796.1,199.4 796.4,200.2 796.7,200.9 
		797.3,201.3 797.6,202 797.2,203 799,205.1 799.7,206.5 798.8,207.8 799.3,208.7 800.2,211.4 800.7,214.1 801.5,214.7 802.5,214.7 
		804.6,214 804.9,213.8 805.3,213.5 806.7,211.8 807.9,211.6 808.8,211 814.3,204.8 815.2,204.5 815.9,203.8 817,202.1 817.7,201.4 
		819.5,200.2 820.4,199.3 820.6,197.1 822.6,195.6 823,195.5 823.3,195.6 823.6,195.8 823.9,196 824.1,195.6 824.4,195.2 
		825.1,194.7 826.7,194 827.2,193.6 828.9,191.9 829.4,191.6 831.6,191.2 833.5,189.7 836.4,186.2 838.5,185.1 839.7,184.9 
		840.9,185.1 841.5,185.3 842.5,185.8 843.1,186 843.6,185.5 845.3,182.5 846.2,181.4 847.1,181.1 849.1,181.3 850.5,181.4 
		851.2,182.2 852.2,184.2 852.6,184.6 853,184.8 853.3,185.2 853.5,186.2 855.5,188.1 856.2,187.9 858.9,187.6 859.5,187.5 
		859.7,187.1 860.5,186.1 860.7,185.7 860.9,185.5 863.9,181.8 864.8,181 866.8,179.7 868.4,177.6 868.7,177.3 869.2,177.1 
		869.7,176.9 870.3,176.8 870.7,176.6 871.1,175.7 871.5,175.5 872.7,175.2 874,174 875.1,173.7 876.2,173.6 880.5,172.2 880.9,172 
		881.4,171.5 881.6,171.1 881.9,170.7 882.5,170.6 882.2,171.6 882.8,172 883.2,172.5 883.6,172.8 884.6,172.4 885.1,173.1 
		885.8,173 887.5,172 887.5,172 894.6,167.2 	"/>
</g>
</svg>
