<svg id="e6d15d18-a685-4480-ac2b-bd578043a679" xmlns="http://www.w3.org/2000/svg" xmlns:xlink="http://www.w3.org/1999/xlink" viewBox="0 0 1000 1000"><defs><linearGradient id="linear-gradient" x1="153.16" y1="1015" x2="154.1" y2="904.23" gradientTransform="matrix(1, 0, 0, -1, 0, 1487.85)" gradientUnits="userSpaceOnUse"><stop offset="0" stop-color="#eb6185"/><stop offset="1" stop-color="#e23e7a"/></linearGradient><linearGradient id="linear-gradient-2" x1="106.41" y1="1056.73" x2="108.75" y2="914.04" xlink:href="#linear-gradient"/><linearGradient id="linear-gradient-3" x1="87.64" y1="1014.44" x2="88.58" y2="903.67" xlink:href="#linear-gradient"/><linearGradient id="linear-gradient-4" x1="185.23" y1="1015.27" x2="186.18" y2="904.5" xlink:href="#linear-gradient"/><linearGradient id="linear-gradient-5" x1="153.6" y1="1073.41" x2="153.6" y2="1021.41" xlink:href="#linear-gradient"/><linearGradient id="linear-gradient-6" x1="211.65" y1="1015.47" x2="212.6" y2="904.7" xlink:href="#linear-gradient"/><linearGradient id="linear-gradient-7" x1="192.95" y1="1092.13" x2="192.95" y2="1007.41" xlink:href="#linear-gradient"/></defs><title>logo</title><g style="opacity:0.1"><polygon points="899.6 170.35 898.99 169.61 898.19 169.07 897.37 168.88 896.36 168.88 895.9 168.67 895.16 167.6 894.82 167.32 894.63 167.23 887.49 171.99 888.01 173.25 889.84 173.19 891.79 172.37 893.72 170.35 896.08 170.35 900 171.09 899.6 170.35" style="fill:#3f3d56"/><polygon points="894.15 166.99 893.94 166.71 893.82 166.38 893.87 165.58 893.72 165.18 892.86 164.23 892.38 164.23 891.92 164.97 891.71 164.57 891.46 164.11 891.03 163.77 890.51 163.62 890.36 163.35 889.9 161.48 889.69 161.33 888.62 160.32 888.43 160.13 887.76 160.13 887.34 159.99 887 159.8 886.66 159.25 886.66 158.85 887 157.78 886.81 157.51 886.2 157.63 885.13 157.97 884.59 157.97 883.64 157.23 882.9 156.22 882.17 155.7 880.95 156.22 880.22 155.09 878.6 154.35 874.56 153.47 872.69 153.6 872.08 153.47 871.68 153.13 871.35 152.86 871.07 152.74 866.03 151.85 863.34 151.85 862.79 152.06 862.39 152.53 862.06 152.93 861.38 153.34 860.52 154.14 859.91 154.48 859.3 154.48 858.84 154.42 857.9 154.08 857.35 153.68 856.95 153.2 856.49 152.86 855 152.59 853.86 152 852.12 151.66 849.62 150.72 848.54 150.51 847.47 150.72 845.05 151.39 844.57 151.66 843.9 151.24 840.81 151.12 839.67 150.99 838.58 151.05 794.62 160.41 793.52 160.47 789.02 161.33 735.89 172.24 672.34 184.87 671.21 185.21 670.87 185.08 669.92 183.74 668.18 182.85 664.82 181.66 662.13 180.1 661.18 179.83 658.76 179.97 657.88 179.83 656.81 180.04 655.8 180.5 654.79 180.77 653.84 180.31 647.58 182.05 642.96 183.4 642.14 185.08 640.18 185.48 638.44 186.15 636.9 186.3 635.62 185.08 633.88 184.13 632.87 183.86 632.39 184.41 631.99 184.68 630.98 184.47 630.03 184.07 629.57 183.53 628.63 183 626.48 182.79 624.19 182.94 622.7 183.34 621.96 182.94 620.22 181.66 618.2 180.58 617.59 180.1 616.46 178.76 615.11 177.56 613.62 176.88 612.15 177.28 609.79 175.27 609.12 174.99 607.17 175.39 606.37 175.39 605.7 174.99 603.68 176.8 602.27 176.21 600.65 176.06 599.31 176.46 598.42 177.28 597.96 176.8 597.14 177.14 596.34 177.28 594.73 177.28 591.3 177.62 590.75 177.56 588.67 176.8 586.47 175.46 577.11 175.46 576.72 175.73 576.04 176.95 575.77 177.28 574.82 177.22 573.48 176.74 572.19 176.13 571.67 175.66 571.12 174.53 569.9 174.26 568.56 174.38 565.2 175.12 555.11 175.27 545.69 172.37 544.77 171.76 542.14 171.97 540.4 171.57 539.72 171.57 538.44 171.84 536.42 172.64 531.44 172.91 523.71 171.42 518.46 168.73 516.18 168.14 515.3 167.47 514.17 165.85 510.72 162.15 510.2 161.75 509.12 161.14 508.51 160.6 508.24 159.99 507.9 158.85 507.69 158.39 504.67 155.76 503.87 155.36 503.66 154.61 501.64 150.51 500.23 150.11 500.04 149.98 499.96 149.31 498.95 146.87 498.62 146.53 498.21 146.35 498.03 145.74 497.94 145.34 497.48 145.27 471.19 145.27 326.99 145.27 267.87 145.19 247.84 145.19 247.76 145.19 247.09 145.19 247.02 145.53 246.5 146.81 245.15 147.02 242.59 146.53 242.19 146.75 241.24 147.29 240.57 147.48 239.9 147.48 238.89 147.15 237.6 147.02 236.53 146.68 235.86 146.53 235.31 146.75 234.45 147.36 233.72 147.48 232.29 147.2 231.43 146.47 228.74 142.71 228 142.03 216.76 135.58 211.59 131.15 206.54 128.25 207.15 126.44 206.61 125.35 205.72 124.48 204.99 121.98 204.13 121.12 202.85 120.58 201.44 120.39 200.43 120.05 198.33 118.56 197.25 118.16 194.78 118.83 194.38 118.83 193.96 118.56 193.09 118.77 191.54 119.5 191.54 119.04 190.93 119.29 190.26 119.23 188.91 119.04 188.32 118.71 187.9 118.1 187.44 117.76 186.71 118.16 185.55 117.36 185.54 117.36 185.54 117.36 184.28 117.42 182.93 117.88 176.61 119.04 173.52 120.91 171.63 121.39 170.49 121.92 169.06 122.31 168.81 122.99 168.66 123.66 168.47 124.27 167.93 124.61 166.85 124.94 166.45 125.15 165.91 125.68 165.36 126.63 165.03 127.17 163.01 127.78 160.4 129.13 158.3 130.93 157.16 131.54 155.69 131.73 154.26 132.28 151.57 134.63 150.17 135.43 149.43 135.51 147.35 134.97 143.84 134.69 142.77 134.3 141.36 133.41 140.75 133.5 139.95 134.17 139.07 134.51 135.25 134.36 131 134.84 130.81 134.51 130.66 133.96 130.33 133.35 129.8 133.08 129.19 132.89 128.52 132.55 127.91 132.07 127.58 131.73 127.37 131.27 127.3 130.72 127.11 130.32 126.78 129.99 126.23 129.8 125.9 129.99 125.62 130.26 124.95 130.39 122.93 129.8 122.32 129.38 121.86 129.31 121.53 129.46 121.13 129.59 118.37 129.92 115.68 130.81 113.25 131.94 110.49 134.17 108.08 135.37 106.94 136.1 106.61 136.65 106.46 137.05 106.19 137.32 105.32 137.38 104.65 137.26 103.64 136.71 102.91 136.59 102.23 137.45 100.28 150.31 100 155.35 100.55 158.72 100.61 160.53 100.01 161.93 100.89 164.29 101.29 172.84 102.36 176.33 102.57 182.05 102.91 183.33 104.71 187.36 104.92 188.77 105.26 189.78 105.99 190.73 107.34 192.07 112.66 198.65 112.99 199.07 115.26 205.31 116.69 207.33 116.54 208 116.61 208.61 116.61 209.28 116.7 210.02 117.43 211.97 117.62 213.19 118.17 214.12 121.53 218.36 122.14 218.76 122.75 219.1 123.76 220.59 124.16 220.93 124.77 221.18 133.63 228.79 143.32 241.97 143.78 243.31 144.52 247.89 145.07 248.75 147.21 250.43 149.04 252.6 150.24 254.62 153.07 261.95 154.27 264.16 156.16 266.72 156.84 268.07 157.24 271.03 157.51 272.23 158.31 274.25 160.94 279.1 161.48 279.77 162.95 282.93 163.63 283.87 164.11 285.34 168.48 293.48 170.96 296.92 171.51 298.73 176.13 307.75 178.49 314.75 179.49 316.68 183.34 319.92 184.96 321.66 186.3 323.95 188.38 329.27 189.58 334.5 189.92 337.19 191.35 342.78 196.45 353 198.07 358.65 198.66 363.9 199.27 366.05 200.49 368.27 202.02 369.56 202.91 370.42 203.64 372.77 206.14 376.13 211.38 385.76 212.93 387.63 215.22 390.47 218.84 396.71 224.89 404.78 226.78 409.36 227.66 413.46 232.37 420.67 232.62 421.19 232.83 422.01 232.83 422.41 232.44 424.03 232.29 424.37 232.03 425.04 232.03 425.71 233.17 426.24 238.09 430.82 238.55 431.89 242.99 436.05 252.06 448.03 252.21 448.64 252.27 450.11 253.47 452.19 257.32 456.56 257.72 457.11 259.61 461.15 260.74 464.91 262.89 469.28 263.5 472.12 264.9 474.39 266 482.79 266.4 493.98 266.12 496.92 265.72 498.35 265.05 499.02 264.23 499.55 262.89 502.11 262.03 502.97 262.7 501.04 262.82 500.28 261.54 500.89 261.14 500.22 261.21 498.93 261.54 497.67 261.35 497.4 261.02 496.79 260.74 496.39 261.08 495.85 260.95 495.57 260.53 495.57 260.41 495.72 260.41 498.35 260.2 498.93 259.46 500.15 259.19 500.76 259.06 501.37 259.33 505.6 259.73 507.76 260.34 509.84 261.2 511.65 262.21 513.27 262.82 515.56 263.89 522.96 264.04 525.44 263.83 526.85 263.5 527.18 263.16 526.59 263.22 525.25 262.49 525.98 261.02 528.53 260.53 529.13 260.53 529.75 261.29 532.64 263.43 538.42 264.11 540.17 264.44 542.46 263.64 551.66 263.77 552.74 264.84 555.85 264.78 559.4 265.24 560.22 264.44 561.75 264.17 562.36 263.71 562.57 263.16 562.64 262.82 562.83 262.36 563.71 262.03 565.45 261.54 566.34 262.03 567.74 262.3 569.89 262.3 572.05 262.03 573.33 262.42 574.26 262.82 577.22 263.98 579.3 265.24 583.76 266.42 586.03 266.57 585.93 268.41 589.48 269.7 592.69 271.04 595.13 271.29 596.33 271.29 598.95 271.1 599.29 270.28 600.23 270.1 600.91 270.43 602.53 272.45 604.88 273.25 606.75 276.21 609.59 277.62 611.52 280.73 617.43 280.73 617.43 280.98 617.91 281.72 620.35 281.86 625.46 282.66 628 283.88 630.44 284.68 632.12 285.29 634.53 285.02 637.16 283.88 641.72 284.01 642.46 282.2 647.25 282.26 648.51 282.87 650.86 283.21 653.89 284.62 657.74 284.89 660.62 285.29 662.3 286.57 663.52 286.85 664.8 286.85 666.27 286.64 667.34 284.89 670.64 284.62 671.92 284.62 676.97 284.49 677.91 284.49 678.44 284.62 679.2 285.63 680.88 288.65 684.43 289.12 684.43 288.19 686.78 288.44 688.86 291.13 693.17 292.08 695.25 292.69 698.02 292.75 700.72 291.95 702.8 291.41 703.07 290.95 702.86 290.61 702.86 290.61 702.86 290.61 702.86 290.33 703.66 290.55 704.08 291.74 705.82 291.47 710.66 291.95 715.64 292.48 716.25 295.99 717.66 298.2 719.13 300.15 721.08 301.56 723.44 302.31 727.28 303.51 731.17 303.91 732.05 303.85 732.73 302.71 736.09 302.44 737.28 302.04 737.28 302.04 734.87 301.89 734.26 301.43 734.26 300.82 734.47 300.21 734.6 299.35 734.93 299.35 734.93 299.35 734.93 298.87 735.88 298.74 737.16 298.8 738.63 299.35 739.72 300.15 740.98 300.82 742.27 300.55 743.95 300.82 745.02 302.71 748.93 303.11 750.06 303.32 751.49 303.51 751.49 303.99 752.08 304.39 752.75 304.46 753.03 305 753.24 306.07 753.3 306.47 753.43 307.42 754.58 307.76 755.87 307.69 758.47 307.82 759.96 308.16 761.16 309.38 763.52 308.95 764.46 309.77 768.56 309.38 771.19 309.5 772.01 309.84 772.47 310.24 772.93 310.57 773.6 311.39 778.65 311.73 779.32 314.15 782.35 315.89 785.71 316.44 786.25 317.36 786.65 318.12 787.66 319.04 789.74 324.7 798.49 325.03 799.31 325.18 799.77 325.18 803.13 325.43 804.62 326.19 805.76 332.1 811.41 333.71 813.56 334.45 815.57 334.39 816.18 333.99 817.47 334.05 818.2 334.39 818.66 336.28 820.62 338.08 823.46 338.88 824.32 340.53 825.57 340.53 825.57 343.13 827.55 346.16 831.25 347.77 832.79 355.57 838.25 359.33 842.48 362.9 847.12 363.37 847.52 364.44 847.92 366.3 849.73 366.55 849.56 370.77 853.66 371.65 854.92 373.52 856.93 377.09 859.77 377.76 860.17 379.38 860.44 380.12 859.77 380.67 858.83 381.8 858.03 382.81 857.54 384.37 856.53 386.05 855.74 388.25 855.06 392.77 850.75 393.36 850.55 393.9 850.88 394.12 851.64 394.31 852.44 394.58 852.98 395.52 853.11 396.72 852.16 397.81 850.76 398.4 849.68 398.61 848.61 398.68 847.18 398.95 845.92 399.83 845.31 400.5 844.83 400.02 843.63 398.82 841.8 398.34 840.79 398.15 839.53 398.4 838.38 399.41 837.91 399.96 838.1 400.57 838.52 401.18 838.71 401.7 838.31 401.85 837.51 401.43 836.76 401.03 836.09 400.84 835.69 401.09 835.08 401.43 834.82 402.65 834.82 403.59 834.61 403.53 834.15 402.52 832.93 402.31 832.6 402.44 832.2 402.78 831.92 403.05 831.98 403.32 832.19 404.27 832.19 404.61 832.38 404.88 832.47 405.28 831.8 405.74 826.75 405.95 826.54 406.96 825.47 407.29 825.2 407.76 825.26 408.37 825.99 408.98 826.08 409.65 825.8 410.51 824.99 411.18 824.8 412.74 825.19 414.75 823.79 415.43 823.45 416.56 823.18 417.17 823.18 417.85 823.45 418.67 824.4 419.34 825.66 420.14 826.88 421.27 827.34 422.76 827.82 423.29 828.89 423.29 830.36 423.1 831.79 423.37 834.74 424.63 836.23 426.53 836.56 430.29 835.74 431.84 835.68 432.51 835.96 432.7 836.69 432.79 837.51 433.04 838.1 433.59 838.92 433.71 839.53 433.8 840.2 434.05 841 434.47 841.61 435.4 842.81 435.67 843.57 435.82 844.91 435.67 846.66 435.21 848.19 434.26 848.8 433.25 849.07 432.25 849.68 431.45 850.54 431.24 851.49 431.7 852.65 433.25 854.58 433.65 856.07 434.05 857.14 436.28 857.88 436.89 859.29 436.55 861.85 435.82 864.48 435.88 866.35 438.09 866.68 440.71 866.1 443.13 865.82 444.35 865.55 445.49 865.09 446.49 864.88 447.38 865.49 447.71 866.83 447.65 868.37 447.92 869.65 449.19 870.19 451.08 870.72 451.88 870.66 452.42 870.38 453.64 869.65 454.23 869.38 456.12 869.19 466 871.27 468.16 872.15 470.18 873.35 473.73 876.25 476.02 877.32 481 879 482.08 879 484.16 878.33 489.35 877.59 490.69 877.65 493.17 878.6 494.58 878.79 495.74 878.33 496.2 878.05 496.87 877.86 498.03 877.65 498.37 877.6 498.89 877.26 499.16 877.2 499.44 877.39 500.17 878 500.44 878.13 501.73 877.73 503.87 876.65 515.18 875.04 527.53 876.72 528.48 877.66 529.97 879.89 530.65 880.57 531.05 880.69 533.13 880.96 533.74 881.15 534.01 881.43 535.02 882.64 537.29 882.59 539.73 881.77 543.09 880.09 543.62 879.62 544.22 878.61 544.62 878.34 546.58 878.21 547.25 877.79 547.25 877.06 545.02 873.42 544.69 872.01 544.9 870.67 545.9 868.86 546.58 867.98 547.32 867.37 548.2 867.31 549.61 868.38 550.22 868.53 551.08 868.19 555.87 866.97 557.07 866.45 558.14 865.63 558.75 864.77 560.43 859.64 560.76 859.05 561.37 858.84 561.71 858.63 562.26 857.43 562.59 856.95 563.06 856.28 563.46 855.82 563.79 855.35 564.4 854.93 564.95 854.81 570.85 854.41 571.86 853.86 573.08 853 574.43 852.51 577.24 852.39 578.99 851.9 581.62 849.55 583.17 848.75 583.84 848.69 585.71 848.88 586.38 848.88 588.21 848.42 588.28 846.53 588.22 701.78 588.22 701.78 588.21 669.99 588.21 615.45 588.21 614.71 588.15 558.01 588 439.12 646.72 439.12 646.72 439.12 646.72 439.12 647.46 436.77 647.25 375.29 647.24 373.09 647.24 373.09 647.24 373.09 647.12 333.86 647.12 331.83 647.12 331.83 646.91 259.06 646.85 248.09 646.85 204.65 648 204.59 676.44 203.37 765.43 185.54 781.57 184.07 783.77 184.2 784.59 184.62 784.93 184.87 784.99 185.29 784.99 186.15 785.2 186.64 785.6 186.76 786 186.83 786.21 187.04 786.12 188.51 786.21 188.99 786.39 189.33 787.07 190.25 787.74 191.87 789.49 194.03 789.9 194.71 789.9 195.11 789.82 196.12 789.9 196.45 790.24 196.64 790.7 196.85 791.25 196.91 791.84 196.3 792.72 197.06 793.6 198.13 793.94 198.66 794.74 199 795.54 199.14 796.15 199.41 796.36 200.15 796.69 200.89 797.3 201.35 797.64 201.96 797.15 202.97 799.05 205.13 799.65 206.48 798.77 207.82 799.32 208.68 800.24 211.44 800.73 214.13 801.46 214.74 802.53 214.74 804.62 214 804.89 213.79 805.29 213.54 806.72 211.77 807.91 211.58 808.8 210.97 814.3 204.8 815.25 204.52 815.92 203.79 816.99 202.11 817.73 201.43 819.49 200.21 820.42 199.27 820.63 197.13 822.65 195.57 822.98 195.51 823.32 195.63 823.59 195.78 823.87 195.97 824.12 195.57 824.39 195.23 825.06 194.71 826.74 193.95 827.23 193.55 828.91 191.87 829.43 191.6 831.6 191.2 833.53 189.73 836.37 186.15 838.45 185.08 839.67 184.87 840.87 185.08 841.54 185.29 842.55 185.82 843.1 185.96 843.62 185.48 845.3 182.45 846.25 181.44 847.13 181.11 849.15 181.26 850.49 181.44 851.23 182.18 852.24 184.2 852.64 184.62 853.04 184.81 853.31 185.21 853.46 186.15 855.47 188.11 856.21 187.9 858.9 187.65 859.51 187.5 859.7 187.1 860.52 186.09 860.71 185.69 860.92 185.54 863.94 181.84 864.8 181.05 866.82 179.7 868.44 177.62 868.71 177.35 869.18 177.07 869.66 176.89 870.27 176.8 870.73 176.61 871.07 175.67 871.47 175.46 872.68 175.2 874.03 173.98 875.1 173.71 876.24 173.65 880.55 172.18 880.95 171.97 881.43 171.5 881.62 171.08 881.89 170.75 882.5 170.62 882.16 171.57 882.77 171.97 883.17 172.51 883.63 172.76 884.58 172.37 885.06 173.1 885.8 173.04 887.48 171.97 887.49 171.99 894.63 167.22 894.15 166.99" style="fill:#3f3d56"/></g><rect y="386.35" width="1000" height="265.39" style="fill:none"/><path d="M250.73,528c1.89,0,2.79,1.08,2.16,2.88l-11.7,38.88a2.74,2.74,0,0,1-2.88,2.16h-8.1a2.68,2.68,0,0,1-2.88-2.16l-11.7-38.88c-.54-1.8.27-2.88,2.16-2.88h5.76a2.48,2.48,0,0,1,2.79,2.25L234.26,564l7.92-33.84A2.58,2.58,0,0,1,245,528Z" style="fill:#051e5b"/><path d="M296.72,512.92a2.28,2.28,0,0,1,2.52,2.52v53.91a2.28,2.28,0,0,1-2.52,2.52h-5.67a2.28,2.28,0,0,1-2.52-2.52v-23H269.9v23a2.28,2.28,0,0,1-2.52,2.52h-5.67a2.28,2.28,0,0,1-2.52-2.52V515.44a2.28,2.28,0,0,1,2.52-2.52h5.67a2.28,2.28,0,0,1,2.52,2.52v21.24h18.63V515.44a2.28,2.28,0,0,1,2.52-2.52Z" style="fill:#051e5b"/><path d="M338.84,542.53v26.82a2.28,2.28,0,0,1-2.52,2.52h-4.68a2.34,2.34,0,0,1-2.61-2.52v-3.42c-3.06,4.59-6.84,7-10.8,7-6.66,0-11.16-5-11.16-13.86v-2.34c0-7.83,5.22-13,13.77-13a46.74,46.74,0,0,1,7.47.9v-3.42c0-3.78-1.62-5.22-5.94-5.22a67.11,67.11,0,0,0-9.18,1.26c-1.8.27-2.79-.54-2.79-2.34v-4.05c0-1.71.9-2.7,3.06-3a81.26,81.26,0,0,1,10-1.08C334.52,526.87,338.84,530.83,338.84,542.53ZM317.6,557.38v.72c0,3.6,1.62,5.4,3.78,5.4s4.86-1.89,6.93-5.76V552a37.15,37.15,0,0,0-5.13-.45C319.49,551.53,317.6,553.6,317.6,557.38Z" style="fill:#051e5b"/><path d="M371.5,527.77a2.55,2.55,0,0,1,2.35,2.79v4.23c0,1.8-1,2.61-3.15,2.16a27.4,27.4,0,0,0-5.85-.72c-5.13,0-7.29,2.43-7.29,7.83v11.7c0,5.58,2.52,7.74,7.38,7.74a26.08,26.08,0,0,0,5.93-.72c1.8-.36,2.79.45,2.88,2.25l.19,4.32c.09,1.71-.46,2.43-2.53,2.88a46.31,46.31,0,0,1-7.82.72c-11.07,0-16.56-5.76-16.56-16.83V543.7c0-10.89,5.4-16.83,16.65-16.83A37.16,37.16,0,0,1,371.5,527.77Z" style="fill:#051e5b"/><path d="M389.69,510.4a2.34,2.34,0,0,1,2.6,2.52V544.6l10.8-15a3.18,3.18,0,0,1,3.06-1.62h6c2.25,0,2.88,1.44,1.62,3.15l-12.24,16.2,13.5,21.51c1.17,1.71.36,3.06-1.62,3.06h-6.75a3.17,3.17,0,0,1-3.06-1.8l-11.34-18.72v18a2.34,2.34,0,0,1-2.6,2.52h-5.41a2.27,2.27,0,0,1-2.51-2.52V512.92a2.27,2.27,0,0,1,2.51-2.52Z" style="fill:#051e5b"/><path d="M451.06,542.53v26.82a2.28,2.28,0,0,1-2.52,2.52h-4.68a2.34,2.34,0,0,1-2.61-2.52v-3.42c-3.06,4.59-6.84,7-10.8,7-6.66,0-11.16-5-11.16-13.86v-2.34c0-7.83,5.23-13,13.77-13a46.74,46.74,0,0,1,7.47.9v-3.42c0-3.78-1.62-5.22-5.94-5.22a67.11,67.11,0,0,0-9.18,1.26c-1.8.27-2.79-.54-2.79-2.34v-4.05c0-1.71.91-2.7,3.07-3a80.92,80.92,0,0,1,10-1.08C446.74,526.87,451.06,530.83,451.06,542.53Zm-21.24,14.85v.72c0,3.6,1.63,5.4,3.78,5.4s4.86-1.89,6.93-5.76V552a37.15,37.15,0,0,0-5.13-.45C431.71,551.53,429.82,553.6,429.82,557.38Z" style="fill:#051e5b"/><path d="M470.05,516.25a2.25,2.25,0,0,1,2.43,2.52V528h8.28a2.34,2.34,0,0,1,2.61,2.52v4a2.41,2.41,0,0,1-2.61,2.61h-8.28v21.15c0,4,1.44,5.49,4.95,5.49a23.18,23.18,0,0,0,4.77-.63c1.71-.36,2.7.54,2.7,2.34l.09,4c.09,1.62-.63,2.34-2.16,2.79a32.11,32.11,0,0,1-6.66.81c-9.9,0-14.22-4.14-14.22-15.21V537h-3.06a2.35,2.35,0,0,1-2.52-2.61v-4a2.28,2.28,0,0,1,2.52-2.52h3.24l1.26-9.36a2.31,2.31,0,0,1,2.52-2.34Z" style="fill:#051e5b"/><path d="M498.94,510.4a2.34,2.34,0,0,1,2.61,2.52v20c3-4,6.48-6,10.53-6,7.11,0,11.25,5,11.25,15.3v27.18a2.28,2.28,0,0,1-2.52,2.52h-5.4a2.31,2.31,0,0,1-2.61-2.52v-26.1c0-5-1.62-6.57-4-6.57s-5.22,2-7.2,5.4v27.27a2.34,2.34,0,0,1-2.61,2.52h-5.4a2.28,2.28,0,0,1-2.52-2.52V512.92a2.28,2.28,0,0,1,2.52-2.52Z" style="fill:#051e5b"/><path d="M564.37,543.52V556.3c0,10.62-5.22,16.65-16.47,16.65-11.07,0-16.38-5.94-16.38-16.65V543.52c0-10.62,5.31-16.65,16.38-16.65S564.37,532.9,564.37,543.52ZM542.05,543v13.86c0,4.59,2.16,7,5.85,7s6-2.43,6-7v-14c0-4.59-2.25-6.84-6-6.84S542.05,538.39,542.05,543Z" style="fill:#051e5b"/><path d="M605.32,542.17v27.18a2.28,2.28,0,0,1-2.52,2.52h-5.4a2.31,2.31,0,0,1-2.61-2.52v-26.1c0-5-1.53-6.57-4-6.57s-5.22,2-7.2,5.4v27.27a2.34,2.34,0,0,1-2.61,2.52h-5.4a2.28,2.28,0,0,1-2.52-2.52V530.47a2.28,2.28,0,0,1,2.52-2.52h4.59a2.34,2.34,0,0,1,2.61,2.52V534c3.15-4.86,7-7.11,11.34-7.11C601.18,526.87,605.32,531.82,605.32,542.17Z" style="fill:#051e5b"/><path d="M658.33,513.19a2.53,2.53,0,0,1,2.25,2.79v4.5c0,1.8-1.08,2.7-2.79,2.34a47.82,47.82,0,0,0-9.72-1.26c-7.83,0-10.35,2.43-10.35,9.72v22.14c0,7.2,2.7,9.63,10.35,9.63a48.67,48.67,0,0,0,9.72-1.26c1.71-.36,2.7.45,2.79,2.25l.09,4.77a2.66,2.66,0,0,1-2.34,2.79A63.74,63.74,0,0,1,646.9,573c-14.76,0-19.89-6.3-19.89-18.81V530.65c0-12.69,5.31-18.81,19.89-18.81A53.89,53.89,0,0,1,658.33,513.19Z" style="fill:#051e5b"/><path d="M708.64,531.73v21.33c0,12.42-6.12,19.89-20.34,19.89s-20.25-7.47-20.25-19.89V531.73c0-12.6,6.12-19.89,20.25-19.89S708.64,519.13,708.64,531.73Zm-29.88-.81v22.86c0,6.21,3.24,9.45,9.54,9.45s9.54-3.24,9.54-9.45V531c0-6.12-3.15-9.45-9.54-9.45S678.76,524.8,678.76,530.92Z" style="fill:#051e5b"/><path d="M756.25,512.92c1.89,0,2.7,1.08,2.16,2.88l-15.75,53.91a2.58,2.58,0,0,1-2.79,2.16h-8.46a2.62,2.62,0,0,1-2.88-2.16L713.05,515.8c-.45-1.8.36-2.88,2.16-2.88h6.12a2.67,2.67,0,0,1,2.88,2.25l11.43,47.16,11.7-47.16a2.58,2.58,0,0,1,2.79-2.25Z" style="fill:#051e5b"/><path d="M773.17,512.92a2.28,2.28,0,0,1,2.52,2.52v53.91a2.28,2.28,0,0,1-2.52,2.52H767.5a2.28,2.28,0,0,1-2.52-2.52V515.44a2.28,2.28,0,0,1,2.52-2.52Z" style="fill:#051e5b"/><path d="M825.91,535.78v14c0,14.58-7.56,23.13-23.67,23.13-4.77,0-9.45-.18-14-.45a2.32,2.32,0,0,1-2.43-2.61V514.81c0-1.62.63-2.43,2.07-2.52,4.14-.18,9.54-.36,15.21-.36C817.9,511.93,825.91,520.57,825.91,535.78Zm-29.43-14.22v41.49a58.63,58.63,0,0,0,6.21.36c7.74,0,12.51-4.41,12.51-13V535.24c0-9.45-4.68-13.86-12.51-13.86C800.62,521.38,798.55,521.38,796.48,521.56Z" style="fill:#051e5b"/><path d="M852.55,541a2.34,2.34,0,0,1,2.61,2.52V547a2.37,2.37,0,0,1-2.61,2.61H836.71a2.31,2.31,0,0,1-2.52-2.61v-3.51a2.28,2.28,0,0,1,2.52-2.52Z" style="fill:#051e5b"/><path d="M879.82,517.78a2.3,2.3,0,0,1,2.6,2.52v49.05a2.3,2.3,0,0,1-2.6,2.52h-5.31a2.34,2.34,0,0,1-2.61-2.52V528.58h-.18l-8,3.51c-1.62.72-2.88.18-3.24-1.62l-1-4.14a2.44,2.44,0,0,1,1.71-3.24l11.42-4.68a6.63,6.63,0,0,1,3.16-.63Z" style="fill:#051e5b"/><path d="M924.72,534.25V553c0,13.86-6.21,20-18.81,20a48.1,48.1,0,0,1-10-1,2.53,2.53,0,0,1-2.25-2.79v-4c0-1.71,1-2.52,2.69-2.25a53,53,0,0,0,8.83.9c6,0,9-3,9-9.9v-5.67c-3.51,3.42-7.11,5.22-10.88,5.22-7.92,0-12.87-5.22-12.87-16.38v-3.24c0-11.16,5.93-17.19,17.18-17.19C918.51,516.7,924.72,522.73,924.72,534.25Zm-23.85-1v4.14c0,4.59,1.9,6.75,5.22,6.75,2.52,0,5.4-1.89,8.1-4.59v-5.85c0-5.31-2.25-7.74-6.57-7.74C903.12,526,900.87,528.31,900.87,533.26Z" style="fill:#051e5b"/><path d="M141.62,486.14A28.81,28.81,0,0,0,129,489.37a16.4,16.4,0,0,0-8.85,15.33c0,.07,0,.15,0,.22a19.32,19.32,0,0,1-2.51,10.64c-2.21,3.85-4.38,9.7-2.82,16.34,0,0,2,14.36,17.88,14.11,0,0,4.28,11.84,19.4,11.84S169.45,544,169.45,544s21.92-.76,23.43-20.4a19.34,19.34,0,0,0-6-15.47,24.63,24.63,0,0,1-7.8-13.74c-.12-.7-.22-1.41-.3-2.11a11.18,11.18,0,0,0-6.27-8.94c-5.27-2.51-13.3-4.49-21.71.24A19.51,19.51,0,0,1,141.62,486.14Z" style="fill:url(#linear-gradient)"/><circle cx="106.31" cy="425.31" r="9.73" style="fill:url(#linear-gradient-2)"/><circle cx="87.71" cy="481.98" r="9.95" style="fill:url(#linear-gradient-3)"/><circle cx="186.12" cy="576.93" r="10.6" style="fill:url(#linear-gradient-4)"/><circle cx="768.93" cy="494.41" r="11.08" style="fill:#d9232e"/><circle cx="144.59" cy="511.18" r="7.99" style="fill:#fff"/><circle cx="152.58" cy="535.31" r="6.18" style="fill:#fff"/><circle cx="153.6" cy="425.31" r="12.84" style="fill:url(#linear-gradient-5)"/><circle cx="114.26" cy="460.96" r="5.83" style="fill:#051e5b"/><circle cx="90.46" cy="543.15" r="6.12" style="fill:#051e5b"/><path d="M103.73,567.07a10.79,10.79,0,0,0-2.8,3.46,9.7,9.7,0,0,0-.78,6.4c.79,3.86,3.39,10,12,8.49,6-1.07,7.74-5.69,7.94-9.93a10.1,10.1,0,0,0-6.48-9.88h0A9.94,9.94,0,0,0,103.73,567.07Z" style="fill:#051e5b"/><path d="M174.11,518.46a4,4,0,0,1-4.85,2.82l-.42-.14c-1.85-.84-2.84-3.54-2.21-6s2.64-3.81,4.49-3A6.07,6.07,0,0,1,174.11,518.46Z" style="fill:#fff"/><path d="M147.69,485a21.24,21.24,0,0,0,3.11-1.42,21.64,21.64,0,0,1,10.83-2.87,28,28,0,0,1-2.87-9.72c-1-9.56,0-25.06,0-25.06s0-7.12,4.45-12.09h0a12.77,12.77,0,0,1-13.8,3.6c1.16,1.71,2.61,5.11,2.61,11.46V475A13.16,13.16,0,0,1,147.69,485Z" style="fill:#051e5b"/><path d="M227.45,483.52a12,12,0,0,0-10.76-5.63,11.82,11.82,0,0,0-2,.38,10.51,10.51,0,0,0-5.59,4.12s-5.29,7.24-12.32,11.2a3.71,3.71,0,0,0-.85,5.86l.1.09a3.7,3.7,0,0,0,4.33.43c2.5-1.45,7.34-3.46,12.32-1l.69.37,0,0h0c4.49,2.1,8.54.2,11.55-2.38A10.89,10.89,0,0,0,227.45,483.52Z" style="fill:url(#linear-gradient-6)"/><path d="M132.67,546a18.88,18.88,0,0,1-9.63-2.18,27.83,27.83,0,0,1-2.32,8.13,65.67,65.67,0,0,1-8.07,13.34,8.76,8.76,0,0,1,.95.31,10.17,10.17,0,0,1,4.46,3.36c2.15-5.56,7.61-16.17,18.34-17.36A18,18,0,0,1,132.67,546Z" style="fill:#051e5b"/><path d="M120.11,504.7A16.37,16.37,0,0,1,124.3,493c-3,.31-7.15-.07-12.75-2.22-7.32-2.8-11.52-6.08-13.9-8.63a9.9,9.9,0,0,1-3.09,7.06c2.65.51,7.44,2.07,13.8,6.84a35.48,35.48,0,0,1,11.13,14.91,19.06,19.06,0,0,0,.63-6Z" style="fill:#051e5b"/><path d="M189.23,450.36a6.42,6.42,0,0,0-1.66,2,5.65,5.65,0,0,0-.46,3.73c.47,2.24,2,5.82,7.1,4.93,3.58-.62,4.58-3.3,4.7-5.77a5.88,5.88,0,0,0-3.84-5.75h0A6,6,0,0,0,189.23,450.36Z" style="fill:url(#linear-gradient-7)"/><path d="M183.38,566.7c-2.91-3.32-7.19-9.07-7.85-14.74a21.92,21.92,0,0,1,.8-9.21,31,31,0,0,1-6.88,1.24,18.44,18.44,0,0,1-5.17,9.41,15.51,15.51,0,0,1,9.87,7.16,93,93,0,0,1,4.7,8.67A10.77,10.77,0,0,1,183.38,566.7Z" style="fill:#051e5b"/><path d="M131.07,548.47c1.89,3.59,7.67,11.86,21,11.86,12.15,0,17.69-8.29,19.39-14,8.67-1,22.64-6.5,23.9-22.52a21.81,21.81,0,0,0-6.8-17.52,22.09,22.09,0,0,1-7-12.35c-.12-.67-.21-1.33-.28-1.95a13.57,13.57,0,0,0-7.67-10.91c-5.79-2.76-14.65-4.94-24,.31a17.07,17.07,0,0,1-8,2.26,31.39,31.39,0,0,0-13.75,3.5,18.91,18.91,0,0,0-10.19,17.66v.24a16.76,16.76,0,0,1-2.19,9.26c-2.36,4.13-4.81,10.6-3.11,18C113.16,537.88,118.1,547.89,131.07,548.47Zm-11.31-31.68a21.66,21.66,0,0,0,2.84-12v-.2a13.9,13.9,0,0,1,7.51-13,26.47,26.47,0,0,1,11.56-3A21.89,21.89,0,0,0,152,485.73c7.5-4.21,14.71-2.41,19.43-.16a8.67,8.67,0,0,1,4.87,7c.07.73.18,1.5.32,2.28A26.94,26.94,0,0,0,185.19,510a16.76,16.76,0,0,1,5.23,13.33s0,.08,0,.12c-1.32,17.16-20.23,18.08-21,18.11a2.5,2.5,0,0,0-2.37,2.07,14.53,14.53,0,0,1-14.93,11.78c-13.09,0-16.91-9.8-17.06-10.2a2.5,2.5,0,0,0-2.34-1.64h-.4c-13.08,0-15-11.49-15-12,0-.07,0-.15,0-.22-1.39-5.9.62-11.16,2.55-14.54Z" style="fill:#051e5b"/><path d="M106.31,413.09a12.22,12.22,0,1,0,12.22,12.22h0A12.24,12.24,0,0,0,106.31,413.09Zm0,19.47a7.25,7.25,0,1,1,7.25-7.25h0A7.26,7.26,0,0,1,106.31,432.56Z" style="fill:#051e5b"/><path d="M100.14,482a12.43,12.43,0,1,0-12.43,12.43h0A12.44,12.44,0,0,0,100.14,482Zm-19.89,0a7.47,7.47,0,1,1,7.46,7.46h0A7.46,7.46,0,0,1,80.25,482Z" style="fill:#051e5b"/><path d="M186.12,590A13.09,13.09,0,1,0,173,576.93h0A13.11,13.11,0,0,0,186.12,590Zm0-21.2a8.11,8.11,0,1,1-8.11,8.11h0A8.12,8.12,0,0,1,186.12,568.82Z" style="fill:#051e5b"/><path d="M755.36,494.41a13.57,13.57,0,1,0,13.57-13.56h0A13.58,13.58,0,0,0,755.36,494.41Zm22.16,0a8.6,8.6,0,1,1-8.59-8.59h0A8.6,8.6,0,0,1,777.52,494.41Z" style="fill:#051e5b"/><path d="M153.6,440.64a15.33,15.33,0,1,0-15.33-15.33h0A15.35,15.35,0,0,0,153.6,440.64Zm0-25.68a10.36,10.36,0,1,1-10.36,10.35h0A10.36,10.36,0,0,1,153.6,415Z" style="fill:#051e5b"/><path d="M211.56,501.16l.71.37a1.51,1.51,0,0,0,.26.12c4.62,2.11,9.48,1.13,14.08-2.81a13.44,13.44,0,0,0,3-16.49h0a14.44,14.44,0,0,0-13.22-6.94,14.86,14.86,0,0,0-2.39.47,13.07,13.07,0,0,0-6.91,5c-.05.07-5.07,6.86-11.53,10.51a6.31,6.31,0,0,0-3.16,4.71,6,6,0,0,0,1.83,5.12l.13.12A6.13,6.13,0,0,0,198.5,503a6.27,6.27,0,0,0,3.14-.85C203.66,500.94,207.62,499.26,211.56,501.16Zm-13.83-3.46-.06-.06a1,1,0,0,1-.31-.89,1.33,1.33,0,0,1,.67-1c7.41-4.18,12.88-11.58,13.14-11.93a7.59,7.59,0,0,1,4.25-3.16,8.63,8.63,0,0,1,9.85,4h0a8.47,8.47,0,0,1-1.89,10.37c-4.66,4-8.19,2.35-9.57,1.65-6-3.05-11.78-.58-14.66,1.1A1.22,1.22,0,0,1,197.73,497.7Z" style="fill:#051e5b"/><path d="M236.72,481.35a4,4,0,0,1-1.79-7.57c.27-.14,6.7-3.35,18.52-8.25a4,4,0,0,1,3.07,7.39c-11.53,4.78-17.95,8-18,8A3.92,3.92,0,0,1,236.72,481.35Z" style="fill:#051e5b"/><path d="M697.72,463.67a3.85,3.85,0,0,1-1.52-.3c-11.51-4.75-23.35-9.13-35.2-13a4,4,0,1,1,2.49-7.6c12,3.93,24.07,8.37,35.76,13.21a4,4,0,0,1-1.53,7.69ZM290.4,459.94a4,4,0,0,1-1.28-7.79c11.85-4,24.09-7.8,36.38-11.2a4,4,0,1,1,2.13,7.71c-12.14,3.36-24.23,7.08-35.94,11.06A3.89,3.89,0,0,1,290.4,459.94Zm335.48-19.75a4,4,0,0,1-1-.12c-12-3-24.41-5.51-36.75-7.59a4,4,0,1,1,1.33-7.89c12.54,2.11,25.1,4.71,37.33,7.71a4,4,0,0,1-1,7.89Zm-262.59-.45a4,4,0,0,1-.84-7.91c12.4-2.7,25-5.06,37.4-7a4,4,0,1,1,1.26,7.9c-12.27,1.94-24.7,4.28-37,6.95A4.19,4.19,0,0,1,363.29,439.74ZM438,427.93a4,4,0,0,1-.39-8c12.68-1.25,25.46-2.11,38-2.57a4,4,0,1,1,.29,8c-12.36.44-25,1.3-37.49,2.53Zm113.34-.36-.39,0c-12.32-1.19-24.93-2-37.49-2.33a4,4,0,0,1,.23-8c12.74.36,25.53,1.16,38,2.37a4,4,0,0,1-.38,8Z" style="fill:#051e5b"/><path d="M749.77,488.82a3.91,3.91,0,0,1-1.94-.51c-5.77-3.21-11.66-6.33-17.53-9.3a4,4,0,0,1,3.61-7.14c6,3,12,6.19,17.81,9.45a4,4,0,0,1-2,7.5Z" style="fill:#051e5b"/><rect width="1001.82" height="1001.82" style="fill:none"/></svg>