<?xml version="1.0" encoding="utf-8"?>
<!-- Generator: Adobe Illustrator 24.0.3, SVG Export Plug-In . SVG Version: 6.00 Build 0)  -->
<svg version="1.1" id="e6d15d18-a685-4480-ac2b-bd578043a679"
	 xmlns="http://www.w3.org/2000/svg" xmlns:xlink="http://www.w3.org/1999/xlink" x="0px" y="0px" viewBox="0 0 1000 1000"
	 style="enable-background:new 0 0 1000 1000;" xml:space="preserve">
<g style="opacity:0.1;">
	<path style="fill:#3F3D56;" d="M276.6,390.7c-0.3-2.3-0.9-4.6-1.8-6.8c-0.2-0.8-0.8-1.5-1.6-1.9c-0.5-0.1-1-0.1-1.6,0l-8,1.2
		c-0.7,0-1.3,0.3-1.8,0.7c-1,1.1,0,2.8,0,4.3c0,1.7-1.5,3.1-3.2,3.5c-1.7,0.3-3.4,0.3-5-0.1l-11.1-1.7c3.3-1,6.2-3,8.4-5.6
		c1.5-1.7,2.2-5,0.1-5.8c-0.6-0.2-1.3-0.2-1.9-0.2c-5,0-9-4.2-13.7-5.9c-6.2-2.2-13.1-0.1-17.1,5.1l5.9,0.3c0.6,0,1.1,0.1,1.6,0.4
		c1.3,1.1-0.3,3.1-0.1,4.8c0.2,2.2,3.1,2.6,5.3,2.9s4.9,2,3.9,3.9c-10.9,3.8-22-7.4-33.5-6c-2.9,0.3-5.6,1.5-8.5,2.2
		c-17.3,4.4-35.2-7.3-52.9-4.8c-3.9,0.7-7.8,1.7-11.6,3c-2.4,0.8-4.9,1.6-6.7,3.5c-1.7,1.8-2.4,5-0.8,6.9c-4.6,0.4-9.2-0.1-13.6-1.3
		c2.4,1.4,3.9,3.9,3.9,6.7c-7.1,1.2-14.1,3.3-20.6,6.3c1.2,2,2.7,3.9,4.3,5.7l-9,5.8c3.1,0.8,4.6,4.9,2.9,7.5c3.2-1.4,5.1-5,8.5-5.8
		c2.2-0.5,4.5,0.4,6.6,1.3c2.1,0.9,4.4,1.7,6.6,1c2.2-0.6,3.8-3.5,2.4-5.3c9.3-2.7,18.9-4.2,28.6-4.5c0.7-0.1,1.5,0.1,2.2,0.4
		c1.3,0.9,0.9,2.8,0.9,4.3c-0.1,1.5,1.1,3.5,2.5,2.9c-1.6,1.4-0.2,4,1.3,5.5c1.5,1.5,3.4,3.5,2.5,5.4c-0.2,0.5-0.7,0.9-0.9,1.4
		c-0.7,1.5,0.4,3.2,1.7,4.2c1.3,1,2.9,1.7,3.8,3c0.9,1.4,0.5,3.8-1.1,4l-4.6-5.9c-1.6,1.6-2.7,3.7-3.1,5.9c4.9,4,5.7,12.2,1.5,17.1
		c-2.1,2.5-5.1,4-7.7,5.9s-5,4.7-5,7.9c0,5.6-0.4,10.8,1.7,16c3.9,9.6,8.4,18.9,13.4,28c1.3,2.4,3,5,5.7,5.4
		c-3.4-8.3-6.5-16.7-9.2-25.2c1.8,0,3.8,0.1,4.9,1.6c0.9,1.2,0.7,2.8,0.9,4.2c0.3,1.4,0.9,2.7,1.7,3.9l16.2,28.9
		c1.3,2.4,2.9,5,5.5,5.9c1.6,0.6,3.5,0.5,5.1,1.4c1.2,0.7,2,1.9,3.2,2.6c3.4,1.9,8.2-1.7,11.4,0.5c0.9,0.6,1.5,1.6,2.3,2.4
		c2.9,2.6,7.8,0.8,11.2,2.7c2.2,1.2,3.3,3.7,4.5,5.9c2.9,5.6,7.7,11,14,11.5c2,0.1,4-0.2,5.9,0.2c1.9,0.4,3.8,2.1,3.5,4.1
		c-0.5,3.3,1.1,7,0.7,10.4c-0.8,6.1-9.5,8.8-10.2,14.9c-0.2,1.3,0.1,2.7-0.2,4c-0.4,1.6-1.6,2.9-2,4.5c-0.8,3,1.4,6.1,3.7,8.1
		c2.4,2,5.2,3.8,6.5,6.7c1.4,3,0.7,6.5,1.2,9.8c1,7.2,7.2,12.5,13.6,15.9c1.9,1,4,2.1,5.3,3.9c1.6,2.4,1.5,5.5,2,8.3
		c1.3,6.9,7.2,12.6,7.3,19.7c0.1,5-2.7,9.6-4.3,14.3c-3.2,9.2-2.2,19.3,2.7,27.7c1.2,2.1,2.7,4.1,3.6,6.4c1.6,4.1,1.1,8.7,2.5,12.8
		c1.9,5.4,7.2,9.9,6.7,15.7c2.4,5,7.7,7.4,13,8.9l9.5,2.6c1.8,0.5,3.7,1,5.6,0.7s3.6-1.9,3.6-3.8c-4.7-1.1-9.5-2.2-13.3-5
		s-6.5-7.9-5-12.5c0.7-2.1,2.1-4.6,0.7-6.3c-0.8-1-2.2-1.3-3.1-2.2c-1.4-1.4-0.9-3.8,0.1-5.5c1-1.7,2.4-3.2,2.8-5.2
		c0.4-2.2-0.6-4.5-2.5-5.6c1.8-0.7,3.4-1.7,4.7-3c1.2-1.4,1.8-3.6,0.8-5.2c2.9,0.4,6.3,0.5,8.2-1.7c1.5-1.8,1.4-4.4,0.8-6.7
		c-0.6-2.3-1.6-4.4-1.6-6.8c6.7,0.3,13.4,0.1,20-0.7c-1-3.2-3.1-6-6.1-7.6c3-0.5,5.7-4.1,6.7-7c0.9-2.9,0.7-6.1,0.1-9
		c-0.2-0.8-0.3-1.6-0.1-2.4c0.3-1.1,1.4-1.7,2.4-2.3l14.9-8.6c0.9-0.4,1.7-1,2.4-1.8c1.6-1.8,1.3-4.6,0.5-6.9s-2.1-4.4-2.4-6.8
		c-0.9-7.2,6.7-12.3,9.3-19c1-2.6,1.2-5.5,1.4-8.3c0.2-3,0.2-6.6-2.1-8.5c-2.2-1.9-5.7-1.5-8.1-3.2c-2.1-1.6-2.9-4.7-5.2-6
		c-2.1-1.2-4.8-0.4-7.2-1c-4.2-1-6.8-5.8-11-6.2c-2.4-0.3-5.1,0.9-7.1-0.5c-1.7-1.2-1.8-3.7-2.1-5.8c-1.2-6.7-6.4-11.9-13.1-13.1
		c-2.5-0.4-5.2-0.2-7.3-1.6c-2.1-1.4-3.1-4-4.8-5.9c-2.7-3.1-6.9-4.2-10.9-5.1l-16.2-3.8c-2.9-0.7-6.6-1-8.1,1.5c-0.5,1-0.8,2-1,3
		c-1.2,3.9-4.7,6.6-8.8,6.6c-1.4-2.3-3.6-4-6.1-4.7c-1.6-0.5-3.4-0.5-5-1.2c-3.5-1.7-4.9-5.9-3.2-9.3c0.1-0.1,0.1-0.2,0.2-0.3
		c1.9-3.4,1.3-7.7-1.5-10.4c-2.8-2.5-6.7-3.1-10.4-2.8c-1-2.1,0.6-4.5,2.4-6c1.7-1.5,3.9-3,4.2-5.3c0.6-3.6-4-6.3-7.5-5.3
		c-3.5,1.1-5.7,4.5-7.2,7.8c-0.8,1.9-1.6,3.9-2.9,5.5s-3.5,2.8-5.5,2.3c-2.9-0.7-4-4.1-4.6-7c-0.9-3.9-1.7-7.8-1.5-11.8
		c0.2-4,1.5-8.1,4.4-10.7c4.8-4.4,12.1-4,18.5-3.3c-1.5-1.7-1.1-4.6,0.5-6.2c1.7-1.6,4.1-2.1,6.4-1.6c1.9,0.4,3.7,1.4,5,3
		c1.8,2.2,2.4,5.2,3.7,7.8c1.4,2.5,4.5,4.7,7,3.3c2.2-1.2,2.5-4.2,2-6.7c-0.5-2.4-1.7-4.8-1.5-7.3c0.4-4.7,5.3-7.6,9.6-9.5
		c4.3-2,9.3-4.6,10-9.3c0-0.9,0.2-1.8,0.5-2.7c0.5-0.8,1.1-1.4,1.9-1.8c12.7-8.4,25.5-16.8,40-21.4c0.8-0.2,0.8,0,1.6-0.2
		c1.1-0.6,0.4-2.3-0.7-3c-1-0.7-2.4-1.2-2.7-2.4c-0.2-0.9,0.3-1.8,0.5-2.7c0.3-2.2-2.3-4.3-4.4-3.4c-1.2-1.5,1.1-3.3,3-3.8
		c5.6-1.5,11.3-2.5,17.1-2.8c0.7-0.1,1.4,0,1.9,0.3c1,0.7,0.8,2.2,0.2,3.2c-0.7,1-1.8,1.6-2.6,2.4c-1.9,1.9-2.6,4.6-1.9,7.2
		c3,1.5,6.3,3.1,9.6,2.6c3.3-0.5,6.3-4.3,4.7-7.3c-1.5-2.8-5.9-3.4-6.6-6.5c-0.9-3.6,4.2-6.8,3-10.3c-0.5-1.5-2-2.4-3.2-3.6
		c-2.8-2.8-3.7-7-2.1-10.7c-3.9,0.7-7.9-0.6-10.7-3.3c-2.6-2.6-4.6-6.6-8.2-6.5c-3.3,0.1-6.2,4-9.3,2.8c-0.8-0.3-1.6-0.9-2.3-0.5
		c-0.5,0.3-0.8,0.8-0.9,1.4c-0.8,3.8,0.6,8.1-1.5,11.3c-2.2,3.6-7.4,4-10.1,7.2c-1.5,1.7-2,4.1-3.4,5.9c-1.4,1.8-4.2,3-5.9,1.4
		c1.6-3.4,0.7-7.5-2.2-9.8c-1.5-1-3.1-1.8-4.8-2.4c-1.9-0.8-3.7-1.8-5.4-3c-0.8-0.5-1.5-1.2-2-2.1c-0.4-1.1-0.3-2.3,0.1-3.4
		c1.7-4.8,5.9-8.3,10.9-9.1c2.2-0.3,4.7-0.2,6.1-1.8c0.8-0.9,1.2-2.2,2.3-2.5c0.7-0.1,1.4-0.1,2.1,0.3l8.1,2.8
		c0.9,0.4,1.9,0.6,2.9,0.5c1-0.1,1.7-1,1.7-2.1c-0.3-1.3-2.3-2-2.1-3.3c0.1-0.4,0.3-0.8,0.7-1.1c5.9-6.3,14.3-9.6,22.9-9.1
		c1,1.7-0.6,3.7-1.9,5.1c-1.3,1.4-2.4,4-0.8,5.1c0.7,0.3,1.4,0.5,2.2,0.5c2,0.3,3.9,0.9,5.7,1.7c2.8,1.2,5.5,2.5,8.2,4
		c-0.2-1.8-0.5-3.6,0.2-5.3c0.7-1.7,2.6-3,4.2-2.3c1.6,0.6,2.4,2.7,4.1,2.9c2.3,0.3,3.2-3.1,2.2-5.2s-2.8-3.8-3-6.1
		c-0.1-1.5,0.5-3.5-0.8-4.4c-0.4-0.3-0.9-0.5-1.5-0.5l-30.8-5.7c-1.8-0.3-4.5-0.1-4.6,1.8c0,1,0.9,2.1,0.5,3c-0.4,1-1.9,0.9-2.9,1.3
		c-1.6,0.6-2.4,2.5-2.3,4.2c0.3,1.7,0.9,3.3,1.9,4.7C281.7,391.7,278.6,391.5,276.6,390.7z"/>
	<path style="fill:#3F3D56;" d="M252,364.5c-4-1.3-8.4,0-11,3.3c-0.5,0.7-0.9,1.6-0.5,2.3c0.6,1,2.2,0.6,3.3,0.3
		c1.7-0.6,3.5-0.6,5.2-0.1c1.1,0.4,2,1,3.1,1.4c1.1,0.4,2.3,0.3,3.2-0.5c0.7-0.8,0.8-1.9,0.8-3c0.1-0.7-0.1-1.4-0.6-2
		c-0.4-0.3-0.9-0.4-1.4-0.4c-1.1-0.2-2.1-0.8-2.9-1.7"/>
	<path style="fill:#3F3D56;" d="M263.1,361.4c-1.4-0.1-2.6,1-2.7,2.4c0,0.4,0.1,0.8,0.2,1.2c1.3,0.4,2.7,0.5,4.1,0.3
		c1.4-0.2,2.5-1.3,2.9-2.6c-1.6,0.3-3.3,0-4.7-0.9"/>
	<path style="fill:#3F3D56;" d="M300.4,356.2c-3.6,0.8-7.2,2-10.5,3.6c3.2,1.2,5.3,4.5,5.1,7.9c-0.1,0.6-0.1,1.3,0,2
		c0.4,0.9,1.5,1.3,2.5,1.5c1.8,0.5,3.6,0.8,5.5,0.7c1.9-0.1,3.6-1.1,4.5-2.8c0.3-0.8,0.6-1.5,0.9-2.2c2.4-3.6,9.4,0.8,11.9-2.7
		c0.9-1.2,0.8-3.1,2-4c0.6-0.4,1.3-0.7,2-0.8c5.1-1,10.2-1.7,15.4-2.2c2.5-0.2,5.7-1.1,5.7-3.6c-9.2-1.8-18.8-0.5-27.3,3.7
		c-3,1.5-7.1,4.7-10,2.7c-1.1-0.8-1-2.8-2.5-3.6C304.1,355.5,302.1,355.9,300.4,356.2z"/>
	<path style="fill:#3F3D56;" d="M330.7,361.9l4.3,0.8c-3.1-0.1-5.7,2.3-5.9,5.4c0,0.2,0,0.5,0,0.7c4.1,1.4,8.5,0,12.8,0.2
		s9.3,3.2,8.5,7.5c-0.2,1.3-1,2.6-0.6,3.8c0.3,0.9,1,1.5,1.5,2.3c0.9,1.7,0.2,3.8-1,5.3c-1.1,1.5-2.7,2.7-3.7,4.3
		c-2.5,4-1.1,9.2,0.4,13.6c0.4,1.7,1.2,3.3,2.3,4.6c2.2,2.3,5.8,2.5,8.9,2.6c2.3,0,5-0.1,6.5-1.9c1.9-2.4,0.6-6,1.8-8.8
		c1.1-2.5,4.1-3.6,6.7-4.3c4.9-1.4,9.8-2.6,14.4-4.7c5.7-2.6,11-6.7,17.3-7c1.8-0.1,3.6,0.1,5.2-0.4s3.3-1.9,3.2-3.7
		c-0.1-1.5-1.4-2.6-2.4-3.7s-1.8-2.9-0.9-4.1l16.4-3.1c-1.2-3.2-2.1-7.3,0.6-9.4c1-0.7,2.3-1,3.1-1.9c1.4-1.5,0.7-4.2-0.9-5.5
		c-1.6-1.3-3.8-1.6-5.9-1.8c-7.2-0.6-14.4-0.2-21.6,0.2c-14.1,0.8-28.2,1.5-42.3,2.3c-2.8,0.2-6.1-0.1-8.7,0.9
		c-2.2,0.8-3.8,2.3-6.3,2.9C340,359.9,334.9,359.3,330.7,361.9z"/>
	<path style="fill:#3F3D56;" d="M408.4,396.2c-0.4-0.1-0.9,0-1.3,0.3c-0.2,0.3-0.4,0.6-0.4,1c-0.3,1.6,0.1,3.2,0.9,4.6
		c0.9,1.4,2.5,2.1,4.1,2c2-0.2,3.4-1.9,5.2-2.7c2.8-1.3,14.5-3.2,6.4-7.6c-2.8-1.5-4.6-0.2-6.8,0.8
		C414,395.8,411.2,396.4,408.4,396.2z"/>
	<path style="fill:#3F3D56;" d="M479.6,359.4c-0.9,0.4-1.7,1.1-2.3,2c-0.5,0.9-0.2,2.1,0.7,2.6c0.4,0.1,0.7,0.2,1.1,0.2l3.9,0.1
		c1.6,0,3.7,0.4,4.1,2c0.3,1.2-0.4,2.7,0.5,3.5c0.4,0.3,0.8,0.5,1.3,0.5c1.3,0.3,2.6,0.4,3.9,0.1c2.8-0.8,1.3-2.5,2.2-4
		c1.4-2.3,1.1-0.9,3.5-2.3c1.8-1,4-2.8,2.6-5.3C498.6,354.5,483.4,357.5,479.6,359.4z"/>
	<path style="fill:#3F3D56;" d="M555.8,357.2l-2.2,0.3c-5.1,0.7-10.1,1.4-15,2.9c2.1,0.8,4.3,1.4,6.6,1.6c1.2,0.1,2.5,0.2,3.7,0.5
		c2.2,0.6,4.3,2.3,6.4,1.4c1.3-0.5,1.7-1.9,2.8-2.6c0.7-0.5,3.5-1.3,3.8-1.8C564.3,355.6,557.7,356.9,555.8,357.2z"/>
	<path style="fill:#3F3D56;" d="M565.6,367.4c-3,1.7-5.8,3.7-8.3,6.1c-1.1,1-2.1,2.2-2,3.7c0.1,1.9,2.2,3,3.9,3.8l7.2,3
		c0.9-1.2,0.1-2.9-0.8-4.1c-0.9-1.2-2-2.6-1.6-4c0.5-1.7,2.5-2.2,4.2-2.5c2.8-0.5,10.2-0.4,9.3-4.9
		C576.4,363.1,568.4,365.8,565.6,367.4z"/>
	<path style="fill:#3F3D56;" d="M564.2,663.4c-0.7,2-0.7,4.3,0.4,6c1.3,1.9,4,2.7,6.3,2.2c2.3-0.6,4.3-1.9,5.8-3.7
		c1.4-1.5,2.5-3.3,3.3-5.1c1.2-2.9,2-6,2.5-9.1l2.2-11.7c0.5-2.6,0.5-10.6-4.3-8c-1.3,0.7-4.3,6.3-5.7,7.9c-2.5,2.9-2.8,5.7-4.1,9.1
		C569,655.4,565.7,659,564.2,663.4z"/>
	<path style="fill:#3F3D56;" d="M817.6,723.1c-1.6-0.6-3.1-1.3-4.6-2.2c-1.5,4-2.3,8.3-2.3,12.6l10.7-6.1c1.6-0.9,3.4-2.2,3.4-4
		c0-0.5-0.2-0.9-0.6-1.2c-0.2-0.1-0.5-0.1-0.8-0.1c-1.6,0.1-3,0.9-4.5,1.5c-1.5,0.5-3.3,0.8-4.6,0"/>
	<path style="fill:#3F3D56;" d="M874.3,726.7c-1.2,0.3-2.3,0.7-3.4,1.2c-2.5,1.3-4.1,3.6-6.4,5.3c-2.1,1.6-4.7,2.4-7.2,3.3
		c-0.7,0.7-0.4,2,0.4,2.5c0.9,0.5,1.8,0.7,2.8,0.6c2.6,0.1,5.4,0.1,7.6-1.2c1.3-0.8,2.5-1.8,3.6-2.9c2.7-2.2,5.9-3.7,9-5.1
		c1.2-0.4,2.2-1.1,3.2-1.9c2-2,2.1-5-0.7-5.7C880.9,722.5,876.5,726,874.3,726.7z"/>
	<path style="fill:#3F3D56;" d="M899.3,710.4c0.3-2.7-0.7-5.4-2.7-7.3c0,2.7-0.1,5.6-1.6,7.8c-1.1,1.6-2.8,2.7-4,4.2
		c-1.2,1.5-1.7,3.9-0.3,5.3c0.9,0.7,2,1.1,3.1,1.1c2.8,0.3,6,0.5,7.9-1.5c1.1-1.1,1.6-2.7,2.9-3.5c0.5-0.2,0.9-0.5,1.3-0.9
		c0.5-0.8-0.3-2-1.3-2.3c-1-0.3-2-0.2-3-0.5c-1-0.3-1.8-1.4-1.3-2.2"/>
	<path style="fill:#3F3D56;" d="M854.8,611.2c-1.5,0.4-3,0.4-4.4,0.3c-2.5-0.5-4.4-2.3-6.4-3.8c-4.7-3.6-10.5-5.6-16.4-5.7
		c-5.4-0.1-10.9,1.4-16.2,0.3c0.3,1.9,2,3.4,3.8,4.2c1.8,0.9,3.7,1.3,5.5,2.1c2.8,1.4,5.1,3.7,6.3,6.6c0.6,1.3,0.9,2.8,1.8,3.9
		c1.8,2.4,5.1,2.9,8.1,2.7c3.9-0.3,7.9-1.4,11.5,0.1c2.7,1.1,4.7,3.5,7,5.4s5.5,3.3,8.1,1.9c-5.6-1.8-9.4-7.1-9.3-13
		c2.6,0.2,10,0.1,9.6-4.2C863.4,608.3,857,610.8,854.8,611.2z"/>
	<path style="fill:#3F3D56;" d="M821,641.5c0.5-2.5,3-4.7,2.2-7.2c-0.5-1.7-2.5-2.5-4.3-2.6s-3.5,0.5-5.3,0.5c-1.1-0.1-2.3,0-3.4,0
		c-3.5,0.6-5.7,4.3-9,5.6c-2,0.8-4.3,0.6-6.4,1.2c-4.7,1.2-7.7,5.7-11.1,9.3c-5.4,5.8-12.3,9.9-20,11.7c-2.7,0.6-5.6,1-7.7,2.8
		c-2.8,2.3-3.5,6.3-4.2,9.9c-1.7,10-4.4,19.8-8,29.2l11.3,1.4c2.1,0.3,4.4,0.5,6.4-0.1c1.5-0.6,2.9-1.3,4.2-2.2
		c5-3.1,10.6-5.1,16.5-5.9c2.9-0.4,6-0.5,8.8,0.6c2.8,1.1,5.1,3.6,5.4,6.5c2.4-0.8,5.1-0.1,6.9,1.7c1.8,1.8,2.9,4.1,3.3,6.6
		c0.3,1.5,0.6,3.4,2,4c1.2,0.5,2.5,0,3.8-0.1c4.3-0.3,7.9,4.7,12.2,3.8c4.6-0.9,5.7-7.8,10.1-9.1c2.6-0.8,6.1,0.2,7.4-2.2
		c1.1-2.1-1.1-4.5-0.9-6.9c0.3-2.9,3.7-4.1,6.3-5.4c9.1-4.3,13.4-16.4,9-25.4c-2.6-5.3-7.7-9.5-8.7-15.4c-0.7-4.5,1-9.8-1.8-13.3
		c-1.5-1.8-3.9-2.8-4.8-5c-0.5-1.4-0.3-2.9-0.6-4.3s-1.5-2.9-3-2.6c-4.1,1.1-5.4,13.7-7.6,16.8C826.9,650.3,820,647.2,821,641.5z"/>
	<path style="fill:#3F3D56;" d="M745.2,616c-1.4-0.4-2.9-0.8-4.3-0.2c-1.3,0.6-2.1,2.5-1,3.5c8.4-0.3,16.9-0.7,25.3,0.5
		c9.6,1.3,19.2,4.6,28.8,3.6c-5.5-1.6-11.1-2.9-16.8-3.9l-9.5-1.8c-2.5-0.5-5.1-0.9-7.7-1.2C754.6,616.1,750.5,617.5,745.2,616z"/>
	<path style="fill:#3F3D56;" d="M753.7,586.6c-0.7-0.1-1.6-0.1-1.9,0.5c-0.3,0.6,0,1.3-0.1,2c-0.3,0.9-1.4,1.1-2.3,1
		c-0.9-0.1-1.9-0.4-2.7,0c-0.8,0.6-1.2,1.6-0.9,2.6c0.3,0.9,0.9,1.8,1.6,2.5c1.2,1.5,2.5,2.9,4,4.1c2.9,2.1,6.8,3.2,8.7,6.3
		c0.3,0.6,0.7,1.1,1.2,1.6c0.9,0.6,2,0.1,3-0.3l3.3-1.5c0.6-0.2,1.1-0.6,1.5-1.1c0.8-1,0.3-2.5-0.3-3.6c-0.6-1.1-1.4-2.2-1.3-3.5
		c0.2-2.3,3.1-3.1,4.3-5.1c1.2-1.9,0.4-4.5,0.6-6.7c0.2-2.7,1.8-6.1-0.9-8.1c-2.3-1.7-4.5-0.1-6.1,1.7
		C761.7,582.9,760.1,587.2,753.7,586.6z"/>
	<path style="fill:#3F3D56;" d="M773.7,546.7c1.1,2.2,3.5,3.5,4.7,5.6c1.3,2.3,1.2,5.2,2.6,7.4c1.5,2.3,4.5,3.5,5.3,6.1
		c0.9,2.8-1.2,6.2,0.5,8.7c1.2,1.6,3.5,1.9,5.1,0.7c0.1-0.1,0.2-0.1,0.2-0.2c1.4-1.6,1.4-4-0.2-5.5c-1-0.9-2.4-1.3-3.2-2.3
		c-0.4-0.6-0.7-1.3-0.8-2c-0.4-2.1-0.4-4.3,0.2-6.3c0.2-0.5,0.3-1.1,0.2-1.6c-0.4-1.1-1.8-1.1-2.8-1.6c-2.3-1.1-2.2-4.4-1.8-6.9
		c-0.3,1.7-6.3-1.2-6.9-2.1c-1.2-1.9-0.6-5.5-0.8-7.6C773.4,540.2,772.4,544.1,773.7,546.7z"/>
	<path style="fill:#3F3D56;" d="M713.4,580c-1.1-1.2-2.8-2.5-4.3-1.8c-1.1,0.6-1.4,2.1-1,3.3c0.5,1.2,1.4,2.1,2.4,2.9
		c3.1,2.5,6.4,4.8,9.1,7.8c4.8,5.3,7.4,12.4,12.6,17.3c1.1,1.1,2.4,1.9,4,2.1c1.5,0.1,3.2-0.8,3.4-2.4c0.1-1.3-0.7-2.4-1.6-3.3
		c-2-2.2-4.3-4.3-6.2-6.6c-0.9-0.9-1.4-2.1-1.6-3.3c0-1.2,1.1-2.6,2.3-2.2c-1.5-0.4-2.6-2.8-4.7-3.3c-1.8-0.4-2.2,0.7-4.4-0.2
		C719.5,588.7,716.3,583.2,713.4,580z"/>
	<path style="fill:#3F3D56;" d="M809.5,459.5c-1.2-0.3-2.3-0.8-3.5-1.2c-3-0.9-7.1,1.3-6.6,4.5c0.3,2.1,2.2,3.5,3.3,5.3
		c1.6,2.7,1.2,6.1,0.3,9.1c-0.2,0.9-0.6,1.8-1.1,2.6c-0.8,0.8-1.7,1.5-2.7,2c-4.1,2.3-7.7,5.4-10.6,9c-0.3,0.3-0.5,0.8-0.6,1.2
		c-0.1,1.1,0.9,1.8,1.5,2.7c1.3,2,0.4,4.6,0.5,7c0,0.7,0.3,1.3,0.8,1.7c0.8,0.4,1.8-0.3,2.2-1.1c1.5-2.6,0.4-6.9,3.1-8.1
		c0.5-0.2,1.1-0.3,1.5-0.8c0.5-0.7,0-1.8,0.3-2.6c0.4-1.3,2.2-1.3,3.5-1.3c2.3,0.1,4.7-0.2,6.9-0.9c0.9-0.2,1.7-0.7,2.3-1.3
		c0.8-1,0.7-2.5,0.6-3.8c-0.8-6.4-2.9-12.7-6-18.3c2.4,0.3,5,0.6,7.1-0.7c1.2-0.7,2.5-2.8,2-4.2C813.2,458,811.5,459.9,809.5,459.5z
		"/>
	<path style="fill:#3F3D56;" d="M502.7,495c0.3,1.5,0.6,3.2,0.1,4.6c-0.5,1.5-2.1,2.7-3.6,2.3c-1.2-0.4-1.8-1.5-2.7-2.4
		c-4.6-4.9-14.9-2.1-17.8-8.2c-1.2-2.5-0.4-5.5-1.2-8.1c-1-3.1-4-5.2-7.3-5c-1.5,0.2-2.9,0.6-4.2,1.3c-9,3.6-18.3,5.9-27.9,7
		c-1.8,0.1-3.6,0.4-5.4,1c-3.9,1.4-6.6,5.1-8.5,8.8s-3.3,7.8-5.9,11.1c-2.7,3.5-6.5,5.9-10,8.5c-1.4,0.9-2.5,2.1-3.3,3.5
		c-0.8,1.6-0.7,3.4-0.7,5.1l0.7,21.2c0.1,2.7,0.2,5.5,1.4,8c1.5,3,4.5,5,6.6,7.7c2.1,2.8,3.2,6.2,3.1,9.7c0,1.4-0.2,3.1,0.9,3.9
		c0.7,0.4,1.4,0.7,2.2,0.6l28.7,2.3c5,0.4,10.6,1.1,13.9,4.9c1.6,1.8,2.8,4.4,5.2,4.6c1,0.1,2-0.3,3-0.4c2.6-0.2,4.8,1.8,6.3,3.9
		c2.2,3.3,3.1,7.2,2.8,11.1c-0.2,2.5-1,4.8-1.2,7.3c-0.6,9.4,7.3,17.5,7.5,26.9c0.1,5.5-2.5,10.7-5.1,15.6
		c4.1,6.2,0.7,14.6,2.4,21.9c1.6,6.9,7.3,12.4,8.8,19.3c0.7,3.2,0.7,7.1,3.5,8.7c1.2,0.6,2.6,0.9,4,0.8c8.3,0.1,16.4-1.8,23.8-5.4
		c3.5-1.7,7.1-4.3,7.7-8.1c0.5-3.1-1.1-6.5,0.5-9.2c1.9-3.2,6.7-2.9,9.4-5.4c4.5-4,1-11.5,2.8-17.2c1.6-5.1,7.2-7.8,10-12.4
		c1.1-2,1.9-4.1,2.3-6.3c1.3-5.3,2.1-10.7,2.4-16.1c0.1-3.3,0.3-6.6,0.7-9.9c3-18.7,21.4-31.1,27.4-49.1c0.6-1.7,0.8-4-0.7-5
		c-0.9-0.4-1.9-0.5-2.9-0.3l-13.2,1.7c-1.6,0.2-3.4,0.4-4.9-0.3c-1.5-0.7-2.6-2.6-1.8-4c2.2-4.1-2.4-9.2-4.4-13.4
		c-5.5-11.2-12.1-21.9-19.6-31.8c-0.5-0.5-0.8-1.2-0.9-1.9l3.7,0.1c-1.3-4.5-3.4-9.5-7.8-11.2c-2.5-0.9-5.2-0.6-7.9-0.5
		C518.3,497.3,510.2,496.1,502.7,495z"/>
	<path style="fill:#3F3D56;" d="M525.9,392.7c2,2.1,4.2,4.3,7.1,4.7c5.1,0.6,8.7-4.6,11.1-9.2c0.2,2.4,2.3,4.3,4.7,4.1
		c1.3-0.2,2.5-0.7,3.5-1.4c10.1-5.5,21.3-8.4,32.8-8.5c-0.2-1.8,0.9-3.5,2.7-3.9c2.3-0.5,4.4,1.6,5.6,3.6c1.1,2.1,1.8,4.5,3.6,6.1
		s5.2,1.5,6-0.8c0.7-2.2-1.6-4-3.5-5.3c-1.9-1.3-3.9-3.7-2.6-5.6c9.6-2.1,19.3-4.3,29.2-4.7c1.7,0.1,3.4-0.2,4.9-0.8
		c1.5-0.7,2.7-2.4,2.3-4c-4.4,1-9-0.7-11.6-4.4c13.7-1.1,28.2-2.1,40.4,4.3c1.5,3.1-6,5.7-4,8.5c0.6,0.9,1.9,1,3,1
		c8.4,0.2,16.9,0.3,25.2-1c3-0.5,6.1-1.1,9.2-0.7c5.1,0.6,9.4,4,14.5,5.1c2,0.5,4.3,0.5,6-0.7c1.7-1.2,2.5-3.9,1-5.4
		c4.7-4.6,12.5-3.5,18.8-1.3s12.1,5.8,18.7,6.3c4.7,0.4,9.5-0.9,14.2-0.1c2.9,0.5,5.7,1.8,8.5,2.6c5.4,1.5,11.2,1.2,16.8,1.3
		c14.4,0.2,28.6,3,41.9,8.3c1.7,0.6,3.3,1.5,4.7,2.8c1.2,1.3,1.9,3.4,1,5l-13.8-2c1.3,2.6,4.7,3,7.4,3.9c2.7,0.9,5.6,3.9,3.9,6.2
		c-3-0.9-5.6,2-7.1,4.7c-1.5,2.7-3.3,6-6.4,6.1c-2.8,0.1-6.1-2.2-7.9-0.1c2.5,3.2,4.6,6.6,6.4,10.2c1.8,3.7,3.1,8.4,0.6,11.8
		c-0.4,0.6-1,1-1.6,1.3c-2,0.5-3.3-1.9-4.7-3.4c-1.8-1.8-4.5-2.4-6.9-3.2c-2.4-0.9-5-2.6-5.1-5.1c-0.1-1.6,0.7-3.1,1.3-4.5
		c1-2.5,1.5-5.2,1.3-7.8c-0.1-2.2-0.7-4.4-2.3-5.9c-1.6-1.5-4.2-2-5.9-0.6c-0.8,0.6-1.4,1.7-2.4,1.7c-1.8,0.1-3.1-3-4.6-2
		c0.2,1.1-0.1,2.3-0.7,3.3c-4.3,3.7-10.8,2.1-16.4,3.5c-2.6,0.8-5.1,1.8-7.5,3.3c-0.9,0.4-1.6,1-2.1,1.8c-0.7,1.3,0.1,3.1,1.3,3.9
		c1.3,0.8,2.7,1.3,4.2,1.4c6.7,1.3,13.5,3.2,18.8,7.6c5.3,4.3,8.8,11.5,7.1,18.1l-13.3-12.7c0.5,5.3,0.8,10.7,0.9,16
		c0.1,1-0.1,2.1-0.4,3.1c-0.9,2.1-3.5,2.8-5.8,3.3c-2.4,0.5-4,2.8-3.6,5.3c0,0.2,0.1,0.3,0.1,0.5c0.8,2.6,2.8,4.6,4.6,6.6
		c1.8,2,3.6,4.3,3.9,7c0.2,2.7-1.8,5.8-4.5,5.6c-2.1-0.1-3.6-2-4.5-3.8c-0.9-1.9-1.4-3.9-2.7-5.5c-4-4.8-12.9-2.7-16.5-7.9
		c-1.9,2.1-2.5,5-1.7,7.7c1.7-1,3.9-0.1,5.2,1.4c1.2,1.5,1.8,3.5,2.8,5.1c1.3,2.3,3.4,4.3,3.6,7c0,1,0,2,0.1,3
		c0.3,1.6,1.7,2.7,2.6,4.1c2.2,3.1,2.1,7.4,0.7,10.9c-1.4,3.5-3.9,6.5-6.4,9.3c-4.4,5-8.8,10-14,14.1c-1.5,1.2-3.1,2.3-4,4
		c-0.9,1.7-1,4,0.4,5.2c-1,0.1-2.8,0.5-3.8,0.6c-0.4-4.1-0.4-8.1-0.2-12.2c-4-1.9-8.3,3.2-7.8,7.6c0.5,4.4,3.7,7.9,6,11.7
		c1.7,2.8,2.9,6,2.3,9.2c-0.6,3.2-3.4,6.1-6.6,5.9c-5.1-0.4-7.3-7.8-12.4-8.7c-0.4-0.1-0.9-0.1-1.3,0.1c-0.8,0.4-0.9,1.4-0.9,2.3
		c-0.2,4.2-0.4,8.6,1.3,12.5c2.4,5.7,8.6,10.5,7.3,16.5c-7-3.3-10.7-11.2-12.4-18.7c-1.7-7.6-1.9-15.5-4.9-22.7
		c-2.3,2.9-7,0.5-9.1-2.5c-2-2.9-3.2-6.2-5.1-9.1c-1.9-2.9-4.8-5.5-8.3-5.7c-3.6-0.2-6.8,2.3-9.6,4.7c-2.3,1.9-4.6,4-6,6.7
		c-1.9,3.9-1.4,8.5-1.5,12.9c-0.1,4.7-1.1,9.7-4.3,13.2c-3.2,3.5-9.2,4.7-12.7,1.5c-1.9-1.6-2.8-4.1-3.6-6.4
		c-3.9-11.3-7.1-22.7-9.6-34.3c-0.6,2.7-2.9,6.1-5.1,4.5c-0.5-0.4-0.9-0.9-1.2-1.5c-4.1-7-11.8-11.2-19.6-13.8
		c-7.8-2.5-15.9-3.7-23.6-6.5c-4.3-1.6-8.4-3.6-12.2-6.1c-2,2.9-2.2,6.7-0.6,9.9c1.7,3,5.6,4.8,8.9,3.7c1.7-0.5,3.1-1.7,4.8-2.3
		c1.7-0.6,4-0.3,4.7,1.3c0.7,1.6-0.4,3.4,0.2,5.1c0.8,2.5,4.5,2.7,5.9,4.9c1,1.7,0.2,3.9-1.2,5.3c-1.4,1.4-3.2,2.1-4.9,3
		c-5.5,3.1-9.4,8.3-14.2,12.4s-11.6,7-17.3,4.4c1.4-6.9-6.9-12-8.4-18.9c-0.5-2.3-0.2-4.7-1-6.9c-1-3.2-3.9-5.4-6.2-7.8
		c-5.7-6-8.7-14.1-8.4-22.3c0.1-2.8,0.6-5.7,0-8.5s-2.9-5.5-5.8-5.3c-6.5,0.3-14.7,0.8-18.1-4.8c-1.2-2-1.7-4.9,0-6.4
		c1.2-1.1,3.1-1,4.7-0.8l14.7,1.4c3.4,0.3,7.1,0.6,10.1-1.2s4.2-6.5,1.5-8.7c-2-1.5-5.6-1.5-6.1-3.9c-0.5-2,1.8-4.4,0.6-6.1
		c-0.9-1.2-2.8-0.9-4,0s-2.1,2.3-3.4,2.9c-2.3,1.2-5.1,0.1-7.6-0.7s-5.9-0.9-7.1,1.5c-1.4,2.6,1.2,6-0.1,8.7
		c-1.8,3.5-7.9,1.5-10.4,4.5c-2.9,3.4,2,8.5,1,12.9c-2.5,1.3-5.5,1.1-7.9-0.4c-2.3-1.6-3.6-4.3-3.3-7.1c0.2-2,1.3-4,0.6-5.8
		c-0.6-1.5-2.1-2.4-3.5-3.2l-14.2-7.9c-1.3,2.5,0.3,5.5,2.4,7.3s4.7,3.2,6.1,5.7c1.8,3.5,0.6,7.8-2.8,9.8c-0.4,0.3-0.9,0.4-1.4,0.2
		c-0.5-0.3-0.8-0.7-0.9-1.2c-2.5-6.4-6.3-12.8-12.3-16.1c-6-3.4-14.7-2.7-18.6,3c-0.9,1.3-1.6,2.9-2.4,4.3
		c-4.3,7.5-13.7,11.1-22.4,10.9c-0.9,0-1.7-0.2-2.4-0.6c-1.4-1-1.3-3-1.1-4.7l0.9-7.2c0.2-1.4,0.4-3,1.6-3.9c1.6-1.3,3.9-0.5,6-0.5
		c3.2-0.1,5.9-2.3,6.9-5.3c0.8-3.1-0.1-6.3-2.4-8.5c-0.9-0.9-2.2-2-1.7-3.2c0.4-0.7,1.1-1.1,1.8-1.2c3.7-1.1,7.6-1.4,11.2-2.6
		c3.6-1.3,7.1-3.9,8-7.6c0.3-1.1,0.4-2.5,1.4-3.1c0.5-0.2,1.1-0.3,1.6-0.3c4.1-0.6,7-4.2,6.8-8.3c1.7-1.2,4.2-0.3,5.9,1
		c1.7,1.3,3.2,3,5.2,3.6c3.8,1,7.5-2.3,11.5-2.4c1.7,0,3.4,0.6,4.9,0c1.6-0.6,2.5-2.1,3.7-3.3c1.2-1.2,3.4-1.9,4.5-0.6l-1-7.1
		c3.9,1,8,0.2,11.3-2l-12.4-4.2c-0.4-0.1-0.8-0.3-1.2-0.6c-0.9-1,0-2.5,0.7-3.6c1.7-2.6,2-7-0.8-8.3c-2-0.9-4.2,0.2-6.1,1.2l-9,5
		c-0.3,1.7,1.8,2.7,3.1,3.8c2.2,1.9,2.3,5.2,0.4,7.4c-1,1.1-2.4,1.7-3.8,1.8c1.2,1.6,1.6,3.6,1.2,5.5l-6.1,0.4c-0.7,0.1-1.4,0-2-0.4
		c-0.6-0.6-0.6-1.6-0.7-2.4c-0.4-2.1-2.4-3.5-4.4-3.9c-2.1-0.4-4.2,0.1-6.2,0.6c-0.9,0.3-1.8,0.3-2.7-0.1c-0.5-0.3-0.9-0.8-1.1-1.3
		c-0.9-2.2-0.1-4.7,1.4-6.6c1.4-1.9,3.4-3.2,5.2-4.8c4.2-3.7,7.3-8.5,9-13.9c3.3-1.4,6.8-3.3,10.1-4.7c5.2-2.6,10.9-3.7,16.7-3.2
		l11.3,0.2c3.4,0.1,6.8,0.1,9.9,1.4s5.8,4,6,7.4c0.1,0.8-0.1,1.6-0.7,2.1c-0.4,0.2-0.9,0.4-1.4,0.3
		C530.4,391.8,529.1,392.5,525.9,392.7z"/>
	<path style="fill:#3F3D56;" d="M435.7,428.1c0.9-0.9,1.3-2.1,0.9-3.3c-2.2-0.8-4.7-0.4-6.4,1.2c-0.7,0.7-1.2,1.4-1.7,2.3
		c-1.5,2.4-2.8,5.3-1.9,8c0.1,0.6,0.5,1.1,1,1.4c0.4,0.2,0.8,0.2,1.2,0.2c1.6,0,3.3-0.1,4.9-0.3c1-0.1,2.2-0.4,2.5-1.3
		c0.5-1.2-0.7-2.6-0.4-3.9c0.2-0.6,0.6-1.1,1-1.5c0.5-0.4,0.7-1,0.6-1.7c-0.1-0.6-1.1-0.9-1.4-0.4"/>
	<path style="fill:#3F3D56;" d="M444.2,417.1c-1.5-0.3-3-0.4-4.4-0.3c-0.3,0-0.7,0.1-0.9,0.2c-0.3,0.2-0.5,0.5-0.6,0.8
		c-0.7,2.1,0.4,4.3,2.4,5.1c0.5,0.1,1,0.3,1.5,0.6c1.3,1,0.5,3,0.7,4.5c0.3,1.8,2,3.2,1.7,5c-0.2,1.4-1.7,2.5-1.5,3.9
		c0.2,1.5,2.1,1.9,3.6,2c0.9,0.1,1.7,0,2.5-0.3c0.8-0.5,1.4-1.4,1.6-2.3c0.6-1.8,0.9-3.7,0.7-5.6c0-0.9-0.2-1.7-0.6-2.5
		c-0.4-0.6-0.9-1.2-1.5-1.7C446.6,423.5,449.5,418.6,444.2,417.1z"/>
	<path style="opacity:0.8;fill:none;stroke:#212B59;stroke-width:1.5781;stroke-miterlimit:10;enable-background:new    ;" d="
		M814.3,673.6c0,0-215.6-123.7-308.4-100.3c0,0-196.7,21.2-219.5,67.7c0,0-62.5-195.4-85.3-201.9"/>
	<path style="opacity:0.8;fill:none;stroke:#212B59;stroke-width:1.5781;stroke-miterlimit:10;enable-background:new    ;" d="
		M286.5,641c36.1-96.4,361.8-203.2,361.8-203.2C602,449.6,505.9,573.3,505.9,573.3S302.7,425.5,201.1,439.1
		c0,0,447.4,14.7,613.2,234.5"/>
	<circle style="fill:#212B59;" cx="201.1" cy="439.1" r="9.4"/>
	<circle style="fill:#212B59;" cx="286.5" cy="641" r="9.4"/>
	<circle style="fill:#212B59;" cx="648.2" cy="437.8" r="9.4"/>
	<circle style="fill:#212B59;" cx="814.3" cy="673.6" r="9.4"/>
	<circle style="fill:#212B59;" cx="505.9" cy="573.3" r="9.4"/>
</g>
<g>
	<text transform="matrix(1 0 0 1 227.8957 585.6686)" style="fill:#212B59; font-family:'RopaSoftPro-Bold'; font-size:90px;">Hackathon COVID-19</text>
	<g>
		
			<linearGradient id="SVGID_1_" gradientUnits="userSpaceOnUse" x1="174.1001" y1="1001.1989" x2="175.0466" y2="890.4291" gradientTransform="matrix(1 0 0 -1 0 1487.848)">
			<stop  offset="0" style="stop-color:#EB6185"/>
			<stop  offset="1" style="stop-color:#E23E7A"/>
		</linearGradient>
		<path style="fill:url(#SVGID_1_);" d="M162.6,499.9c-4.4,0.1-8.7,1.2-12.7,3.2c-5.7,2.9-9.2,8.9-8.9,15.3c0,0.1,0,0.1,0,0.2
			c0.2,3.7-0.7,7.4-2.5,10.6c-2.2,3.9-4.4,9.7-2.8,16.3c0,0,2,14.4,17.9,14.1c0,0,4.3,11.8,19.4,11.8c15.1,0,17.4-13.9,17.4-13.9
			s21.9-0.8,23.4-20.4c0,0,1.1-8.9-6-15.5c-4-3.6-6.8-8.4-7.8-13.7c-0.1-0.7-0.2-1.4-0.3-2.1c-0.4-3.9-2.8-7.2-6.3-8.9
			c-5.3-2.5-13.3-4.5-21.7,0.2C168.9,499,165.8,499.9,162.6,499.9z"/>
		
			<linearGradient id="SVGID_2_" gradientUnits="userSpaceOnUse" x1="127.3489" y1="1042.9285" x2="129.6878" y2="900.2372" gradientTransform="matrix(1 0 0 -1 0 1487.848)">
			<stop  offset="0" style="stop-color:#EB6185"/>
			<stop  offset="1" style="stop-color:#E23E7A"/>
		</linearGradient>
		<circle style="fill:url(#SVGID_2_);" cx="127.3" cy="439.1" r="9.7"/>
		
			<linearGradient id="SVGID_3_" gradientUnits="userSpaceOnUse" x1="108.5789" y1="1000.6393" x2="109.5254" y2="889.8696" gradientTransform="matrix(1 0 0 -1 0 1487.848)">
			<stop  offset="0" style="stop-color:#EB6185"/>
			<stop  offset="1" style="stop-color:#E23E7A"/>
		</linearGradient>
		<circle style="fill:url(#SVGID_3_);" cx="108.7" cy="495.8" r="9.9"/>
		
			<linearGradient id="SVGID_4_" gradientUnits="userSpaceOnUse" x1="206.1737" y1="1001.4729" x2="207.1202" y2="890.7032" gradientTransform="matrix(1 0 0 -1 0 1487.848)">
			<stop  offset="0" style="stop-color:#EB6185"/>
			<stop  offset="1" style="stop-color:#E23E7A"/>
		</linearGradient>
		<circle style="fill:url(#SVGID_4_);" cx="207.1" cy="590.7" r="10.6"/>
		<circle style="fill:#D9232E;" cx="745.9" cy="508.2" r="11.1"/>
		<circle style="fill:#FFFFFF;" cx="165.5" cy="525" r="8"/>
		<circle style="fill:#FFFFFF;" cx="173.5" cy="549.1" r="6.2"/>
		
			<linearGradient id="SVGID_5_" gradientUnits="userSpaceOnUse" x1="174.5424" y1="1059.6163" x2="174.5424" y2="1007.6121" gradientTransform="matrix(1 0 0 -1 0 1487.848)">
			<stop  offset="0" style="stop-color:#EB6185"/>
			<stop  offset="1" style="stop-color:#E23E7A"/>
		</linearGradient>
		<circle style="fill:url(#SVGID_5_);" cx="174.5" cy="439.1" r="12.8"/>
		<circle style="fill:#051E5B;" cx="135.2" cy="474.8" r="5.8"/>
		<circle style="fill:#051E5B;" cx="111.4" cy="557" r="6.1"/>
		<path style="fill:#051E5B;" d="M124.7,580.9c-1.2,0.9-2.1,2.1-2.8,3.5c-1,2-1.3,4.2-0.8,6.4c0.8,3.9,3.4,10,12,8.5
			c6.1-1.1,7.7-5.7,7.9-9.9c0.2-4.3-2.4-8.3-6.5-9.9l0,0C131.2,578.1,127.5,578.7,124.7,580.9z"/>
		<path style="fill:#FFFFFF;" d="M195.1,532.3c-0.6,2.1-2.7,3.4-4.9,2.8c-0.1,0-0.3-0.1-0.4-0.1c-1.8-0.8-2.8-3.5-2.2-6
			s2.6-3.8,4.5-3C193.9,526.8,195.7,529.8,195.1,532.3z"/>
		<path style="fill:#051E5B;" d="M168.6,498.8c1.1-0.4,2.1-0.9,3.1-1.4c3.3-1.9,7-2.9,10.8-2.9c-1.5-3-2.5-6.3-2.9-9.7
			c-1-9.6,0-25.1,0-25.1s0-7.1,4.5-12.1h0c-3.4,3.9-8.9,5.3-13.8,3.6c1.2,1.7,2.6,5.1,2.6,11.5v26.1
			C172.9,488.8,173.3,494.7,168.6,498.8z"/>
		
			<linearGradient id="SVGID_6_" gradientUnits="userSpaceOnUse" x1="232.5909" y1="1001.6725" x2="233.5381" y2="890.9028" gradientTransform="matrix(1 0 0 -1 0 1487.848)">
			<stop  offset="0" style="stop-color:#EB6185"/>
			<stop  offset="1" style="stop-color:#E23E7A"/>
		</linearGradient>
		<path style="fill:url(#SVGID_6_);" d="M248.4,497.3c-1.9-3.5-6.8-6.1-10.8-5.6c-0.7,0.1-1.3,0.2-2,0.4c-2.3,0.7-4.3,2.2-5.6,4.1
			c0,0-5.3,7.2-12.3,11.2c-1.8,1-2.5,3.2-1.5,5c0.2,0.3,0.4,0.6,0.6,0.8c0,0,0.1,0.1,0.1,0.1c1.2,1.1,2.9,1.2,4.3,0.4
			c2.5-1.5,7.3-3.5,12.3-1c0.2,0.1,0.5,0.3,0.7,0.4l0,0v0c4.5,2.1,8.5,0.2,11.6-2.4C249.8,507.4,250.8,501.8,248.4,497.3z"/>
		<path style="fill:#051E5B;" d="M153.6,559.8c-3.3,0.1-6.7-0.6-9.6-2.2c-0.4,2.8-1.1,5.6-2.3,8.1c-2.1,4.8-4.9,9.2-8.1,13.3
			c0.3,0.1,0.6,0.2,1,0.3c1.8,0.7,3.3,1.9,4.5,3.4c2.2-5.6,7.6-16.2,18.3-17.4C155.8,563.8,154.5,561.9,153.6,559.8z"/>
		<path style="fill:#051E5B;" d="M141.1,518.5c-0.2-4.3,1.3-8.5,4.2-11.7c-3,0.3-7.2-0.1-12.8-2.2c-7.3-2.8-11.5-6.1-13.9-8.6
			c0,2.7-1.1,5.2-3.1,7.1c2.6,0.5,7.4,2.1,13.8,6.8c6.1,4.6,9.4,10.8,11.1,14.9c0.5-2,0.7-4,0.6-6
			C141.1,518.6,141.1,518.6,141.1,518.5z"/>
		
			<linearGradient id="SVGID_7_" gradientUnits="userSpaceOnUse" x1="213.887" y1="1078.3268" x2="213.887" y2="993.6149" gradientTransform="matrix(1 0 0 -1 0 1487.848)">
			<stop  offset="0" style="stop-color:#EB6185"/>
			<stop  offset="1" style="stop-color:#E23E7A"/>
		</linearGradient>
		<path style="fill:url(#SVGID_7_);" d="M210.2,464.2c-0.7,0.5-1.3,1.2-1.7,2c-0.6,1.1-0.7,2.5-0.5,3.7c0.5,2.2,2,5.8,7.1,4.9
			c3.6-0.6,4.6-3.3,4.7-5.8c0.1-2.5-1.4-4.9-3.8-5.7l0,0C214.1,462.5,211.8,462.9,210.2,464.2z"/>
		<path style="fill:#051E5B;" d="M204.3,580.5c-2.9-3.3-7.2-9.1-7.9-14.7c-0.4-3.1-0.1-6.2,0.8-9.2c-2.2,0.7-4.5,1.1-6.9,1.2
			c-0.8,3.6-2.6,6.9-5.2,9.4c4.1,0.9,7.7,3.5,9.9,7.2c1.7,2.8,3.3,5.7,4.7,8.7C201.1,581.8,202.6,581,204.3,580.5z"/>
		<path style="fill:#051E5B;" d="M152,562.3c1.9,3.6,7.7,11.9,21,11.9c12.2,0,17.7-8.3,19.4-14c8.7-0.9,22.6-6.5,23.9-22.5
			c0.1-1,0.9-10.4-6.8-17.5c-3.6-3.2-6.1-7.6-7-12.3c-0.1-0.7-0.2-1.3-0.3-2c-0.5-4.7-3.4-8.9-7.7-10.9c-5.8-2.8-14.6-4.9-24,0.3
			c-2.4,1.4-5.2,2.2-8,2.3c-4.8,0.1-9.5,1.3-13.7,3.5c-6.6,3.4-10.5,10.3-10.2,17.7l0,0.2c0.2,3.2-0.6,6.5-2.2,9.3
			c-2.4,4.1-4.8,10.6-3.1,18C134.1,551.7,139,561.7,152,562.3z M140.7,530.6c2.1-3.6,3.1-7.8,2.8-12l0-0.2c-0.3-5.4,2.7-10.5,7.5-13
			c3.6-1.9,7.5-2.9,11.6-3c3.6-0.1,7.2-1.1,10.4-2.9c7.5-4.2,14.7-2.4,19.4-0.2c2.7,1.3,4.6,3.9,4.9,7c0.1,0.7,0.2,1.5,0.3,2.3
			c1.1,5.9,4.1,11.2,8.6,15.1c3.7,3.4,5.6,8.3,5.2,13.3c0,0,0,0.1,0,0.1c-1.3,17.2-20.2,18.1-21,18.1c-1.2,0-2.2,0.9-2.4,2.1
			c-0.1,0.5-2.2,11.8-14.9,11.8c-13.1,0-16.9-9.8-17.1-10.2c-0.4-1-1.3-1.6-2.3-1.6h0c-0.1,0-0.2,0-0.4,0c-13.1,0-15-11.5-15-12
			c0-0.1,0-0.1,0-0.2C136.8,539.2,138.8,534,140.7,530.6L140.7,530.6z"/>
		<path style="fill:#051E5B;" d="M127.3,426.9c-6.7,0-12.2,5.5-12.2,12.2s5.5,12.2,12.2,12.2s12.2-5.5,12.2-12.2c0,0,0,0,0,0
			C139.5,432.4,134,426.9,127.3,426.9z M127.3,446.4c-4,0-7.2-3.2-7.2-7.2s3.2-7.2,7.2-7.2c4,0,7.2,3.2,7.2,7.2l0,0
			C134.5,443.1,131.3,446.4,127.3,446.4z"/>
		<path style="fill:#051E5B;" d="M121.1,495.8c0-6.9-5.6-12.4-12.4-12.4s-12.4,5.6-12.4,12.4c0,6.9,5.6,12.4,12.4,12.4c0,0,0,0,0,0
			C115.5,508.2,121.1,502.6,121.1,495.8z M101.2,495.8c0-4.1,3.3-7.5,7.5-7.5s7.5,3.3,7.5,7.5s-3.3,7.5-7.5,7.5c0,0,0,0,0,0
			C104.5,503.2,101.2,499.9,101.2,495.8z"/>
		<path style="fill:#051E5B;" d="M207.1,603.8c7.2,0,13.1-5.9,13.1-13.1c0-7.2-5.9-13.1-13.1-13.1s-13.1,5.9-13.1,13.1l0,0
			C194,598,199.8,603.8,207.1,603.8z M207.1,582.6c4.5,0,8.1,3.6,8.1,8.1c0,4.5-3.6,8.1-8.1,8.1s-8.1-3.6-8.1-8.1l0,0
			C199,586.3,202.6,582.6,207.1,582.6z"/>
		<path style="fill:#051E5B;" d="M732.3,508.2c0,7.5,6.1,13.6,13.6,13.6c7.5,0,13.6-6.1,13.6-13.6c0-7.5-6.1-13.6-13.6-13.6
			c0,0,0,0,0,0C738.4,494.7,732.3,500.7,732.3,508.2z M754.5,508.2c0,4.7-3.8,8.6-8.6,8.6c-4.7,0-8.6-3.8-8.6-8.6
			c0-4.7,3.8-8.6,8.6-8.6c0,0,0,0,0,0C750.6,499.6,754.5,503.5,754.5,508.2z"/>
		<path style="fill:#051E5B;" d="M174.5,454.4c8.5,0,15.3-6.9,15.3-15.3s-6.9-15.3-15.3-15.3c-8.5,0-15.3,6.9-15.3,15.3l0,0
			C159.2,447.6,166.1,454.4,174.5,454.4z M174.5,428.8c5.7,0,10.4,4.6,10.4,10.4s-4.6,10.4-10.4,10.4c-5.7,0-10.4-4.6-10.4-10.4
			c0,0,0,0,0,0C164.2,433.4,168.8,428.8,174.5,428.8z"/>
		<path style="fill:#051E5B;" d="M232.5,515c0.2,0.1,0.5,0.3,0.7,0.4c0.1,0,0.2,0.1,0.3,0.1c4.6,2.1,9.5,1.1,14.1-2.8
			c4.7-4.1,6-11,3-16.5l0,0c-2.3-4.4-8.3-7.5-13.2-6.9c-0.8,0.1-1.6,0.2-2.4,0.5c-2.8,0.9-5.2,2.6-6.9,5c-0.1,0.1-5.1,6.9-11.5,10.5
			c-1.7,1-2.9,2.7-3.2,4.7c-0.2,1.9,0.4,3.8,1.8,5.1l0.1,0.1c1.1,1,2.6,1.6,4.1,1.6c1.1,0,2.2-0.3,3.1-0.9
			C224.6,514.7,228.6,513.1,232.5,515z M218.7,511.5L218.7,511.5c-0.3-0.3-0.4-0.6-0.4-0.9c0.1-0.4,0.3-0.8,0.7-1
			c7.4-4.2,12.9-11.6,13.1-11.9c1-1.5,2.5-2.6,4.3-3.2c3.8-1.1,7.9,0.6,9.8,4l0,0c1.9,3.5,1.1,7.8-1.9,10.4c-4.7,4-8.2,2.4-9.6,1.7
			c-6-3.1-11.8-0.6-14.7,1.1C219.6,511.9,219.1,511.8,218.7,511.5z"/>
	</g>
	<g>
		<g>
			<path style="fill:none;stroke:#212B59;stroke-width:8;stroke-linecap:round;stroke-miterlimit:10;" d="M257.7,491.2
				c0,0,6.2-3.7,17.7-9.2"/>
			
				<path style="fill:none;stroke:#212B59;stroke-width:8;stroke-linecap:round;stroke-miterlimit:10;stroke-dasharray:40.8341,40.8341;" d="
				M313.1,466.2c75-27.5,217.9-58.7,377.6,15.1"/>
			<path style="fill:none;stroke:#212B59;stroke-width:8;stroke-linecap:round;stroke-miterlimit:10;" d="M709.1,490.2
				c5.9,3,11.8,6.1,17.7,9.4"/>
		</g>
	</g>
</g>
<path style="fill:#212B59;" d="M508.4,651.2c-1.4-5.9-6.6-10.1-12.7-10.2v0c-0.9,0-1.8,0.1-2.7,0.2c-6.9,1.3-11.7,7.7-10.9,14.7
	c0.2,1.7,0.8,3.4,1.6,5l0.1,0.2l0,0l11.5,19.9l11.6-20.1c1.1-2,1.7-4.3,1.7-6.6L508.4,651.2z M495.9,661.1c-3.6,0.2-6.8-2.4-7.2-6
	c-0.4-3.6,2-6.9,5.6-7.6c3.6-0.6,7,1.6,7.9,5.1l0.2,1.6C502.3,657.9,499.5,660.9,495.9,661.1z"/>
</svg>
