<?xml version="1.0" encoding="utf-8"?>
<!-- Generator: Adobe Illustrator 24.0.3, SVG Export Plug-In . SVG Version: 6.00 Build 0)  -->
<svg version="1.1" id="e6d15d18-a685-4480-ac2b-bd578043a679"
	 xmlns="http://www.w3.org/2000/svg" xmlns:xlink="http://www.w3.org/1999/xlink" x="0px" y="0px" viewBox="0 0 1000 1000"
	 style="enable-background:new 0 0 1000 1000;" xml:space="preserve">
<g>
	<g>
		<text transform="matrix(1 0 0 1 206.196 562.2942)" style="fill:#212B59; font-family:'RopaSoftPro-Bold'; font-size:57.9521px;">Hackathon COVID-19</text>
		<g>
			
				<linearGradient id="SVGID_1_" gradientUnits="userSpaceOnUse" x1="171.5573" y1="989.3141" x2="172.1667" y2="917.988" gradientTransform="matrix(1 0 0 -1 0 1487.848)">
				<stop  offset="0" style="stop-color:#EB6185"/>
				<stop  offset="1" style="stop-color:#E23E7A"/>
			</linearGradient>
			<path style="fill:url(#SVGID_1_);" d="M164.1,507.1c-2.8,0.1-5.6,0.8-8.1,2.1c-3.7,1.9-5.9,5.8-5.7,9.9c0,0,0,0.1,0,0.1
				c0.1,2.4-0.4,4.8-1.6,6.8c-1.4,2.5-2.8,6.2-1.8,10.5c0,0,1.3,9.2,11.5,9.1c0,0,2.8,7.6,12.5,7.6s11.2-8.9,11.2-8.9
				s14.1-0.5,15.1-13.1c0,0,0.7-5.7-3.9-10c-2.6-2.3-4.4-5.4-5-8.8c-0.1-0.4-0.1-0.9-0.2-1.4c-0.3-2.5-1.8-4.7-4-5.8
				c-3.4-1.6-8.6-2.9-14,0.2C168.2,506.5,166.2,507,164.1,507.1z"/>
			
				<linearGradient id="SVGID_2_" gradientUnits="userSpaceOnUse" x1="141.4536" y1="1016.1843" x2="142.9596" y2="924.3036" gradientTransform="matrix(1 0 0 -1 0 1487.848)">
				<stop  offset="0" style="stop-color:#EB6185"/>
				<stop  offset="1" style="stop-color:#E23E7A"/>
			</linearGradient>
			<circle style="fill:url(#SVGID_2_);" cx="141.4" cy="467.9" r="6.3"/>
			
				<linearGradient id="SVGID_3_" gradientUnits="userSpaceOnUse" x1="129.3674" y1="988.9538" x2="129.9768" y2="917.6277" gradientTransform="matrix(1 0 0 -1 0 1487.848)">
				<stop  offset="0" style="stop-color:#EB6185"/>
				<stop  offset="1" style="stop-color:#E23E7A"/>
			</linearGradient>
			<circle style="fill:url(#SVGID_3_);" cx="129.4" cy="504.4" r="6.4"/>
			
				<linearGradient id="SVGID_4_" gradientUnits="userSpaceOnUse" x1="192.2099" y1="989.4905" x2="192.8193" y2="918.1645" gradientTransform="matrix(1 0 0 -1 0 1487.848)">
				<stop  offset="0" style="stop-color:#EB6185"/>
				<stop  offset="1" style="stop-color:#E23E7A"/>
			</linearGradient>
			<circle style="fill:url(#SVGID_4_);" cx="192.8" cy="565.6" r="6.8"/>
			<circle style="fill:#D9232E;" cx="539.7" cy="512.4" r="7.1"/>
			<circle style="fill:#FFFFFF;" cx="166" cy="523.2" r="5.1"/>
			<circle style="fill:#FFFFFF;" cx="171.2" cy="538.8" r="4"/>
			
				<linearGradient id="SVGID_5_" gradientUnits="userSpaceOnUse" x1="171.8421" y1="1026.9298" x2="171.8421" y2="993.4437" gradientTransform="matrix(1 0 0 -1 0 1487.848)">
				<stop  offset="0" style="stop-color:#EB6185"/>
				<stop  offset="1" style="stop-color:#E23E7A"/>
			</linearGradient>
			<circle style="fill:url(#SVGID_5_);" cx="171.8" cy="467.9" r="8.3"/>
			<circle style="fill:#051E5B;" cx="146.5" cy="490.9" r="3.8"/>
			<circle style="fill:#051E5B;" cx="131.2" cy="543.8" r="3.9"/>
			<path style="fill:#051E5B;" d="M139.7,559.2c-0.7,0.6-1.4,1.4-1.8,2.2c-0.6,1.3-0.8,2.7-0.5,4.1c0.5,2.5,2.2,6.4,7.7,5.5
				c3.9-0.7,5-3.7,5.1-6.4c0.1-2.8-1.6-5.4-4.2-6.4l0,0C144,557.4,141.5,557.8,139.7,559.2z"/>
			<path style="fill:#FFFFFF;" d="M185.1,527.9c-0.4,1.4-1.8,2.2-3.1,1.8c-0.1,0-0.2-0.1-0.3-0.1c-1.2-0.5-1.8-2.3-1.4-3.9
				s1.7-2.5,2.9-1.9C184.3,524.4,185.5,526.3,185.1,527.9z"/>
			<path style="fill:#051E5B;" d="M168,506.4c0.7-0.3,1.4-0.6,2-0.9c2.1-1.2,4.5-1.9,7-1.8c-1-2-1.6-4.1-1.8-6.3
				c-0.7-6.2,0-16.1,0-16.1s0-4.6,2.9-7.8h0c-2.2,2.5-5.7,3.4-8.9,2.3c0.7,1.1,1.7,3.3,1.7,7.4v16.8
				C170.8,499.9,171,503.7,168,506.4z"/>
			
				<linearGradient id="SVGID_6_" gradientUnits="userSpaceOnUse" x1="209.2202" y1="989.6191" x2="209.8302" y2="918.293" gradientTransform="matrix(1 0 0 -1 0 1487.848)">
				<stop  offset="0" style="stop-color:#EB6185"/>
				<stop  offset="1" style="stop-color:#E23E7A"/>
			</linearGradient>
			<path style="fill:url(#SVGID_6_);" d="M219.4,505.4c-1.2-2.2-4.4-3.9-6.9-3.6c-0.4,0-0.9,0.1-1.3,0.2c-1.5,0.4-2.7,1.4-3.6,2.7
				c0,0-3.4,4.7-7.9,7.2c-1.2,0.6-1.6,2.1-1,3.2c0.1,0.2,0.2,0.4,0.4,0.5c0,0,0,0,0.1,0.1c0.8,0.7,1.9,0.8,2.8,0.3
				c1.6-0.9,4.7-2.2,7.9-0.7c0.1,0.1,0.3,0.2,0.4,0.2l0,0v0c2.9,1.4,5.5,0.1,7.4-1.5C220.3,511.9,221,508.3,219.4,505.4z"/>
			<path style="fill:#051E5B;" d="M158.4,545.6c-2.2,0.1-4.3-0.4-6.2-1.4c-0.2,1.8-0.7,3.6-1.5,5.2c-1.4,3.1-3.1,5.9-5.2,8.6
				c0.2,0.1,0.4,0.1,0.6,0.2c1.1,0.4,2.1,1.2,2.9,2.2c1.4-3.6,4.9-10.4,11.8-11.2C159.7,548.2,158.9,547,158.4,545.6z"/>
			<path style="fill:#051E5B;" d="M150.3,519c-0.1-2.8,0.8-5.5,2.7-7.6c-1.9,0.2-4.6,0-8.2-1.4c-4.7-1.8-7.4-3.9-8.9-5.6
				c0,1.7-0.7,3.4-2,4.5c1.7,0.3,4.8,1.3,8.9,4.4c3.9,2.9,6.1,6.9,7.2,9.6c0.3-1.3,0.5-2.6,0.4-3.9
				C150.3,519.1,150.3,519.1,150.3,519z"/>
			
				<linearGradient id="SVGID_7_" gradientUnits="userSpaceOnUse" x1="197.1766" y1="1038.9777" x2="197.1766" y2="984.4307" gradientTransform="matrix(1 0 0 -1 0 1487.848)">
				<stop  offset="0" style="stop-color:#EB6185"/>
				<stop  offset="1" style="stop-color:#E23E7A"/>
			</linearGradient>
			<path style="fill:url(#SVGID_7_);" d="M194.8,484c-0.4,0.4-0.8,0.8-1.1,1.3c-0.4,0.7-0.5,1.6-0.3,2.4c0.3,1.4,1.3,3.7,4.6,3.2
				c2.3-0.4,2.9-2.1,3-3.7c0.1-1.6-0.9-3.1-2.5-3.7l0,0C197.3,483,195.9,483.2,194.8,484z"/>
			<path style="fill:#051E5B;" d="M191,559c-1.9-2.1-4.6-5.8-5.1-9.5c-0.3-2-0.1-4,0.5-5.9c-1.4,0.4-2.9,0.7-4.4,0.8
				c-0.5,2.3-1.6,4.4-3.3,6.1c2.7,0.6,5,2.3,6.4,4.6c1.1,1.8,2.1,3.7,3,5.6C188.9,559.8,189.9,559.3,191,559z"/>
			<path style="fill:#051E5B;" d="M157.3,547.2c1.2,2.3,4.9,7.6,13.5,7.6c7.8,0,11.4-5.3,12.5-9c5.6-0.6,14.6-4.2,15.4-14.5
				c0.1-0.6,0.6-6.7-4.4-11.3c-2.3-2.1-3.9-4.9-4.5-7.9c-0.1-0.4-0.1-0.9-0.2-1.3c-0.3-3-2.2-5.7-4.9-7c-3.7-1.8-9.4-3.2-15.5,0.2
				c-1.6,0.9-3.3,1.4-5.2,1.5c-3.1,0.1-6.1,0.8-8.9,2.3c-4.2,2.2-6.8,6.6-6.6,11.4l0,0.2c0.1,2.1-0.4,4.2-1.4,6
				c-1.5,2.7-3.1,6.8-2,11.6C145.8,540.4,149,546.9,157.3,547.2z M150.1,526.8c1.3-2.3,2-5,1.8-7.7l0-0.1c-0.2-3.5,1.7-6.8,4.8-8.4
				c2.3-1.2,4.9-1.8,7.4-1.9c2.3-0.1,4.6-0.7,6.7-1.9c4.8-2.7,9.5-1.6,12.5-0.1c1.8,0.8,2.9,2.5,3.1,4.5c0.1,0.5,0.1,1,0.2,1.5
				c0.7,3.8,2.6,7.2,5.5,9.7c2.4,2.2,3.6,5.4,3.4,8.6c0,0,0,0,0,0.1c-0.8,11-13,11.6-13.5,11.7c-0.8,0-1.4,0.6-1.5,1.3
				c-0.1,0.3-1.4,7.6-9.6,7.6c-8.4,0-10.9-6.3-11-6.6c-0.2-0.6-0.8-1.1-1.5-1.1h0c-0.1,0-0.2,0-0.2,0c-8.4,0-9.6-7.4-9.7-7.7
				c0,0,0-0.1,0-0.1C147.5,532.4,148.8,529,150.1,526.8L150.1,526.8z"/>
			<path style="fill:#051E5B;" d="M141.4,460.1c-4.3,0-7.9,3.5-7.9,7.9c0,4.3,3.5,7.9,7.9,7.9s7.9-3.5,7.9-7.9c0,0,0,0,0,0
				C149.3,463.6,145.7,460.1,141.4,460.1z M141.4,472.6c-2.6,0-4.7-2.1-4.7-4.7s2.1-4.7,4.7-4.7s4.7,2.1,4.7,4.7l0,0
				C146.1,470.5,144,472.6,141.4,472.6z"/>
			<path style="fill:#051E5B;" d="M137.4,504.4c0-4.4-3.6-8-8-8c-4.4,0-8,3.6-8,8c0,4.4,3.6,8,8,8c0,0,0,0,0,0
				C133.8,512.4,137.4,508.8,137.4,504.4z M124.6,504.4c0-2.7,2.2-4.8,4.8-4.8c2.7,0,4.8,2.2,4.8,4.8c0,2.7-2.2,4.8-4.8,4.8
				c0,0,0,0,0,0C126.8,509.2,124.6,507.1,124.6,504.4z"/>
			<path style="fill:#051E5B;" d="M192.8,574c4.7,0,8.4-3.8,8.4-8.4s-3.8-8.4-8.4-8.4s-8.4,3.8-8.4,8.4l0,0
				C184.4,570.2,188.1,574,192.8,574z M192.8,560.3c2.9,0,5.2,2.3,5.2,5.2c0,2.9-2.3,5.2-5.2,5.2c-2.9,0-5.2-2.3-5.2-5.2l0,0
				C187.6,562.7,189.9,560.3,192.8,560.3z"/>
			<path style="fill:#051E5B;" d="M531,512.4c0,4.8,3.9,8.7,8.7,8.7c4.8,0,8.7-3.9,8.7-8.7c0-4.8-3.9-8.7-8.7-8.7c0,0,0,0,0,0
				C534.9,503.7,531,507.6,531,512.4z M545.3,512.4c0,3.1-2.5,5.5-5.5,5.5s-5.5-2.5-5.5-5.5s2.5-5.5,5.5-5.5c0,0,0,0,0,0
				C542.8,506.9,545.3,509.4,545.3,512.4z"/>
			<path style="fill:#051E5B;" d="M171.8,477.8c5.5,0,9.9-4.4,9.9-9.9c0-5.5-4.4-9.9-9.9-9.9s-9.9,4.4-9.9,9.9l0,0
				C162,473.4,166.4,477.8,171.8,477.8z M171.8,461.3c3.7,0,6.7,3,6.7,6.7c0,3.7-3,6.7-6.7,6.7c-3.7,0-6.7-3-6.7-6.7c0,0,0,0,0,0
				C165.2,464.2,168.2,461.3,171.8,461.3z"/>
			<path style="fill:#051E5B;" d="M209.2,516.8c0.2,0.1,0.3,0.2,0.5,0.2c0.1,0,0.1,0.1,0.2,0.1c3,1.4,6.1,0.7,9.1-1.8
				c3-2.7,3.9-7.1,2-10.6l0,0c-1.5-2.8-5.3-4.8-8.5-4.5c-0.5,0.1-1,0.2-1.5,0.3c-1.8,0.5-3.4,1.7-4.4,3.2c0,0-3.3,4.4-7.4,6.8
				c-1.1,0.6-1.9,1.8-2,3c-0.2,1.2,0.3,2.4,1.2,3.3l0.1,0.1c0.7,0.7,1.7,1,2.6,1c0.7,0,1.4-0.2,2-0.5
				C204.1,516.6,206.6,515.5,209.2,516.8z M200.3,514.5L200.3,514.5c-0.2-0.2-0.3-0.4-0.2-0.6c0-0.3,0.2-0.5,0.4-0.6
				c4.8-2.7,8.3-7.5,8.5-7.7c0.6-1,1.6-1.7,2.7-2c2.5-0.7,5.1,0.4,6.3,2.6l0,0c1.2,2.2,0.7,5-1.2,6.7c-3,2.6-5.3,1.5-6.2,1.1
				c-3.9-2-7.6-0.4-9.4,0.7C200.9,514.8,200.5,514.8,200.3,514.5z"/>
		</g>
		<g>
			<g>
				<path style="fill:none;stroke:#212B59;stroke-width:5.1513;stroke-linecap:round;stroke-miterlimit:10;" d="M225.4,501.4
					c0,0,4-2.4,11.4-5.9"/>
				
					<path style="fill:none;stroke:#212B59;stroke-width:5.1513;stroke-linecap:round;stroke-miterlimit:10;stroke-dasharray:26.2931,26.2931;" d="
					M261,485.4c48.3-17.7,140.3-37.8,243.2,9.7"/>
				<path style="fill:none;stroke:#212B59;stroke-width:5.1513;stroke-linecap:round;stroke-miterlimit:10;" d="M516,500.8
					c3.8,1.9,7.6,3.9,11.4,6.1"/>
			</g>
		</g>
	</g>
	<g>
		<path style="fill:#212B59;" d="M674.9,723.6H87.9c-9.1,0-16.5-7.4-16.5-16.5V292.8c0-9.1,7.4-16.5,16.5-16.5h587.1
			c9.1,0,16.5,7.4,16.5,16.5v414.3C691.4,716.3,684,723.6,674.9,723.6z M668.7,693.5V376.9c0-4.5-3.7-8.2-8.2-8.2H102.3
			c-4.5,0-8.2,3.7-8.2,8.2v316.6c0,4.5,3.7,8.2,8.2,8.2h558.1C665,701.7,668.7,698,668.7,693.5z"/>
		<circle style="fill:#F8AF00;" cx="113.3" cy="325.7" r="11.1"/>
		<circle style="fill:#D31317;" cx="146.6" cy="325.7" r="11.1"/>
		<circle style="fill:#FFFFFF;" cx="179.9" cy="325.7" r="11.1"/>
	</g>
	<g>
		<g>
			
				<linearGradient id="SVGID_8_" gradientUnits="userSpaceOnUse" x1="822.3472" y1="1007.5654" x2="822.9567" y2="936.2393" gradientTransform="matrix(1 0 0 -1 0 1487.848)">
				<stop  offset="0" style="stop-color:#EB6185"/>
				<stop  offset="1" style="stop-color:#E23E7A"/>
			</linearGradient>
			<path style="fill:url(#SVGID_8_);" d="M814.9,488.8c-2.8,0.1-5.6,0.8-8.1,2.1c-3.7,1.9-5.9,5.8-5.7,9.9c0,0,0,0.1,0,0.1
				c0.1,2.4-0.4,4.8-1.6,6.8c-1.4,2.5-2.8,6.2-1.8,10.5c0,0,1.3,9.2,11.5,9.1c0,0,2.8,7.6,12.5,7.6c9.7,0,11.2-8.9,11.2-8.9
				s14.1-0.5,15.1-13.1c0,0,0.7-5.7-3.9-10c-2.6-2.3-4.4-5.4-5-8.8c-0.1-0.4-0.1-0.9-0.2-1.4c-0.3-2.5-1.8-4.7-4-5.8
				c-3.4-1.6-8.6-2.9-14,0.2C819,488.2,817,488.8,814.9,488.8z"/>
			
				<linearGradient id="SVGID_9_" gradientUnits="userSpaceOnUse" x1="792.2435" y1="1034.4357" x2="793.7496" y2="942.5549" gradientTransform="matrix(1 0 0 -1 0 1487.848)">
				<stop  offset="0" style="stop-color:#EB6185"/>
				<stop  offset="1" style="stop-color:#E23E7A"/>
			</linearGradient>
			<circle style="fill:url(#SVGID_9_);" cx="792.2" cy="449.7" r="6.3"/>
			
				<linearGradient id="SVGID_10_" gradientUnits="userSpaceOnUse" x1="780.1573" y1="1007.2051" x2="780.7668" y2="935.879" gradientTransform="matrix(1 0 0 -1 0 1487.848)">
				<stop  offset="0" style="stop-color:#EB6185"/>
				<stop  offset="1" style="stop-color:#E23E7A"/>
			</linearGradient>
			<circle style="fill:url(#SVGID_10_);" cx="780.2" cy="486.2" r="6.4"/>
			
				<linearGradient id="SVGID_11_" gradientUnits="userSpaceOnUse" x1="842.9998" y1="1007.7418" x2="843.6093" y2="936.4158" gradientTransform="matrix(1 0 0 -1 0 1487.848)">
				<stop  offset="0" style="stop-color:#EB6185"/>
				<stop  offset="1" style="stop-color:#E23E7A"/>
			</linearGradient>
			<circle style="fill:url(#SVGID_11_);" cx="843.6" cy="547.3" r="6.8"/>
			<circle style="fill:#FFFFFF;" cx="816.8" cy="505" r="5.1"/>
			<circle style="fill:#FFFFFF;" cx="822" cy="520.5" r="4"/>
			
				<linearGradient id="SVGID_12_" gradientUnits="userSpaceOnUse" x1="822.632" y1="1045.1812" x2="822.632" y2="1011.6949" gradientTransform="matrix(1 0 0 -1 0 1487.848)">
				<stop  offset="0" style="stop-color:#EB6185"/>
				<stop  offset="1" style="stop-color:#E23E7A"/>
			</linearGradient>
			<circle style="fill:url(#SVGID_12_);" cx="822.6" cy="449.7" r="8.3"/>
			<circle style="fill:#051E5B;" cx="797.3" cy="472.6" r="3.8"/>
			<circle style="fill:#051E5B;" cx="782" cy="525.6" r="3.9"/>
			<path style="fill:#051E5B;" d="M790.5,541c-0.7,0.6-1.4,1.4-1.8,2.2c-0.6,1.3-0.8,2.7-0.5,4.1c0.5,2.5,2.2,6.4,7.7,5.5
				c3.9-0.7,5-3.7,5.1-6.4c0.1-2.8-1.6-5.4-4.2-6.4l0,0C794.7,539.2,792.3,539.5,790.5,541z"/>
			<path style="fill:#FFFFFF;" d="M835.8,509.7c-0.4,1.4-1.8,2.2-3.1,1.8c-0.1,0-0.2-0.1-0.3-0.1c-1.2-0.5-1.8-2.3-1.4-3.9
				c0.4-1.6,1.7-2.5,2.9-1.9S836.2,508.1,835.8,509.7z"/>
			<path style="fill:#051E5B;" d="M818.8,488.1c0.7-0.3,1.4-0.6,2-0.9c2.1-1.2,4.5-1.9,7-1.8c-1-2-1.6-4.1-1.8-6.3
				c-0.7-6.2,0-16.1,0-16.1s0-4.6,2.9-7.8h0c-2.2,2.5-5.7,3.4-8.9,2.3c0.7,1.1,1.7,3.3,1.7,7.4v16.8
				C821.6,481.7,821.8,485.5,818.8,488.1z"/>
			
				<linearGradient id="SVGID_13_" gradientUnits="userSpaceOnUse" x1="860.0103" y1="1007.8704" x2="860.6202" y2="936.5443" gradientTransform="matrix(1 0 0 -1 0 1487.848)">
				<stop  offset="0" style="stop-color:#EB6185"/>
				<stop  offset="1" style="stop-color:#E23E7A"/>
			</linearGradient>
			<path style="fill:url(#SVGID_13_);" d="M870.2,487.2c-1.2-2.2-4.4-3.9-6.9-3.6c-0.4,0-0.9,0.1-1.3,0.2c-1.5,0.4-2.7,1.4-3.6,2.7
				c0,0-3.4,4.7-7.9,7.2c-1.2,0.6-1.6,2.1-1,3.2c0.1,0.2,0.2,0.4,0.4,0.5c0,0,0,0,0.1,0.1c0.8,0.7,1.9,0.8,2.8,0.3
				c1.6-0.9,4.7-2.2,7.9-0.7c0.1,0.1,0.3,0.2,0.4,0.2l0,0v0c2.9,1.4,5.5,0.1,7.4-1.5C871.1,493.7,871.8,490.1,870.2,487.2z"/>
			<path style="fill:#051E5B;" d="M809.2,527.4c-2.2,0.1-4.3-0.4-6.2-1.4c-0.2,1.8-0.7,3.6-1.5,5.2c-1.4,3.1-3.1,5.9-5.2,8.6
				c0.2,0.1,0.4,0.1,0.6,0.2c1.1,0.4,2.1,1.2,2.9,2.2c1.4-3.6,4.9-10.4,11.8-11.2C810.5,530,809.7,528.7,809.2,527.4z"/>
			<path style="fill:#051E5B;" d="M801.1,500.8c-0.1-2.8,0.8-5.5,2.7-7.6c-1.9,0.2-4.6,0-8.2-1.4c-4.7-1.8-7.4-3.9-8.9-5.6
				c0,1.7-0.7,3.4-2,4.5c1.7,0.3,4.8,1.3,8.9,4.4c3.9,2.9,6.1,6.9,7.2,9.6c0.3-1.3,0.5-2.6,0.4-3.9
				C801.1,500.9,801.1,500.8,801.1,500.8z"/>
			
				<linearGradient id="SVGID_14_" gradientUnits="userSpaceOnUse" x1="847.9666" y1="1057.229" x2="847.9666" y2="1002.6819" gradientTransform="matrix(1 0 0 -1 0 1487.848)">
				<stop  offset="0" style="stop-color:#EB6185"/>
				<stop  offset="1" style="stop-color:#E23E7A"/>
			</linearGradient>
			<path style="fill:url(#SVGID_14_);" d="M845.6,465.8c-0.4,0.4-0.8,0.8-1.1,1.3c-0.4,0.7-0.5,1.6-0.3,2.4c0.3,1.4,1.3,3.7,4.6,3.2
				c2.3-0.4,2.9-2.1,3-3.7c0.1-1.6-0.9-3.1-2.5-3.7l0,0C848.1,464.8,846.6,465,845.6,465.8z"/>
			<path style="fill:#051E5B;" d="M841.8,540.7c-1.9-2.1-4.6-5.8-5.1-9.5c-0.3-2-0.1-4,0.5-5.9c-1.4,0.4-2.9,0.7-4.4,0.8
				c-0.5,2.3-1.6,4.4-3.3,6.1c2.7,0.6,5,2.3,6.4,4.6c1.1,1.8,2.1,3.7,3,5.6C839.7,541.6,840.7,541,841.8,540.7z"/>
			<path style="fill:#051E5B;" d="M808.1,529c1.2,2.3,4.9,7.6,13.5,7.6c7.8,0,11.4-5.3,12.5-9c5.6-0.6,14.6-4.2,15.4-14.5
				c0.1-0.6,0.6-6.7-4.4-11.3c-2.3-2.1-3.9-4.9-4.5-7.9c-0.1-0.4-0.1-0.9-0.2-1.3c-0.3-3-2.2-5.7-4.9-7c-3.7-1.8-9.4-3.2-15.5,0.2
				c-1.6,0.9-3.3,1.4-5.2,1.5c-3.1,0.1-6.1,0.8-8.9,2.3c-4.2,2.2-6.8,6.6-6.6,11.4l0,0.2c0.1,2.1-0.4,4.2-1.4,6
				c-1.5,2.7-3.1,6.8-2,11.6C796.6,522.2,799.8,528.6,808.1,529z M800.8,508.6c1.3-2.3,2-5,1.8-7.7l0-0.1c-0.2-3.5,1.7-6.8,4.8-8.4
				c2.3-1.2,4.9-1.8,7.4-1.9c2.3-0.1,4.6-0.7,6.7-1.9c4.8-2.7,9.5-1.6,12.5-0.1c1.8,0.8,2.9,2.5,3.1,4.5c0.1,0.5,0.1,1,0.2,1.5
				c0.7,3.8,2.6,7.2,5.5,9.7c2.4,2.2,3.6,5.4,3.4,8.6c0,0,0,0,0,0.1c-0.8,11-13,11.6-13.5,11.7c-0.8,0-1.4,0.6-1.5,1.3
				c-0.1,0.3-1.4,7.6-9.6,7.6c-8.4,0-10.9-6.3-11-6.6c-0.2-0.6-0.8-1.1-1.5-1.1h0c-0.1,0-0.2,0-0.2,0c-8.4,0-9.6-7.4-9.7-7.7
				c0,0,0-0.1,0-0.1C798.3,514.1,799.6,510.7,800.8,508.6L800.8,508.6z"/>
			<path style="fill:#051E5B;" d="M792.2,441.8c-4.3,0-7.9,3.5-7.9,7.9s3.5,7.9,7.9,7.9s7.9-3.5,7.9-7.9c0,0,0,0,0,0
				C800,445.3,796.5,441.8,792.2,441.8z M792.2,454.3c-2.6,0-4.7-2.1-4.7-4.7s2.1-4.7,4.7-4.7c2.6,0,4.7,2.1,4.7,4.7l0,0
				C796.8,452.2,794.8,454.3,792.2,454.3z"/>
			<path style="fill:#051E5B;" d="M788.2,486.2c0-4.4-3.6-8-8-8c-4.4,0-8,3.6-8,8c0,4.4,3.6,8,8,8c0,0,0,0,0,0
				C784.6,494.2,788.2,490.6,788.2,486.2z M775.4,486.2c0-2.7,2.2-4.8,4.8-4.8s4.8,2.2,4.8,4.8c0,2.7-2.2,4.8-4.8,4.8c0,0,0,0,0,0
				C777.6,491,775.4,488.8,775.4,486.2z"/>
			<path style="fill:#051E5B;" d="M843.6,555.7c4.7,0,8.4-3.8,8.4-8.4s-3.8-8.4-8.4-8.4s-8.4,3.8-8.4,8.4l0,0
				C835.2,552,838.9,555.7,843.6,555.7z M843.6,542.1c2.9,0,5.2,2.3,5.2,5.2c0,2.9-2.3,5.2-5.2,5.2c-2.9,0-5.2-2.3-5.2-5.2l0,0
				C838.4,544.4,840.7,542.1,843.6,542.1z"/>
			<path style="fill:#051E5B;" d="M822.6,459.5c5.5,0,9.9-4.4,9.9-9.9c0-5.5-4.4-9.9-9.9-9.9c-5.5,0-9.9,4.4-9.9,9.9l0,0
				C812.8,455.1,817.2,459.5,822.6,459.5z M822.6,443c3.7,0,6.7,3,6.7,6.7s-3,6.7-6.7,6.7c-3.7,0-6.7-3-6.7-6.7c0,0,0,0,0,0
				C816,446,819,443,822.6,443z"/>
			<path style="fill:#051E5B;" d="M860,498.5c0.2,0.1,0.3,0.2,0.5,0.2c0.1,0,0.1,0.1,0.2,0.1c3,1.4,6.1,0.7,9.1-1.8
				c3-2.7,3.9-7.1,2-10.6l0,0c-1.5-2.8-5.3-4.8-8.5-4.5c-0.5,0.1-1,0.2-1.5,0.3c-1.8,0.5-3.4,1.7-4.4,3.2c0,0-3.3,4.4-7.4,6.8
				c-1.1,0.6-1.9,1.8-2,3c-0.2,1.2,0.3,2.4,1.2,3.3l0.1,0.1c0.7,0.7,1.7,1,2.6,1c0.7,0,1.4-0.2,2-0.5
				C854.9,498.4,857.4,497.3,860,498.5z M851,496.3L851,496.3c-0.2-0.2-0.3-0.4-0.2-0.6c0-0.3,0.2-0.5,0.4-0.6
				c4.8-2.7,8.3-7.5,8.5-7.7c0.6-1,1.6-1.7,2.7-2c2.5-0.7,5.1,0.4,6.3,2.6l0,0c1.2,2.2,0.7,5-1.2,6.7c-3,2.6-5.3,1.5-6.2,1.1
				c-3.9-2-7.6-0.4-9.4,0.7C851.7,496.5,851.3,496.5,851,496.3z"/>
		</g>
	</g>
	<g>
		<path style="fill:#212B59;" d="M913.7,295.7H731.1c-8.2,0-14.9,6.7-14.9,14.9V685c0,8.2,6.7,14.9,14.9,14.9h182.6
			c8.2,0,14.9-6.7,14.9-14.9V310.5C928.6,302.3,921.9,295.7,913.7,295.7z M908.1,322.9V609c0,4.1-3.3,7.4-7.4,7.4H744.2
			c-4.1,0-7.4-3.3-7.4-7.4V322.9c0-4.1,3.3-7.4,7.4-7.4h156.5C904.7,315.5,908.1,318.8,908.1,322.9z"/>
		<circle style="fill:#FFFFFF;" cx="822.4" cy="657" r="18"/>
	</g>
</g>
</svg>
